<?xml version="1.0" encoding="UTF-8" standalone="no"?>
<!DOCTYPE svg PUBLIC "-//W3C//DTD SVG 1.1//EN"
 "http://www.w3.org/Graphics/SVG/1.1/DTD/svg11.dtd">
<!-- Generated by graphviz version 2.43.0 (0)
 -->
<!-- Title: Tree Pages: 1 -->
<svg width="1090pt" height="1101pt"
 viewBox="0.00 0.00 1089.50 1101.00" xmlns="http://www.w3.org/2000/svg" xmlns:xlink="http://www.w3.org/1999/xlink">
<g id="graph0" class="graph" transform="scale(1 1) rotate(0) translate(4 1097)">
<title>Tree</title>
<polygon fill="white" stroke="transparent" points="-4,4 -4,-1097 1085.5,-1097 1085.5,4 -4,4"/>
<!-- 0 -->
<g id="node1" class="node">
<title>0</title>
<polygon fill="none" stroke="black" points="685.5,-1093 575.5,-1093 575.5,-1025 685.5,-1025 685.5,-1093"/>
<text text-anchor="middle" x="630.5" y="-1077.8" font-family="Helvetica,sans-Serif" font-size="14.00">x[0] &lt;= 8.692</text>
<text text-anchor="middle" x="630.5" y="-1062.8" font-family="Helvetica,sans-Serif" font-size="14.00">gini = 0.491</text>
<text text-anchor="middle" x="630.5" y="-1047.8" font-family="Helvetica,sans-Serif" font-size="14.00">samples = 81</text>
<text text-anchor="middle" x="630.5" y="-1032.8" font-family="Helvetica,sans-Serif" font-size="14.00">value = [35, 46]</text>
</g>
<!-- 1 -->
<g id="node2" class="node">
<title>1</title>
<polygon fill="none" stroke="black" points="622.5,-989 512.5,-989 512.5,-921 622.5,-921 622.5,-989"/>
<text text-anchor="middle" x="567.5" y="-973.8" font-family="Helvetica,sans-Serif" font-size="14.00">x[1] &lt;= 7.933</text>
<text text-anchor="middle" x="567.5" y="-958.8" font-family="Helvetica,sans-Serif" font-size="14.00">gini = 0.495</text>
<text text-anchor="middle" x="567.5" y="-943.8" font-family="Helvetica,sans-Serif" font-size="14.00">samples = 51</text>
<text text-anchor="middle" x="567.5" y="-928.8" font-family="Helvetica,sans-Serif" font-size="14.00">value = [28, 23]</text>
</g>
<!-- 0&#45;&gt;1 -->
<g id="edge1" class="edge">
<title>0&#45;&gt;1</title>
<path fill="none" stroke="black" d="M610.05,-1024.88C604.76,-1016.33 599.01,-1007.01 593.49,-998.07"/>
<polygon fill="black" stroke="black" points="596.3,-995.97 588.07,-989.3 590.34,-999.65 596.3,-995.97"/>
<text text-anchor="middle" x="582.32" y="-1009.93" font-family="Helvetica,sans-Serif" font-size="14.00">True</text>
</g>
<!-- 32 -->
<g id="node33" class="node">
<title>32</title>
<polygon fill="none" stroke="black" points="796.5,-989 688.5,-989 688.5,-921 796.5,-921 796.5,-989"/>
<text text-anchor="middle" x="742.5" y="-973.8" font-family="Helvetica,sans-Serif" font-size="14.00">x[6] &lt;= &#45;34.049</text>
<text text-anchor="middle" x="742.5" y="-958.8" font-family="Helvetica,sans-Serif" font-size="14.00">gini = 0.358</text>
<text text-anchor="middle" x="742.5" y="-943.8" font-family="Helvetica,sans-Serif" font-size="14.00">samples = 30</text>
<text text-anchor="middle" x="742.5" y="-928.8" font-family="Helvetica,sans-Serif" font-size="14.00">value = [7, 23]</text>
</g>
<!-- 0&#45;&gt;32 -->
<g id="edge32" class="edge">
<title>0&#45;&gt;32</title>
<path fill="none" stroke="black" d="M666.86,-1024.88C676.94,-1015.71 687.98,-1005.65 698.44,-996.12"/>
<polygon fill="black" stroke="black" points="700.9,-998.62 705.94,-989.3 696.19,-993.44 700.9,-998.62"/>
<text text-anchor="middle" x="704.77" y="-1010.57" font-family="Helvetica,sans-Serif" font-size="14.00">False</text>
</g>
<!-- 2 -->
<g id="node3" class="node">
<title>2</title>
<polygon fill="none" stroke="black" points="494,-877.5 399,-877.5 399,-824.5 494,-824.5 494,-877.5"/>
<text text-anchor="middle" x="446.5" y="-862.3" font-family="Helvetica,sans-Serif" font-size="14.00">gini = 0.0</text>
<text text-anchor="middle" x="446.5" y="-847.3" font-family="Helvetica,sans-Serif" font-size="14.00">samples = 5</text>
<text text-anchor="middle" x="446.5" y="-832.3" font-family="Helvetica,sans-Serif" font-size="14.00">value = [5, 0]</text>
</g>
<!-- 1&#45;&gt;2 -->
<g id="edge2" class="edge">
<title>1&#45;&gt;2</title>
<path fill="none" stroke="black" d="M528.21,-920.88C514.26,-909.12 498.57,-895.89 484.7,-884.2"/>
<polygon fill="black" stroke="black" points="486.68,-881.29 476.77,-877.52 482.16,-886.64 486.68,-881.29"/>
</g>
<!-- 3 -->
<g id="node4" class="node">
<title>3</title>
<polygon fill="none" stroke="black" points="622.5,-885 512.5,-885 512.5,-817 622.5,-817 622.5,-885"/>
<text text-anchor="middle" x="567.5" y="-869.8" font-family="Helvetica,sans-Serif" font-size="14.00">x[4] &lt;= &#45;8.772</text>
<text text-anchor="middle" x="567.5" y="-854.8" font-family="Helvetica,sans-Serif" font-size="14.00">gini = 0.5</text>
<text text-anchor="middle" x="567.5" y="-839.8" font-family="Helvetica,sans-Serif" font-size="14.00">samples = 46</text>
<text text-anchor="middle" x="567.5" y="-824.8" font-family="Helvetica,sans-Serif" font-size="14.00">value = [23, 23]</text>
</g>
<!-- 1&#45;&gt;3 -->
<g id="edge3" class="edge">
<title>1&#45;&gt;3</title>
<path fill="none" stroke="black" d="M567.5,-920.88C567.5,-912.78 567.5,-903.98 567.5,-895.47"/>
<polygon fill="black" stroke="black" points="571,-895.3 567.5,-885.3 564,-895.3 571,-895.3"/>
</g>
<!-- 4 -->
<g id="node5" class="node">
<title>4</title>
<polygon fill="none" stroke="black" points="388.5,-781 278.5,-781 278.5,-713 388.5,-713 388.5,-781"/>
<text text-anchor="middle" x="333.5" y="-765.8" font-family="Helvetica,sans-Serif" font-size="14.00">x[0] &lt;= 2.704</text>
<text text-anchor="middle" x="333.5" y="-750.8" font-family="Helvetica,sans-Serif" font-size="14.00">gini = 0.482</text>
<text text-anchor="middle" x="333.5" y="-735.8" font-family="Helvetica,sans-Serif" font-size="14.00">samples = 32</text>
<text text-anchor="middle" x="333.5" y="-720.8" font-family="Helvetica,sans-Serif" font-size="14.00">value = [19, 13]</text>
</g>
<!-- 3&#45;&gt;4 -->
<g id="edge4" class="edge">
<title>3&#45;&gt;4</title>
<path fill="none" stroke="black" d="M512.33,-821.6C509.02,-820.02 505.72,-818.47 502.5,-817 468.54,-801.48 430.05,-785.63 398.38,-773.04"/>
<polygon fill="black" stroke="black" points="399.37,-769.67 388.79,-769.25 396.8,-776.18 399.37,-769.67"/>
</g>
<!-- 21 -->
<g id="node22" class="node">
<title>21</title>
<polygon fill="none" stroke="black" points="618.5,-781 516.5,-781 516.5,-713 618.5,-713 618.5,-781"/>
<text text-anchor="middle" x="567.5" y="-765.8" font-family="Helvetica,sans-Serif" font-size="14.00">x[0] &lt;= 3.354</text>
<text text-anchor="middle" x="567.5" y="-750.8" font-family="Helvetica,sans-Serif" font-size="14.00">gini = 0.408</text>
<text text-anchor="middle" x="567.5" y="-735.8" font-family="Helvetica,sans-Serif" font-size="14.00">samples = 14</text>
<text text-anchor="middle" x="567.5" y="-720.8" font-family="Helvetica,sans-Serif" font-size="14.00">value = [4, 10]</text>
</g>
<!-- 3&#45;&gt;21 -->
<g id="edge21" class="edge">
<title>3&#45;&gt;21</title>
<path fill="none" stroke="black" d="M567.5,-816.88C567.5,-808.78 567.5,-799.98 567.5,-791.47"/>
<polygon fill="black" stroke="black" points="571,-791.3 567.5,-781.3 564,-791.3 571,-791.3"/>
</g>
<!-- 5 -->
<g id="node6" class="node">
<title>5</title>
<polygon fill="none" stroke="black" points="260,-669.5 165,-669.5 165,-616.5 260,-616.5 260,-669.5"/>
<text text-anchor="middle" x="212.5" y="-654.3" font-family="Helvetica,sans-Serif" font-size="14.00">gini = 0.0</text>
<text text-anchor="middle" x="212.5" y="-639.3" font-family="Helvetica,sans-Serif" font-size="14.00">samples = 2</text>
<text text-anchor="middle" x="212.5" y="-624.3" font-family="Helvetica,sans-Serif" font-size="14.00">value = [0, 2]</text>
</g>
<!-- 4&#45;&gt;5 -->
<g id="edge5" class="edge">
<title>4&#45;&gt;5</title>
<path fill="none" stroke="black" d="M294.21,-712.88C280.26,-701.12 264.57,-687.89 250.7,-676.2"/>
<polygon fill="black" stroke="black" points="252.68,-673.29 242.77,-669.52 248.16,-678.64 252.68,-673.29"/>
</g>
<!-- 6 -->
<g id="node7" class="node">
<title>6</title>
<polygon fill="none" stroke="black" points="388.5,-677 278.5,-677 278.5,-609 388.5,-609 388.5,-677"/>
<text text-anchor="middle" x="333.5" y="-661.8" font-family="Helvetica,sans-Serif" font-size="14.00">x[1] &lt;= 17.499</text>
<text text-anchor="middle" x="333.5" y="-646.8" font-family="Helvetica,sans-Serif" font-size="14.00">gini = 0.464</text>
<text text-anchor="middle" x="333.5" y="-631.8" font-family="Helvetica,sans-Serif" font-size="14.00">samples = 30</text>
<text text-anchor="middle" x="333.5" y="-616.8" font-family="Helvetica,sans-Serif" font-size="14.00">value = [19, 11]</text>
</g>
<!-- 4&#45;&gt;6 -->
<g id="edge6" class="edge">
<title>4&#45;&gt;6</title>
<path fill="none" stroke="black" d="M333.5,-712.88C333.5,-704.78 333.5,-695.98 333.5,-687.47"/>
<polygon fill="black" stroke="black" points="337,-687.3 333.5,-677.3 330,-687.3 337,-687.3"/>
</g>
<!-- 7 -->
<g id="node8" class="node">
<title>7</title>
<polygon fill="none" stroke="black" points="260,-565.5 165,-565.5 165,-512.5 260,-512.5 260,-565.5"/>
<text text-anchor="middle" x="212.5" y="-550.3" font-family="Helvetica,sans-Serif" font-size="14.00">gini = 0.0</text>
<text text-anchor="middle" x="212.5" y="-535.3" font-family="Helvetica,sans-Serif" font-size="14.00">samples = 5</text>
<text text-anchor="middle" x="212.5" y="-520.3" font-family="Helvetica,sans-Serif" font-size="14.00">value = [5, 0]</text>
</g>
<!-- 6&#45;&gt;7 -->
<g id="edge7" class="edge">
<title>6&#45;&gt;7</title>
<path fill="none" stroke="black" d="M294.21,-608.88C280.26,-597.12 264.57,-583.89 250.7,-572.2"/>
<polygon fill="black" stroke="black" points="252.68,-569.29 242.77,-565.52 248.16,-574.64 252.68,-569.29"/>
</g>
<!-- 8 -->
<g id="node9" class="node">
<title>8</title>
<polygon fill="none" stroke="black" points="388.5,-573 278.5,-573 278.5,-505 388.5,-505 388.5,-573"/>
<text text-anchor="middle" x="333.5" y="-557.8" font-family="Helvetica,sans-Serif" font-size="14.00">x[2] &lt;= 9.104</text>
<text text-anchor="middle" x="333.5" y="-542.8" font-family="Helvetica,sans-Serif" font-size="14.00">gini = 0.493</text>
<text text-anchor="middle" x="333.5" y="-527.8" font-family="Helvetica,sans-Serif" font-size="14.00">samples = 25</text>
<text text-anchor="middle" x="333.5" y="-512.8" font-family="Helvetica,sans-Serif" font-size="14.00">value = [14, 11]</text>
</g>
<!-- 6&#45;&gt;8 -->
<g id="edge8" class="edge">
<title>6&#45;&gt;8</title>
<path fill="none" stroke="black" d="M333.5,-608.88C333.5,-600.78 333.5,-591.98 333.5,-583.47"/>
<polygon fill="black" stroke="black" points="337,-583.3 333.5,-573.3 330,-583.3 337,-583.3"/>
</g>
<!-- 9 -->
<g id="node10" class="node">
<title>9</title>
<polygon fill="none" stroke="black" points="267.5,-469 163.5,-469 163.5,-401 267.5,-401 267.5,-469"/>
<text text-anchor="middle" x="215.5" y="-453.8" font-family="Helvetica,sans-Serif" font-size="14.00">x[1] &lt;= 19.045</text>
<text text-anchor="middle" x="215.5" y="-438.8" font-family="Helvetica,sans-Serif" font-size="14.00">gini = 0.375</text>
<text text-anchor="middle" x="215.5" y="-423.8" font-family="Helvetica,sans-Serif" font-size="14.00">samples = 16</text>
<text text-anchor="middle" x="215.5" y="-408.8" font-family="Helvetica,sans-Serif" font-size="14.00">value = [12, 4]</text>
</g>
<!-- 8&#45;&gt;9 -->
<g id="edge9" class="edge">
<title>8&#45;&gt;9</title>
<path fill="none" stroke="black" d="M295.19,-504.88C284.47,-495.62 272.71,-485.45 261.6,-475.85"/>
<polygon fill="black" stroke="black" points="263.88,-473.19 254.02,-469.3 259.3,-478.49 263.88,-473.19"/>
</g>
<!-- 18 -->
<g id="node19" class="node">
<title>18</title>
<polygon fill="none" stroke="black" points="389.5,-469 285.5,-469 285.5,-401 389.5,-401 389.5,-469"/>
<text text-anchor="middle" x="337.5" y="-453.8" font-family="Helvetica,sans-Serif" font-size="14.00">x[5] &lt;= 13.097</text>
<text text-anchor="middle" x="337.5" y="-438.8" font-family="Helvetica,sans-Serif" font-size="14.00">gini = 0.346</text>
<text text-anchor="middle" x="337.5" y="-423.8" font-family="Helvetica,sans-Serif" font-size="14.00">samples = 9</text>
<text text-anchor="middle" x="337.5" y="-408.8" font-family="Helvetica,sans-Serif" font-size="14.00">value = [2, 7]</text>
</g>
<!-- 8&#45;&gt;18 -->
<g id="edge18" class="edge">
<title>8&#45;&gt;18</title>
<path fill="none" stroke="black" d="M334.8,-504.88C335.12,-496.78 335.46,-487.98 335.8,-479.47"/>
<polygon fill="black" stroke="black" points="339.3,-479.43 336.19,-469.3 332.3,-479.15 339.3,-479.43"/>
</g>
<!-- 10 -->
<g id="node11" class="node">
<title>10</title>
<polygon fill="none" stroke="black" points="148,-357.5 53,-357.5 53,-304.5 148,-304.5 148,-357.5"/>
<text text-anchor="middle" x="100.5" y="-342.3" font-family="Helvetica,sans-Serif" font-size="14.00">gini = 0.0</text>
<text text-anchor="middle" x="100.5" y="-327.3" font-family="Helvetica,sans-Serif" font-size="14.00">samples = 1</text>
<text text-anchor="middle" x="100.5" y="-312.3" font-family="Helvetica,sans-Serif" font-size="14.00">value = [0, 1]</text>
</g>
<!-- 9&#45;&gt;10 -->
<g id="edge10" class="edge">
<title>9&#45;&gt;10</title>
<path fill="none" stroke="black" d="M178.16,-400.88C164.9,-389.12 149.99,-375.89 136.81,-364.2"/>
<polygon fill="black" stroke="black" points="139.08,-361.54 129.27,-357.52 134.43,-366.77 139.08,-361.54"/>
</g>
<!-- 11 -->
<g id="node12" class="node">
<title>11</title>
<polygon fill="none" stroke="black" points="268.5,-365 166.5,-365 166.5,-297 268.5,-297 268.5,-365"/>
<text text-anchor="middle" x="217.5" y="-349.8" font-family="Helvetica,sans-Serif" font-size="14.00">x[2] &lt;= 6.721</text>
<text text-anchor="middle" x="217.5" y="-334.8" font-family="Helvetica,sans-Serif" font-size="14.00">gini = 0.32</text>
<text text-anchor="middle" x="217.5" y="-319.8" font-family="Helvetica,sans-Serif" font-size="14.00">samples = 15</text>
<text text-anchor="middle" x="217.5" y="-304.8" font-family="Helvetica,sans-Serif" font-size="14.00">value = [12, 3]</text>
</g>
<!-- 9&#45;&gt;11 -->
<g id="edge11" class="edge">
<title>9&#45;&gt;11</title>
<path fill="none" stroke="black" d="M216.15,-400.88C216.31,-392.78 216.48,-383.98 216.65,-375.47"/>
<polygon fill="black" stroke="black" points="220.15,-375.37 216.85,-365.3 213.15,-375.23 220.15,-375.37"/>
</g>
<!-- 12 -->
<g id="node13" class="node">
<title>12</title>
<polygon fill="none" stroke="black" points="208.5,-261 112.5,-261 112.5,-193 208.5,-193 208.5,-261"/>
<text text-anchor="middle" x="160.5" y="-245.8" font-family="Helvetica,sans-Serif" font-size="14.00">x[0] &lt;= 6.722</text>
<text text-anchor="middle" x="160.5" y="-230.8" font-family="Helvetica,sans-Serif" font-size="14.00">gini = 0.444</text>
<text text-anchor="middle" x="160.5" y="-215.8" font-family="Helvetica,sans-Serif" font-size="14.00">samples = 9</text>
<text text-anchor="middle" x="160.5" y="-200.8" font-family="Helvetica,sans-Serif" font-size="14.00">value = [6, 3]</text>
</g>
<!-- 11&#45;&gt;12 -->
<g id="edge12" class="edge">
<title>11&#45;&gt;12</title>
<path fill="none" stroke="black" d="M198.99,-296.88C194.22,-288.33 189.01,-279.01 184.01,-270.07"/>
<polygon fill="black" stroke="black" points="187.04,-268.32 179.11,-261.3 180.93,-271.74 187.04,-268.32"/>
</g>
<!-- 17 -->
<g id="node18" class="node">
<title>17</title>
<polygon fill="none" stroke="black" points="322,-253.5 227,-253.5 227,-200.5 322,-200.5 322,-253.5"/>
<text text-anchor="middle" x="274.5" y="-238.3" font-family="Helvetica,sans-Serif" font-size="14.00">gini = 0.0</text>
<text text-anchor="middle" x="274.5" y="-223.3" font-family="Helvetica,sans-Serif" font-size="14.00">samples = 6</text>
<text text-anchor="middle" x="274.5" y="-208.3" font-family="Helvetica,sans-Serif" font-size="14.00">value = [6, 0]</text>
</g>
<!-- 11&#45;&gt;17 -->
<g id="edge17" class="edge">
<title>11&#45;&gt;17</title>
<path fill="none" stroke="black" d="M236.01,-296.88C242.15,-285.89 249.01,-273.62 255.21,-262.52"/>
<polygon fill="black" stroke="black" points="258.42,-263.96 260.24,-253.52 252.31,-260.54 258.42,-263.96"/>
</g>
<!-- 13 -->
<g id="node14" class="node">
<title>13</title>
<polygon fill="none" stroke="black" points="151.5,-157 55.5,-157 55.5,-89 151.5,-89 151.5,-157"/>
<text text-anchor="middle" x="103.5" y="-141.8" font-family="Helvetica,sans-Serif" font-size="14.00">x[2] &lt;= 3.264</text>
<text text-anchor="middle" x="103.5" y="-126.8" font-family="Helvetica,sans-Serif" font-size="14.00">gini = 0.5</text>
<text text-anchor="middle" x="103.5" y="-111.8" font-family="Helvetica,sans-Serif" font-size="14.00">samples = 6</text>
<text text-anchor="middle" x="103.5" y="-96.8" font-family="Helvetica,sans-Serif" font-size="14.00">value = [3, 3]</text>
</g>
<!-- 12&#45;&gt;13 -->
<g id="edge13" class="edge">
<title>12&#45;&gt;13</title>
<path fill="none" stroke="black" d="M141.99,-192.88C137.22,-184.33 132.01,-175.01 127.01,-166.07"/>
<polygon fill="black" stroke="black" points="130.04,-164.32 122.11,-157.3 123.93,-167.74 130.04,-164.32"/>
</g>
<!-- 16 -->
<g id="node17" class="node">
<title>16</title>
<polygon fill="none" stroke="black" points="265,-149.5 170,-149.5 170,-96.5 265,-96.5 265,-149.5"/>
<text text-anchor="middle" x="217.5" y="-134.3" font-family="Helvetica,sans-Serif" font-size="14.00">gini = 0.0</text>
<text text-anchor="middle" x="217.5" y="-119.3" font-family="Helvetica,sans-Serif" font-size="14.00">samples = 3</text>
<text text-anchor="middle" x="217.5" y="-104.3" font-family="Helvetica,sans-Serif" font-size="14.00">value = [3, 0]</text>
</g>
<!-- 12&#45;&gt;16 -->
<g id="edge16" class="edge">
<title>12&#45;&gt;16</title>
<path fill="none" stroke="black" d="M179.01,-192.88C185.15,-181.89 192.01,-169.62 198.21,-158.52"/>
<polygon fill="black" stroke="black" points="201.42,-159.96 203.24,-149.52 195.31,-156.54 201.42,-159.96"/>
</g>
<!-- 14 -->
<g id="node15" class="node">
<title>14</title>
<polygon fill="none" stroke="black" points="95,-53 0,-53 0,0 95,0 95,-53"/>
<text text-anchor="middle" x="47.5" y="-37.8" font-family="Helvetica,sans-Serif" font-size="14.00">gini = 0.0</text>
<text text-anchor="middle" x="47.5" y="-22.8" font-family="Helvetica,sans-Serif" font-size="14.00">samples = 3</text>
<text text-anchor="middle" x="47.5" y="-7.8" font-family="Helvetica,sans-Serif" font-size="14.00">value = [3, 0]</text>
</g>
<!-- 13&#45;&gt;14 -->
<g id="edge14" class="edge">
<title>13&#45;&gt;14</title>
<path fill="none" stroke="black" d="M83.91,-88.95C78.76,-80.26 73.2,-70.86 68,-62.09"/>
<polygon fill="black" stroke="black" points="70.86,-60.06 62.75,-53.24 64.84,-63.62 70.86,-60.06"/>
</g>
<!-- 15 -->
<g id="node16" class="node">
<title>15</title>
<polygon fill="none" stroke="black" points="208,-53 113,-53 113,0 208,0 208,-53"/>
<text text-anchor="middle" x="160.5" y="-37.8" font-family="Helvetica,sans-Serif" font-size="14.00">gini = 0.0</text>
<text text-anchor="middle" x="160.5" y="-22.8" font-family="Helvetica,sans-Serif" font-size="14.00">samples = 3</text>
<text text-anchor="middle" x="160.5" y="-7.8" font-family="Helvetica,sans-Serif" font-size="14.00">value = [0, 3]</text>
</g>
<!-- 13&#45;&gt;15 -->
<g id="edge15" class="edge">
<title>13&#45;&gt;15</title>
<path fill="none" stroke="black" d="M123.44,-88.95C128.73,-80.17 134.47,-70.66 139.8,-61.82"/>
<polygon fill="black" stroke="black" points="142.81,-63.61 144.98,-53.24 136.81,-59.99 142.81,-63.61"/>
</g>
<!-- 19 -->
<g id="node20" class="node">
<title>19</title>
<polygon fill="none" stroke="black" points="384,-357.5 289,-357.5 289,-304.5 384,-304.5 384,-357.5"/>
<text text-anchor="middle" x="336.5" y="-342.3" font-family="Helvetica,sans-Serif" font-size="14.00">gini = 0.0</text>
<text text-anchor="middle" x="336.5" y="-327.3" font-family="Helvetica,sans-Serif" font-size="14.00">samples = 7</text>
<text text-anchor="middle" x="336.5" y="-312.3" font-family="Helvetica,sans-Serif" font-size="14.00">value = [0, 7]</text>
</g>
<!-- 18&#45;&gt;19 -->
<g id="edge19" class="edge">
<title>18&#45;&gt;19</title>
<path fill="none" stroke="black" d="M337.18,-400.88C337.07,-390.33 336.96,-378.6 336.85,-367.85"/>
<polygon fill="black" stroke="black" points="340.35,-367.49 336.75,-357.52 333.35,-367.55 340.35,-367.49"/>
</g>
<!-- 20 -->
<g id="node21" class="node">
<title>20</title>
<polygon fill="none" stroke="black" points="497,-357.5 402,-357.5 402,-304.5 497,-304.5 497,-357.5"/>
<text text-anchor="middle" x="449.5" y="-342.3" font-family="Helvetica,sans-Serif" font-size="14.00">gini = 0.0</text>
<text text-anchor="middle" x="449.5" y="-327.3" font-family="Helvetica,sans-Serif" font-size="14.00">samples = 2</text>
<text text-anchor="middle" x="449.5" y="-312.3" font-family="Helvetica,sans-Serif" font-size="14.00">value = [2, 0]</text>
</g>
<!-- 18&#45;&gt;20 -->
<g id="edge20" class="edge">
<title>18&#45;&gt;20</title>
<path fill="none" stroke="black" d="M373.86,-400.88C386.66,-389.23 401.03,-376.14 413.78,-364.53"/>
<polygon fill="black" stroke="black" points="416.44,-366.84 421.48,-357.52 411.73,-361.67 416.44,-366.84"/>
</g>
<!-- 22 -->
<g id="node23" class="node">
<title>22</title>
<polygon fill="none" stroke="black" points="615,-677 520,-677 520,-609 615,-609 615,-677"/>
<text text-anchor="middle" x="567.5" y="-661.8" font-family="Helvetica,sans-Serif" font-size="14.00">x[2] &lt;= 8.26</text>
<text text-anchor="middle" x="567.5" y="-646.8" font-family="Helvetica,sans-Serif" font-size="14.00">gini = 0.444</text>
<text text-anchor="middle" x="567.5" y="-631.8" font-family="Helvetica,sans-Serif" font-size="14.00">samples = 3</text>
<text text-anchor="middle" x="567.5" y="-616.8" font-family="Helvetica,sans-Serif" font-size="14.00">value = [2, 1]</text>
</g>
<!-- 21&#45;&gt;22 -->
<g id="edge22" class="edge">
<title>21&#45;&gt;22</title>
<path fill="none" stroke="black" d="M567.5,-712.88C567.5,-704.78 567.5,-695.98 567.5,-687.47"/>
<polygon fill="black" stroke="black" points="571,-687.3 567.5,-677.3 564,-687.3 571,-687.3"/>
</g>
<!-- 25 -->
<g id="node26" class="node">
<title>25</title>
<polygon fill="none" stroke="black" points="734,-677 633,-677 633,-609 734,-609 734,-677"/>
<text text-anchor="middle" x="683.5" y="-661.8" font-family="Helvetica,sans-Serif" font-size="14.00">x[8] &lt;= &#45;2.975</text>
<text text-anchor="middle" x="683.5" y="-646.8" font-family="Helvetica,sans-Serif" font-size="14.00">gini = 0.298</text>
<text text-anchor="middle" x="683.5" y="-631.8" font-family="Helvetica,sans-Serif" font-size="14.00">samples = 11</text>
<text text-anchor="middle" x="683.5" y="-616.8" font-family="Helvetica,sans-Serif" font-size="14.00">value = [2, 9]</text>
</g>
<!-- 21&#45;&gt;25 -->
<g id="edge25" class="edge">
<title>21&#45;&gt;25</title>
<path fill="none" stroke="black" d="M605.16,-712.88C615.6,-703.71 627.04,-693.65 637.87,-684.12"/>
<polygon fill="black" stroke="black" points="640.43,-686.53 645.63,-677.3 635.81,-681.27 640.43,-686.53"/>
</g>
<!-- 23 -->
<g id="node24" class="node">
<title>23</title>
<polygon fill="none" stroke="black" points="502,-565.5 407,-565.5 407,-512.5 502,-512.5 502,-565.5"/>
<text text-anchor="middle" x="454.5" y="-550.3" font-family="Helvetica,sans-Serif" font-size="14.00">gini = 0.0</text>
<text text-anchor="middle" x="454.5" y="-535.3" font-family="Helvetica,sans-Serif" font-size="14.00">samples = 2</text>
<text text-anchor="middle" x="454.5" y="-520.3" font-family="Helvetica,sans-Serif" font-size="14.00">value = [2, 0]</text>
</g>
<!-- 22&#45;&gt;23 -->
<g id="edge23" class="edge">
<title>22&#45;&gt;23</title>
<path fill="none" stroke="black" d="M530.81,-608.88C517.9,-597.23 503.4,-584.14 490.54,-572.53"/>
<polygon fill="black" stroke="black" points="492.54,-569.62 482.77,-565.52 487.85,-574.82 492.54,-569.62"/>
</g>
<!-- 24 -->
<g id="node25" class="node">
<title>24</title>
<polygon fill="none" stroke="black" points="615,-565.5 520,-565.5 520,-512.5 615,-512.5 615,-565.5"/>
<text text-anchor="middle" x="567.5" y="-550.3" font-family="Helvetica,sans-Serif" font-size="14.00">gini = 0.0</text>
<text text-anchor="middle" x="567.5" y="-535.3" font-family="Helvetica,sans-Serif" font-size="14.00">samples = 1</text>
<text text-anchor="middle" x="567.5" y="-520.3" font-family="Helvetica,sans-Serif" font-size="14.00">value = [0, 1]</text>
</g>
<!-- 22&#45;&gt;24 -->
<g id="edge24" class="edge">
<title>22&#45;&gt;24</title>
<path fill="none" stroke="black" d="M567.5,-608.88C567.5,-598.33 567.5,-586.6 567.5,-575.85"/>
<polygon fill="black" stroke="black" points="571,-575.52 567.5,-565.52 564,-575.52 571,-575.52"/>
</g>
<!-- 26 -->
<g id="node27" class="node">
<title>26</title>
<polygon fill="none" stroke="black" points="734,-573 633,-573 633,-505 734,-505 734,-573"/>
<text text-anchor="middle" x="683.5" y="-557.8" font-family="Helvetica,sans-Serif" font-size="14.00">x[5] &lt;= &#45;8.648</text>
<text text-anchor="middle" x="683.5" y="-542.8" font-family="Helvetica,sans-Serif" font-size="14.00">gini = 0.18</text>
<text text-anchor="middle" x="683.5" y="-527.8" font-family="Helvetica,sans-Serif" font-size="14.00">samples = 10</text>
<text text-anchor="middle" x="683.5" y="-512.8" font-family="Helvetica,sans-Serif" font-size="14.00">value = [1, 9]</text>
</g>
<!-- 25&#45;&gt;26 -->
<g id="edge26" class="edge">
<title>25&#45;&gt;26</title>
<path fill="none" stroke="black" d="M683.5,-608.88C683.5,-600.78 683.5,-591.98 683.5,-583.47"/>
<polygon fill="black" stroke="black" points="687,-583.3 683.5,-573.3 680,-583.3 687,-583.3"/>
</g>
<!-- 31 -->
<g id="node32" class="node">
<title>31</title>
<polygon fill="none" stroke="black" points="847,-565.5 752,-565.5 752,-512.5 847,-512.5 847,-565.5"/>
<text text-anchor="middle" x="799.5" y="-550.3" font-family="Helvetica,sans-Serif" font-size="14.00">gini = 0.0</text>
<text text-anchor="middle" x="799.5" y="-535.3" font-family="Helvetica,sans-Serif" font-size="14.00">samples = 1</text>
<text text-anchor="middle" x="799.5" y="-520.3" font-family="Helvetica,sans-Serif" font-size="14.00">value = [1, 0]</text>
</g>
<!-- 25&#45;&gt;31 -->
<g id="edge31" class="edge">
<title>25&#45;&gt;31</title>
<path fill="none" stroke="black" d="M721.16,-608.88C734.54,-597.12 749.58,-583.89 762.88,-572.2"/>
<polygon fill="black" stroke="black" points="765.28,-574.75 770.48,-565.52 760.66,-569.49 765.28,-574.75"/>
</g>
<!-- 27 -->
<g id="node28" class="node">
<title>27</title>
<polygon fill="none" stroke="black" points="676,-469 575,-469 575,-401 676,-401 676,-469"/>
<text text-anchor="middle" x="625.5" y="-453.8" font-family="Helvetica,sans-Serif" font-size="14.00">x[4] &lt;= &#45;3.434</text>
<text text-anchor="middle" x="625.5" y="-438.8" font-family="Helvetica,sans-Serif" font-size="14.00">gini = 0.5</text>
<text text-anchor="middle" x="625.5" y="-423.8" font-family="Helvetica,sans-Serif" font-size="14.00">samples = 2</text>
<text text-anchor="middle" x="625.5" y="-408.8" font-family="Helvetica,sans-Serif" font-size="14.00">value = [1, 1]</text>
</g>
<!-- 26&#45;&gt;27 -->
<g id="edge27" class="edge">
<title>26&#45;&gt;27</title>
<path fill="none" stroke="black" d="M664.67,-504.88C659.81,-496.33 654.51,-487.01 649.42,-478.07"/>
<polygon fill="black" stroke="black" points="652.42,-476.26 644.43,-469.3 646.34,-479.72 652.42,-476.26"/>
</g>
<!-- 30 -->
<g id="node31" class="node">
<title>30</title>
<polygon fill="none" stroke="black" points="789,-461.5 694,-461.5 694,-408.5 789,-408.5 789,-461.5"/>
<text text-anchor="middle" x="741.5" y="-446.3" font-family="Helvetica,sans-Serif" font-size="14.00">gini = 0.0</text>
<text text-anchor="middle" x="741.5" y="-431.3" font-family="Helvetica,sans-Serif" font-size="14.00">samples = 8</text>
<text text-anchor="middle" x="741.5" y="-416.3" font-family="Helvetica,sans-Serif" font-size="14.00">value = [0, 8]</text>
</g>
<!-- 26&#45;&gt;30 -->
<g id="edge30" class="edge">
<title>26&#45;&gt;30</title>
<path fill="none" stroke="black" d="M702.33,-504.88C708.58,-493.89 715.56,-481.62 721.87,-470.52"/>
<polygon fill="black" stroke="black" points="725.09,-471.94 726.99,-461.52 719,-468.48 725.09,-471.94"/>
</g>
<!-- 28 -->
<g id="node29" class="node">
<title>28</title>
<polygon fill="none" stroke="black" points="642,-357.5 547,-357.5 547,-304.5 642,-304.5 642,-357.5"/>
<text text-anchor="middle" x="594.5" y="-342.3" font-family="Helvetica,sans-Serif" font-size="14.00">gini = 0.0</text>
<text text-anchor="middle" x="594.5" y="-327.3" font-family="Helvetica,sans-Serif" font-size="14.00">samples = 1</text>
<text text-anchor="middle" x="594.5" y="-312.3" font-family="Helvetica,sans-Serif" font-size="14.00">value = [1, 0]</text>
</g>
<!-- 27&#45;&gt;28 -->
<g id="edge28" class="edge">
<title>27&#45;&gt;28</title>
<path fill="none" stroke="black" d="M615.44,-400.88C612.16,-390.11 608.51,-378.11 605.19,-367.18"/>
<polygon fill="black" stroke="black" points="608.51,-366.07 602.26,-357.52 601.82,-368.11 608.51,-366.07"/>
</g>
<!-- 29 -->
<g id="node30" class="node">
<title>29</title>
<polygon fill="none" stroke="black" points="755,-357.5 660,-357.5 660,-304.5 755,-304.5 755,-357.5"/>
<text text-anchor="middle" x="707.5" y="-342.3" font-family="Helvetica,sans-Serif" font-size="14.00">gini = 0.0</text>
<text text-anchor="middle" x="707.5" y="-327.3" font-family="Helvetica,sans-Serif" font-size="14.00">samples = 1</text>
<text text-anchor="middle" x="707.5" y="-312.3" font-family="Helvetica,sans-Serif" font-size="14.00">value = [0, 1]</text>
</g>
<!-- 27&#45;&gt;29 -->
<g id="edge29" class="edge">
<title>27&#45;&gt;29</title>
<path fill="none" stroke="black" d="M652.12,-400.88C661.23,-389.56 671.42,-376.88 680.55,-365.52"/>
<polygon fill="black" stroke="black" points="683.45,-367.51 686.98,-357.52 677.99,-363.12 683.45,-367.51"/>
</g>
<!-- 33 -->
<g id="node34" class="node">
<title>33</title>
<polygon fill="none" stroke="black" points="794.5,-885 690.5,-885 690.5,-817 794.5,-817 794.5,-885"/>
<text text-anchor="middle" x="742.5" y="-869.8" font-family="Helvetica,sans-Serif" font-size="14.00">x[1] &lt;= 51.436</text>
<text text-anchor="middle" x="742.5" y="-854.8" font-family="Helvetica,sans-Serif" font-size="14.00">gini = 0.48</text>
<text text-anchor="middle" x="742.5" y="-839.8" font-family="Helvetica,sans-Serif" font-size="14.00">samples = 5</text>
<text text-anchor="middle" x="742.5" y="-824.8" font-family="Helvetica,sans-Serif" font-size="14.00">value = [3, 2]</text>
</g>
<!-- 32&#45;&gt;33 -->
<g id="edge33" class="edge">
<title>32&#45;&gt;33</title>
<path fill="none" stroke="black" d="M742.5,-920.88C742.5,-912.78 742.5,-903.98 742.5,-895.47"/>
<polygon fill="black" stroke="black" points="746,-895.3 742.5,-885.3 739,-895.3 746,-895.3"/>
</g>
<!-- 36 -->
<g id="node37" class="node">
<title>36</title>
<polygon fill="none" stroke="black" points="964.5,-885 860.5,-885 860.5,-817 964.5,-817 964.5,-885"/>
<text text-anchor="middle" x="912.5" y="-869.8" font-family="Helvetica,sans-Serif" font-size="14.00">x[3] &lt;= 13.829</text>
<text text-anchor="middle" x="912.5" y="-854.8" font-family="Helvetica,sans-Serif" font-size="14.00">gini = 0.269</text>
<text text-anchor="middle" x="912.5" y="-839.8" font-family="Helvetica,sans-Serif" font-size="14.00">samples = 25</text>
<text text-anchor="middle" x="912.5" y="-824.8" font-family="Helvetica,sans-Serif" font-size="14.00">value = [4, 21]</text>
</g>
<!-- 32&#45;&gt;36 -->
<g id="edge36" class="edge">
<title>32&#45;&gt;36</title>
<path fill="none" stroke="black" d="M796.76,-921.45C814.29,-910.92 833.85,-899.19 851.82,-888.41"/>
<polygon fill="black" stroke="black" points="853.72,-891.35 860.5,-883.2 850.12,-885.35 853.72,-891.35"/>
</g>
<!-- 34 -->
<g id="node35" class="node">
<title>34</title>
<polygon fill="none" stroke="black" points="732,-773.5 637,-773.5 637,-720.5 732,-720.5 732,-773.5"/>
<text text-anchor="middle" x="684.5" y="-758.3" font-family="Helvetica,sans-Serif" font-size="14.00">gini = 0.0</text>
<text text-anchor="middle" x="684.5" y="-743.3" font-family="Helvetica,sans-Serif" font-size="14.00">samples = 3</text>
<text text-anchor="middle" x="684.5" y="-728.3" font-family="Helvetica,sans-Serif" font-size="14.00">value = [3, 0]</text>
</g>
<!-- 33&#45;&gt;34 -->
<g id="edge34" class="edge">
<title>33&#45;&gt;34</title>
<path fill="none" stroke="black" d="M723.67,-816.88C717.42,-805.89 710.44,-793.62 704.13,-782.52"/>
<polygon fill="black" stroke="black" points="707,-780.48 699.01,-773.52 700.91,-783.94 707,-780.48"/>
</g>
<!-- 35 -->
<g id="node36" class="node">
<title>35</title>
<polygon fill="none" stroke="black" points="845,-773.5 750,-773.5 750,-720.5 845,-720.5 845,-773.5"/>
<text text-anchor="middle" x="797.5" y="-758.3" font-family="Helvetica,sans-Serif" font-size="14.00">gini = 0.0</text>
<text text-anchor="middle" x="797.5" y="-743.3" font-family="Helvetica,sans-Serif" font-size="14.00">samples = 2</text>
<text text-anchor="middle" x="797.5" y="-728.3" font-family="Helvetica,sans-Serif" font-size="14.00">value = [0, 2]</text>
</g>
<!-- 33&#45;&gt;35 -->
<g id="edge35" class="edge">
<title>33&#45;&gt;35</title>
<path fill="none" stroke="black" d="M760.36,-816.88C766.29,-805.89 772.9,-793.62 778.89,-782.52"/>
<polygon fill="black" stroke="black" points="782.07,-783.98 783.74,-773.52 775.91,-780.66 782.07,-783.98"/>
</g>
<!-- 37 -->
<g id="node38" class="node">
<title>37</title>
<polygon fill="none" stroke="black" points="961.5,-781 863.5,-781 863.5,-713 961.5,-713 961.5,-781"/>
<text text-anchor="middle" x="912.5" y="-765.8" font-family="Helvetica,sans-Serif" font-size="14.00">x[5] &lt;= 2.722</text>
<text text-anchor="middle" x="912.5" y="-750.8" font-family="Helvetica,sans-Serif" font-size="14.00">gini = 0.48</text>
<text text-anchor="middle" x="912.5" y="-735.8" font-family="Helvetica,sans-Serif" font-size="14.00">samples = 10</text>
<text text-anchor="middle" x="912.5" y="-720.8" font-family="Helvetica,sans-Serif" font-size="14.00">value = [4, 6]</text>
</g>
<!-- 36&#45;&gt;37 -->
<g id="edge37" class="edge">
<title>36&#45;&gt;37</title>
<path fill="none" stroke="black" d="M912.5,-816.88C912.5,-808.78 912.5,-799.98 912.5,-791.47"/>
<polygon fill="black" stroke="black" points="916,-791.3 912.5,-781.3 909,-791.3 916,-791.3"/>
</g>
<!-- 42 -->
<g id="node43" class="node">
<title>42</title>
<polygon fill="none" stroke="black" points="1081.5,-773.5 979.5,-773.5 979.5,-720.5 1081.5,-720.5 1081.5,-773.5"/>
<text text-anchor="middle" x="1030.5" y="-758.3" font-family="Helvetica,sans-Serif" font-size="14.00">gini = 0.0</text>
<text text-anchor="middle" x="1030.5" y="-743.3" font-family="Helvetica,sans-Serif" font-size="14.00">samples = 15</text>
<text text-anchor="middle" x="1030.5" y="-728.3" font-family="Helvetica,sans-Serif" font-size="14.00">value = [0, 15]</text>
</g>
<!-- 36&#45;&gt;42 -->
<g id="edge42" class="edge">
<title>36&#45;&gt;42</title>
<path fill="none" stroke="black" d="M950.81,-816.88C964.42,-805.12 979.72,-791.89 993.25,-780.2"/>
<polygon fill="black" stroke="black" points="995.7,-782.71 1000.98,-773.52 991.12,-777.41 995.7,-782.71"/>
</g>
<!-- 38 -->
<g id="node39" class="node">
<title>38</title>
<polygon fill="none" stroke="black" points="960,-677 865,-677 865,-609 960,-609 960,-677"/>
<text text-anchor="middle" x="912.5" y="-661.8" font-family="Helvetica,sans-Serif" font-size="14.00">x[2] &lt;= 3.65</text>
<text text-anchor="middle" x="912.5" y="-646.8" font-family="Helvetica,sans-Serif" font-size="14.00">gini = 0.32</text>
<text text-anchor="middle" x="912.5" y="-631.8" font-family="Helvetica,sans-Serif" font-size="14.00">samples = 5</text>
<text text-anchor="middle" x="912.5" y="-616.8" font-family="Helvetica,sans-Serif" font-size="14.00">value = [4, 1]</text>
</g>
<!-- 37&#45;&gt;38 -->
<g id="edge38" class="edge">
<title>37&#45;&gt;38</title>
<path fill="none" stroke="black" d="M912.5,-712.88C912.5,-704.78 912.5,-695.98 912.5,-687.47"/>
<polygon fill="black" stroke="black" points="916,-687.3 912.5,-677.3 909,-687.3 916,-687.3"/>
</g>
<!-- 41 -->
<g id="node42" class="node">
<title>41</title>
<polygon fill="none" stroke="black" points="1073,-669.5 978,-669.5 978,-616.5 1073,-616.5 1073,-669.5"/>
<text text-anchor="middle" x="1025.5" y="-654.3" font-family="Helvetica,sans-Serif" font-size="14.00">gini = 0.0</text>
<text text-anchor="middle" x="1025.5" y="-639.3" font-family="Helvetica,sans-Serif" font-size="14.00">samples = 5</text>
<text text-anchor="middle" x="1025.5" y="-624.3" font-family="Helvetica,sans-Serif" font-size="14.00">value = [0, 5]</text>
</g>
<!-- 37&#45;&gt;41 -->
<g id="edge41" class="edge">
<title>37&#45;&gt;41</title>
<path fill="none" stroke="black" d="M949.19,-712.88C962.1,-701.23 976.6,-688.14 989.46,-676.53"/>
<polygon fill="black" stroke="black" points="992.15,-678.82 997.23,-669.52 987.46,-673.62 992.15,-678.82"/>
</g>
<!-- 39 -->
<g id="node40" class="node">
<title>39</title>
<polygon fill="none" stroke="black" points="960,-565.5 865,-565.5 865,-512.5 960,-512.5 960,-565.5"/>
<text text-anchor="middle" x="912.5" y="-550.3" font-family="Helvetica,sans-Serif" font-size="14.00">gini = 0.0</text>
<text text-anchor="middle" x="912.5" y="-535.3" font-family="Helvetica,sans-Serif" font-size="14.00">samples = 1</text>
<text text-anchor="middle" x="912.5" y="-520.3" font-family="Helvetica,sans-Serif" font-size="14.00">value = [0, 1]</text>
</g>
<!-- 38&#45;&gt;39 -->
<g id="edge39" class="edge">
<title>38&#45;&gt;39</title>
<path fill="none" stroke="black" d="M912.5,-608.88C912.5,-598.33 912.5,-586.6 912.5,-575.85"/>
<polygon fill="black" stroke="black" points="916,-575.52 912.5,-565.52 909,-575.52 916,-575.52"/>
</g>
<!-- 40 -->
<g id="node41" class="node">
<title>40</title>
<polygon fill="none" stroke="black" points="1073,-565.5 978,-565.5 978,-512.5 1073,-512.5 1073,-565.5"/>
<text text-anchor="middle" x="1025.5" y="-550.3" font-family="Helvetica,sans-Serif" font-size="14.00">gini = 0.0</text>
<text text-anchor="middle" x="1025.5" y="-535.3" font-family="Helvetica,sans-Serif" font-size="14.00">samples = 4</text>
<text text-anchor="middle" x="1025.5" y="-520.3" font-family="Helvetica,sans-Serif" font-size="14.00">value = [4, 0]</text>
</g>
<!-- 38&#45;&gt;40 -->
<g id="edge40" class="edge">
<title>38&#45;&gt;40</title>
<path fill="none" stroke="black" d="M949.19,-608.88C962.1,-597.23 976.6,-584.14 989.46,-572.53"/>
<polygon fill="black" stroke="black" points="992.15,-574.82 997.23,-565.52 987.46,-569.62 992.15,-574.82"/>
</g>
</g>
</svg>