<?xml version="1.0" encoding="UTF-8" standalone="no"?>
<!DOCTYPE svg PUBLIC "-//W3C//DTD SVG 1.1//EN"
 "http://www.w3.org/Graphics/SVG/1.1/DTD/svg11.dtd">
<!-- Generated by graphviz version 2.43.0 (0)
 -->
<!-- Title: Tree Pages: 1 -->
<svg width="1150pt" height="789pt"
 viewBox="0.00 0.00 1149.50 789.00" xmlns="http://www.w3.org/2000/svg" xmlns:xlink="http://www.w3.org/1999/xlink">
<g id="graph0" class="graph" transform="scale(1 1) rotate(0) translate(4 785)">
<title>Tree</title>
<polygon fill="white" stroke="transparent" points="-4,4 -4,-785 1145.5,-785 1145.5,4 -4,4"/>
<!-- 0 -->
<g id="node1" class="node">
<title>0</title>
<polygon fill="none" stroke="black" points="646.5,-781 536.5,-781 536.5,-713 646.5,-713 646.5,-781"/>
<text text-anchor="middle" x="591.5" y="-765.8" font-family="Helvetica,sans-Serif" font-size="14.00">x[3] &lt;= 13.339</text>
<text text-anchor="middle" x="591.5" y="-750.8" font-family="Helvetica,sans-Serif" font-size="14.00">gini = 0.481</text>
<text text-anchor="middle" x="591.5" y="-735.8" font-family="Helvetica,sans-Serif" font-size="14.00">samples = 72</text>
<text text-anchor="middle" x="591.5" y="-720.8" font-family="Helvetica,sans-Serif" font-size="14.00">value = [29, 43]</text>
</g>
<!-- 1 -->
<g id="node2" class="node">
<title>1</title>
<polygon fill="none" stroke="black" points="583.5,-677 473.5,-677 473.5,-609 583.5,-609 583.5,-677"/>
<text text-anchor="middle" x="528.5" y="-661.8" font-family="Helvetica,sans-Serif" font-size="14.00">x[1] &lt;= 7.933</text>
<text text-anchor="middle" x="528.5" y="-646.8" font-family="Helvetica,sans-Serif" font-size="14.00">gini = 0.497</text>
<text text-anchor="middle" x="528.5" y="-631.8" font-family="Helvetica,sans-Serif" font-size="14.00">samples = 41</text>
<text text-anchor="middle" x="528.5" y="-616.8" font-family="Helvetica,sans-Serif" font-size="14.00">value = [22, 19]</text>
</g>
<!-- 0&#45;&gt;1 -->
<g id="edge1" class="edge">
<title>0&#45;&gt;1</title>
<path fill="none" stroke="black" d="M571.05,-712.88C565.76,-704.33 560.01,-695.01 554.49,-686.07"/>
<polygon fill="black" stroke="black" points="557.3,-683.97 549.07,-677.3 551.34,-687.65 557.3,-683.97"/>
<text text-anchor="middle" x="543.32" y="-697.93" font-family="Helvetica,sans-Serif" font-size="14.00">True</text>
</g>
<!-- 28 -->
<g id="node29" class="node">
<title>28</title>
<polygon fill="none" stroke="black" points="763.5,-677 655.5,-677 655.5,-609 763.5,-609 763.5,-677"/>
<text text-anchor="middle" x="709.5" y="-661.8" font-family="Helvetica,sans-Serif" font-size="14.00">x[4] &lt;= &#45;34.184</text>
<text text-anchor="middle" x="709.5" y="-646.8" font-family="Helvetica,sans-Serif" font-size="14.00">gini = 0.35</text>
<text text-anchor="middle" x="709.5" y="-631.8" font-family="Helvetica,sans-Serif" font-size="14.00">samples = 31</text>
<text text-anchor="middle" x="709.5" y="-616.8" font-family="Helvetica,sans-Serif" font-size="14.00">value = [7, 24]</text>
</g>
<!-- 0&#45;&gt;28 -->
<g id="edge28" class="edge">
<title>0&#45;&gt;28</title>
<path fill="none" stroke="black" d="M629.81,-712.88C640.53,-703.62 652.29,-693.45 663.4,-683.85"/>
<polygon fill="black" stroke="black" points="665.7,-686.49 670.98,-677.3 661.12,-681.19 665.7,-686.49"/>
<text text-anchor="middle" x="669.16" y="-698.53" font-family="Helvetica,sans-Serif" font-size="14.00">False</text>
</g>
<!-- 2 -->
<g id="node3" class="node">
<title>2</title>
<polygon fill="none" stroke="black" points="455,-565.5 360,-565.5 360,-512.5 455,-512.5 455,-565.5"/>
<text text-anchor="middle" x="407.5" y="-550.3" font-family="Helvetica,sans-Serif" font-size="14.00">gini = 0.0</text>
<text text-anchor="middle" x="407.5" y="-535.3" font-family="Helvetica,sans-Serif" font-size="14.00">samples = 5</text>
<text text-anchor="middle" x="407.5" y="-520.3" font-family="Helvetica,sans-Serif" font-size="14.00">value = [5, 0]</text>
</g>
<!-- 1&#45;&gt;2 -->
<g id="edge2" class="edge">
<title>1&#45;&gt;2</title>
<path fill="none" stroke="black" d="M489.21,-608.88C475.26,-597.12 459.57,-583.89 445.7,-572.2"/>
<polygon fill="black" stroke="black" points="447.68,-569.29 437.77,-565.52 443.16,-574.64 447.68,-569.29"/>
</g>
<!-- 3 -->
<g id="node4" class="node">
<title>3</title>
<polygon fill="none" stroke="black" points="583.5,-573 473.5,-573 473.5,-505 583.5,-505 583.5,-573"/>
<text text-anchor="middle" x="528.5" y="-557.8" font-family="Helvetica,sans-Serif" font-size="14.00">x[1] &lt;= 13.095</text>
<text text-anchor="middle" x="528.5" y="-542.8" font-family="Helvetica,sans-Serif" font-size="14.00">gini = 0.498</text>
<text text-anchor="middle" x="528.5" y="-527.8" font-family="Helvetica,sans-Serif" font-size="14.00">samples = 36</text>
<text text-anchor="middle" x="528.5" y="-512.8" font-family="Helvetica,sans-Serif" font-size="14.00">value = [17, 19]</text>
</g>
<!-- 1&#45;&gt;3 -->
<g id="edge3" class="edge">
<title>1&#45;&gt;3</title>
<path fill="none" stroke="black" d="M528.5,-608.88C528.5,-600.78 528.5,-591.98 528.5,-583.47"/>
<polygon fill="black" stroke="black" points="532,-583.3 528.5,-573.3 525,-583.3 532,-583.3"/>
</g>
<!-- 4 -->
<g id="node5" class="node">
<title>4</title>
<polygon fill="none" stroke="black" points="349.5,-469 253.5,-469 253.5,-401 349.5,-401 349.5,-469"/>
<text text-anchor="middle" x="301.5" y="-453.8" font-family="Helvetica,sans-Serif" font-size="14.00">x[3] &lt;= 4.817</text>
<text text-anchor="middle" x="301.5" y="-438.8" font-family="Helvetica,sans-Serif" font-size="14.00">gini = 0.219</text>
<text text-anchor="middle" x="301.5" y="-423.8" font-family="Helvetica,sans-Serif" font-size="14.00">samples = 8</text>
<text text-anchor="middle" x="301.5" y="-408.8" font-family="Helvetica,sans-Serif" font-size="14.00">value = [1, 7]</text>
</g>
<!-- 3&#45;&gt;4 -->
<g id="edge4" class="edge">
<title>3&#45;&gt;4</title>
<path fill="none" stroke="black" d="M473.31,-509.66C470,-508.06 466.71,-506.5 463.5,-505 429.23,-489.02 390.25,-472.37 359.12,-459.44"/>
<polygon fill="black" stroke="black" points="360.3,-456.14 349.72,-455.54 357.62,-462.6 360.3,-456.14"/>
</g>
<!-- 9 -->
<g id="node10" class="node">
<title>9</title>
<polygon fill="none" stroke="black" points="583.5,-469 473.5,-469 473.5,-401 583.5,-401 583.5,-469"/>
<text text-anchor="middle" x="528.5" y="-453.8" font-family="Helvetica,sans-Serif" font-size="14.00">x[2] &lt;= 10.386</text>
<text text-anchor="middle" x="528.5" y="-438.8" font-family="Helvetica,sans-Serif" font-size="14.00">gini = 0.49</text>
<text text-anchor="middle" x="528.5" y="-423.8" font-family="Helvetica,sans-Serif" font-size="14.00">samples = 28</text>
<text text-anchor="middle" x="528.5" y="-408.8" font-family="Helvetica,sans-Serif" font-size="14.00">value = [16, 12]</text>
</g>
<!-- 3&#45;&gt;9 -->
<g id="edge9" class="edge">
<title>3&#45;&gt;9</title>
<path fill="none" stroke="black" d="M528.5,-504.88C528.5,-496.78 528.5,-487.98 528.5,-479.47"/>
<polygon fill="black" stroke="black" points="532,-479.3 528.5,-469.3 525,-479.3 532,-479.3"/>
</g>
<!-- 5 -->
<g id="node6" class="node">
<title>5</title>
<polygon fill="none" stroke="black" points="208.5,-365 112.5,-365 112.5,-297 208.5,-297 208.5,-365"/>
<text text-anchor="middle" x="160.5" y="-349.8" font-family="Helvetica,sans-Serif" font-size="14.00">x[0] &lt;= 4.573</text>
<text text-anchor="middle" x="160.5" y="-334.8" font-family="Helvetica,sans-Serif" font-size="14.00">gini = 0.5</text>
<text text-anchor="middle" x="160.5" y="-319.8" font-family="Helvetica,sans-Serif" font-size="14.00">samples = 2</text>
<text text-anchor="middle" x="160.5" y="-304.8" font-family="Helvetica,sans-Serif" font-size="14.00">value = [1, 1]</text>
</g>
<!-- 4&#45;&gt;5 -->
<g id="edge5" class="edge">
<title>4&#45;&gt;5</title>
<path fill="none" stroke="black" d="M255.72,-400.88C242.67,-391.44 228.32,-381.06 214.81,-371.29"/>
<polygon fill="black" stroke="black" points="216.69,-368.32 206.53,-365.3 212.58,-374 216.69,-368.32"/>
</g>
<!-- 8 -->
<g id="node9" class="node">
<title>8</title>
<polygon fill="none" stroke="black" points="349,-357.5 254,-357.5 254,-304.5 349,-304.5 349,-357.5"/>
<text text-anchor="middle" x="301.5" y="-342.3" font-family="Helvetica,sans-Serif" font-size="14.00">gini = 0.0</text>
<text text-anchor="middle" x="301.5" y="-327.3" font-family="Helvetica,sans-Serif" font-size="14.00">samples = 6</text>
<text text-anchor="middle" x="301.5" y="-312.3" font-family="Helvetica,sans-Serif" font-size="14.00">value = [0, 6]</text>
</g>
<!-- 4&#45;&gt;8 -->
<g id="edge8" class="edge">
<title>4&#45;&gt;8</title>
<path fill="none" stroke="black" d="M301.5,-400.88C301.5,-390.33 301.5,-378.6 301.5,-367.85"/>
<polygon fill="black" stroke="black" points="305,-367.52 301.5,-357.52 298,-367.52 305,-367.52"/>
</g>
<!-- 6 -->
<g id="node7" class="node">
<title>6</title>
<polygon fill="none" stroke="black" points="95,-253.5 0,-253.5 0,-200.5 95,-200.5 95,-253.5"/>
<text text-anchor="middle" x="47.5" y="-238.3" font-family="Helvetica,sans-Serif" font-size="14.00">gini = 0.0</text>
<text text-anchor="middle" x="47.5" y="-223.3" font-family="Helvetica,sans-Serif" font-size="14.00">samples = 1</text>
<text text-anchor="middle" x="47.5" y="-208.3" font-family="Helvetica,sans-Serif" font-size="14.00">value = [1, 0]</text>
</g>
<!-- 5&#45;&gt;6 -->
<g id="edge6" class="edge">
<title>5&#45;&gt;6</title>
<path fill="none" stroke="black" d="M123.81,-296.88C110.9,-285.23 96.4,-272.14 83.54,-260.53"/>
<polygon fill="black" stroke="black" points="85.54,-257.62 75.77,-253.52 80.85,-262.82 85.54,-257.62"/>
</g>
<!-- 7 -->
<g id="node8" class="node">
<title>7</title>
<polygon fill="none" stroke="black" points="208,-253.5 113,-253.5 113,-200.5 208,-200.5 208,-253.5"/>
<text text-anchor="middle" x="160.5" y="-238.3" font-family="Helvetica,sans-Serif" font-size="14.00">gini = 0.0</text>
<text text-anchor="middle" x="160.5" y="-223.3" font-family="Helvetica,sans-Serif" font-size="14.00">samples = 1</text>
<text text-anchor="middle" x="160.5" y="-208.3" font-family="Helvetica,sans-Serif" font-size="14.00">value = [0, 1]</text>
</g>
<!-- 5&#45;&gt;7 -->
<g id="edge7" class="edge">
<title>5&#45;&gt;7</title>
<path fill="none" stroke="black" d="M160.5,-296.88C160.5,-286.33 160.5,-274.6 160.5,-263.85"/>
<polygon fill="black" stroke="black" points="164,-263.52 160.5,-253.52 157,-263.52 164,-263.52"/>
</g>
<!-- 10 -->
<g id="node11" class="node">
<title>10</title>
<polygon fill="none" stroke="black" points="496.5,-365 394.5,-365 394.5,-297 496.5,-297 496.5,-365"/>
<text text-anchor="middle" x="445.5" y="-349.8" font-family="Helvetica,sans-Serif" font-size="14.00">x[2] &lt;= 4.456</text>
<text text-anchor="middle" x="445.5" y="-334.8" font-family="Helvetica,sans-Serif" font-size="14.00">gini = 0.415</text>
<text text-anchor="middle" x="445.5" y="-319.8" font-family="Helvetica,sans-Serif" font-size="14.00">samples = 17</text>
<text text-anchor="middle" x="445.5" y="-304.8" font-family="Helvetica,sans-Serif" font-size="14.00">value = [12, 5]</text>
</g>
<!-- 9&#45;&gt;10 -->
<g id="edge10" class="edge">
<title>9&#45;&gt;10</title>
<path fill="none" stroke="black" d="M501.55,-400.88C494.38,-392.07 486.54,-382.43 479.05,-373.24"/>
<polygon fill="black" stroke="black" points="481.62,-370.85 472.6,-365.3 476.19,-375.26 481.62,-370.85"/>
</g>
<!-- 21 -->
<g id="node22" class="node">
<title>21</title>
<polygon fill="none" stroke="black" points="615.5,-365 517.5,-365 517.5,-297 615.5,-297 615.5,-365"/>
<text text-anchor="middle" x="566.5" y="-349.8" font-family="Helvetica,sans-Serif" font-size="14.00">x[0] &lt;= 6.966</text>
<text text-anchor="middle" x="566.5" y="-334.8" font-family="Helvetica,sans-Serif" font-size="14.00">gini = 0.463</text>
<text text-anchor="middle" x="566.5" y="-319.8" font-family="Helvetica,sans-Serif" font-size="14.00">samples = 11</text>
<text text-anchor="middle" x="566.5" y="-304.8" font-family="Helvetica,sans-Serif" font-size="14.00">value = [4, 7]</text>
</g>
<!-- 9&#45;&gt;21 -->
<g id="edge21" class="edge">
<title>9&#45;&gt;21</title>
<path fill="none" stroke="black" d="M540.84,-400.88C543.92,-392.6 547.28,-383.6 550.51,-374.91"/>
<polygon fill="black" stroke="black" points="553.88,-375.89 554.09,-365.3 547.32,-373.45 553.88,-375.89"/>
</g>
<!-- 11 -->
<g id="node12" class="node">
<title>11</title>
<polygon fill="none" stroke="black" points="321,-261 226,-261 226,-193 321,-193 321,-261"/>
<text text-anchor="middle" x="273.5" y="-245.8" font-family="Helvetica,sans-Serif" font-size="14.00">x[3] &lt;= 4.88</text>
<text text-anchor="middle" x="273.5" y="-230.8" font-family="Helvetica,sans-Serif" font-size="14.00">gini = 0.49</text>
<text text-anchor="middle" x="273.5" y="-215.8" font-family="Helvetica,sans-Serif" font-size="14.00">samples = 7</text>
<text text-anchor="middle" x="273.5" y="-200.8" font-family="Helvetica,sans-Serif" font-size="14.00">value = [3, 4]</text>
</g>
<!-- 10&#45;&gt;11 -->
<g id="edge11" class="edge">
<title>10&#45;&gt;11</title>
<path fill="none" stroke="black" d="M394.36,-299.67C374.08,-287.65 350.7,-273.78 329.93,-261.46"/>
<polygon fill="black" stroke="black" points="331.59,-258.38 321.21,-256.29 328.02,-264.4 331.59,-258.38"/>
</g>
<!-- 16 -->
<g id="node17" class="node">
<title>16</title>
<polygon fill="none" stroke="black" points="497.5,-261 393.5,-261 393.5,-193 497.5,-193 497.5,-261"/>
<text text-anchor="middle" x="445.5" y="-245.8" font-family="Helvetica,sans-Serif" font-size="14.00">x[1] &lt;= 20.234</text>
<text text-anchor="middle" x="445.5" y="-230.8" font-family="Helvetica,sans-Serif" font-size="14.00">gini = 0.18</text>
<text text-anchor="middle" x="445.5" y="-215.8" font-family="Helvetica,sans-Serif" font-size="14.00">samples = 10</text>
<text text-anchor="middle" x="445.5" y="-200.8" font-family="Helvetica,sans-Serif" font-size="14.00">value = [9, 1]</text>
</g>
<!-- 10&#45;&gt;16 -->
<g id="edge16" class="edge">
<title>10&#45;&gt;16</title>
<path fill="none" stroke="black" d="M445.5,-296.88C445.5,-288.78 445.5,-279.98 445.5,-271.47"/>
<polygon fill="black" stroke="black" points="449,-271.3 445.5,-261.3 442,-271.3 449,-271.3"/>
</g>
<!-- 12 -->
<g id="node13" class="node">
<title>12</title>
<polygon fill="none" stroke="black" points="189,-149.5 94,-149.5 94,-96.5 189,-96.5 189,-149.5"/>
<text text-anchor="middle" x="141.5" y="-134.3" font-family="Helvetica,sans-Serif" font-size="14.00">gini = 0.0</text>
<text text-anchor="middle" x="141.5" y="-119.3" font-family="Helvetica,sans-Serif" font-size="14.00">samples = 2</text>
<text text-anchor="middle" x="141.5" y="-104.3" font-family="Helvetica,sans-Serif" font-size="14.00">value = [2, 0]</text>
</g>
<!-- 11&#45;&gt;12 -->
<g id="edge12" class="edge">
<title>11&#45;&gt;12</title>
<path fill="none" stroke="black" d="M230.64,-192.88C215.27,-181.01 197.98,-167.65 182.75,-155.88"/>
<polygon fill="black" stroke="black" points="184.58,-152.86 174.53,-149.52 180.3,-158.4 184.58,-152.86"/>
</g>
<!-- 13 -->
<g id="node14" class="node">
<title>13</title>
<polygon fill="none" stroke="black" points="311.5,-157 207.5,-157 207.5,-89 311.5,-89 311.5,-157"/>
<text text-anchor="middle" x="259.5" y="-141.8" font-family="Helvetica,sans-Serif" font-size="14.00">x[3] &lt;= 10.165</text>
<text text-anchor="middle" x="259.5" y="-126.8" font-family="Helvetica,sans-Serif" font-size="14.00">gini = 0.32</text>
<text text-anchor="middle" x="259.5" y="-111.8" font-family="Helvetica,sans-Serif" font-size="14.00">samples = 5</text>
<text text-anchor="middle" x="259.5" y="-96.8" font-family="Helvetica,sans-Serif" font-size="14.00">value = [1, 4]</text>
</g>
<!-- 11&#45;&gt;13 -->
<g id="edge13" class="edge">
<title>11&#45;&gt;13</title>
<path fill="none" stroke="black" d="M268.95,-192.88C267.84,-184.78 266.63,-175.98 265.47,-167.47"/>
<polygon fill="black" stroke="black" points="268.9,-166.73 264.07,-157.3 261.96,-167.68 268.9,-166.73"/>
</g>
<!-- 14 -->
<g id="node15" class="node">
<title>14</title>
<polygon fill="none" stroke="black" points="196,-53 101,-53 101,0 196,0 196,-53"/>
<text text-anchor="middle" x="148.5" y="-37.8" font-family="Helvetica,sans-Serif" font-size="14.00">gini = 0.0</text>
<text text-anchor="middle" x="148.5" y="-22.8" font-family="Helvetica,sans-Serif" font-size="14.00">samples = 4</text>
<text text-anchor="middle" x="148.5" y="-7.8" font-family="Helvetica,sans-Serif" font-size="14.00">value = [0, 4]</text>
</g>
<!-- 13&#45;&gt;14 -->
<g id="edge14" class="edge">
<title>13&#45;&gt;14</title>
<path fill="none" stroke="black" d="M220.68,-88.95C209.61,-79.53 197.57,-69.27 186.55,-59.89"/>
<polygon fill="black" stroke="black" points="188.61,-57.05 178.73,-53.24 184.08,-62.38 188.61,-57.05"/>
</g>
<!-- 15 -->
<g id="node16" class="node">
<title>15</title>
<polygon fill="none" stroke="black" points="309,-53 214,-53 214,0 309,0 309,-53"/>
<text text-anchor="middle" x="261.5" y="-37.8" font-family="Helvetica,sans-Serif" font-size="14.00">gini = 0.0</text>
<text text-anchor="middle" x="261.5" y="-22.8" font-family="Helvetica,sans-Serif" font-size="14.00">samples = 1</text>
<text text-anchor="middle" x="261.5" y="-7.8" font-family="Helvetica,sans-Serif" font-size="14.00">value = [1, 0]</text>
</g>
<!-- 13&#45;&gt;15 -->
<g id="edge15" class="edge">
<title>13&#45;&gt;15</title>
<path fill="none" stroke="black" d="M260.2,-88.95C260.37,-80.72 260.56,-71.85 260.74,-63.48"/>
<polygon fill="black" stroke="black" points="264.24,-63.31 260.96,-53.24 257.24,-63.16 264.24,-63.31"/>
</g>
<!-- 17 -->
<g id="node18" class="node">
<title>17</title>
<polygon fill="none" stroke="black" points="431,-157 330,-157 330,-89 431,-89 431,-157"/>
<text text-anchor="middle" x="380.5" y="-141.8" font-family="Helvetica,sans-Serif" font-size="14.00">x[5] &lt;= &#45;0.142</text>
<text text-anchor="middle" x="380.5" y="-126.8" font-family="Helvetica,sans-Serif" font-size="14.00">gini = 0.444</text>
<text text-anchor="middle" x="380.5" y="-111.8" font-family="Helvetica,sans-Serif" font-size="14.00">samples = 3</text>
<text text-anchor="middle" x="380.5" y="-96.8" font-family="Helvetica,sans-Serif" font-size="14.00">value = [2, 1]</text>
</g>
<!-- 16&#45;&gt;17 -->
<g id="edge17" class="edge">
<title>16&#45;&gt;17</title>
<path fill="none" stroke="black" d="M424.4,-192.88C418.89,-184.24 412.88,-174.82 407.13,-165.79"/>
<polygon fill="black" stroke="black" points="410.05,-163.85 401.72,-157.3 404.14,-167.61 410.05,-163.85"/>
</g>
<!-- 20 -->
<g id="node21" class="node">
<title>20</title>
<polygon fill="none" stroke="black" points="544,-149.5 449,-149.5 449,-96.5 544,-96.5 544,-149.5"/>
<text text-anchor="middle" x="496.5" y="-134.3" font-family="Helvetica,sans-Serif" font-size="14.00">gini = 0.0</text>
<text text-anchor="middle" x="496.5" y="-119.3" font-family="Helvetica,sans-Serif" font-size="14.00">samples = 7</text>
<text text-anchor="middle" x="496.5" y="-104.3" font-family="Helvetica,sans-Serif" font-size="14.00">value = [7, 0]</text>
</g>
<!-- 16&#45;&gt;20 -->
<g id="edge20" class="edge">
<title>16&#45;&gt;20</title>
<path fill="none" stroke="black" d="M462.06,-192.88C467.56,-181.89 473.69,-169.62 479.24,-158.52"/>
<polygon fill="black" stroke="black" points="482.4,-160.03 483.74,-149.52 476.14,-156.9 482.4,-160.03"/>
</g>
<!-- 18 -->
<g id="node19" class="node">
<title>18</title>
<polygon fill="none" stroke="black" points="426,-53 331,-53 331,0 426,0 426,-53"/>
<text text-anchor="middle" x="378.5" y="-37.8" font-family="Helvetica,sans-Serif" font-size="14.00">gini = 0.0</text>
<text text-anchor="middle" x="378.5" y="-22.8" font-family="Helvetica,sans-Serif" font-size="14.00">samples = 2</text>
<text text-anchor="middle" x="378.5" y="-7.8" font-family="Helvetica,sans-Serif" font-size="14.00">value = [2, 0]</text>
</g>
<!-- 17&#45;&gt;18 -->
<g id="edge18" class="edge">
<title>17&#45;&gt;18</title>
<path fill="none" stroke="black" d="M379.8,-88.95C379.63,-80.72 379.44,-71.85 379.26,-63.48"/>
<polygon fill="black" stroke="black" points="382.76,-63.16 379.04,-53.24 375.76,-63.31 382.76,-63.16"/>
</g>
<!-- 19 -->
<g id="node20" class="node">
<title>19</title>
<polygon fill="none" stroke="black" points="539,-53 444,-53 444,0 539,0 539,-53"/>
<text text-anchor="middle" x="491.5" y="-37.8" font-family="Helvetica,sans-Serif" font-size="14.00">gini = 0.0</text>
<text text-anchor="middle" x="491.5" y="-22.8" font-family="Helvetica,sans-Serif" font-size="14.00">samples = 1</text>
<text text-anchor="middle" x="491.5" y="-7.8" font-family="Helvetica,sans-Serif" font-size="14.00">value = [0, 1]</text>
</g>
<!-- 17&#45;&gt;19 -->
<g id="edge19" class="edge">
<title>17&#45;&gt;19</title>
<path fill="none" stroke="black" d="M419.32,-88.95C430.39,-79.53 442.43,-69.27 453.45,-59.89"/>
<polygon fill="black" stroke="black" points="455.92,-62.38 461.27,-53.24 451.39,-57.05 455.92,-62.38"/>
</g>
<!-- 22 -->
<g id="node23" class="node">
<title>22</title>
<polygon fill="none" stroke="black" points="636.5,-261 528.5,-261 528.5,-193 636.5,-193 636.5,-261"/>
<text text-anchor="middle" x="582.5" y="-245.8" font-family="Helvetica,sans-Serif" font-size="14.00">x[6] &lt;= &#45;15.401</text>
<text text-anchor="middle" x="582.5" y="-230.8" font-family="Helvetica,sans-Serif" font-size="14.00">gini = 0.444</text>
<text text-anchor="middle" x="582.5" y="-215.8" font-family="Helvetica,sans-Serif" font-size="14.00">samples = 6</text>
<text text-anchor="middle" x="582.5" y="-200.8" font-family="Helvetica,sans-Serif" font-size="14.00">value = [4, 2]</text>
</g>
<!-- 21&#45;&gt;22 -->
<g id="edge22" class="edge">
<title>21&#45;&gt;22</title>
<path fill="none" stroke="black" d="M571.69,-296.88C572.98,-288.69 574.38,-279.79 575.72,-271.19"/>
<polygon fill="black" stroke="black" points="579.18,-271.72 577.28,-261.3 572.27,-270.64 579.18,-271.72"/>
</g>
<!-- 27 -->
<g id="node28" class="node">
<title>27</title>
<polygon fill="none" stroke="black" points="750,-253.5 655,-253.5 655,-200.5 750,-200.5 750,-253.5"/>
<text text-anchor="middle" x="702.5" y="-238.3" font-family="Helvetica,sans-Serif" font-size="14.00">gini = 0.0</text>
<text text-anchor="middle" x="702.5" y="-223.3" font-family="Helvetica,sans-Serif" font-size="14.00">samples = 5</text>
<text text-anchor="middle" x="702.5" y="-208.3" font-family="Helvetica,sans-Serif" font-size="14.00">value = [0, 5]</text>
</g>
<!-- 21&#45;&gt;27 -->
<g id="edge27" class="edge">
<title>21&#45;&gt;27</title>
<path fill="none" stroke="black" d="M610.66,-296.88C626.64,-284.9 644.63,-271.4 660.43,-259.55"/>
<polygon fill="black" stroke="black" points="662.57,-262.32 668.47,-253.52 658.37,-256.72 662.57,-262.32"/>
</g>
<!-- 23 -->
<g id="node24" class="node">
<title>23</title>
<polygon fill="none" stroke="black" points="657,-157 562,-157 562,-89 657,-89 657,-157"/>
<text text-anchor="middle" x="609.5" y="-141.8" font-family="Helvetica,sans-Serif" font-size="14.00">x[3] &lt;= 4.07</text>
<text text-anchor="middle" x="609.5" y="-126.8" font-family="Helvetica,sans-Serif" font-size="14.00">gini = 0.444</text>
<text text-anchor="middle" x="609.5" y="-111.8" font-family="Helvetica,sans-Serif" font-size="14.00">samples = 3</text>
<text text-anchor="middle" x="609.5" y="-96.8" font-family="Helvetica,sans-Serif" font-size="14.00">value = [1, 2]</text>
</g>
<!-- 22&#45;&gt;23 -->
<g id="edge23" class="edge">
<title>22&#45;&gt;23</title>
<path fill="none" stroke="black" d="M591.27,-192.88C593.44,-184.69 595.79,-175.79 598.07,-167.19"/>
<polygon fill="black" stroke="black" points="601.51,-167.86 600.69,-157.3 594.74,-166.07 601.51,-167.86"/>
</g>
<!-- 26 -->
<g id="node27" class="node">
<title>26</title>
<polygon fill="none" stroke="black" points="770,-149.5 675,-149.5 675,-96.5 770,-96.5 770,-149.5"/>
<text text-anchor="middle" x="722.5" y="-134.3" font-family="Helvetica,sans-Serif" font-size="14.00">gini = 0.0</text>
<text text-anchor="middle" x="722.5" y="-119.3" font-family="Helvetica,sans-Serif" font-size="14.00">samples = 3</text>
<text text-anchor="middle" x="722.5" y="-104.3" font-family="Helvetica,sans-Serif" font-size="14.00">value = [3, 0]</text>
</g>
<!-- 22&#45;&gt;26 -->
<g id="edge26" class="edge">
<title>22&#45;&gt;26</title>
<path fill="none" stroke="black" d="M627.95,-192.88C644.41,-180.9 662.93,-167.4 679.2,-155.55"/>
<polygon fill="black" stroke="black" points="681.45,-158.24 687.47,-149.52 677.33,-152.58 681.45,-158.24"/>
</g>
<!-- 24 -->
<g id="node25" class="node">
<title>24</title>
<polygon fill="none" stroke="black" points="655,-53 560,-53 560,0 655,0 655,-53"/>
<text text-anchor="middle" x="607.5" y="-37.8" font-family="Helvetica,sans-Serif" font-size="14.00">gini = 0.0</text>
<text text-anchor="middle" x="607.5" y="-22.8" font-family="Helvetica,sans-Serif" font-size="14.00">samples = 1</text>
<text text-anchor="middle" x="607.5" y="-7.8" font-family="Helvetica,sans-Serif" font-size="14.00">value = [1, 0]</text>
</g>
<!-- 23&#45;&gt;24 -->
<g id="edge24" class="edge">
<title>23&#45;&gt;24</title>
<path fill="none" stroke="black" d="M608.8,-88.95C608.63,-80.72 608.44,-71.85 608.26,-63.48"/>
<polygon fill="black" stroke="black" points="611.76,-63.16 608.04,-53.24 604.76,-63.31 611.76,-63.16"/>
</g>
<!-- 25 -->
<g id="node26" class="node">
<title>25</title>
<polygon fill="none" stroke="black" points="768,-53 673,-53 673,0 768,0 768,-53"/>
<text text-anchor="middle" x="720.5" y="-37.8" font-family="Helvetica,sans-Serif" font-size="14.00">gini = 0.0</text>
<text text-anchor="middle" x="720.5" y="-22.8" font-family="Helvetica,sans-Serif" font-size="14.00">samples = 2</text>
<text text-anchor="middle" x="720.5" y="-7.8" font-family="Helvetica,sans-Serif" font-size="14.00">value = [0, 2]</text>
</g>
<!-- 23&#45;&gt;25 -->
<g id="edge25" class="edge">
<title>23&#45;&gt;25</title>
<path fill="none" stroke="black" d="M648.32,-88.95C659.39,-79.53 671.43,-69.27 682.45,-59.89"/>
<polygon fill="black" stroke="black" points="684.92,-62.38 690.27,-53.24 680.39,-57.05 684.92,-62.38"/>
</g>
<!-- 29 -->
<g id="node30" class="node">
<title>29</title>
<polygon fill="none" stroke="black" points="761.5,-573 657.5,-573 657.5,-505 761.5,-505 761.5,-573"/>
<text text-anchor="middle" x="709.5" y="-557.8" font-family="Helvetica,sans-Serif" font-size="14.00">x[0] &lt;= 16.113</text>
<text text-anchor="middle" x="709.5" y="-542.8" font-family="Helvetica,sans-Serif" font-size="14.00">gini = 0.408</text>
<text text-anchor="middle" x="709.5" y="-527.8" font-family="Helvetica,sans-Serif" font-size="14.00">samples = 7</text>
<text text-anchor="middle" x="709.5" y="-512.8" font-family="Helvetica,sans-Serif" font-size="14.00">value = [5, 2]</text>
</g>
<!-- 28&#45;&gt;29 -->
<g id="edge29" class="edge">
<title>28&#45;&gt;29</title>
<path fill="none" stroke="black" d="M709.5,-608.88C709.5,-600.78 709.5,-591.98 709.5,-583.47"/>
<polygon fill="black" stroke="black" points="713,-583.3 709.5,-573.3 706,-583.3 713,-583.3"/>
</g>
<!-- 34 -->
<g id="node35" class="node">
<title>34</title>
<polygon fill="none" stroke="black" points="963.5,-573 861.5,-573 861.5,-505 963.5,-505 963.5,-573"/>
<text text-anchor="middle" x="912.5" y="-557.8" font-family="Helvetica,sans-Serif" font-size="14.00">x[2] &lt;= 2.49</text>
<text text-anchor="middle" x="912.5" y="-542.8" font-family="Helvetica,sans-Serif" font-size="14.00">gini = 0.153</text>
<text text-anchor="middle" x="912.5" y="-527.8" font-family="Helvetica,sans-Serif" font-size="14.00">samples = 24</text>
<text text-anchor="middle" x="912.5" y="-512.8" font-family="Helvetica,sans-Serif" font-size="14.00">value = [2, 22]</text>
</g>
<!-- 28&#45;&gt;34 -->
<g id="edge34" class="edge">
<title>28&#45;&gt;34</title>
<path fill="none" stroke="black" d="M763.63,-614.8C790.98,-601.06 824.23,-584.35 852.37,-570.21"/>
<polygon fill="black" stroke="black" points="853.95,-573.34 861.31,-565.72 850.81,-567.08 853.95,-573.34"/>
</g>
<!-- 30 -->
<g id="node31" class="node">
<title>30</title>
<polygon fill="none" stroke="black" points="733.5,-469 629.5,-469 629.5,-401 733.5,-401 733.5,-469"/>
<text text-anchor="middle" x="681.5" y="-453.8" font-family="Helvetica,sans-Serif" font-size="14.00">x[2] &lt;= 10.543</text>
<text text-anchor="middle" x="681.5" y="-438.8" font-family="Helvetica,sans-Serif" font-size="14.00">gini = 0.278</text>
<text text-anchor="middle" x="681.5" y="-423.8" font-family="Helvetica,sans-Serif" font-size="14.00">samples = 6</text>
<text text-anchor="middle" x="681.5" y="-408.8" font-family="Helvetica,sans-Serif" font-size="14.00">value = [5, 1]</text>
</g>
<!-- 29&#45;&gt;30 -->
<g id="edge30" class="edge">
<title>29&#45;&gt;30</title>
<path fill="none" stroke="black" d="M700.41,-504.88C698.16,-496.69 695.72,-487.79 693.36,-479.19"/>
<polygon fill="black" stroke="black" points="696.66,-478.02 690.64,-469.3 689.91,-479.87 696.66,-478.02"/>
</g>
<!-- 33 -->
<g id="node34" class="node">
<title>33</title>
<polygon fill="none" stroke="black" points="847,-461.5 752,-461.5 752,-408.5 847,-408.5 847,-461.5"/>
<text text-anchor="middle" x="799.5" y="-446.3" font-family="Helvetica,sans-Serif" font-size="14.00">gini = 0.0</text>
<text text-anchor="middle" x="799.5" y="-431.3" font-family="Helvetica,sans-Serif" font-size="14.00">samples = 1</text>
<text text-anchor="middle" x="799.5" y="-416.3" font-family="Helvetica,sans-Serif" font-size="14.00">value = [0, 1]</text>
</g>
<!-- 29&#45;&gt;33 -->
<g id="edge33" class="edge">
<title>29&#45;&gt;33</title>
<path fill="none" stroke="black" d="M738.72,-504.88C748.81,-493.45 760.12,-480.63 770.21,-469.19"/>
<polygon fill="black" stroke="black" points="772.99,-471.33 776.98,-461.52 767.74,-466.7 772.99,-471.33"/>
</g>
<!-- 31 -->
<g id="node32" class="node">
<title>31</title>
<polygon fill="none" stroke="black" points="729,-357.5 634,-357.5 634,-304.5 729,-304.5 729,-357.5"/>
<text text-anchor="middle" x="681.5" y="-342.3" font-family="Helvetica,sans-Serif" font-size="14.00">gini = 0.0</text>
<text text-anchor="middle" x="681.5" y="-327.3" font-family="Helvetica,sans-Serif" font-size="14.00">samples = 5</text>
<text text-anchor="middle" x="681.5" y="-312.3" font-family="Helvetica,sans-Serif" font-size="14.00">value = [5, 0]</text>
</g>
<!-- 30&#45;&gt;31 -->
<g id="edge31" class="edge">
<title>30&#45;&gt;31</title>
<path fill="none" stroke="black" d="M681.5,-400.88C681.5,-390.33 681.5,-378.6 681.5,-367.85"/>
<polygon fill="black" stroke="black" points="685,-367.52 681.5,-357.52 678,-367.52 685,-367.52"/>
</g>
<!-- 32 -->
<g id="node33" class="node">
<title>32</title>
<polygon fill="none" stroke="black" points="842,-357.5 747,-357.5 747,-304.5 842,-304.5 842,-357.5"/>
<text text-anchor="middle" x="794.5" y="-342.3" font-family="Helvetica,sans-Serif" font-size="14.00">gini = 0.0</text>
<text text-anchor="middle" x="794.5" y="-327.3" font-family="Helvetica,sans-Serif" font-size="14.00">samples = 1</text>
<text text-anchor="middle" x="794.5" y="-312.3" font-family="Helvetica,sans-Serif" font-size="14.00">value = [0, 1]</text>
</g>
<!-- 30&#45;&gt;32 -->
<g id="edge32" class="edge">
<title>30&#45;&gt;32</title>
<path fill="none" stroke="black" d="M718.19,-400.88C731.1,-389.23 745.6,-376.14 758.46,-364.53"/>
<polygon fill="black" stroke="black" points="761.15,-366.82 766.23,-357.52 756.46,-361.62 761.15,-366.82"/>
</g>
<!-- 35 -->
<g id="node36" class="node">
<title>35</title>
<polygon fill="none" stroke="black" points="960,-461.5 865,-461.5 865,-408.5 960,-408.5 960,-461.5"/>
<text text-anchor="middle" x="912.5" y="-446.3" font-family="Helvetica,sans-Serif" font-size="14.00">gini = 0.0</text>
<text text-anchor="middle" x="912.5" y="-431.3" font-family="Helvetica,sans-Serif" font-size="14.00">samples = 1</text>
<text text-anchor="middle" x="912.5" y="-416.3" font-family="Helvetica,sans-Serif" font-size="14.00">value = [1, 0]</text>
</g>
<!-- 34&#45;&gt;35 -->
<g id="edge35" class="edge">
<title>34&#45;&gt;35</title>
<path fill="none" stroke="black" d="M912.5,-504.88C912.5,-494.33 912.5,-482.6 912.5,-471.85"/>
<polygon fill="black" stroke="black" points="916,-471.52 912.5,-461.52 909,-471.52 916,-471.52"/>
</g>
<!-- 36 -->
<g id="node37" class="node">
<title>36</title>
<polygon fill="none" stroke="black" points="1080.5,-469 978.5,-469 978.5,-401 1080.5,-401 1080.5,-469"/>
<text text-anchor="middle" x="1029.5" y="-453.8" font-family="Helvetica,sans-Serif" font-size="14.00">x[2] &lt;= 5.177</text>
<text text-anchor="middle" x="1029.5" y="-438.8" font-family="Helvetica,sans-Serif" font-size="14.00">gini = 0.083</text>
<text text-anchor="middle" x="1029.5" y="-423.8" font-family="Helvetica,sans-Serif" font-size="14.00">samples = 23</text>
<text text-anchor="middle" x="1029.5" y="-408.8" font-family="Helvetica,sans-Serif" font-size="14.00">value = [1, 22]</text>
</g>
<!-- 34&#45;&gt;36 -->
<g id="edge36" class="edge">
<title>34&#45;&gt;36</title>
<path fill="none" stroke="black" d="M950.49,-504.88C961.01,-495.71 972.55,-485.65 983.48,-476.12"/>
<polygon fill="black" stroke="black" points="986.07,-478.51 991.3,-469.3 981.47,-473.23 986.07,-478.51"/>
</g>
<!-- 37 -->
<g id="node38" class="node">
<title>37</title>
<polygon fill="none" stroke="black" points="1021,-365 920,-365 920,-297 1021,-297 1021,-365"/>
<text text-anchor="middle" x="970.5" y="-349.8" font-family="Helvetica,sans-Serif" font-size="14.00">x[5] &lt;= &#45;10.81</text>
<text text-anchor="middle" x="970.5" y="-334.8" font-family="Helvetica,sans-Serif" font-size="14.00">gini = 0.32</text>
<text text-anchor="middle" x="970.5" y="-319.8" font-family="Helvetica,sans-Serif" font-size="14.00">samples = 5</text>
<text text-anchor="middle" x="970.5" y="-304.8" font-family="Helvetica,sans-Serif" font-size="14.00">value = [1, 4]</text>
</g>
<!-- 36&#45;&gt;37 -->
<g id="edge37" class="edge">
<title>36&#45;&gt;37</title>
<path fill="none" stroke="black" d="M1010.34,-400.88C1005.4,-392.33 1000.01,-383.01 994.84,-374.07"/>
<polygon fill="black" stroke="black" points="997.8,-372.2 989.76,-365.3 991.74,-375.71 997.8,-372.2"/>
</g>
<!-- 40 -->
<g id="node41" class="node">
<title>40</title>
<polygon fill="none" stroke="black" points="1141.5,-357.5 1039.5,-357.5 1039.5,-304.5 1141.5,-304.5 1141.5,-357.5"/>
<text text-anchor="middle" x="1090.5" y="-342.3" font-family="Helvetica,sans-Serif" font-size="14.00">gini = 0.0</text>
<text text-anchor="middle" x="1090.5" y="-327.3" font-family="Helvetica,sans-Serif" font-size="14.00">samples = 18</text>
<text text-anchor="middle" x="1090.5" y="-312.3" font-family="Helvetica,sans-Serif" font-size="14.00">value = [0, 18]</text>
</g>
<!-- 36&#45;&gt;40 -->
<g id="edge40" class="edge">
<title>36&#45;&gt;40</title>
<path fill="none" stroke="black" d="M1049.3,-400.88C1055.95,-389.78 1063.37,-377.37 1070.06,-366.18"/>
<polygon fill="black" stroke="black" points="1073.11,-367.9 1075.24,-357.52 1067.1,-364.31 1073.11,-367.9"/>
</g>
<!-- 38 -->
<g id="node39" class="node">
<title>38</title>
<polygon fill="none" stroke="black" points="962,-253.5 867,-253.5 867,-200.5 962,-200.5 962,-253.5"/>
<text text-anchor="middle" x="914.5" y="-238.3" font-family="Helvetica,sans-Serif" font-size="14.00">gini = 0.0</text>
<text text-anchor="middle" x="914.5" y="-223.3" font-family="Helvetica,sans-Serif" font-size="14.00">samples = 4</text>
<text text-anchor="middle" x="914.5" y="-208.3" font-family="Helvetica,sans-Serif" font-size="14.00">value = [0, 4]</text>
</g>
<!-- 37&#45;&gt;38 -->
<g id="edge38" class="edge">
<title>37&#45;&gt;38</title>
<path fill="none" stroke="black" d="M952.32,-296.88C946.28,-285.89 939.54,-273.62 933.45,-262.52"/>
<polygon fill="black" stroke="black" points="936.39,-260.6 928.51,-253.52 930.26,-263.97 936.39,-260.6"/>
</g>
<!-- 39 -->
<g id="node40" class="node">
<title>39</title>
<polygon fill="none" stroke="black" points="1075,-253.5 980,-253.5 980,-200.5 1075,-200.5 1075,-253.5"/>
<text text-anchor="middle" x="1027.5" y="-238.3" font-family="Helvetica,sans-Serif" font-size="14.00">gini = 0.0</text>
<text text-anchor="middle" x="1027.5" y="-223.3" font-family="Helvetica,sans-Serif" font-size="14.00">samples = 1</text>
<text text-anchor="middle" x="1027.5" y="-208.3" font-family="Helvetica,sans-Serif" font-size="14.00">value = [1, 0]</text>
</g>
<!-- 37&#45;&gt;39 -->
<g id="edge39" class="edge">
<title>37&#45;&gt;39</title>
<path fill="none" stroke="black" d="M989.01,-296.88C995.15,-285.89 1002.01,-273.62 1008.21,-262.52"/>
<polygon fill="black" stroke="black" points="1011.42,-263.96 1013.24,-253.52 1005.31,-260.54 1011.42,-263.96"/>
</g>
</g>
</svg>