<?xml version="1.0" encoding="UTF-8" standalone="no"?>
<!DOCTYPE svg PUBLIC "-//W3C//DTD SVG 1.1//EN"
 "http://www.w3.org/Graphics/SVG/1.1/DTD/svg11.dtd">
<!-- Generated by graphviz version 2.40.1 (20161225.0304)
 -->
<!-- Title: Tree Pages: 1 -->
<svg width="1197pt" height="1101pt"
 viewBox="0.00 0.00 1197.00 1101.00" xmlns="http://www.w3.org/2000/svg" xmlns:xlink="http://www.w3.org/1999/xlink">
<g id="graph0" class="graph" transform="scale(1 1) rotate(0) translate(4 1097)">
<title>Tree</title>
<polygon fill="#ffffff" stroke="transparent" points="-4,4 -4,-1097 1193,-1097 1193,4 -4,4"/>
<!-- 0 -->
<g id="node1" class="node">
<title>0</title>
<polygon fill="none" stroke="#000000" points="774.5,-1093 658.5,-1093 658.5,-1025 774.5,-1025 774.5,-1093"/>
<text text-anchor="middle" x="716.5" y="-1077.8" font-family="Helvetica,sans-Serif" font-size="14.00" fill="#000000">X[0] &lt;= 8.692</text>
<text text-anchor="middle" x="716.5" y="-1062.8" font-family="Helvetica,sans-Serif" font-size="14.00" fill="#000000">gini = 0.491</text>
<text text-anchor="middle" x="716.5" y="-1047.8" font-family="Helvetica,sans-Serif" font-size="14.00" fill="#000000">samples = 81</text>
<text text-anchor="middle" x="716.5" y="-1032.8" font-family="Helvetica,sans-Serif" font-size="14.00" fill="#000000">value = [35, 46]</text>
</g>
<!-- 1 -->
<g id="node2" class="node">
<title>1</title>
<polygon fill="none" stroke="#000000" points="707.5,-989 591.5,-989 591.5,-921 707.5,-921 707.5,-989"/>
<text text-anchor="middle" x="649.5" y="-973.8" font-family="Helvetica,sans-Serif" font-size="14.00" fill="#000000">X[1] &lt;= 7.933</text>
<text text-anchor="middle" x="649.5" y="-958.8" font-family="Helvetica,sans-Serif" font-size="14.00" fill="#000000">gini = 0.495</text>
<text text-anchor="middle" x="649.5" y="-943.8" font-family="Helvetica,sans-Serif" font-size="14.00" fill="#000000">samples = 51</text>
<text text-anchor="middle" x="649.5" y="-928.8" font-family="Helvetica,sans-Serif" font-size="14.00" fill="#000000">value = [28, 23]</text>
</g>
<!-- 0&#45;&gt;1 -->
<g id="edge1" class="edge">
<title>0&#45;&gt;1</title>
<path fill="none" stroke="#000000" d="M694.5617,-1024.9465C688.951,-1016.2373 682.8471,-1006.7626 676.9958,-997.6801"/>
<polygon fill="#000000" stroke="#000000" points="679.8457,-995.641 671.4876,-989.13 673.9611,-999.4321 679.8457,-995.641"/>
<text text-anchor="middle" x="666.2006" y="-1009.8646" font-family="Helvetica,sans-Serif" font-size="14.00" fill="#000000">True</text>
</g>
<!-- 32 -->
<g id="node33" class="node">
<title>32</title>
<polygon fill="none" stroke="#000000" points="892.5,-989 776.5,-989 776.5,-921 892.5,-921 892.5,-989"/>
<text text-anchor="middle" x="834.5" y="-973.8" font-family="Helvetica,sans-Serif" font-size="14.00" fill="#000000">X[8] &lt;= &#45;34.049</text>
<text text-anchor="middle" x="834.5" y="-958.8" font-family="Helvetica,sans-Serif" font-size="14.00" fill="#000000">gini = 0.358</text>
<text text-anchor="middle" x="834.5" y="-943.8" font-family="Helvetica,sans-Serif" font-size="14.00" fill="#000000">samples = 30</text>
<text text-anchor="middle" x="834.5" y="-928.8" font-family="Helvetica,sans-Serif" font-size="14.00" fill="#000000">value = [7, 23]</text>
</g>
<!-- 0&#45;&gt;32 -->
<g id="edge32" class="edge">
<title>0&#45;&gt;32</title>
<path fill="none" stroke="#000000" d="M755.1376,-1024.9465C765.6304,-1015.6986 777.1026,-1005.5876 787.9814,-995.9994"/>
<polygon fill="#000000" stroke="#000000" points="790.5877,-998.3678 795.7756,-989.13 785.9593,-993.1163 790.5877,-998.3678"/>
<text text-anchor="middle" x="794.2021" y="-1010.3804" font-family="Helvetica,sans-Serif" font-size="14.00" fill="#000000">False</text>
</g>
<!-- 2 -->
<g id="node3" class="node">
<title>2</title>
<polygon fill="none" stroke="#000000" points="573,-877.5 474,-877.5 474,-824.5 573,-824.5 573,-877.5"/>
<text text-anchor="middle" x="523.5" y="-862.3" font-family="Helvetica,sans-Serif" font-size="14.00" fill="#000000">gini = 0.0</text>
<text text-anchor="middle" x="523.5" y="-847.3" font-family="Helvetica,sans-Serif" font-size="14.00" fill="#000000">samples = 5</text>
<text text-anchor="middle" x="523.5" y="-832.3" font-family="Helvetica,sans-Serif" font-size="14.00" fill="#000000">value = [5, 0]</text>
</g>
<!-- 1&#45;&gt;2 -->
<g id="edge2" class="edge">
<title>1&#45;&gt;2</title>
<path fill="none" stroke="#000000" d="M608.2429,-920.9465C593.8303,-909.0504 577.6873,-895.726 563.3883,-883.9237"/>
<polygon fill="#000000" stroke="#000000" points="565.5971,-881.2086 555.6569,-877.5422 561.1411,-886.6071 565.5971,-881.2086"/>
</g>
<!-- 3 -->
<g id="node4" class="node">
<title>3</title>
<polygon fill="none" stroke="#000000" points="707.5,-885 591.5,-885 591.5,-817 707.5,-817 707.5,-885"/>
<text text-anchor="middle" x="649.5" y="-869.8" font-family="Helvetica,sans-Serif" font-size="14.00" fill="#000000">X[4] &lt;= &#45;8.772</text>
<text text-anchor="middle" x="649.5" y="-854.8" font-family="Helvetica,sans-Serif" font-size="14.00" fill="#000000">gini = 0.5</text>
<text text-anchor="middle" x="649.5" y="-839.8" font-family="Helvetica,sans-Serif" font-size="14.00" fill="#000000">samples = 46</text>
<text text-anchor="middle" x="649.5" y="-824.8" font-family="Helvetica,sans-Serif" font-size="14.00" fill="#000000">value = [23, 23]</text>
</g>
<!-- 1&#45;&gt;3 -->
<g id="edge3" class="edge">
<title>1&#45;&gt;3</title>
<path fill="none" stroke="#000000" d="M649.5,-920.9465C649.5,-912.776 649.5,-903.9318 649.5,-895.3697"/>
<polygon fill="#000000" stroke="#000000" points="653.0001,-895.13 649.5,-885.13 646.0001,-895.13 653.0001,-895.13"/>
</g>
<!-- 4 -->
<g id="node5" class="node">
<title>4</title>
<polygon fill="none" stroke="#000000" points="467.5,-781 351.5,-781 351.5,-713 467.5,-713 467.5,-781"/>
<text text-anchor="middle" x="409.5" y="-765.8" font-family="Helvetica,sans-Serif" font-size="14.00" fill="#000000">X[0] &lt;= 2.704</text>
<text text-anchor="middle" x="409.5" y="-750.8" font-family="Helvetica,sans-Serif" font-size="14.00" fill="#000000">gini = 0.482</text>
<text text-anchor="middle" x="409.5" y="-735.8" font-family="Helvetica,sans-Serif" font-size="14.00" fill="#000000">samples = 32</text>
<text text-anchor="middle" x="409.5" y="-720.8" font-family="Helvetica,sans-Serif" font-size="14.00" fill="#000000">value = [19, 13]</text>
</g>
<!-- 3&#45;&gt;4 -->
<g id="edge4" class="edge">
<title>3&#45;&gt;4</title>
<path fill="none" stroke="#000000" d="M591.4033,-821.5828C588.0648,-820.0075 584.7466,-818.4697 581.5,-817 547.5636,-801.6378 509.2218,-785.8827 477.3651,-773.219"/>
<polygon fill="#000000" stroke="#000000" points="478.285,-769.8189 467.6987,-769.392 475.7081,-776.3274 478.285,-769.8189"/>
</g>
<!-- 21 -->
<g id="node22" class="node">
<title>21</title>
<polygon fill="none" stroke="#000000" points="703,-781 596,-781 596,-713 703,-713 703,-781"/>
<text text-anchor="middle" x="649.5" y="-765.8" font-family="Helvetica,sans-Serif" font-size="14.00" fill="#000000">X[0] &lt;= 3.354</text>
<text text-anchor="middle" x="649.5" y="-750.8" font-family="Helvetica,sans-Serif" font-size="14.00" fill="#000000">gini = 0.408</text>
<text text-anchor="middle" x="649.5" y="-735.8" font-family="Helvetica,sans-Serif" font-size="14.00" fill="#000000">samples = 14</text>
<text text-anchor="middle" x="649.5" y="-720.8" font-family="Helvetica,sans-Serif" font-size="14.00" fill="#000000">value = [4, 10]</text>
</g>
<!-- 3&#45;&gt;21 -->
<g id="edge21" class="edge">
<title>3&#45;&gt;21</title>
<path fill="none" stroke="#000000" d="M649.5,-816.9465C649.5,-808.776 649.5,-799.9318 649.5,-791.3697"/>
<polygon fill="#000000" stroke="#000000" points="653.0001,-791.13 649.5,-781.13 646.0001,-791.13 653.0001,-791.13"/>
</g>
<!-- 5 -->
<g id="node6" class="node">
<title>5</title>
<polygon fill="none" stroke="#000000" points="333,-669.5 234,-669.5 234,-616.5 333,-616.5 333,-669.5"/>
<text text-anchor="middle" x="283.5" y="-654.3" font-family="Helvetica,sans-Serif" font-size="14.00" fill="#000000">gini = 0.0</text>
<text text-anchor="middle" x="283.5" y="-639.3" font-family="Helvetica,sans-Serif" font-size="14.00" fill="#000000">samples = 2</text>
<text text-anchor="middle" x="283.5" y="-624.3" font-family="Helvetica,sans-Serif" font-size="14.00" fill="#000000">value = [0, 2]</text>
</g>
<!-- 4&#45;&gt;5 -->
<g id="edge5" class="edge">
<title>4&#45;&gt;5</title>
<path fill="none" stroke="#000000" d="M368.2429,-712.9465C353.8303,-701.0504 337.6873,-687.726 323.3883,-675.9237"/>
<polygon fill="#000000" stroke="#000000" points="325.5971,-673.2086 315.6569,-669.5422 321.1411,-678.6071 325.5971,-673.2086"/>
</g>
<!-- 6 -->
<g id="node7" class="node">
<title>6</title>
<polygon fill="none" stroke="#000000" points="467.5,-677 351.5,-677 351.5,-609 467.5,-609 467.5,-677"/>
<text text-anchor="middle" x="409.5" y="-661.8" font-family="Helvetica,sans-Serif" font-size="14.00" fill="#000000">X[1] &lt;= 17.499</text>
<text text-anchor="middle" x="409.5" y="-646.8" font-family="Helvetica,sans-Serif" font-size="14.00" fill="#000000">gini = 0.464</text>
<text text-anchor="middle" x="409.5" y="-631.8" font-family="Helvetica,sans-Serif" font-size="14.00" fill="#000000">samples = 30</text>
<text text-anchor="middle" x="409.5" y="-616.8" font-family="Helvetica,sans-Serif" font-size="14.00" fill="#000000">value = [19, 11]</text>
</g>
<!-- 4&#45;&gt;6 -->
<g id="edge6" class="edge">
<title>4&#45;&gt;6</title>
<path fill="none" stroke="#000000" d="M409.5,-712.9465C409.5,-704.776 409.5,-695.9318 409.5,-687.3697"/>
<polygon fill="#000000" stroke="#000000" points="413.0001,-687.13 409.5,-677.13 406.0001,-687.13 413.0001,-687.13"/>
</g>
<!-- 7 -->
<g id="node8" class="node">
<title>7</title>
<polygon fill="none" stroke="#000000" points="333,-565.5 234,-565.5 234,-512.5 333,-512.5 333,-565.5"/>
<text text-anchor="middle" x="283.5" y="-550.3" font-family="Helvetica,sans-Serif" font-size="14.00" fill="#000000">gini = 0.0</text>
<text text-anchor="middle" x="283.5" y="-535.3" font-family="Helvetica,sans-Serif" font-size="14.00" fill="#000000">samples = 5</text>
<text text-anchor="middle" x="283.5" y="-520.3" font-family="Helvetica,sans-Serif" font-size="14.00" fill="#000000">value = [5, 0]</text>
</g>
<!-- 6&#45;&gt;7 -->
<g id="edge7" class="edge">
<title>6&#45;&gt;7</title>
<path fill="none" stroke="#000000" d="M368.2429,-608.9465C353.8303,-597.0504 337.6873,-583.726 323.3883,-571.9237"/>
<polygon fill="#000000" stroke="#000000" points="325.5971,-569.2086 315.6569,-565.5422 321.1411,-574.6071 325.5971,-569.2086"/>
</g>
<!-- 8 -->
<g id="node9" class="node">
<title>8</title>
<polygon fill="none" stroke="#000000" points="467.5,-573 351.5,-573 351.5,-505 467.5,-505 467.5,-573"/>
<text text-anchor="middle" x="409.5" y="-557.8" font-family="Helvetica,sans-Serif" font-size="14.00" fill="#000000">X[2] &lt;= 9.104</text>
<text text-anchor="middle" x="409.5" y="-542.8" font-family="Helvetica,sans-Serif" font-size="14.00" fill="#000000">gini = 0.493</text>
<text text-anchor="middle" x="409.5" y="-527.8" font-family="Helvetica,sans-Serif" font-size="14.00" fill="#000000">samples = 25</text>
<text text-anchor="middle" x="409.5" y="-512.8" font-family="Helvetica,sans-Serif" font-size="14.00" fill="#000000">value = [14, 11]</text>
</g>
<!-- 6&#45;&gt;8 -->
<g id="edge8" class="edge">
<title>6&#45;&gt;8</title>
<path fill="none" stroke="#000000" d="M409.5,-608.9465C409.5,-600.776 409.5,-591.9318 409.5,-583.3697"/>
<polygon fill="#000000" stroke="#000000" points="413.0001,-583.13 409.5,-573.13 406.0001,-583.13 413.0001,-583.13"/>
</g>
<!-- 9 -->
<g id="node10" class="node">
<title>9</title>
<polygon fill="none" stroke="#000000" points="339,-469 232,-469 232,-401 339,-401 339,-469"/>
<text text-anchor="middle" x="285.5" y="-453.8" font-family="Helvetica,sans-Serif" font-size="14.00" fill="#000000">X[8] &lt;= &#45;14.59</text>
<text text-anchor="middle" x="285.5" y="-438.8" font-family="Helvetica,sans-Serif" font-size="14.00" fill="#000000">gini = 0.375</text>
<text text-anchor="middle" x="285.5" y="-423.8" font-family="Helvetica,sans-Serif" font-size="14.00" fill="#000000">samples = 16</text>
<text text-anchor="middle" x="285.5" y="-408.8" font-family="Helvetica,sans-Serif" font-size="14.00" fill="#000000">value = [12, 4]</text>
</g>
<!-- 8&#45;&gt;9 -->
<g id="edge9" class="edge">
<title>8&#45;&gt;9</title>
<path fill="none" stroke="#000000" d="M368.8978,-504.9465C357.7644,-495.6088 345.5817,-485.3911 334.0511,-475.7203"/>
<polygon fill="#000000" stroke="#000000" points="336.1046,-472.8745 326.1935,-469.13 331.6062,-478.2378 336.1046,-472.8745"/>
</g>
<!-- 18 -->
<g id="node19" class="node">
<title>18</title>
<polygon fill="none" stroke="#000000" points="468,-469 357,-469 357,-401 468,-401 468,-469"/>
<text text-anchor="middle" x="412.5" y="-453.8" font-family="Helvetica,sans-Serif" font-size="14.00" fill="#000000">X[5] &lt;= 13.097</text>
<text text-anchor="middle" x="412.5" y="-438.8" font-family="Helvetica,sans-Serif" font-size="14.00" fill="#000000">gini = 0.346</text>
<text text-anchor="middle" x="412.5" y="-423.8" font-family="Helvetica,sans-Serif" font-size="14.00" fill="#000000">samples = 9</text>
<text text-anchor="middle" x="412.5" y="-408.8" font-family="Helvetica,sans-Serif" font-size="14.00" fill="#000000">value = [2, 7]</text>
</g>
<!-- 8&#45;&gt;18 -->
<g id="edge18" class="edge">
<title>8&#45;&gt;18</title>
<path fill="none" stroke="#000000" d="M410.4823,-504.9465C410.718,-496.776 410.9731,-487.9318 411.2201,-479.3697"/>
<polygon fill="#000000" stroke="#000000" points="414.7256,-479.2268 411.5155,-469.13 407.7285,-479.0249 414.7256,-479.2268"/>
</g>
<!-- 10 -->
<g id="node11" class="node">
<title>10</title>
<polygon fill="none" stroke="#000000" points="221,-365 114,-365 114,-297 221,-297 221,-365"/>
<text text-anchor="middle" x="167.5" y="-349.8" font-family="Helvetica,sans-Serif" font-size="14.00" fill="#000000">X[2] &lt;= 6.721</text>
<text text-anchor="middle" x="167.5" y="-334.8" font-family="Helvetica,sans-Serif" font-size="14.00" fill="#000000">gini = 0.32</text>
<text text-anchor="middle" x="167.5" y="-319.8" font-family="Helvetica,sans-Serif" font-size="14.00" fill="#000000">samples = 15</text>
<text text-anchor="middle" x="167.5" y="-304.8" font-family="Helvetica,sans-Serif" font-size="14.00" fill="#000000">value = [12, 3]</text>
</g>
<!-- 9&#45;&gt;10 -->
<g id="edge10" class="edge">
<title>9&#45;&gt;10</title>
<path fill="none" stroke="#000000" d="M246.8624,-400.9465C236.3696,-391.6986 224.8974,-381.5876 214.0186,-371.9994"/>
<polygon fill="#000000" stroke="#000000" points="216.0407,-369.1163 206.2244,-365.13 211.4123,-374.3678 216.0407,-369.1163"/>
</g>
<!-- 17 -->
<g id="node18" class="node">
<title>17</title>
<polygon fill="none" stroke="#000000" points="338,-357.5 239,-357.5 239,-304.5 338,-304.5 338,-357.5"/>
<text text-anchor="middle" x="288.5" y="-342.3" font-family="Helvetica,sans-Serif" font-size="14.00" fill="#000000">gini = 0.0</text>
<text text-anchor="middle" x="288.5" y="-327.3" font-family="Helvetica,sans-Serif" font-size="14.00" fill="#000000">samples = 1</text>
<text text-anchor="middle" x="288.5" y="-312.3" font-family="Helvetica,sans-Serif" font-size="14.00" fill="#000000">value = [0, 1]</text>
</g>
<!-- 9&#45;&gt;17 -->
<g id="edge17" class="edge">
<title>9&#45;&gt;17</title>
<path fill="none" stroke="#000000" d="M286.4823,-400.9465C286.7905,-390.2621 287.132,-378.4254 287.445,-367.5742"/>
<polygon fill="#000000" stroke="#000000" points="290.9445,-367.639 287.7344,-357.5422 283.9474,-367.4371 290.9445,-367.639"/>
</g>
<!-- 11 -->
<g id="node12" class="node">
<title>11</title>
<polygon fill="none" stroke="#000000" points="160,-261 57,-261 57,-193 160,-193 160,-261"/>
<text text-anchor="middle" x="108.5" y="-245.8" font-family="Helvetica,sans-Serif" font-size="14.00" fill="#000000">X[2] &lt;= 3.264</text>
<text text-anchor="middle" x="108.5" y="-230.8" font-family="Helvetica,sans-Serif" font-size="14.00" fill="#000000">gini = 0.444</text>
<text text-anchor="middle" x="108.5" y="-215.8" font-family="Helvetica,sans-Serif" font-size="14.00" fill="#000000">samples = 9</text>
<text text-anchor="middle" x="108.5" y="-200.8" font-family="Helvetica,sans-Serif" font-size="14.00" fill="#000000">value = [6, 3]</text>
</g>
<!-- 10&#45;&gt;11 -->
<g id="edge11" class="edge">
<title>10&#45;&gt;11</title>
<path fill="none" stroke="#000000" d="M148.1812,-296.9465C143.2913,-288.3271 137.9761,-278.9579 132.8722,-269.9611"/>
<polygon fill="#000000" stroke="#000000" points="135.8408,-268.1008 127.8622,-261.13 129.7524,-271.5549 135.8408,-268.1008"/>
</g>
<!-- 16 -->
<g id="node17" class="node">
<title>16</title>
<polygon fill="none" stroke="#000000" points="277,-253.5 178,-253.5 178,-200.5 277,-200.5 277,-253.5"/>
<text text-anchor="middle" x="227.5" y="-238.3" font-family="Helvetica,sans-Serif" font-size="14.00" fill="#000000">gini = 0.0</text>
<text text-anchor="middle" x="227.5" y="-223.3" font-family="Helvetica,sans-Serif" font-size="14.00" fill="#000000">samples = 6</text>
<text text-anchor="middle" x="227.5" y="-208.3" font-family="Helvetica,sans-Serif" font-size="14.00" fill="#000000">value = [6, 0]</text>
</g>
<!-- 10&#45;&gt;16 -->
<g id="edge16" class="edge">
<title>10&#45;&gt;16</title>
<path fill="none" stroke="#000000" d="M187.1462,-296.9465C193.5645,-285.8215 200.7035,-273.4473 207.171,-262.237"/>
<polygon fill="#000000" stroke="#000000" points="210.2216,-263.9531 212.1872,-253.5422 204.1583,-260.455 210.2216,-263.9531"/>
</g>
<!-- 12 -->
<g id="node13" class="node">
<title>12</title>
<polygon fill="none" stroke="#000000" points="99,-149.5 0,-149.5 0,-96.5 99,-96.5 99,-149.5"/>
<text text-anchor="middle" x="49.5" y="-134.3" font-family="Helvetica,sans-Serif" font-size="14.00" fill="#000000">gini = 0.0</text>
<text text-anchor="middle" x="49.5" y="-119.3" font-family="Helvetica,sans-Serif" font-size="14.00" fill="#000000">samples = 3</text>
<text text-anchor="middle" x="49.5" y="-104.3" font-family="Helvetica,sans-Serif" font-size="14.00" fill="#000000">value = [3, 0]</text>
</g>
<!-- 11&#45;&gt;12 -->
<g id="edge12" class="edge">
<title>11&#45;&gt;12</title>
<path fill="none" stroke="#000000" d="M89.1812,-192.9465C82.9324,-181.9316 75.9888,-169.6922 69.6793,-158.5703"/>
<polygon fill="#000000" stroke="#000000" points="72.5362,-156.513 64.5576,-149.5422 66.4477,-159.967 72.5362,-156.513"/>
</g>
<!-- 13 -->
<g id="node14" class="node">
<title>13</title>
<polygon fill="none" stroke="#000000" points="220,-157 117,-157 117,-89 220,-89 220,-157"/>
<text text-anchor="middle" x="168.5" y="-141.8" font-family="Helvetica,sans-Serif" font-size="14.00" fill="#000000">X[0] &lt;= 6.722</text>
<text text-anchor="middle" x="168.5" y="-126.8" font-family="Helvetica,sans-Serif" font-size="14.00" fill="#000000">gini = 0.5</text>
<text text-anchor="middle" x="168.5" y="-111.8" font-family="Helvetica,sans-Serif" font-size="14.00" fill="#000000">samples = 6</text>
<text text-anchor="middle" x="168.5" y="-96.8" font-family="Helvetica,sans-Serif" font-size="14.00" fill="#000000">value = [3, 3]</text>
</g>
<!-- 11&#45;&gt;13 -->
<g id="edge13" class="edge">
<title>11&#45;&gt;13</title>
<path fill="none" stroke="#000000" d="M128.1462,-192.9465C133.119,-184.3271 138.5243,-174.9579 143.7148,-165.9611"/>
<polygon fill="#000000" stroke="#000000" points="146.844,-167.5409 148.8096,-157.13 140.7807,-164.0428 146.844,-167.5409"/>
</g>
<!-- 14 -->
<g id="node15" class="node">
<title>14</title>
<polygon fill="none" stroke="#000000" points="159,-53 60,-53 60,0 159,0 159,-53"/>
<text text-anchor="middle" x="109.5" y="-37.8" font-family="Helvetica,sans-Serif" font-size="14.00" fill="#000000">gini = 0.0</text>
<text text-anchor="middle" x="109.5" y="-22.8" font-family="Helvetica,sans-Serif" font-size="14.00" fill="#000000">samples = 3</text>
<text text-anchor="middle" x="109.5" y="-7.8" font-family="Helvetica,sans-Serif" font-size="14.00" fill="#000000">value = [0, 3]</text>
</g>
<!-- 13&#45;&gt;14 -->
<g id="edge14" class="edge">
<title>13&#45;&gt;14</title>
<path fill="none" stroke="#000000" d="M147.6988,-88.9777C142.3242,-80.187 136.5265,-70.7044 131.1115,-61.8477"/>
<polygon fill="#000000" stroke="#000000" points="134.0564,-59.9545 125.854,-53.2485 128.0842,-63.6059 134.0564,-59.9545"/>
</g>
<!-- 15 -->
<g id="node16" class="node">
<title>15</title>
<polygon fill="none" stroke="#000000" points="276,-53 177,-53 177,0 276,0 276,-53"/>
<text text-anchor="middle" x="226.5" y="-37.8" font-family="Helvetica,sans-Serif" font-size="14.00" fill="#000000">gini = 0.0</text>
<text text-anchor="middle" x="226.5" y="-22.8" font-family="Helvetica,sans-Serif" font-size="14.00" fill="#000000">samples = 3</text>
<text text-anchor="middle" x="226.5" y="-7.8" font-family="Helvetica,sans-Serif" font-size="14.00" fill="#000000">value = [3, 0]</text>
</g>
<!-- 13&#45;&gt;15 -->
<g id="edge15" class="edge">
<title>13&#45;&gt;15</title>
<path fill="none" stroke="#000000" d="M188.9486,-88.9777C194.2322,-80.187 199.9316,-70.7044 205.2548,-61.8477"/>
<polygon fill="#000000" stroke="#000000" points="208.2715,-63.6225 210.4232,-53.2485 202.2718,-60.0165 208.2715,-63.6225"/>
</g>
<!-- 19 -->
<g id="node20" class="node">
<title>19</title>
<polygon fill="none" stroke="#000000" points="460,-357.5 361,-357.5 361,-304.5 460,-304.5 460,-357.5"/>
<text text-anchor="middle" x="410.5" y="-342.3" font-family="Helvetica,sans-Serif" font-size="14.00" fill="#000000">gini = 0.0</text>
<text text-anchor="middle" x="410.5" y="-327.3" font-family="Helvetica,sans-Serif" font-size="14.00" fill="#000000">samples = 7</text>
<text text-anchor="middle" x="410.5" y="-312.3" font-family="Helvetica,sans-Serif" font-size="14.00" fill="#000000">value = [0, 7]</text>
</g>
<!-- 18&#45;&gt;19 -->
<g id="edge19" class="edge">
<title>18&#45;&gt;19</title>
<path fill="none" stroke="#000000" d="M411.8451,-400.9465C411.6397,-390.2621 411.412,-378.4254 411.2034,-367.5742"/>
<polygon fill="#000000" stroke="#000000" points="414.7021,-367.473 411.0104,-357.5422 407.7034,-367.6076 414.7021,-367.473"/>
</g>
<!-- 20 -->
<g id="node21" class="node">
<title>20</title>
<polygon fill="none" stroke="#000000" points="577,-357.5 478,-357.5 478,-304.5 577,-304.5 577,-357.5"/>
<text text-anchor="middle" x="527.5" y="-342.3" font-family="Helvetica,sans-Serif" font-size="14.00" fill="#000000">gini = 0.0</text>
<text text-anchor="middle" x="527.5" y="-327.3" font-family="Helvetica,sans-Serif" font-size="14.00" fill="#000000">samples = 2</text>
<text text-anchor="middle" x="527.5" y="-312.3" font-family="Helvetica,sans-Serif" font-size="14.00" fill="#000000">value = [2, 0]</text>
</g>
<!-- 18&#45;&gt;20 -->
<g id="edge20" class="edge">
<title>18&#45;&gt;20</title>
<path fill="none" stroke="#000000" d="M450.1553,-400.9465C463.1878,-389.1606 477.7706,-375.9726 490.7311,-364.2519"/>
<polygon fill="#000000" stroke="#000000" points="493.0812,-366.8456 498.1505,-357.5422 488.386,-361.6537 493.0812,-366.8456"/>
</g>
<!-- 22 -->
<g id="node23" class="node">
<title>22</title>
<polygon fill="none" stroke="#000000" points="701,-677 594,-677 594,-609 701,-609 701,-677"/>
<text text-anchor="middle" x="647.5" y="-661.8" font-family="Helvetica,sans-Serif" font-size="14.00" fill="#000000">X[8] &lt;= &#45;5.503</text>
<text text-anchor="middle" x="647.5" y="-646.8" font-family="Helvetica,sans-Serif" font-size="14.00" fill="#000000">gini = 0.444</text>
<text text-anchor="middle" x="647.5" y="-631.8" font-family="Helvetica,sans-Serif" font-size="14.00" fill="#000000">samples = 3</text>
<text text-anchor="middle" x="647.5" y="-616.8" font-family="Helvetica,sans-Serif" font-size="14.00" fill="#000000">value = [2, 1]</text>
</g>
<!-- 21&#45;&gt;22 -->
<g id="edge22" class="edge">
<title>21&#45;&gt;22</title>
<path fill="none" stroke="#000000" d="M648.8451,-712.9465C648.688,-704.776 648.5179,-695.9318 648.3533,-687.3697"/>
<polygon fill="#000000" stroke="#000000" points="651.8481,-687.0608 648.1563,-677.13 644.8494,-687.1955 651.8481,-687.0608"/>
</g>
<!-- 25 -->
<g id="node26" class="node">
<title>25</title>
<polygon fill="none" stroke="#000000" points="830,-677 719,-677 719,-609 830,-609 830,-677"/>
<text text-anchor="middle" x="774.5" y="-661.8" font-family="Helvetica,sans-Serif" font-size="14.00" fill="#000000">X[7] &lt;= 21.655</text>
<text text-anchor="middle" x="774.5" y="-646.8" font-family="Helvetica,sans-Serif" font-size="14.00" fill="#000000">gini = 0.298</text>
<text text-anchor="middle" x="774.5" y="-631.8" font-family="Helvetica,sans-Serif" font-size="14.00" fill="#000000">samples = 11</text>
<text text-anchor="middle" x="774.5" y="-616.8" font-family="Helvetica,sans-Serif" font-size="14.00" fill="#000000">value = [2, 9]</text>
</g>
<!-- 21&#45;&gt;25 -->
<g id="edge25" class="edge">
<title>21&#45;&gt;25</title>
<path fill="none" stroke="#000000" d="M690.4297,-712.9465C701.6528,-703.6088 713.9337,-693.3911 725.5573,-683.7203"/>
<polygon fill="#000000" stroke="#000000" points="728.0296,-686.2164 733.4784,-677.13 723.5526,-680.8353 728.0296,-686.2164"/>
</g>
<!-- 23 -->
<g id="node24" class="node">
<title>23</title>
<polygon fill="none" stroke="#000000" points="585,-565.5 486,-565.5 486,-512.5 585,-512.5 585,-565.5"/>
<text text-anchor="middle" x="535.5" y="-550.3" font-family="Helvetica,sans-Serif" font-size="14.00" fill="#000000">gini = 0.0</text>
<text text-anchor="middle" x="535.5" y="-535.3" font-family="Helvetica,sans-Serif" font-size="14.00" fill="#000000">samples = 2</text>
<text text-anchor="middle" x="535.5" y="-520.3" font-family="Helvetica,sans-Serif" font-size="14.00" fill="#000000">value = [2, 0]</text>
</g>
<!-- 22&#45;&gt;23 -->
<g id="edge23" class="edge">
<title>22&#45;&gt;23</title>
<path fill="none" stroke="#000000" d="M610.827,-608.9465C598.2531,-597.2707 584.1974,-584.219 571.6641,-572.5809"/>
<polygon fill="#000000" stroke="#000000" points="573.7934,-569.7819 564.0839,-565.5422 569.0302,-574.9115 573.7934,-569.7819"/>
</g>
<!-- 24 -->
<g id="node25" class="node">
<title>24</title>
<polygon fill="none" stroke="#000000" points="702,-565.5 603,-565.5 603,-512.5 702,-512.5 702,-565.5"/>
<text text-anchor="middle" x="652.5" y="-550.3" font-family="Helvetica,sans-Serif" font-size="14.00" fill="#000000">gini = 0.0</text>
<text text-anchor="middle" x="652.5" y="-535.3" font-family="Helvetica,sans-Serif" font-size="14.00" fill="#000000">samples = 1</text>
<text text-anchor="middle" x="652.5" y="-520.3" font-family="Helvetica,sans-Serif" font-size="14.00" fill="#000000">value = [0, 1]</text>
</g>
<!-- 22&#45;&gt;24 -->
<g id="edge24" class="edge">
<title>22&#45;&gt;24</title>
<path fill="none" stroke="#000000" d="M649.1372,-608.9465C649.6509,-598.2621 650.2199,-586.4254 650.7416,-575.5742"/>
<polygon fill="#000000" stroke="#000000" points="654.2396,-575.6987 651.2239,-565.5422 647.2477,-575.3625 654.2396,-575.6987"/>
</g>
<!-- 26 -->
<g id="node27" class="node">
<title>26</title>
<polygon fill="none" stroke="#000000" points="827,-573 720,-573 720,-505 827,-505 827,-573"/>
<text text-anchor="middle" x="773.5" y="-557.8" font-family="Helvetica,sans-Serif" font-size="14.00" fill="#000000">X[9] &lt;= &#45;8.648</text>
<text text-anchor="middle" x="773.5" y="-542.8" font-family="Helvetica,sans-Serif" font-size="14.00" fill="#000000">gini = 0.18</text>
<text text-anchor="middle" x="773.5" y="-527.8" font-family="Helvetica,sans-Serif" font-size="14.00" fill="#000000">samples = 10</text>
<text text-anchor="middle" x="773.5" y="-512.8" font-family="Helvetica,sans-Serif" font-size="14.00" fill="#000000">value = [1, 9]</text>
</g>
<!-- 25&#45;&gt;26 -->
<g id="edge26" class="edge">
<title>25&#45;&gt;26</title>
<path fill="none" stroke="#000000" d="M774.1726,-608.9465C774.094,-600.776 774.009,-591.9318 773.9266,-583.3697"/>
<polygon fill="#000000" stroke="#000000" points="777.4243,-583.0958 773.8282,-573.13 770.4246,-583.1632 777.4243,-583.0958"/>
</g>
<!-- 31 -->
<g id="node32" class="node">
<title>31</title>
<polygon fill="none" stroke="#000000" points="944,-565.5 845,-565.5 845,-512.5 944,-512.5 944,-565.5"/>
<text text-anchor="middle" x="894.5" y="-550.3" font-family="Helvetica,sans-Serif" font-size="14.00" fill="#000000">gini = 0.0</text>
<text text-anchor="middle" x="894.5" y="-535.3" font-family="Helvetica,sans-Serif" font-size="14.00" fill="#000000">samples = 1</text>
<text text-anchor="middle" x="894.5" y="-520.3" font-family="Helvetica,sans-Serif" font-size="14.00" fill="#000000">value = [1, 0]</text>
</g>
<!-- 25&#45;&gt;31 -->
<g id="edge31" class="edge">
<title>25&#45;&gt;31</title>
<path fill="none" stroke="#000000" d="M813.7925,-608.9465C827.3917,-597.1606 842.6085,-583.9726 856.1324,-572.2519"/>
<polygon fill="#000000" stroke="#000000" points="858.6098,-574.7364 863.8744,-565.5422 854.0252,-569.4466 858.6098,-574.7364"/>
</g>
<!-- 27 -->
<g id="node28" class="node">
<title>27</title>
<polygon fill="none" stroke="#000000" points="767,-469 656,-469 656,-401 767,-401 767,-469"/>
<text text-anchor="middle" x="711.5" y="-453.8" font-family="Helvetica,sans-Serif" font-size="14.00" fill="#000000">X[3] &lt;= 15.729</text>
<text text-anchor="middle" x="711.5" y="-438.8" font-family="Helvetica,sans-Serif" font-size="14.00" fill="#000000">gini = 0.5</text>
<text text-anchor="middle" x="711.5" y="-423.8" font-family="Helvetica,sans-Serif" font-size="14.00" fill="#000000">samples = 2</text>
<text text-anchor="middle" x="711.5" y="-408.8" font-family="Helvetica,sans-Serif" font-size="14.00" fill="#000000">value = [1, 1]</text>
</g>
<!-- 26&#45;&gt;27 -->
<g id="edge27" class="edge">
<title>26&#45;&gt;27</title>
<path fill="none" stroke="#000000" d="M753.1989,-504.9465C748.0604,-496.3271 742.4749,-486.9579 737.1114,-477.9611"/>
<polygon fill="#000000" stroke="#000000" points="739.9737,-475.9272 731.8467,-469.13 733.9611,-479.5117 739.9737,-475.9272"/>
</g>
<!-- 30 -->
<g id="node31" class="node">
<title>30</title>
<polygon fill="none" stroke="#000000" points="884,-461.5 785,-461.5 785,-408.5 884,-408.5 884,-461.5"/>
<text text-anchor="middle" x="834.5" y="-446.3" font-family="Helvetica,sans-Serif" font-size="14.00" fill="#000000">gini = 0.0</text>
<text text-anchor="middle" x="834.5" y="-431.3" font-family="Helvetica,sans-Serif" font-size="14.00" fill="#000000">samples = 8</text>
<text text-anchor="middle" x="834.5" y="-416.3" font-family="Helvetica,sans-Serif" font-size="14.00" fill="#000000">value = [0, 8]</text>
</g>
<!-- 26&#45;&gt;30 -->
<g id="edge30" class="edge">
<title>26&#45;&gt;30</title>
<path fill="none" stroke="#000000" d="M793.4737,-504.9465C799.999,-493.8215 807.2569,-481.4473 813.8322,-470.237"/>
<polygon fill="#000000" stroke="#000000" points="816.8916,-471.9387 818.932,-461.5422 810.8536,-468.3971 816.8916,-471.9387"/>
</g>
<!-- 28 -->
<g id="node29" class="node">
<title>28</title>
<polygon fill="none" stroke="#000000" points="728,-357.5 629,-357.5 629,-304.5 728,-304.5 728,-357.5"/>
<text text-anchor="middle" x="678.5" y="-342.3" font-family="Helvetica,sans-Serif" font-size="14.00" fill="#000000">gini = 0.0</text>
<text text-anchor="middle" x="678.5" y="-327.3" font-family="Helvetica,sans-Serif" font-size="14.00" fill="#000000">samples = 1</text>
<text text-anchor="middle" x="678.5" y="-312.3" font-family="Helvetica,sans-Serif" font-size="14.00" fill="#000000">value = [1, 0]</text>
</g>
<!-- 27&#45;&gt;28 -->
<g id="edge28" class="edge">
<title>27&#45;&gt;28</title>
<path fill="none" stroke="#000000" d="M700.6946,-400.9465C697.2694,-390.1519 693.471,-378.1813 689.9989,-367.2389"/>
<polygon fill="#000000" stroke="#000000" points="693.2827,-366.0152 686.922,-357.5422 686.6105,-368.1324 693.2827,-366.0152"/>
</g>
<!-- 29 -->
<g id="node30" class="node">
<title>29</title>
<polygon fill="none" stroke="#000000" points="845,-357.5 746,-357.5 746,-304.5 845,-304.5 845,-357.5"/>
<text text-anchor="middle" x="795.5" y="-342.3" font-family="Helvetica,sans-Serif" font-size="14.00" fill="#000000">gini = 0.0</text>
<text text-anchor="middle" x="795.5" y="-327.3" font-family="Helvetica,sans-Serif" font-size="14.00" fill="#000000">samples = 1</text>
<text text-anchor="middle" x="795.5" y="-312.3" font-family="Helvetica,sans-Serif" font-size="14.00" fill="#000000">value = [0, 1]</text>
</g>
<!-- 27&#45;&gt;29 -->
<g id="edge29" class="edge">
<title>27&#45;&gt;29</title>
<path fill="none" stroke="#000000" d="M739.0047,-400.9465C748.1683,-389.6012 758.3811,-376.9567 767.5761,-365.5724"/>
<polygon fill="#000000" stroke="#000000" points="770.5015,-367.5208 774.0621,-357.5422 765.0559,-363.1224 770.5015,-367.5208"/>
</g>
<!-- 33 -->
<g id="node34" class="node">
<title>33</title>
<polygon fill="none" stroke="#000000" points="890,-885 779,-885 779,-817 890,-817 890,-885"/>
<text text-anchor="middle" x="834.5" y="-869.8" font-family="Helvetica,sans-Serif" font-size="14.00" fill="#000000">X[0] &lt;= 16.113</text>
<text text-anchor="middle" x="834.5" y="-854.8" font-family="Helvetica,sans-Serif" font-size="14.00" fill="#000000">gini = 0.48</text>
<text text-anchor="middle" x="834.5" y="-839.8" font-family="Helvetica,sans-Serif" font-size="14.00" fill="#000000">samples = 5</text>
<text text-anchor="middle" x="834.5" y="-824.8" font-family="Helvetica,sans-Serif" font-size="14.00" fill="#000000">value = [3, 2]</text>
</g>
<!-- 32&#45;&gt;33 -->
<g id="edge33" class="edge">
<title>32&#45;&gt;33</title>
<path fill="none" stroke="#000000" d="M834.5,-920.9465C834.5,-912.776 834.5,-903.9318 834.5,-895.3697"/>
<polygon fill="#000000" stroke="#000000" points="838.0001,-895.13 834.5,-885.13 831.0001,-895.13 838.0001,-895.13"/>
</g>
<!-- 36 -->
<g id="node37" class="node">
<title>36</title>
<polygon fill="none" stroke="#000000" points="1067,-885 956,-885 956,-817 1067,-817 1067,-885"/>
<text text-anchor="middle" x="1011.5" y="-869.8" font-family="Helvetica,sans-Serif" font-size="14.00" fill="#000000">X[3] &lt;= 13.829</text>
<text text-anchor="middle" x="1011.5" y="-854.8" font-family="Helvetica,sans-Serif" font-size="14.00" fill="#000000">gini = 0.269</text>
<text text-anchor="middle" x="1011.5" y="-839.8" font-family="Helvetica,sans-Serif" font-size="14.00" fill="#000000">samples = 25</text>
<text text-anchor="middle" x="1011.5" y="-824.8" font-family="Helvetica,sans-Serif" font-size="14.00" fill="#000000">value = [4, 21]</text>
</g>
<!-- 32&#45;&gt;36 -->
<g id="edge36" class="edge">
<title>32&#45;&gt;36</title>
<path fill="none" stroke="#000000" d="M892.4564,-920.9465C909.9584,-910.6628 929.277,-899.3118 947.1683,-888.7994"/>
<polygon fill="#000000" stroke="#000000" points="948.9737,-891.7981 955.8225,-883.7145 945.4275,-885.7628 948.9737,-891.7981"/>
</g>
<!-- 34 -->
<g id="node35" class="node">
<title>34</title>
<polygon fill="none" stroke="#000000" points="821,-773.5 722,-773.5 722,-720.5 821,-720.5 821,-773.5"/>
<text text-anchor="middle" x="771.5" y="-758.3" font-family="Helvetica,sans-Serif" font-size="14.00" fill="#000000">gini = 0.0</text>
<text text-anchor="middle" x="771.5" y="-743.3" font-family="Helvetica,sans-Serif" font-size="14.00" fill="#000000">samples = 3</text>
<text text-anchor="middle" x="771.5" y="-728.3" font-family="Helvetica,sans-Serif" font-size="14.00" fill="#000000">value = [3, 0]</text>
</g>
<!-- 33&#45;&gt;34 -->
<g id="edge34" class="edge">
<title>33&#45;&gt;34</title>
<path fill="none" stroke="#000000" d="M813.8714,-816.9465C807.1322,-805.8215 799.6363,-793.4473 792.8455,-782.237"/>
<polygon fill="#000000" stroke="#000000" points="795.7533,-780.2818 787.5784,-773.5422 789.7661,-783.9087 795.7533,-780.2818"/>
</g>
<!-- 35 -->
<g id="node36" class="node">
<title>35</title>
<polygon fill="none" stroke="#000000" points="938,-773.5 839,-773.5 839,-720.5 938,-720.5 938,-773.5"/>
<text text-anchor="middle" x="888.5" y="-758.3" font-family="Helvetica,sans-Serif" font-size="14.00" fill="#000000">gini = 0.0</text>
<text text-anchor="middle" x="888.5" y="-743.3" font-family="Helvetica,sans-Serif" font-size="14.00" fill="#000000">samples = 2</text>
<text text-anchor="middle" x="888.5" y="-728.3" font-family="Helvetica,sans-Serif" font-size="14.00" fill="#000000">value = [0, 2]</text>
</g>
<!-- 33&#45;&gt;35 -->
<g id="edge35" class="edge">
<title>33&#45;&gt;35</title>
<path fill="none" stroke="#000000" d="M852.1816,-816.9465C857.9009,-805.9316 864.256,-793.6922 870.0308,-782.5703"/>
<polygon fill="#000000" stroke="#000000" points="873.2165,-784.03 874.7185,-773.5422 867.004,-780.8043 873.2165,-784.03"/>
</g>
<!-- 37 -->
<g id="node38" class="node">
<title>37</title>
<polygon fill="none" stroke="#000000" points="1063.5,-781 959.5,-781 959.5,-713 1063.5,-713 1063.5,-781"/>
<text text-anchor="middle" x="1011.5" y="-765.8" font-family="Helvetica,sans-Serif" font-size="14.00" fill="#000000">X[5] &lt;= 2.722</text>
<text text-anchor="middle" x="1011.5" y="-750.8" font-family="Helvetica,sans-Serif" font-size="14.00" fill="#000000">gini = 0.48</text>
<text text-anchor="middle" x="1011.5" y="-735.8" font-family="Helvetica,sans-Serif" font-size="14.00" fill="#000000">samples = 10</text>
<text text-anchor="middle" x="1011.5" y="-720.8" font-family="Helvetica,sans-Serif" font-size="14.00" fill="#000000">value = [4, 6]</text>
</g>
<!-- 36&#45;&gt;37 -->
<g id="edge37" class="edge">
<title>36&#45;&gt;37</title>
<path fill="none" stroke="#000000" d="M1011.5,-816.9465C1011.5,-808.776 1011.5,-799.9318 1011.5,-791.3697"/>
<polygon fill="#000000" stroke="#000000" points="1015.0001,-791.13 1011.5,-781.13 1008.0001,-791.13 1015.0001,-791.13"/>
</g>
<!-- 42 -->
<g id="node43" class="node">
<title>42</title>
<polygon fill="none" stroke="#000000" points="1189,-773.5 1082,-773.5 1082,-720.5 1189,-720.5 1189,-773.5"/>
<text text-anchor="middle" x="1135.5" y="-758.3" font-family="Helvetica,sans-Serif" font-size="14.00" fill="#000000">gini = 0.0</text>
<text text-anchor="middle" x="1135.5" y="-743.3" font-family="Helvetica,sans-Serif" font-size="14.00" fill="#000000">samples = 15</text>
<text text-anchor="middle" x="1135.5" y="-728.3" font-family="Helvetica,sans-Serif" font-size="14.00" fill="#000000">value = [0, 15]</text>
</g>
<!-- 36&#45;&gt;42 -->
<g id="edge42" class="edge">
<title>36&#45;&gt;42</title>
<path fill="none" stroke="#000000" d="M1052.1022,-816.9465C1066.1547,-805.1606 1081.8788,-791.9726 1095.8535,-780.2519"/>
<polygon fill="#000000" stroke="#000000" points="1098.4408,-782.65 1103.8536,-773.5422 1093.9425,-777.2866 1098.4408,-782.65"/>
</g>
<!-- 38 -->
<g id="node39" class="node">
<title>38</title>
<polygon fill="none" stroke="#000000" points="1061,-677 962,-677 962,-609 1061,-609 1061,-677"/>
<text text-anchor="middle" x="1011.5" y="-661.8" font-family="Helvetica,sans-Serif" font-size="14.00" fill="#000000">X[2] &lt;= 3.65</text>
<text text-anchor="middle" x="1011.5" y="-646.8" font-family="Helvetica,sans-Serif" font-size="14.00" fill="#000000">gini = 0.32</text>
<text text-anchor="middle" x="1011.5" y="-631.8" font-family="Helvetica,sans-Serif" font-size="14.00" fill="#000000">samples = 5</text>
<text text-anchor="middle" x="1011.5" y="-616.8" font-family="Helvetica,sans-Serif" font-size="14.00" fill="#000000">value = [4, 1]</text>
</g>
<!-- 37&#45;&gt;38 -->
<g id="edge38" class="edge">
<title>37&#45;&gt;38</title>
<path fill="none" stroke="#000000" d="M1011.5,-712.9465C1011.5,-704.776 1011.5,-695.9318 1011.5,-687.3697"/>
<polygon fill="#000000" stroke="#000000" points="1015.0001,-687.13 1011.5,-677.13 1008.0001,-687.13 1015.0001,-687.13"/>
</g>
<!-- 41 -->
<g id="node42" class="node">
<title>41</title>
<polygon fill="none" stroke="#000000" points="1178,-669.5 1079,-669.5 1079,-616.5 1178,-616.5 1178,-669.5"/>
<text text-anchor="middle" x="1128.5" y="-654.3" font-family="Helvetica,sans-Serif" font-size="14.00" fill="#000000">gini = 0.0</text>
<text text-anchor="middle" x="1128.5" y="-639.3" font-family="Helvetica,sans-Serif" font-size="14.00" fill="#000000">samples = 5</text>
<text text-anchor="middle" x="1128.5" y="-624.3" font-family="Helvetica,sans-Serif" font-size="14.00" fill="#000000">value = [0, 5]</text>
</g>
<!-- 37&#45;&gt;41 -->
<g id="edge41" class="edge">
<title>37&#45;&gt;41</title>
<path fill="none" stroke="#000000" d="M1049.8102,-712.9465C1063.0694,-701.1606 1077.9058,-687.9726 1091.0916,-676.2519"/>
<polygon fill="#000000" stroke="#000000" points="1093.4912,-678.8018 1098.6401,-669.5422 1088.8407,-673.5699 1093.4912,-678.8018"/>
</g>
<!-- 39 -->
<g id="node40" class="node">
<title>39</title>
<polygon fill="none" stroke="#000000" points="1061,-565.5 962,-565.5 962,-512.5 1061,-512.5 1061,-565.5"/>
<text text-anchor="middle" x="1011.5" y="-550.3" font-family="Helvetica,sans-Serif" font-size="14.00" fill="#000000">gini = 0.0</text>
<text text-anchor="middle" x="1011.5" y="-535.3" font-family="Helvetica,sans-Serif" font-size="14.00" fill="#000000">samples = 1</text>
<text text-anchor="middle" x="1011.5" y="-520.3" font-family="Helvetica,sans-Serif" font-size="14.00" fill="#000000">value = [0, 1]</text>
</g>
<!-- 38&#45;&gt;39 -->
<g id="edge39" class="edge">
<title>38&#45;&gt;39</title>
<path fill="none" stroke="#000000" d="M1011.5,-608.9465C1011.5,-598.2621 1011.5,-586.4254 1011.5,-575.5742"/>
<polygon fill="#000000" stroke="#000000" points="1015.0001,-575.5421 1011.5,-565.5422 1008.0001,-575.5422 1015.0001,-575.5421"/>
</g>
<!-- 40 -->
<g id="node41" class="node">
<title>40</title>
<polygon fill="none" stroke="#000000" points="1178,-565.5 1079,-565.5 1079,-512.5 1178,-512.5 1178,-565.5"/>
<text text-anchor="middle" x="1128.5" y="-550.3" font-family="Helvetica,sans-Serif" font-size="14.00" fill="#000000">gini = 0.0</text>
<text text-anchor="middle" x="1128.5" y="-535.3" font-family="Helvetica,sans-Serif" font-size="14.00" fill="#000000">samples = 4</text>
<text text-anchor="middle" x="1128.5" y="-520.3" font-family="Helvetica,sans-Serif" font-size="14.00" fill="#000000">value = [4, 0]</text>
</g>
<!-- 38&#45;&gt;40 -->
<g id="edge40" class="edge">
<title>38&#45;&gt;40</title>
<path fill="none" stroke="#000000" d="M1049.8102,-608.9465C1063.0694,-597.1606 1077.9058,-583.9726 1091.0916,-572.2519"/>
<polygon fill="#000000" stroke="#000000" points="1093.4912,-574.8018 1098.6401,-565.5422 1088.8407,-569.5699 1093.4912,-574.8018"/>
</g>
</g>
</svg>
