<?xml version="1.0" encoding="UTF-8" standalone="no"?>
<!DOCTYPE svg PUBLIC "-//W3C//DTD SVG 1.1//EN"
 "http://www.w3.org/Graphics/SVG/1.1/DTD/svg11.dtd">
<!-- Generated by graphviz version 2.40.1 (20161225.0304)
 -->
<!-- Title: Tree Pages: 1 -->
<svg width="1167pt" height="789pt"
 viewBox="0.00 0.00 1167.00 789.00" xmlns="http://www.w3.org/2000/svg" xmlns:xlink="http://www.w3.org/1999/xlink">
<g id="graph0" class="graph" transform="scale(1 1) rotate(0) translate(4 785)">
<title>Tree</title>
<polygon fill="#ffffff" stroke="transparent" points="-4,4 -4,-785 1163,-785 1163,4 -4,4"/>
<!-- 0 -->
<g id="node1" class="node">
<title>0</title>
<polygon fill="none" stroke="#000000" points="613.5,-781 497.5,-781 497.5,-713 613.5,-713 613.5,-781"/>
<text text-anchor="middle" x="555.5" y="-765.8" font-family="Helvetica,sans-Serif" font-size="14.00" fill="#000000">X[3] &lt;= 13.339</text>
<text text-anchor="middle" x="555.5" y="-750.8" font-family="Helvetica,sans-Serif" font-size="14.00" fill="#000000">gini = 0.481</text>
<text text-anchor="middle" x="555.5" y="-735.8" font-family="Helvetica,sans-Serif" font-size="14.00" fill="#000000">samples = 72</text>
<text text-anchor="middle" x="555.5" y="-720.8" font-family="Helvetica,sans-Serif" font-size="14.00" fill="#000000">value = [29, 43]</text>
</g>
<!-- 1 -->
<g id="node2" class="node">
<title>1</title>
<polygon fill="none" stroke="#000000" points="546.5,-677 430.5,-677 430.5,-609 546.5,-609 546.5,-677"/>
<text text-anchor="middle" x="488.5" y="-661.8" font-family="Helvetica,sans-Serif" font-size="14.00" fill="#000000">X[1] &lt;= 7.933</text>
<text text-anchor="middle" x="488.5" y="-646.8" font-family="Helvetica,sans-Serif" font-size="14.00" fill="#000000">gini = 0.497</text>
<text text-anchor="middle" x="488.5" y="-631.8" font-family="Helvetica,sans-Serif" font-size="14.00" fill="#000000">samples = 41</text>
<text text-anchor="middle" x="488.5" y="-616.8" font-family="Helvetica,sans-Serif" font-size="14.00" fill="#000000">value = [22, 19]</text>
</g>
<!-- 0&#45;&gt;1 -->
<g id="edge1" class="edge">
<title>0&#45;&gt;1</title>
<path fill="none" stroke="#000000" d="M533.5617,-712.9465C527.951,-704.2373 521.8471,-694.7626 515.9958,-685.6801"/>
<polygon fill="#000000" stroke="#000000" points="518.8457,-683.641 510.4876,-677.13 512.9611,-687.4321 518.8457,-683.641"/>
<text text-anchor="middle" x="505.2006" y="-697.8646" font-family="Helvetica,sans-Serif" font-size="14.00" fill="#000000">True</text>
</g>
<!-- 28 -->
<g id="node29" class="node">
<title>28</title>
<polygon fill="none" stroke="#000000" points="738.5,-677 622.5,-677 622.5,-609 738.5,-609 738.5,-677"/>
<text text-anchor="middle" x="680.5" y="-661.8" font-family="Helvetica,sans-Serif" font-size="14.00" fill="#000000">X[4] &lt;= &#45;34.184</text>
<text text-anchor="middle" x="680.5" y="-646.8" font-family="Helvetica,sans-Serif" font-size="14.00" fill="#000000">gini = 0.35</text>
<text text-anchor="middle" x="680.5" y="-631.8" font-family="Helvetica,sans-Serif" font-size="14.00" fill="#000000">samples = 31</text>
<text text-anchor="middle" x="680.5" y="-616.8" font-family="Helvetica,sans-Serif" font-size="14.00" fill="#000000">value = [7, 24]</text>
</g>
<!-- 0&#45;&gt;28 -->
<g id="edge28" class="edge">
<title>0&#45;&gt;28</title>
<path fill="none" stroke="#000000" d="M596.4297,-712.9465C607.6528,-703.6088 619.9337,-693.3911 631.5573,-683.7203"/>
<polygon fill="#000000" stroke="#000000" points="634.0296,-686.2164 639.4784,-677.13 629.5526,-680.8353 634.0296,-686.2164"/>
<text text-anchor="middle" x="637.1954" y="-698.3255" font-family="Helvetica,sans-Serif" font-size="14.00" fill="#000000">False</text>
</g>
<!-- 2 -->
<g id="node3" class="node">
<title>2</title>
<polygon fill="none" stroke="#000000" points="412,-565.5 313,-565.5 313,-512.5 412,-512.5 412,-565.5"/>
<text text-anchor="middle" x="362.5" y="-550.3" font-family="Helvetica,sans-Serif" font-size="14.00" fill="#000000">gini = 0.0</text>
<text text-anchor="middle" x="362.5" y="-535.3" font-family="Helvetica,sans-Serif" font-size="14.00" fill="#000000">samples = 5</text>
<text text-anchor="middle" x="362.5" y="-520.3" font-family="Helvetica,sans-Serif" font-size="14.00" fill="#000000">value = [5, 0]</text>
</g>
<!-- 1&#45;&gt;2 -->
<g id="edge2" class="edge">
<title>1&#45;&gt;2</title>
<path fill="none" stroke="#000000" d="M447.2429,-608.9465C432.8303,-597.0504 416.6873,-583.726 402.3883,-571.9237"/>
<polygon fill="#000000" stroke="#000000" points="404.5971,-569.2086 394.6569,-565.5422 400.1411,-574.6071 404.5971,-569.2086"/>
</g>
<!-- 3 -->
<g id="node4" class="node">
<title>3</title>
<polygon fill="none" stroke="#000000" points="546.5,-573 430.5,-573 430.5,-505 546.5,-505 546.5,-573"/>
<text text-anchor="middle" x="488.5" y="-557.8" font-family="Helvetica,sans-Serif" font-size="14.00" fill="#000000">X[1] &lt;= 13.095</text>
<text text-anchor="middle" x="488.5" y="-542.8" font-family="Helvetica,sans-Serif" font-size="14.00" fill="#000000">gini = 0.498</text>
<text text-anchor="middle" x="488.5" y="-527.8" font-family="Helvetica,sans-Serif" font-size="14.00" fill="#000000">samples = 36</text>
<text text-anchor="middle" x="488.5" y="-512.8" font-family="Helvetica,sans-Serif" font-size="14.00" fill="#000000">value = [17, 19]</text>
</g>
<!-- 1&#45;&gt;3 -->
<g id="edge3" class="edge">
<title>1&#45;&gt;3</title>
<path fill="none" stroke="#000000" d="M488.5,-608.9465C488.5,-600.776 488.5,-591.9318 488.5,-583.3697"/>
<polygon fill="#000000" stroke="#000000" points="492.0001,-583.13 488.5,-573.13 485.0001,-583.13 492.0001,-583.13"/>
</g>
<!-- 4 -->
<g id="node5" class="node">
<title>4</title>
<polygon fill="none" stroke="#000000" points="362,-469 259,-469 259,-401 362,-401 362,-469"/>
<text text-anchor="middle" x="310.5" y="-453.8" font-family="Helvetica,sans-Serif" font-size="14.00" fill="#000000">X[3] &lt;= 4.817</text>
<text text-anchor="middle" x="310.5" y="-438.8" font-family="Helvetica,sans-Serif" font-size="14.00" fill="#000000">gini = 0.219</text>
<text text-anchor="middle" x="310.5" y="-423.8" font-family="Helvetica,sans-Serif" font-size="14.00" fill="#000000">samples = 8</text>
<text text-anchor="middle" x="310.5" y="-408.8" font-family="Helvetica,sans-Serif" font-size="14.00" fill="#000000">value = [1, 7]</text>
</g>
<!-- 3&#45;&gt;4 -->
<g id="edge4" class="edge">
<title>3&#45;&gt;4</title>
<path fill="none" stroke="#000000" d="M430.2161,-504.9465C411.1364,-493.7988 389.9099,-481.3968 370.6921,-470.1684"/>
<polygon fill="#000000" stroke="#000000" points="372.4185,-467.1235 362.0186,-465.1007 368.8872,-473.1675 372.4185,-467.1235"/>
</g>
<!-- 9 -->
<g id="node10" class="node">
<title>9</title>
<polygon fill="none" stroke="#000000" points="546.5,-469 430.5,-469 430.5,-401 546.5,-401 546.5,-469"/>
<text text-anchor="middle" x="488.5" y="-453.8" font-family="Helvetica,sans-Serif" font-size="14.00" fill="#000000">X[2] &lt;= 10.386</text>
<text text-anchor="middle" x="488.5" y="-438.8" font-family="Helvetica,sans-Serif" font-size="14.00" fill="#000000">gini = 0.49</text>
<text text-anchor="middle" x="488.5" y="-423.8" font-family="Helvetica,sans-Serif" font-size="14.00" fill="#000000">samples = 28</text>
<text text-anchor="middle" x="488.5" y="-408.8" font-family="Helvetica,sans-Serif" font-size="14.00" fill="#000000">value = [16, 12]</text>
</g>
<!-- 3&#45;&gt;9 -->
<g id="edge9" class="edge">
<title>3&#45;&gt;9</title>
<path fill="none" stroke="#000000" d="M488.5,-504.9465C488.5,-496.776 488.5,-487.9318 488.5,-479.3697"/>
<polygon fill="#000000" stroke="#000000" points="492.0001,-479.13 488.5,-469.13 485.0001,-479.13 492.0001,-479.13"/>
</g>
<!-- 5 -->
<g id="node6" class="node">
<title>5</title>
<polygon fill="none" stroke="#000000" points="218,-365 115,-365 115,-297 218,-297 218,-365"/>
<text text-anchor="middle" x="166.5" y="-349.8" font-family="Helvetica,sans-Serif" font-size="14.00" fill="#000000">X[7] &lt;= 5.458</text>
<text text-anchor="middle" x="166.5" y="-334.8" font-family="Helvetica,sans-Serif" font-size="14.00" fill="#000000">gini = 0.5</text>
<text text-anchor="middle" x="166.5" y="-319.8" font-family="Helvetica,sans-Serif" font-size="14.00" fill="#000000">samples = 2</text>
<text text-anchor="middle" x="166.5" y="-304.8" font-family="Helvetica,sans-Serif" font-size="14.00" fill="#000000">value = [1, 1]</text>
</g>
<!-- 4&#45;&gt;5 -->
<g id="edge5" class="edge">
<title>4&#45;&gt;5</title>
<path fill="none" stroke="#000000" d="M263.349,-400.9465C250.1713,-391.4293 235.7278,-380.9978 222.1103,-371.163"/>
<polygon fill="#000000" stroke="#000000" points="223.913,-368.1476 213.7569,-365.13 219.8145,-373.8223 223.913,-368.1476"/>
</g>
<!-- 8 -->
<g id="node9" class="node">
<title>8</title>
<polygon fill="none" stroke="#000000" points="360,-357.5 261,-357.5 261,-304.5 360,-304.5 360,-357.5"/>
<text text-anchor="middle" x="310.5" y="-342.3" font-family="Helvetica,sans-Serif" font-size="14.00" fill="#000000">gini = 0.0</text>
<text text-anchor="middle" x="310.5" y="-327.3" font-family="Helvetica,sans-Serif" font-size="14.00" fill="#000000">samples = 6</text>
<text text-anchor="middle" x="310.5" y="-312.3" font-family="Helvetica,sans-Serif" font-size="14.00" fill="#000000">value = [0, 6]</text>
</g>
<!-- 4&#45;&gt;8 -->
<g id="edge8" class="edge">
<title>4&#45;&gt;8</title>
<path fill="none" stroke="#000000" d="M310.5,-400.9465C310.5,-390.2621 310.5,-378.4254 310.5,-367.5742"/>
<polygon fill="#000000" stroke="#000000" points="314.0001,-367.5421 310.5,-357.5422 307.0001,-367.5422 314.0001,-367.5421"/>
</g>
<!-- 6 -->
<g id="node7" class="node">
<title>6</title>
<polygon fill="none" stroke="#000000" points="99,-253.5 0,-253.5 0,-200.5 99,-200.5 99,-253.5"/>
<text text-anchor="middle" x="49.5" y="-238.3" font-family="Helvetica,sans-Serif" font-size="14.00" fill="#000000">gini = 0.0</text>
<text text-anchor="middle" x="49.5" y="-223.3" font-family="Helvetica,sans-Serif" font-size="14.00" fill="#000000">samples = 1</text>
<text text-anchor="middle" x="49.5" y="-208.3" font-family="Helvetica,sans-Serif" font-size="14.00" fill="#000000">value = [1, 0]</text>
</g>
<!-- 5&#45;&gt;6 -->
<g id="edge6" class="edge">
<title>5&#45;&gt;6</title>
<path fill="none" stroke="#000000" d="M128.1898,-296.9465C114.9306,-285.1606 100.0942,-271.9726 86.9084,-260.2519"/>
<polygon fill="#000000" stroke="#000000" points="89.1593,-257.5699 79.3599,-253.5422 84.5088,-262.8018 89.1593,-257.5699"/>
</g>
<!-- 7 -->
<g id="node8" class="node">
<title>7</title>
<polygon fill="none" stroke="#000000" points="216,-253.5 117,-253.5 117,-200.5 216,-200.5 216,-253.5"/>
<text text-anchor="middle" x="166.5" y="-238.3" font-family="Helvetica,sans-Serif" font-size="14.00" fill="#000000">gini = 0.0</text>
<text text-anchor="middle" x="166.5" y="-223.3" font-family="Helvetica,sans-Serif" font-size="14.00" fill="#000000">samples = 1</text>
<text text-anchor="middle" x="166.5" y="-208.3" font-family="Helvetica,sans-Serif" font-size="14.00" fill="#000000">value = [0, 1]</text>
</g>
<!-- 5&#45;&gt;7 -->
<g id="edge7" class="edge">
<title>5&#45;&gt;7</title>
<path fill="none" stroke="#000000" d="M166.5,-296.9465C166.5,-286.2621 166.5,-274.4254 166.5,-263.5742"/>
<polygon fill="#000000" stroke="#000000" points="170.0001,-263.5421 166.5,-253.5422 163.0001,-263.5422 170.0001,-263.5421"/>
</g>
<!-- 10 -->
<g id="node11" class="node">
<title>10</title>
<polygon fill="none" stroke="#000000" points="541,-365 434,-365 434,-297 541,-297 541,-365"/>
<text text-anchor="middle" x="487.5" y="-349.8" font-family="Helvetica,sans-Serif" font-size="14.00" fill="#000000">X[2] &lt;= 4.456</text>
<text text-anchor="middle" x="487.5" y="-334.8" font-family="Helvetica,sans-Serif" font-size="14.00" fill="#000000">gini = 0.415</text>
<text text-anchor="middle" x="487.5" y="-319.8" font-family="Helvetica,sans-Serif" font-size="14.00" fill="#000000">samples = 17</text>
<text text-anchor="middle" x="487.5" y="-304.8" font-family="Helvetica,sans-Serif" font-size="14.00" fill="#000000">value = [12, 5]</text>
</g>
<!-- 9&#45;&gt;10 -->
<g id="edge10" class="edge">
<title>9&#45;&gt;10</title>
<path fill="none" stroke="#000000" d="M488.1726,-400.9465C488.094,-392.776 488.009,-383.9318 487.9266,-375.3697"/>
<polygon fill="#000000" stroke="#000000" points="491.4243,-375.0958 487.8282,-365.13 484.4246,-375.1632 491.4243,-375.0958"/>
</g>
<!-- 21 -->
<g id="node22" class="node">
<title>21</title>
<polygon fill="none" stroke="#000000" points="670.5,-365 566.5,-365 566.5,-297 670.5,-297 670.5,-365"/>
<text text-anchor="middle" x="618.5" y="-349.8" font-family="Helvetica,sans-Serif" font-size="14.00" fill="#000000">X[0] &lt;= 6.966</text>
<text text-anchor="middle" x="618.5" y="-334.8" font-family="Helvetica,sans-Serif" font-size="14.00" fill="#000000">gini = 0.463</text>
<text text-anchor="middle" x="618.5" y="-319.8" font-family="Helvetica,sans-Serif" font-size="14.00" fill="#000000">samples = 11</text>
<text text-anchor="middle" x="618.5" y="-304.8" font-family="Helvetica,sans-Serif" font-size="14.00" fill="#000000">value = [4, 7]</text>
</g>
<!-- 9&#45;&gt;21 -->
<g id="edge21" class="edge">
<title>9&#45;&gt;21</title>
<path fill="none" stroke="#000000" d="M531.0669,-400.9465C542.8512,-391.519 555.7568,-381.1946 567.9481,-371.4415"/>
<polygon fill="#000000" stroke="#000000" points="570.2152,-374.11 575.8375,-365.13 565.8423,-368.6439 570.2152,-374.11"/>
</g>
<!-- 11 -->
<g id="node12" class="node">
<title>11</title>
<polygon fill="none" stroke="#000000" points="333,-261 234,-261 234,-193 333,-193 333,-261"/>
<text text-anchor="middle" x="283.5" y="-245.8" font-family="Helvetica,sans-Serif" font-size="14.00" fill="#000000">X[3] &lt;= 4.88</text>
<text text-anchor="middle" x="283.5" y="-230.8" font-family="Helvetica,sans-Serif" font-size="14.00" fill="#000000">gini = 0.49</text>
<text text-anchor="middle" x="283.5" y="-215.8" font-family="Helvetica,sans-Serif" font-size="14.00" fill="#000000">samples = 7</text>
<text text-anchor="middle" x="283.5" y="-200.8" font-family="Helvetica,sans-Serif" font-size="14.00" fill="#000000">value = [3, 4]</text>
</g>
<!-- 10&#45;&gt;11 -->
<g id="edge11" class="edge">
<title>10&#45;&gt;11</title>
<path fill="none" stroke="#000000" d="M433.9014,-303.6752C405.7796,-289.3386 371.2679,-271.7444 342.4,-257.0275"/>
<polygon fill="#000000" stroke="#000000" points="343.7397,-253.7819 333.2409,-252.3581 340.5603,-260.0182 343.7397,-253.7819"/>
</g>
<!-- 16 -->
<g id="node17" class="node">
<title>16</title>
<polygon fill="none" stroke="#000000" points="543,-261 432,-261 432,-193 543,-193 543,-261"/>
<text text-anchor="middle" x="487.5" y="-245.8" font-family="Helvetica,sans-Serif" font-size="14.00" fill="#000000">X[1] &lt;= 20.234</text>
<text text-anchor="middle" x="487.5" y="-230.8" font-family="Helvetica,sans-Serif" font-size="14.00" fill="#000000">gini = 0.18</text>
<text text-anchor="middle" x="487.5" y="-215.8" font-family="Helvetica,sans-Serif" font-size="14.00" fill="#000000">samples = 10</text>
<text text-anchor="middle" x="487.5" y="-200.8" font-family="Helvetica,sans-Serif" font-size="14.00" fill="#000000">value = [9, 1]</text>
</g>
<!-- 10&#45;&gt;16 -->
<g id="edge16" class="edge">
<title>10&#45;&gt;16</title>
<path fill="none" stroke="#000000" d="M487.5,-296.9465C487.5,-288.776 487.5,-279.9318 487.5,-271.3697"/>
<polygon fill="#000000" stroke="#000000" points="491.0001,-271.13 487.5,-261.13 484.0001,-271.13 491.0001,-271.13"/>
</g>
<!-- 12 -->
<g id="node13" class="node">
<title>12</title>
<polygon fill="none" stroke="#000000" points="207,-149.5 108,-149.5 108,-96.5 207,-96.5 207,-149.5"/>
<text text-anchor="middle" x="157.5" y="-134.3" font-family="Helvetica,sans-Serif" font-size="14.00" fill="#000000">gini = 0.0</text>
<text text-anchor="middle" x="157.5" y="-119.3" font-family="Helvetica,sans-Serif" font-size="14.00" fill="#000000">samples = 2</text>
<text text-anchor="middle" x="157.5" y="-104.3" font-family="Helvetica,sans-Serif" font-size="14.00" fill="#000000">value = [2, 0]</text>
</g>
<!-- 11&#45;&gt;12 -->
<g id="edge12" class="edge">
<title>11&#45;&gt;12</title>
<path fill="none" stroke="#000000" d="M242.2429,-192.9465C227.8303,-181.0504 211.6873,-167.726 197.3883,-155.9237"/>
<polygon fill="#000000" stroke="#000000" points="199.5971,-153.2086 189.6569,-149.5422 195.1411,-158.6071 199.5971,-153.2086"/>
</g>
<!-- 13 -->
<g id="node14" class="node">
<title>13</title>
<polygon fill="none" stroke="#000000" points="328,-157 225,-157 225,-89 328,-89 328,-157"/>
<text text-anchor="middle" x="276.5" y="-141.8" font-family="Helvetica,sans-Serif" font-size="14.00" fill="#000000">X[0] &lt;= 4.378</text>
<text text-anchor="middle" x="276.5" y="-126.8" font-family="Helvetica,sans-Serif" font-size="14.00" fill="#000000">gini = 0.32</text>
<text text-anchor="middle" x="276.5" y="-111.8" font-family="Helvetica,sans-Serif" font-size="14.00" fill="#000000">samples = 5</text>
<text text-anchor="middle" x="276.5" y="-96.8" font-family="Helvetica,sans-Serif" font-size="14.00" fill="#000000">value = [1, 4]</text>
</g>
<!-- 11&#45;&gt;13 -->
<g id="edge13" class="edge">
<title>11&#45;&gt;13</title>
<path fill="none" stroke="#000000" d="M281.2079,-192.9465C280.658,-184.776 280.0627,-175.9318 279.4864,-167.3697"/>
<polygon fill="#000000" stroke="#000000" points="282.961,-166.8723 278.7972,-157.13 275.9768,-167.3425 282.961,-166.8723"/>
</g>
<!-- 14 -->
<g id="node15" class="node">
<title>14</title>
<polygon fill="none" stroke="#000000" points="211,-53 112,-53 112,0 211,0 211,-53"/>
<text text-anchor="middle" x="161.5" y="-37.8" font-family="Helvetica,sans-Serif" font-size="14.00" fill="#000000">gini = 0.0</text>
<text text-anchor="middle" x="161.5" y="-22.8" font-family="Helvetica,sans-Serif" font-size="14.00" fill="#000000">samples = 1</text>
<text text-anchor="middle" x="161.5" y="-7.8" font-family="Helvetica,sans-Serif" font-size="14.00" fill="#000000">value = [1, 0]</text>
</g>
<!-- 13&#45;&gt;14 -->
<g id="edge14" class="edge">
<title>13&#45;&gt;14</title>
<path fill="none" stroke="#000000" d="M235.9553,-88.9777C224.7155,-79.546 212.5264,-69.3178 201.3279,-59.9208"/>
<polygon fill="#000000" stroke="#000000" points="203.2866,-56.9954 193.3764,-53.2485 198.787,-62.3576 203.2866,-56.9954"/>
</g>
<!-- 15 -->
<g id="node16" class="node">
<title>15</title>
<polygon fill="none" stroke="#000000" points="328,-53 229,-53 229,0 328,0 328,-53"/>
<text text-anchor="middle" x="278.5" y="-37.8" font-family="Helvetica,sans-Serif" font-size="14.00" fill="#000000">gini = 0.0</text>
<text text-anchor="middle" x="278.5" y="-22.8" font-family="Helvetica,sans-Serif" font-size="14.00" fill="#000000">samples = 4</text>
<text text-anchor="middle" x="278.5" y="-7.8" font-family="Helvetica,sans-Serif" font-size="14.00" fill="#000000">value = [0, 4]</text>
</g>
<!-- 13&#45;&gt;15 -->
<g id="edge15" class="edge">
<title>13&#45;&gt;15</title>
<path fill="none" stroke="#000000" d="M277.2051,-88.9777C277.3759,-80.7364 277.5593,-71.887 277.7328,-63.5153"/>
<polygon fill="#000000" stroke="#000000" points="281.2376,-63.3189 277.9456,-53.2485 274.2391,-63.1738 281.2376,-63.3189"/>
</g>
<!-- 17 -->
<g id="node18" class="node">
<title>17</title>
<polygon fill="none" stroke="#000000" points="453,-157 346,-157 346,-89 453,-89 453,-157"/>
<text text-anchor="middle" x="399.5" y="-141.8" font-family="Helvetica,sans-Serif" font-size="14.00" fill="#000000">X[5] &lt;= &#45;0.142</text>
<text text-anchor="middle" x="399.5" y="-126.8" font-family="Helvetica,sans-Serif" font-size="14.00" fill="#000000">gini = 0.444</text>
<text text-anchor="middle" x="399.5" y="-111.8" font-family="Helvetica,sans-Serif" font-size="14.00" fill="#000000">samples = 3</text>
<text text-anchor="middle" x="399.5" y="-96.8" font-family="Helvetica,sans-Serif" font-size="14.00" fill="#000000">value = [2, 1]</text>
</g>
<!-- 16&#45;&gt;17 -->
<g id="edge17" class="edge">
<title>16&#45;&gt;17</title>
<path fill="none" stroke="#000000" d="M458.6855,-192.9465C451.0883,-183.968 442.8026,-174.1758 434.9018,-164.8385"/>
<polygon fill="#000000" stroke="#000000" points="437.5105,-162.5031 428.3792,-157.13 432.1668,-167.0247 437.5105,-162.5031"/>
</g>
<!-- 20 -->
<g id="node21" class="node">
<title>20</title>
<polygon fill="none" stroke="#000000" points="570,-149.5 471,-149.5 471,-96.5 570,-96.5 570,-149.5"/>
<text text-anchor="middle" x="520.5" y="-134.3" font-family="Helvetica,sans-Serif" font-size="14.00" fill="#000000">gini = 0.0</text>
<text text-anchor="middle" x="520.5" y="-119.3" font-family="Helvetica,sans-Serif" font-size="14.00" fill="#000000">samples = 7</text>
<text text-anchor="middle" x="520.5" y="-104.3" font-family="Helvetica,sans-Serif" font-size="14.00" fill="#000000">value = [7, 0]</text>
</g>
<!-- 16&#45;&gt;20 -->
<g id="edge20" class="edge">
<title>16&#45;&gt;20</title>
<path fill="none" stroke="#000000" d="M498.3054,-192.9465C501.7306,-182.1519 505.529,-170.1813 509.0011,-159.2389"/>
<polygon fill="#000000" stroke="#000000" points="512.3895,-160.1324 512.078,-149.5422 505.7173,-158.0152 512.3895,-160.1324"/>
</g>
<!-- 18 -->
<g id="node19" class="node">
<title>18</title>
<polygon fill="none" stroke="#000000" points="448,-53 349,-53 349,0 448,0 448,-53"/>
<text text-anchor="middle" x="398.5" y="-37.8" font-family="Helvetica,sans-Serif" font-size="14.00" fill="#000000">gini = 0.0</text>
<text text-anchor="middle" x="398.5" y="-22.8" font-family="Helvetica,sans-Serif" font-size="14.00" fill="#000000">samples = 2</text>
<text text-anchor="middle" x="398.5" y="-7.8" font-family="Helvetica,sans-Serif" font-size="14.00" fill="#000000">value = [2, 0]</text>
</g>
<!-- 17&#45;&gt;18 -->
<g id="edge18" class="edge">
<title>17&#45;&gt;18</title>
<path fill="none" stroke="#000000" d="M399.1474,-88.9777C399.062,-80.7364 398.9703,-71.887 398.8836,-63.5153"/>
<polygon fill="#000000" stroke="#000000" points="402.3807,-63.2116 398.7772,-53.2485 395.3811,-63.2842 402.3807,-63.2116"/>
</g>
<!-- 19 -->
<g id="node20" class="node">
<title>19</title>
<polygon fill="none" stroke="#000000" points="565,-53 466,-53 466,0 565,0 565,-53"/>
<text text-anchor="middle" x="515.5" y="-37.8" font-family="Helvetica,sans-Serif" font-size="14.00" fill="#000000">gini = 0.0</text>
<text text-anchor="middle" x="515.5" y="-22.8" font-family="Helvetica,sans-Serif" font-size="14.00" fill="#000000">samples = 1</text>
<text text-anchor="middle" x="515.5" y="-7.8" font-family="Helvetica,sans-Serif" font-size="14.00" fill="#000000">value = [0, 1]</text>
</g>
<!-- 17&#45;&gt;19 -->
<g id="edge19" class="edge">
<title>17&#45;&gt;19</title>
<path fill="none" stroke="#000000" d="M440.3973,-88.9777C451.8449,-79.4545 464.2687,-69.1191 475.6545,-59.6473"/>
<polygon fill="#000000" stroke="#000000" points="477.8971,-62.3345 483.3464,-53.2485 473.4203,-56.9532 477.8971,-62.3345"/>
</g>
<!-- 22 -->
<g id="node23" class="node">
<title>22</title>
<polygon fill="none" stroke="#000000" points="684.5,-261 568.5,-261 568.5,-193 684.5,-193 684.5,-261"/>
<text text-anchor="middle" x="626.5" y="-245.8" font-family="Helvetica,sans-Serif" font-size="14.00" fill="#000000">X[6] &lt;= &#45;15.401</text>
<text text-anchor="middle" x="626.5" y="-230.8" font-family="Helvetica,sans-Serif" font-size="14.00" fill="#000000">gini = 0.444</text>
<text text-anchor="middle" x="626.5" y="-215.8" font-family="Helvetica,sans-Serif" font-size="14.00" fill="#000000">samples = 6</text>
<text text-anchor="middle" x="626.5" y="-200.8" font-family="Helvetica,sans-Serif" font-size="14.00" fill="#000000">value = [4, 2]</text>
</g>
<!-- 21&#45;&gt;22 -->
<g id="edge22" class="edge">
<title>21&#45;&gt;22</title>
<path fill="none" stroke="#000000" d="M621.1195,-296.9465C621.748,-288.776 622.4283,-279.9318 623.0869,-271.3697"/>
<polygon fill="#000000" stroke="#000000" points="626.5973,-271.369 623.8746,-261.13 619.6179,-270.8321 626.5973,-271.369"/>
</g>
<!-- 27 -->
<g id="node28" class="node">
<title>27</title>
<polygon fill="none" stroke="#000000" points="802,-253.5 703,-253.5 703,-200.5 802,-200.5 802,-253.5"/>
<text text-anchor="middle" x="752.5" y="-238.3" font-family="Helvetica,sans-Serif" font-size="14.00" fill="#000000">gini = 0.0</text>
<text text-anchor="middle" x="752.5" y="-223.3" font-family="Helvetica,sans-Serif" font-size="14.00" fill="#000000">samples = 5</text>
<text text-anchor="middle" x="752.5" y="-208.3" font-family="Helvetica,sans-Serif" font-size="14.00" fill="#000000">value = [0, 5]</text>
</g>
<!-- 21&#45;&gt;27 -->
<g id="edge27" class="edge">
<title>21&#45;&gt;27</title>
<path fill="none" stroke="#000000" d="M662.3766,-296.9465C677.7043,-285.0504 694.8723,-271.726 710.0791,-259.9237"/>
<polygon fill="#000000" stroke="#000000" points="712.5475,-262.4384 718.3014,-253.5422 708.2556,-256.9085 712.5475,-262.4384"/>
</g>
<!-- 23 -->
<g id="node24" class="node">
<title>23</title>
<polygon fill="none" stroke="#000000" points="691,-157 588,-157 588,-89 691,-89 691,-157"/>
<text text-anchor="middle" x="639.5" y="-141.8" font-family="Helvetica,sans-Serif" font-size="14.00" fill="#000000">X[5] &lt;= 23.88</text>
<text text-anchor="middle" x="639.5" y="-126.8" font-family="Helvetica,sans-Serif" font-size="14.00" fill="#000000">gini = 0.444</text>
<text text-anchor="middle" x="639.5" y="-111.8" font-family="Helvetica,sans-Serif" font-size="14.00" fill="#000000">samples = 3</text>
<text text-anchor="middle" x="639.5" y="-96.8" font-family="Helvetica,sans-Serif" font-size="14.00" fill="#000000">value = [1, 2]</text>
</g>
<!-- 22&#45;&gt;23 -->
<g id="edge23" class="edge">
<title>22&#45;&gt;23</title>
<path fill="none" stroke="#000000" d="M630.7567,-192.9465C631.7892,-184.6863 632.9078,-175.7374 633.9891,-167.0875"/>
<polygon fill="#000000" stroke="#000000" points="637.4663,-167.4869 635.2338,-157.13 630.5203,-166.6186 637.4663,-167.4869"/>
</g>
<!-- 26 -->
<g id="node27" class="node">
<title>26</title>
<polygon fill="none" stroke="#000000" points="808,-149.5 709,-149.5 709,-96.5 808,-96.5 808,-149.5"/>
<text text-anchor="middle" x="758.5" y="-134.3" font-family="Helvetica,sans-Serif" font-size="14.00" fill="#000000">gini = 0.0</text>
<text text-anchor="middle" x="758.5" y="-119.3" font-family="Helvetica,sans-Serif" font-size="14.00" fill="#000000">samples = 3</text>
<text text-anchor="middle" x="758.5" y="-104.3" font-family="Helvetica,sans-Serif" font-size="14.00" fill="#000000">value = [3, 0]</text>
</g>
<!-- 22&#45;&gt;26 -->
<g id="edge26" class="edge">
<title>22&#45;&gt;26</title>
<path fill="none" stroke="#000000" d="M669.7217,-192.9465C684.8206,-181.0504 701.7324,-167.726 716.7122,-155.9237"/>
<polygon fill="#000000" stroke="#000000" points="719.123,-158.4802 724.8119,-149.5422 714.7909,-152.9817 719.123,-158.4802"/>
</g>
<!-- 24 -->
<g id="node25" class="node">
<title>24</title>
<polygon fill="none" stroke="#000000" points="686,-53 587,-53 587,0 686,0 686,-53"/>
<text text-anchor="middle" x="636.5" y="-37.8" font-family="Helvetica,sans-Serif" font-size="14.00" fill="#000000">gini = 0.0</text>
<text text-anchor="middle" x="636.5" y="-22.8" font-family="Helvetica,sans-Serif" font-size="14.00" fill="#000000">samples = 2</text>
<text text-anchor="middle" x="636.5" y="-7.8" font-family="Helvetica,sans-Serif" font-size="14.00" fill="#000000">value = [0, 2]</text>
</g>
<!-- 23&#45;&gt;24 -->
<g id="edge24" class="edge">
<title>23&#45;&gt;24</title>
<path fill="none" stroke="#000000" d="M638.4423,-88.9777C638.1861,-80.7364 637.911,-71.887 637.6507,-63.5153"/>
<polygon fill="#000000" stroke="#000000" points="641.1407,-63.1349 637.3316,-53.2485 634.1441,-63.3524 641.1407,-63.1349"/>
</g>
<!-- 25 -->
<g id="node26" class="node">
<title>25</title>
<polygon fill="none" stroke="#000000" points="803,-53 704,-53 704,0 803,0 803,-53"/>
<text text-anchor="middle" x="753.5" y="-37.8" font-family="Helvetica,sans-Serif" font-size="14.00" fill="#000000">gini = 0.0</text>
<text text-anchor="middle" x="753.5" y="-22.8" font-family="Helvetica,sans-Serif" font-size="14.00" fill="#000000">samples = 1</text>
<text text-anchor="middle" x="753.5" y="-7.8" font-family="Helvetica,sans-Serif" font-size="14.00" fill="#000000">value = [1, 0]</text>
</g>
<!-- 23&#45;&gt;25 -->
<g id="edge25" class="edge">
<title>23&#45;&gt;25</title>
<path fill="none" stroke="#000000" d="M679.6921,-88.9777C690.8342,-79.546 702.9173,-69.3178 714.0185,-59.9208"/>
<polygon fill="#000000" stroke="#000000" points="716.5295,-62.3809 721.9008,-53.2485 712.0068,-57.038 716.5295,-62.3809"/>
</g>
<!-- 29 -->
<g id="node30" class="node">
<title>29</title>
<polygon fill="none" stroke="#000000" points="732,-573 629,-573 629,-505 732,-505 732,-573"/>
<text text-anchor="middle" x="680.5" y="-557.8" font-family="Helvetica,sans-Serif" font-size="14.00" fill="#000000">X[2] &lt;= 3.225</text>
<text text-anchor="middle" x="680.5" y="-542.8" font-family="Helvetica,sans-Serif" font-size="14.00" fill="#000000">gini = 0.408</text>
<text text-anchor="middle" x="680.5" y="-527.8" font-family="Helvetica,sans-Serif" font-size="14.00" fill="#000000">samples = 7</text>
<text text-anchor="middle" x="680.5" y="-512.8" font-family="Helvetica,sans-Serif" font-size="14.00" fill="#000000">value = [5, 2]</text>
</g>
<!-- 28&#45;&gt;29 -->
<g id="edge29" class="edge">
<title>28&#45;&gt;29</title>
<path fill="none" stroke="#000000" d="M680.5,-608.9465C680.5,-600.776 680.5,-591.9318 680.5,-583.3697"/>
<polygon fill="#000000" stroke="#000000" points="684.0001,-583.13 680.5,-573.13 677.0001,-583.13 684.0001,-583.13"/>
</g>
<!-- 34 -->
<g id="node35" class="node">
<title>34</title>
<polygon fill="none" stroke="#000000" points="915,-573 808,-573 808,-505 915,-505 915,-573"/>
<text text-anchor="middle" x="861.5" y="-557.8" font-family="Helvetica,sans-Serif" font-size="14.00" fill="#000000">X[2] &lt;= 2.49</text>
<text text-anchor="middle" x="861.5" y="-542.8" font-family="Helvetica,sans-Serif" font-size="14.00" fill="#000000">gini = 0.153</text>
<text text-anchor="middle" x="861.5" y="-527.8" font-family="Helvetica,sans-Serif" font-size="14.00" fill="#000000">samples = 24</text>
<text text-anchor="middle" x="861.5" y="-512.8" font-family="Helvetica,sans-Serif" font-size="14.00" fill="#000000">value = [2, 22]</text>
</g>
<!-- 28&#45;&gt;34 -->
<g id="edge34" class="edge">
<title>28&#45;&gt;34</title>
<path fill="none" stroke="#000000" d="M738.7658,-609.5213C758.0338,-598.4502 779.5442,-586.0906 799.1087,-574.8491"/>
<polygon fill="#000000" stroke="#000000" points="801.019,-577.7882 807.9459,-569.7714 797.5315,-571.7188 801.019,-577.7882"/>
</g>
<!-- 30 -->
<g id="node31" class="node">
<title>30</title>
<polygon fill="none" stroke="#000000" points="665,-461.5 566,-461.5 566,-408.5 665,-408.5 665,-461.5"/>
<text text-anchor="middle" x="615.5" y="-446.3" font-family="Helvetica,sans-Serif" font-size="14.00" fill="#000000">gini = 0.0</text>
<text text-anchor="middle" x="615.5" y="-431.3" font-family="Helvetica,sans-Serif" font-size="14.00" fill="#000000">samples = 1</text>
<text text-anchor="middle" x="615.5" y="-416.3" font-family="Helvetica,sans-Serif" font-size="14.00" fill="#000000">value = [0, 1]</text>
</g>
<!-- 29&#45;&gt;30 -->
<g id="edge30" class="edge">
<title>29&#45;&gt;30</title>
<path fill="none" stroke="#000000" d="M659.2166,-504.9465C652.2634,-493.8215 644.5295,-481.4473 637.5231,-470.237"/>
<polygon fill="#000000" stroke="#000000" points="640.3569,-468.1671 632.0889,-461.5422 634.4209,-471.8772 640.3569,-468.1671"/>
</g>
<!-- 31 -->
<g id="node32" class="node">
<title>31</title>
<polygon fill="none" stroke="#000000" points="794,-469 683,-469 683,-401 794,-401 794,-469"/>
<text text-anchor="middle" x="738.5" y="-453.8" font-family="Helvetica,sans-Serif" font-size="14.00" fill="#000000">X[2] &lt;= 10.543</text>
<text text-anchor="middle" x="738.5" y="-438.8" font-family="Helvetica,sans-Serif" font-size="14.00" fill="#000000">gini = 0.278</text>
<text text-anchor="middle" x="738.5" y="-423.8" font-family="Helvetica,sans-Serif" font-size="14.00" fill="#000000">samples = 6</text>
<text text-anchor="middle" x="738.5" y="-408.8" font-family="Helvetica,sans-Serif" font-size="14.00" fill="#000000">value = [5, 1]</text>
</g>
<!-- 29&#45;&gt;31 -->
<g id="edge31" class="edge">
<title>29&#45;&gt;31</title>
<path fill="none" stroke="#000000" d="M699.4914,-504.9465C704.2983,-496.3271 709.5235,-486.9579 714.5409,-477.9611"/>
<polygon fill="#000000" stroke="#000000" points="717.652,-479.5684 719.466,-469.13 711.5385,-476.1589 717.652,-479.5684"/>
</g>
<!-- 32 -->
<g id="node33" class="node">
<title>32</title>
<polygon fill="none" stroke="#000000" points="788,-357.5 689,-357.5 689,-304.5 788,-304.5 788,-357.5"/>
<text text-anchor="middle" x="738.5" y="-342.3" font-family="Helvetica,sans-Serif" font-size="14.00" fill="#000000">gini = 0.0</text>
<text text-anchor="middle" x="738.5" y="-327.3" font-family="Helvetica,sans-Serif" font-size="14.00" fill="#000000">samples = 5</text>
<text text-anchor="middle" x="738.5" y="-312.3" font-family="Helvetica,sans-Serif" font-size="14.00" fill="#000000">value = [5, 0]</text>
</g>
<!-- 31&#45;&gt;32 -->
<g id="edge32" class="edge">
<title>31&#45;&gt;32</title>
<path fill="none" stroke="#000000" d="M738.5,-400.9465C738.5,-390.2621 738.5,-378.4254 738.5,-367.5742"/>
<polygon fill="#000000" stroke="#000000" points="742.0001,-367.5421 738.5,-357.5422 735.0001,-367.5422 742.0001,-367.5421"/>
</g>
<!-- 33 -->
<g id="node34" class="node">
<title>33</title>
<polygon fill="none" stroke="#000000" points="905,-357.5 806,-357.5 806,-304.5 905,-304.5 905,-357.5"/>
<text text-anchor="middle" x="855.5" y="-342.3" font-family="Helvetica,sans-Serif" font-size="14.00" fill="#000000">gini = 0.0</text>
<text text-anchor="middle" x="855.5" y="-327.3" font-family="Helvetica,sans-Serif" font-size="14.00" fill="#000000">samples = 1</text>
<text text-anchor="middle" x="855.5" y="-312.3" font-family="Helvetica,sans-Serif" font-size="14.00" fill="#000000">value = [0, 1]</text>
</g>
<!-- 31&#45;&gt;33 -->
<g id="edge33" class="edge">
<title>31&#45;&gt;33</title>
<path fill="none" stroke="#000000" d="M776.8102,-400.9465C790.0694,-389.1606 804.9058,-375.9726 818.0916,-364.2519"/>
<polygon fill="#000000" stroke="#000000" points="820.4912,-366.8018 825.6401,-357.5422 815.8407,-361.5699 820.4912,-366.8018"/>
</g>
<!-- 35 -->
<g id="node36" class="node">
<title>35</title>
<polygon fill="none" stroke="#000000" points="911,-461.5 812,-461.5 812,-408.5 911,-408.5 911,-461.5"/>
<text text-anchor="middle" x="861.5" y="-446.3" font-family="Helvetica,sans-Serif" font-size="14.00" fill="#000000">gini = 0.0</text>
<text text-anchor="middle" x="861.5" y="-431.3" font-family="Helvetica,sans-Serif" font-size="14.00" fill="#000000">samples = 1</text>
<text text-anchor="middle" x="861.5" y="-416.3" font-family="Helvetica,sans-Serif" font-size="14.00" fill="#000000">value = [1, 0]</text>
</g>
<!-- 34&#45;&gt;35 -->
<g id="edge35" class="edge">
<title>34&#45;&gt;35</title>
<path fill="none" stroke="#000000" d="M861.5,-504.9465C861.5,-494.2621 861.5,-482.4254 861.5,-471.5742"/>
<polygon fill="#000000" stroke="#000000" points="865.0001,-471.5421 861.5,-461.5422 858.0001,-471.5422 865.0001,-471.5421"/>
</g>
<!-- 36 -->
<g id="node37" class="node">
<title>36</title>
<polygon fill="none" stroke="#000000" points="1040,-469 929,-469 929,-401 1040,-401 1040,-469"/>
<text text-anchor="middle" x="984.5" y="-453.8" font-family="Helvetica,sans-Serif" font-size="14.00" fill="#000000">X[1] &lt;= 10.761</text>
<text text-anchor="middle" x="984.5" y="-438.8" font-family="Helvetica,sans-Serif" font-size="14.00" fill="#000000">gini = 0.083</text>
<text text-anchor="middle" x="984.5" y="-423.8" font-family="Helvetica,sans-Serif" font-size="14.00" fill="#000000">samples = 23</text>
<text text-anchor="middle" x="984.5" y="-408.8" font-family="Helvetica,sans-Serif" font-size="14.00" fill="#000000">value = [1, 22]</text>
</g>
<!-- 34&#45;&gt;36 -->
<g id="edge36" class="edge">
<title>34&#45;&gt;36</title>
<path fill="none" stroke="#000000" d="M901.7748,-504.9465C912.8184,-495.6088 924.9028,-485.3911 936.3404,-475.7203"/>
<polygon fill="#000000" stroke="#000000" points="938.7583,-478.2594 944.1347,-469.13 934.2386,-472.914 938.7583,-478.2594"/>
</g>
<!-- 37 -->
<g id="node38" class="node">
<title>37</title>
<polygon fill="none" stroke="#000000" points="1034,-365 927,-365 927,-297 1034,-297 1034,-365"/>
<text text-anchor="middle" x="980.5" y="-349.8" font-family="Helvetica,sans-Serif" font-size="14.00" fill="#000000">X[8] &lt;= &#45;3.595</text>
<text text-anchor="middle" x="980.5" y="-334.8" font-family="Helvetica,sans-Serif" font-size="14.00" fill="#000000">gini = 0.32</text>
<text text-anchor="middle" x="980.5" y="-319.8" font-family="Helvetica,sans-Serif" font-size="14.00" fill="#000000">samples = 5</text>
<text text-anchor="middle" x="980.5" y="-304.8" font-family="Helvetica,sans-Serif" font-size="14.00" fill="#000000">value = [1, 4]</text>
</g>
<!-- 36&#45;&gt;37 -->
<g id="edge37" class="edge">
<title>36&#45;&gt;37</title>
<path fill="none" stroke="#000000" d="M983.1903,-400.9465C982.876,-392.776 982.5358,-383.9318 982.2065,-375.3697"/>
<polygon fill="#000000" stroke="#000000" points="985.6945,-374.9881 981.8127,-365.13 978.6997,-375.2572 985.6945,-374.9881"/>
</g>
<!-- 40 -->
<g id="node41" class="node">
<title>40</title>
<polygon fill="none" stroke="#000000" points="1159,-357.5 1052,-357.5 1052,-304.5 1159,-304.5 1159,-357.5"/>
<text text-anchor="middle" x="1105.5" y="-342.3" font-family="Helvetica,sans-Serif" font-size="14.00" fill="#000000">gini = 0.0</text>
<text text-anchor="middle" x="1105.5" y="-327.3" font-family="Helvetica,sans-Serif" font-size="14.00" fill="#000000">samples = 18</text>
<text text-anchor="middle" x="1105.5" y="-312.3" font-family="Helvetica,sans-Serif" font-size="14.00" fill="#000000">value = [0, 18]</text>
</g>
<!-- 36&#45;&gt;40 -->
<g id="edge40" class="edge">
<title>36&#45;&gt;40</title>
<path fill="none" stroke="#000000" d="M1024.1199,-400.9465C1037.8324,-389.1606 1053.1761,-375.9726 1066.8127,-364.2519"/>
<polygon fill="#000000" stroke="#000000" points="1069.3169,-366.7147 1074.6192,-357.5422 1064.7541,-361.4061 1069.3169,-366.7147"/>
</g>
<!-- 38 -->
<g id="node39" class="node">
<title>38</title>
<polygon fill="none" stroke="#000000" points="975,-253.5 876,-253.5 876,-200.5 975,-200.5 975,-253.5"/>
<text text-anchor="middle" x="925.5" y="-238.3" font-family="Helvetica,sans-Serif" font-size="14.00" fill="#000000">gini = 0.0</text>
<text text-anchor="middle" x="925.5" y="-223.3" font-family="Helvetica,sans-Serif" font-size="14.00" fill="#000000">samples = 1</text>
<text text-anchor="middle" x="925.5" y="-208.3" font-family="Helvetica,sans-Serif" font-size="14.00" fill="#000000">value = [1, 0]</text>
</g>
<!-- 37&#45;&gt;38 -->
<g id="edge38" class="edge">
<title>37&#45;&gt;38</title>
<path fill="none" stroke="#000000" d="M962.4909,-296.9465C956.6658,-285.9316 950.193,-273.6922 944.3112,-262.5703"/>
<polygon fill="#000000" stroke="#000000" points="947.3057,-260.7459 939.5367,-253.5422 941.1178,-264.0184 947.3057,-260.7459"/>
</g>
<!-- 39 -->
<g id="node40" class="node">
<title>39</title>
<polygon fill="none" stroke="#000000" points="1092,-253.5 993,-253.5 993,-200.5 1092,-200.5 1092,-253.5"/>
<text text-anchor="middle" x="1042.5" y="-238.3" font-family="Helvetica,sans-Serif" font-size="14.00" fill="#000000">gini = 0.0</text>
<text text-anchor="middle" x="1042.5" y="-223.3" font-family="Helvetica,sans-Serif" font-size="14.00" fill="#000000">samples = 4</text>
<text text-anchor="middle" x="1042.5" y="-208.3" font-family="Helvetica,sans-Serif" font-size="14.00" fill="#000000">value = [0, 4]</text>
</g>
<!-- 37&#45;&gt;39 -->
<g id="edge39" class="edge">
<title>37&#45;&gt;39</title>
<path fill="none" stroke="#000000" d="M1000.8011,-296.9465C1007.4334,-285.8215 1014.8103,-273.4473 1021.4933,-262.237"/>
<polygon fill="#000000" stroke="#000000" points="1024.5624,-263.9239 1026.6768,-253.5422 1018.5498,-260.3394 1024.5624,-263.9239"/>
</g>
</g>
</svg>
