<?xml version="1.0" encoding="UTF-8" standalone="no"?>
<!DOCTYPE svg PUBLIC "-//W3C//DTD SVG 1.1//EN"
 "http://www.w3.org/Graphics/SVG/1.1/DTD/svg11.dtd">
<!-- Generated by graphviz version 2.40.1 (20161225.0304)
 -->
<!-- Title: Tree Pages: 1 -->
<svg width="1143pt" height="1205pt"
 viewBox="0.00 0.00 1143.00 1205.00" xmlns="http://www.w3.org/2000/svg" xmlns:xlink="http://www.w3.org/1999/xlink">
<g id="graph0" class="graph" transform="scale(1 1) rotate(0) translate(4 1201)">
<title>Tree</title>
<polygon fill="#ffffff" stroke="transparent" points="-4,4 -4,-1201 1139,-1201 1139,4 -4,4"/>
<!-- 0 -->
<g id="node1" class="node">
<title>0</title>
<polygon fill="none" stroke="#000000" points="723.5,-1197 607.5,-1197 607.5,-1129 723.5,-1129 723.5,-1197"/>
<text text-anchor="middle" x="665.5" y="-1181.8" font-family="Helvetica,sans-Serif" font-size="14.00" fill="#000000">X[0] &lt;= 8.692</text>
<text text-anchor="middle" x="665.5" y="-1166.8" font-family="Helvetica,sans-Serif" font-size="14.00" fill="#000000">gini = 0.491</text>
<text text-anchor="middle" x="665.5" y="-1151.8" font-family="Helvetica,sans-Serif" font-size="14.00" fill="#000000">samples = 81</text>
<text text-anchor="middle" x="665.5" y="-1136.8" font-family="Helvetica,sans-Serif" font-size="14.00" fill="#000000">value = [35, 46]</text>
</g>
<!-- 1 -->
<g id="node2" class="node">
<title>1</title>
<polygon fill="none" stroke="#000000" points="656.5,-1093 540.5,-1093 540.5,-1025 656.5,-1025 656.5,-1093"/>
<text text-anchor="middle" x="598.5" y="-1077.8" font-family="Helvetica,sans-Serif" font-size="14.00" fill="#000000">X[1] &lt;= 7.933</text>
<text text-anchor="middle" x="598.5" y="-1062.8" font-family="Helvetica,sans-Serif" font-size="14.00" fill="#000000">gini = 0.495</text>
<text text-anchor="middle" x="598.5" y="-1047.8" font-family="Helvetica,sans-Serif" font-size="14.00" fill="#000000">samples = 51</text>
<text text-anchor="middle" x="598.5" y="-1032.8" font-family="Helvetica,sans-Serif" font-size="14.00" fill="#000000">value = [28, 23]</text>
</g>
<!-- 0&#45;&gt;1 -->
<g id="edge1" class="edge">
<title>0&#45;&gt;1</title>
<path fill="none" stroke="#000000" d="M643.5617,-1128.9465C637.951,-1120.2373 631.8471,-1110.7626 625.9958,-1101.6801"/>
<polygon fill="#000000" stroke="#000000" points="628.8457,-1099.641 620.4876,-1093.13 622.9611,-1103.4321 628.8457,-1099.641"/>
<text text-anchor="middle" x="615.2006" y="-1113.8646" font-family="Helvetica,sans-Serif" font-size="14.00" fill="#000000">True</text>
</g>
<!-- 34 -->
<g id="node35" class="node">
<title>34</title>
<polygon fill="none" stroke="#000000" points="838.5,-1093 722.5,-1093 722.5,-1025 838.5,-1025 838.5,-1093"/>
<text text-anchor="middle" x="780.5" y="-1077.8" font-family="Helvetica,sans-Serif" font-size="14.00" fill="#000000">X[8] &lt;= &#45;34.049</text>
<text text-anchor="middle" x="780.5" y="-1062.8" font-family="Helvetica,sans-Serif" font-size="14.00" fill="#000000">gini = 0.358</text>
<text text-anchor="middle" x="780.5" y="-1047.8" font-family="Helvetica,sans-Serif" font-size="14.00" fill="#000000">samples = 30</text>
<text text-anchor="middle" x="780.5" y="-1032.8" font-family="Helvetica,sans-Serif" font-size="14.00" fill="#000000">value = [7, 23]</text>
</g>
<!-- 0&#45;&gt;34 -->
<g id="edge34" class="edge">
<title>0&#45;&gt;34</title>
<path fill="none" stroke="#000000" d="M703.1553,-1128.9465C713.3813,-1119.6986 724.5618,-1109.5876 735.1641,-1099.9994"/>
<polygon fill="#000000" stroke="#000000" points="737.6908,-1102.4334 742.7601,-1093.13 732.9956,-1097.2416 737.6908,-1102.4334"/>
<text text-anchor="middle" x="741.506" y="-1114.3985" font-family="Helvetica,sans-Serif" font-size="14.00" fill="#000000">False</text>
</g>
<!-- 2 -->
<g id="node3" class="node">
<title>2</title>
<polygon fill="none" stroke="#000000" points="522,-981.5 423,-981.5 423,-928.5 522,-928.5 522,-981.5"/>
<text text-anchor="middle" x="472.5" y="-966.3" font-family="Helvetica,sans-Serif" font-size="14.00" fill="#000000">gini = 0.0</text>
<text text-anchor="middle" x="472.5" y="-951.3" font-family="Helvetica,sans-Serif" font-size="14.00" fill="#000000">samples = 5</text>
<text text-anchor="middle" x="472.5" y="-936.3" font-family="Helvetica,sans-Serif" font-size="14.00" fill="#000000">value = [5, 0]</text>
</g>
<!-- 1&#45;&gt;2 -->
<g id="edge2" class="edge">
<title>1&#45;&gt;2</title>
<path fill="none" stroke="#000000" d="M557.2429,-1024.9465C542.8303,-1013.0504 526.6873,-999.726 512.3883,-987.9237"/>
<polygon fill="#000000" stroke="#000000" points="514.5971,-985.2086 504.6569,-981.5422 510.1411,-990.6071 514.5971,-985.2086"/>
</g>
<!-- 3 -->
<g id="node4" class="node">
<title>3</title>
<polygon fill="none" stroke="#000000" points="656.5,-989 540.5,-989 540.5,-921 656.5,-921 656.5,-989"/>
<text text-anchor="middle" x="598.5" y="-973.8" font-family="Helvetica,sans-Serif" font-size="14.00" fill="#000000">X[6] &lt;= &#45;8.772</text>
<text text-anchor="middle" x="598.5" y="-958.8" font-family="Helvetica,sans-Serif" font-size="14.00" fill="#000000">gini = 0.5</text>
<text text-anchor="middle" x="598.5" y="-943.8" font-family="Helvetica,sans-Serif" font-size="14.00" fill="#000000">samples = 46</text>
<text text-anchor="middle" x="598.5" y="-928.8" font-family="Helvetica,sans-Serif" font-size="14.00" fill="#000000">value = [23, 23]</text>
</g>
<!-- 1&#45;&gt;3 -->
<g id="edge3" class="edge">
<title>1&#45;&gt;3</title>
<path fill="none" stroke="#000000" d="M598.5,-1024.9465C598.5,-1016.776 598.5,-1007.9318 598.5,-999.3697"/>
<polygon fill="#000000" stroke="#000000" points="602.0001,-999.13 598.5,-989.13 595.0001,-999.13 602.0001,-999.13"/>
</g>
<!-- 4 -->
<g id="node5" class="node">
<title>4</title>
<polygon fill="none" stroke="#000000" points="413.5,-885 297.5,-885 297.5,-817 413.5,-817 413.5,-885"/>
<text text-anchor="middle" x="355.5" y="-869.8" font-family="Helvetica,sans-Serif" font-size="14.00" fill="#000000">X[0] &lt;= 2.704</text>
<text text-anchor="middle" x="355.5" y="-854.8" font-family="Helvetica,sans-Serif" font-size="14.00" fill="#000000">gini = 0.482</text>
<text text-anchor="middle" x="355.5" y="-839.8" font-family="Helvetica,sans-Serif" font-size="14.00" fill="#000000">samples = 32</text>
<text text-anchor="middle" x="355.5" y="-824.8" font-family="Helvetica,sans-Serif" font-size="14.00" fill="#000000">value = [19, 13]</text>
</g>
<!-- 3&#45;&gt;4 -->
<g id="edge4" class="edge">
<title>3&#45;&gt;4</title>
<path fill="none" stroke="#000000" d="M540.4138,-925.5594C537.0726,-923.9901 533.751,-922.4599 530.5,-921 495.4523,-905.2613 455.7424,-889.235 423.0189,-876.4956"/>
<polygon fill="#000000" stroke="#000000" points="424.1326,-873.1736 413.5436,-872.8225 421.6025,-879.7004 424.1326,-873.1736"/>
</g>
<!-- 23 -->
<g id="node24" class="node">
<title>23</title>
<polygon fill="none" stroke="#000000" points="652,-885 545,-885 545,-817 652,-817 652,-885"/>
<text text-anchor="middle" x="598.5" y="-869.8" font-family="Helvetica,sans-Serif" font-size="14.00" fill="#000000">X[0] &lt;= 3.354</text>
<text text-anchor="middle" x="598.5" y="-854.8" font-family="Helvetica,sans-Serif" font-size="14.00" fill="#000000">gini = 0.408</text>
<text text-anchor="middle" x="598.5" y="-839.8" font-family="Helvetica,sans-Serif" font-size="14.00" fill="#000000">samples = 14</text>
<text text-anchor="middle" x="598.5" y="-824.8" font-family="Helvetica,sans-Serif" font-size="14.00" fill="#000000">value = [4, 10]</text>
</g>
<!-- 3&#45;&gt;23 -->
<g id="edge23" class="edge">
<title>3&#45;&gt;23</title>
<path fill="none" stroke="#000000" d="M598.5,-920.9465C598.5,-912.776 598.5,-903.9318 598.5,-895.3697"/>
<polygon fill="#000000" stroke="#000000" points="602.0001,-895.13 598.5,-885.13 595.0001,-895.13 602.0001,-895.13"/>
</g>
<!-- 5 -->
<g id="node6" class="node">
<title>5</title>
<polygon fill="none" stroke="#000000" points="279,-773.5 180,-773.5 180,-720.5 279,-720.5 279,-773.5"/>
<text text-anchor="middle" x="229.5" y="-758.3" font-family="Helvetica,sans-Serif" font-size="14.00" fill="#000000">gini = 0.0</text>
<text text-anchor="middle" x="229.5" y="-743.3" font-family="Helvetica,sans-Serif" font-size="14.00" fill="#000000">samples = 2</text>
<text text-anchor="middle" x="229.5" y="-728.3" font-family="Helvetica,sans-Serif" font-size="14.00" fill="#000000">value = [0, 2]</text>
</g>
<!-- 4&#45;&gt;5 -->
<g id="edge5" class="edge">
<title>4&#45;&gt;5</title>
<path fill="none" stroke="#000000" d="M314.2429,-816.9465C299.8303,-805.0504 283.6873,-791.726 269.3883,-779.9237"/>
<polygon fill="#000000" stroke="#000000" points="271.5971,-777.2086 261.6569,-773.5422 267.1411,-782.6071 271.5971,-777.2086"/>
</g>
<!-- 6 -->
<g id="node7" class="node">
<title>6</title>
<polygon fill="none" stroke="#000000" points="413.5,-781 297.5,-781 297.5,-713 413.5,-713 413.5,-781"/>
<text text-anchor="middle" x="355.5" y="-765.8" font-family="Helvetica,sans-Serif" font-size="14.00" fill="#000000">X[1] &lt;= 17.499</text>
<text text-anchor="middle" x="355.5" y="-750.8" font-family="Helvetica,sans-Serif" font-size="14.00" fill="#000000">gini = 0.464</text>
<text text-anchor="middle" x="355.5" y="-735.8" font-family="Helvetica,sans-Serif" font-size="14.00" fill="#000000">samples = 30</text>
<text text-anchor="middle" x="355.5" y="-720.8" font-family="Helvetica,sans-Serif" font-size="14.00" fill="#000000">value = [19, 11]</text>
</g>
<!-- 4&#45;&gt;6 -->
<g id="edge6" class="edge">
<title>4&#45;&gt;6</title>
<path fill="none" stroke="#000000" d="M355.5,-816.9465C355.5,-808.776 355.5,-799.9318 355.5,-791.3697"/>
<polygon fill="#000000" stroke="#000000" points="359.0001,-791.13 355.5,-781.13 352.0001,-791.13 359.0001,-791.13"/>
</g>
<!-- 7 -->
<g id="node8" class="node">
<title>7</title>
<polygon fill="none" stroke="#000000" points="279,-669.5 180,-669.5 180,-616.5 279,-616.5 279,-669.5"/>
<text text-anchor="middle" x="229.5" y="-654.3" font-family="Helvetica,sans-Serif" font-size="14.00" fill="#000000">gini = 0.0</text>
<text text-anchor="middle" x="229.5" y="-639.3" font-family="Helvetica,sans-Serif" font-size="14.00" fill="#000000">samples = 5</text>
<text text-anchor="middle" x="229.5" y="-624.3" font-family="Helvetica,sans-Serif" font-size="14.00" fill="#000000">value = [5, 0]</text>
</g>
<!-- 6&#45;&gt;7 -->
<g id="edge7" class="edge">
<title>6&#45;&gt;7</title>
<path fill="none" stroke="#000000" d="M314.2429,-712.9465C299.8303,-701.0504 283.6873,-687.726 269.3883,-675.9237"/>
<polygon fill="#000000" stroke="#000000" points="271.5971,-673.2086 261.6569,-669.5422 267.1411,-678.6071 271.5971,-673.2086"/>
</g>
<!-- 8 -->
<g id="node9" class="node">
<title>8</title>
<polygon fill="none" stroke="#000000" points="413.5,-677 297.5,-677 297.5,-609 413.5,-609 413.5,-677"/>
<text text-anchor="middle" x="355.5" y="-661.8" font-family="Helvetica,sans-Serif" font-size="14.00" fill="#000000">X[2] &lt;= 9.104</text>
<text text-anchor="middle" x="355.5" y="-646.8" font-family="Helvetica,sans-Serif" font-size="14.00" fill="#000000">gini = 0.493</text>
<text text-anchor="middle" x="355.5" y="-631.8" font-family="Helvetica,sans-Serif" font-size="14.00" fill="#000000">samples = 25</text>
<text text-anchor="middle" x="355.5" y="-616.8" font-family="Helvetica,sans-Serif" font-size="14.00" fill="#000000">value = [14, 11]</text>
</g>
<!-- 6&#45;&gt;8 -->
<g id="edge8" class="edge">
<title>6&#45;&gt;8</title>
<path fill="none" stroke="#000000" d="M355.5,-712.9465C355.5,-704.776 355.5,-695.9318 355.5,-687.3697"/>
<polygon fill="#000000" stroke="#000000" points="359.0001,-687.13 355.5,-677.13 352.0001,-687.13 359.0001,-687.13"/>
</g>
<!-- 9 -->
<g id="node10" class="node">
<title>9</title>
<polygon fill="none" stroke="#000000" points="287,-573 176,-573 176,-505 287,-505 287,-573"/>
<text text-anchor="middle" x="231.5" y="-557.8" font-family="Helvetica,sans-Serif" font-size="14.00" fill="#000000">X[1] &lt;= 19.045</text>
<text text-anchor="middle" x="231.5" y="-542.8" font-family="Helvetica,sans-Serif" font-size="14.00" fill="#000000">gini = 0.375</text>
<text text-anchor="middle" x="231.5" y="-527.8" font-family="Helvetica,sans-Serif" font-size="14.00" fill="#000000">samples = 16</text>
<text text-anchor="middle" x="231.5" y="-512.8" font-family="Helvetica,sans-Serif" font-size="14.00" fill="#000000">value = [12, 4]</text>
</g>
<!-- 8&#45;&gt;9 -->
<g id="edge9" class="edge">
<title>8&#45;&gt;9</title>
<path fill="none" stroke="#000000" d="M314.8978,-608.9465C303.7644,-599.6088 291.5817,-589.3911 280.0511,-579.7203"/>
<polygon fill="#000000" stroke="#000000" points="282.1046,-576.8745 272.1935,-573.13 277.6062,-582.2378 282.1046,-576.8745"/>
</g>
<!-- 20 -->
<g id="node21" class="node">
<title>20</title>
<polygon fill="none" stroke="#000000" points="416,-573 305,-573 305,-505 416,-505 416,-573"/>
<text text-anchor="middle" x="360.5" y="-557.8" font-family="Helvetica,sans-Serif" font-size="14.00" fill="#000000">X[5] &lt;= 13.097</text>
<text text-anchor="middle" x="360.5" y="-542.8" font-family="Helvetica,sans-Serif" font-size="14.00" fill="#000000">gini = 0.346</text>
<text text-anchor="middle" x="360.5" y="-527.8" font-family="Helvetica,sans-Serif" font-size="14.00" fill="#000000">samples = 9</text>
<text text-anchor="middle" x="360.5" y="-512.8" font-family="Helvetica,sans-Serif" font-size="14.00" fill="#000000">value = [2, 7]</text>
</g>
<!-- 8&#45;&gt;20 -->
<g id="edge20" class="edge">
<title>8&#45;&gt;20</title>
<path fill="none" stroke="#000000" d="M357.1372,-608.9465C357.53,-600.776 357.9552,-591.9318 358.3668,-583.3697"/>
<polygon fill="#000000" stroke="#000000" points="361.8748,-583.2866 358.8591,-573.13 354.8829,-582.9504 361.8748,-583.2866"/>
</g>
<!-- 10 -->
<g id="node11" class="node">
<title>10</title>
<polygon fill="none" stroke="#000000" points="160,-461.5 61,-461.5 61,-408.5 160,-408.5 160,-461.5"/>
<text text-anchor="middle" x="110.5" y="-446.3" font-family="Helvetica,sans-Serif" font-size="14.00" fill="#000000">gini = 0.0</text>
<text text-anchor="middle" x="110.5" y="-431.3" font-family="Helvetica,sans-Serif" font-size="14.00" fill="#000000">samples = 1</text>
<text text-anchor="middle" x="110.5" y="-416.3" font-family="Helvetica,sans-Serif" font-size="14.00" fill="#000000">value = [0, 1]</text>
</g>
<!-- 9&#45;&gt;10 -->
<g id="edge10" class="edge">
<title>9&#45;&gt;10</title>
<path fill="none" stroke="#000000" d="M191.8801,-504.9465C178.1676,-493.1606 162.8239,-479.9726 149.1873,-468.2519"/>
<polygon fill="#000000" stroke="#000000" points="151.2459,-465.4061 141.3808,-461.5422 146.6831,-470.7147 151.2459,-465.4061"/>
</g>
<!-- 11 -->
<g id="node12" class="node">
<title>11</title>
<polygon fill="none" stroke="#000000" points="289,-469 178,-469 178,-401 289,-401 289,-469"/>
<text text-anchor="middle" x="233.5" y="-453.8" font-family="Helvetica,sans-Serif" font-size="14.00" fill="#000000">X[3] &lt;= 16.068</text>
<text text-anchor="middle" x="233.5" y="-438.8" font-family="Helvetica,sans-Serif" font-size="14.00" fill="#000000">gini = 0.32</text>
<text text-anchor="middle" x="233.5" y="-423.8" font-family="Helvetica,sans-Serif" font-size="14.00" fill="#000000">samples = 15</text>
<text text-anchor="middle" x="233.5" y="-408.8" font-family="Helvetica,sans-Serif" font-size="14.00" fill="#000000">value = [12, 3]</text>
</g>
<!-- 9&#45;&gt;11 -->
<g id="edge11" class="edge">
<title>9&#45;&gt;11</title>
<path fill="none" stroke="#000000" d="M232.1549,-504.9465C232.312,-496.776 232.4821,-487.9318 232.6467,-479.3697"/>
<polygon fill="#000000" stroke="#000000" points="236.1506,-479.1955 232.8437,-469.13 229.1519,-479.0608 236.1506,-479.1955"/>
</g>
<!-- 12 -->
<g id="node13" class="node">
<title>12</title>
<polygon fill="none" stroke="#000000" points="227,-365 116,-365 116,-297 227,-297 227,-365"/>
<text text-anchor="middle" x="171.5" y="-349.8" font-family="Helvetica,sans-Serif" font-size="14.00" fill="#000000">X[3] &lt;= 12.966</text>
<text text-anchor="middle" x="171.5" y="-334.8" font-family="Helvetica,sans-Serif" font-size="14.00" fill="#000000">gini = 0.444</text>
<text text-anchor="middle" x="171.5" y="-319.8" font-family="Helvetica,sans-Serif" font-size="14.00" fill="#000000">samples = 9</text>
<text text-anchor="middle" x="171.5" y="-304.8" font-family="Helvetica,sans-Serif" font-size="14.00" fill="#000000">value = [6, 3]</text>
</g>
<!-- 11&#45;&gt;12 -->
<g id="edge12" class="edge">
<title>11&#45;&gt;12</title>
<path fill="none" stroke="#000000" d="M213.1989,-400.9465C208.0604,-392.3271 202.4749,-382.9579 197.1114,-373.9611"/>
<polygon fill="#000000" stroke="#000000" points="199.9737,-371.9272 191.8467,-365.13 193.9611,-375.5117 199.9737,-371.9272"/>
</g>
<!-- 19 -->
<g id="node20" class="node">
<title>19</title>
<polygon fill="none" stroke="#000000" points="344,-357.5 245,-357.5 245,-304.5 344,-304.5 344,-357.5"/>
<text text-anchor="middle" x="294.5" y="-342.3" font-family="Helvetica,sans-Serif" font-size="14.00" fill="#000000">gini = 0.0</text>
<text text-anchor="middle" x="294.5" y="-327.3" font-family="Helvetica,sans-Serif" font-size="14.00" fill="#000000">samples = 6</text>
<text text-anchor="middle" x="294.5" y="-312.3" font-family="Helvetica,sans-Serif" font-size="14.00" fill="#000000">value = [6, 0]</text>
</g>
<!-- 11&#45;&gt;19 -->
<g id="edge19" class="edge">
<title>11&#45;&gt;19</title>
<path fill="none" stroke="#000000" d="M253.4737,-400.9465C259.999,-389.8215 267.2569,-377.4473 273.8322,-366.237"/>
<polygon fill="#000000" stroke="#000000" points="276.8916,-367.9387 278.932,-357.5422 270.8536,-364.3971 276.8916,-367.9387"/>
</g>
<!-- 13 -->
<g id="node14" class="node">
<title>13</title>
<polygon fill="none" stroke="#000000" points="164,-261 61,-261 61,-193 164,-193 164,-261"/>
<text text-anchor="middle" x="112.5" y="-245.8" font-family="Helvetica,sans-Serif" font-size="14.00" fill="#000000">X[3] &lt;= 6.259</text>
<text text-anchor="middle" x="112.5" y="-230.8" font-family="Helvetica,sans-Serif" font-size="14.00" fill="#000000">gini = 0.245</text>
<text text-anchor="middle" x="112.5" y="-215.8" font-family="Helvetica,sans-Serif" font-size="14.00" fill="#000000">samples = 7</text>
<text text-anchor="middle" x="112.5" y="-200.8" font-family="Helvetica,sans-Serif" font-size="14.00" fill="#000000">value = [6, 1]</text>
</g>
<!-- 12&#45;&gt;13 -->
<g id="edge13" class="edge">
<title>12&#45;&gt;13</title>
<path fill="none" stroke="#000000" d="M152.1812,-296.9465C147.2913,-288.3271 141.9761,-278.9579 136.8722,-269.9611"/>
<polygon fill="#000000" stroke="#000000" points="139.8408,-268.1008 131.8622,-261.13 133.7524,-271.5549 139.8408,-268.1008"/>
</g>
<!-- 18 -->
<g id="node19" class="node">
<title>18</title>
<polygon fill="none" stroke="#000000" points="281,-253.5 182,-253.5 182,-200.5 281,-200.5 281,-253.5"/>
<text text-anchor="middle" x="231.5" y="-238.3" font-family="Helvetica,sans-Serif" font-size="14.00" fill="#000000">gini = 0.0</text>
<text text-anchor="middle" x="231.5" y="-223.3" font-family="Helvetica,sans-Serif" font-size="14.00" fill="#000000">samples = 2</text>
<text text-anchor="middle" x="231.5" y="-208.3" font-family="Helvetica,sans-Serif" font-size="14.00" fill="#000000">value = [0, 2]</text>
</g>
<!-- 12&#45;&gt;18 -->
<g id="edge18" class="edge">
<title>12&#45;&gt;18</title>
<path fill="none" stroke="#000000" d="M191.1462,-296.9465C197.5645,-285.8215 204.7035,-273.4473 211.171,-262.237"/>
<polygon fill="#000000" stroke="#000000" points="214.2216,-263.9531 216.1872,-253.5422 208.1583,-260.455 214.2216,-263.9531"/>
</g>
<!-- 14 -->
<g id="node15" class="node">
<title>14</title>
<polygon fill="none" stroke="#000000" points="99,-149.5 0,-149.5 0,-96.5 99,-96.5 99,-149.5"/>
<text text-anchor="middle" x="49.5" y="-134.3" font-family="Helvetica,sans-Serif" font-size="14.00" fill="#000000">gini = 0.0</text>
<text text-anchor="middle" x="49.5" y="-119.3" font-family="Helvetica,sans-Serif" font-size="14.00" fill="#000000">samples = 4</text>
<text text-anchor="middle" x="49.5" y="-104.3" font-family="Helvetica,sans-Serif" font-size="14.00" fill="#000000">value = [4, 0]</text>
</g>
<!-- 13&#45;&gt;14 -->
<g id="edge14" class="edge">
<title>13&#45;&gt;14</title>
<path fill="none" stroke="#000000" d="M91.8714,-192.9465C85.1322,-181.8215 77.6363,-169.4473 70.8455,-158.237"/>
<polygon fill="#000000" stroke="#000000" points="73.7533,-156.2818 65.5784,-149.5422 67.7661,-159.9087 73.7533,-156.2818"/>
</g>
<!-- 15 -->
<g id="node16" class="node">
<title>15</title>
<polygon fill="none" stroke="#000000" points="233.5,-157 117.5,-157 117.5,-89 233.5,-89 233.5,-157"/>
<text text-anchor="middle" x="175.5" y="-141.8" font-family="Helvetica,sans-Serif" font-size="14.00" fill="#000000">X[6] &lt;= &#45;34.495</text>
<text text-anchor="middle" x="175.5" y="-126.8" font-family="Helvetica,sans-Serif" font-size="14.00" fill="#000000">gini = 0.444</text>
<text text-anchor="middle" x="175.5" y="-111.8" font-family="Helvetica,sans-Serif" font-size="14.00" fill="#000000">samples = 3</text>
<text text-anchor="middle" x="175.5" y="-96.8" font-family="Helvetica,sans-Serif" font-size="14.00" fill="#000000">value = [2, 1]</text>
</g>
<!-- 13&#45;&gt;15 -->
<g id="edge15" class="edge">
<title>13&#45;&gt;15</title>
<path fill="none" stroke="#000000" d="M133.1286,-192.9465C138.3499,-184.3271 144.0255,-174.9579 149.4755,-165.9611"/>
<polygon fill="#000000" stroke="#000000" points="152.6374,-167.4965 154.8251,-157.13 146.6503,-163.8697 152.6374,-167.4965"/>
</g>
<!-- 16 -->
<g id="node17" class="node">
<title>16</title>
<polygon fill="none" stroke="#000000" points="166,-53 67,-53 67,0 166,0 166,-53"/>
<text text-anchor="middle" x="116.5" y="-37.8" font-family="Helvetica,sans-Serif" font-size="14.00" fill="#000000">gini = 0.0</text>
<text text-anchor="middle" x="116.5" y="-22.8" font-family="Helvetica,sans-Serif" font-size="14.00" fill="#000000">samples = 1</text>
<text text-anchor="middle" x="116.5" y="-7.8" font-family="Helvetica,sans-Serif" font-size="14.00" fill="#000000">value = [0, 1]</text>
</g>
<!-- 15&#45;&gt;16 -->
<g id="edge16" class="edge">
<title>15&#45;&gt;16</title>
<path fill="none" stroke="#000000" d="M154.6988,-88.9777C149.3242,-80.187 143.5265,-70.7044 138.1115,-61.8477"/>
<polygon fill="#000000" stroke="#000000" points="141.0564,-59.9545 132.854,-53.2485 135.0842,-63.6059 141.0564,-59.9545"/>
</g>
<!-- 17 -->
<g id="node18" class="node">
<title>17</title>
<polygon fill="none" stroke="#000000" points="283,-53 184,-53 184,0 283,0 283,-53"/>
<text text-anchor="middle" x="233.5" y="-37.8" font-family="Helvetica,sans-Serif" font-size="14.00" fill="#000000">gini = 0.0</text>
<text text-anchor="middle" x="233.5" y="-22.8" font-family="Helvetica,sans-Serif" font-size="14.00" fill="#000000">samples = 2</text>
<text text-anchor="middle" x="233.5" y="-7.8" font-family="Helvetica,sans-Serif" font-size="14.00" fill="#000000">value = [2, 0]</text>
</g>
<!-- 15&#45;&gt;17 -->
<g id="edge17" class="edge">
<title>15&#45;&gt;17</title>
<path fill="none" stroke="#000000" d="M195.9486,-88.9777C201.2322,-80.187 206.9316,-70.7044 212.2548,-61.8477"/>
<polygon fill="#000000" stroke="#000000" points="215.2715,-63.6225 217.4232,-53.2485 209.2718,-60.0165 215.2715,-63.6225"/>
</g>
<!-- 21 -->
<g id="node22" class="node">
<title>21</title>
<polygon fill="none" stroke="#000000" points="409,-461.5 310,-461.5 310,-408.5 409,-408.5 409,-461.5"/>
<text text-anchor="middle" x="359.5" y="-446.3" font-family="Helvetica,sans-Serif" font-size="14.00" fill="#000000">gini = 0.0</text>
<text text-anchor="middle" x="359.5" y="-431.3" font-family="Helvetica,sans-Serif" font-size="14.00" fill="#000000">samples = 7</text>
<text text-anchor="middle" x="359.5" y="-416.3" font-family="Helvetica,sans-Serif" font-size="14.00" fill="#000000">value = [0, 7]</text>
</g>
<!-- 20&#45;&gt;21 -->
<g id="edge21" class="edge">
<title>20&#45;&gt;21</title>
<path fill="none" stroke="#000000" d="M360.1726,-504.9465C360.0698,-494.2621 359.956,-482.4254 359.8517,-471.5742"/>
<polygon fill="#000000" stroke="#000000" points="363.3513,-471.508 359.7552,-461.5422 356.3516,-471.5754 363.3513,-471.508"/>
</g>
<!-- 22 -->
<g id="node23" class="node">
<title>22</title>
<polygon fill="none" stroke="#000000" points="526,-461.5 427,-461.5 427,-408.5 526,-408.5 526,-461.5"/>
<text text-anchor="middle" x="476.5" y="-446.3" font-family="Helvetica,sans-Serif" font-size="14.00" fill="#000000">gini = 0.0</text>
<text text-anchor="middle" x="476.5" y="-431.3" font-family="Helvetica,sans-Serif" font-size="14.00" fill="#000000">samples = 2</text>
<text text-anchor="middle" x="476.5" y="-416.3" font-family="Helvetica,sans-Serif" font-size="14.00" fill="#000000">value = [2, 0]</text>
</g>
<!-- 20&#45;&gt;22 -->
<g id="edge22" class="edge">
<title>20&#45;&gt;22</title>
<path fill="none" stroke="#000000" d="M398.4827,-504.9465C411.6286,-493.1606 426.3382,-479.9726 439.4113,-468.2519"/>
<polygon fill="#000000" stroke="#000000" points="441.786,-470.8236 446.8953,-461.5422 437.1131,-465.6116 441.786,-470.8236"/>
</g>
<!-- 24 -->
<g id="node25" class="node">
<title>24</title>
<polygon fill="none" stroke="#000000" points="648,-781 549,-781 549,-713 648,-713 648,-781"/>
<text text-anchor="middle" x="598.5" y="-765.8" font-family="Helvetica,sans-Serif" font-size="14.00" fill="#000000">X[1] &lt;= 8.43</text>
<text text-anchor="middle" x="598.5" y="-750.8" font-family="Helvetica,sans-Serif" font-size="14.00" fill="#000000">gini = 0.444</text>
<text text-anchor="middle" x="598.5" y="-735.8" font-family="Helvetica,sans-Serif" font-size="14.00" fill="#000000">samples = 3</text>
<text text-anchor="middle" x="598.5" y="-720.8" font-family="Helvetica,sans-Serif" font-size="14.00" fill="#000000">value = [2, 1]</text>
</g>
<!-- 23&#45;&gt;24 -->
<g id="edge24" class="edge">
<title>23&#45;&gt;24</title>
<path fill="none" stroke="#000000" d="M598.5,-816.9465C598.5,-808.776 598.5,-799.9318 598.5,-791.3697"/>
<polygon fill="#000000" stroke="#000000" points="602.0001,-791.13 598.5,-781.13 595.0001,-791.13 602.0001,-791.13"/>
</g>
<!-- 27 -->
<g id="node28" class="node">
<title>27</title>
<polygon fill="none" stroke="#000000" points="773,-781 666,-781 666,-713 773,-713 773,-781"/>
<text text-anchor="middle" x="719.5" y="-765.8" font-family="Helvetica,sans-Serif" font-size="14.00" fill="#000000">X[6] &lt;= &#45;2.975</text>
<text text-anchor="middle" x="719.5" y="-750.8" font-family="Helvetica,sans-Serif" font-size="14.00" fill="#000000">gini = 0.298</text>
<text text-anchor="middle" x="719.5" y="-735.8" font-family="Helvetica,sans-Serif" font-size="14.00" fill="#000000">samples = 11</text>
<text text-anchor="middle" x="719.5" y="-720.8" font-family="Helvetica,sans-Serif" font-size="14.00" fill="#000000">value = [2, 9]</text>
</g>
<!-- 23&#45;&gt;27 -->
<g id="edge27" class="edge">
<title>23&#45;&gt;27</title>
<path fill="none" stroke="#000000" d="M638.1199,-816.9465C648.984,-807.6088 660.8718,-797.3911 672.1235,-787.7203"/>
<polygon fill="#000000" stroke="#000000" points="674.4887,-790.3026 679.7911,-781.13 669.9259,-784.994 674.4887,-790.3026"/>
</g>
<!-- 25 -->
<g id="node26" class="node">
<title>25</title>
<polygon fill="none" stroke="#000000" points="531,-669.5 432,-669.5 432,-616.5 531,-616.5 531,-669.5"/>
<text text-anchor="middle" x="481.5" y="-654.3" font-family="Helvetica,sans-Serif" font-size="14.00" fill="#000000">gini = 0.0</text>
<text text-anchor="middle" x="481.5" y="-639.3" font-family="Helvetica,sans-Serif" font-size="14.00" fill="#000000">samples = 1</text>
<text text-anchor="middle" x="481.5" y="-624.3" font-family="Helvetica,sans-Serif" font-size="14.00" fill="#000000">value = [0, 1]</text>
</g>
<!-- 24&#45;&gt;25 -->
<g id="edge25" class="edge">
<title>24&#45;&gt;25</title>
<path fill="none" stroke="#000000" d="M560.1898,-712.9465C546.9306,-701.1606 532.0942,-687.9726 518.9084,-676.2519"/>
<polygon fill="#000000" stroke="#000000" points="521.1593,-673.5699 511.3599,-669.5422 516.5088,-678.8018 521.1593,-673.5699"/>
</g>
<!-- 26 -->
<g id="node27" class="node">
<title>26</title>
<polygon fill="none" stroke="#000000" points="648,-669.5 549,-669.5 549,-616.5 648,-616.5 648,-669.5"/>
<text text-anchor="middle" x="598.5" y="-654.3" font-family="Helvetica,sans-Serif" font-size="14.00" fill="#000000">gini = 0.0</text>
<text text-anchor="middle" x="598.5" y="-639.3" font-family="Helvetica,sans-Serif" font-size="14.00" fill="#000000">samples = 2</text>
<text text-anchor="middle" x="598.5" y="-624.3" font-family="Helvetica,sans-Serif" font-size="14.00" fill="#000000">value = [2, 0]</text>
</g>
<!-- 24&#45;&gt;26 -->
<g id="edge26" class="edge">
<title>24&#45;&gt;26</title>
<path fill="none" stroke="#000000" d="M598.5,-712.9465C598.5,-702.2621 598.5,-690.4254 598.5,-679.5742"/>
<polygon fill="#000000" stroke="#000000" points="602.0001,-679.5421 598.5,-669.5422 595.0001,-679.5422 602.0001,-679.5421"/>
</g>
<!-- 28 -->
<g id="node29" class="node">
<title>28</title>
<polygon fill="none" stroke="#000000" points="773,-677 666,-677 666,-609 773,-609 773,-677"/>
<text text-anchor="middle" x="719.5" y="-661.8" font-family="Helvetica,sans-Serif" font-size="14.00" fill="#000000">X[5] &lt;= &#45;8.648</text>
<text text-anchor="middle" x="719.5" y="-646.8" font-family="Helvetica,sans-Serif" font-size="14.00" fill="#000000">gini = 0.18</text>
<text text-anchor="middle" x="719.5" y="-631.8" font-family="Helvetica,sans-Serif" font-size="14.00" fill="#000000">samples = 10</text>
<text text-anchor="middle" x="719.5" y="-616.8" font-family="Helvetica,sans-Serif" font-size="14.00" fill="#000000">value = [1, 9]</text>
</g>
<!-- 27&#45;&gt;28 -->
<g id="edge28" class="edge">
<title>27&#45;&gt;28</title>
<path fill="none" stroke="#000000" d="M719.5,-712.9465C719.5,-704.776 719.5,-695.9318 719.5,-687.3697"/>
<polygon fill="#000000" stroke="#000000" points="723.0001,-687.13 719.5,-677.13 716.0001,-687.13 723.0001,-687.13"/>
</g>
<!-- 33 -->
<g id="node34" class="node">
<title>33</title>
<polygon fill="none" stroke="#000000" points="890,-669.5 791,-669.5 791,-616.5 890,-616.5 890,-669.5"/>
<text text-anchor="middle" x="840.5" y="-654.3" font-family="Helvetica,sans-Serif" font-size="14.00" fill="#000000">gini = 0.0</text>
<text text-anchor="middle" x="840.5" y="-639.3" font-family="Helvetica,sans-Serif" font-size="14.00" fill="#000000">samples = 1</text>
<text text-anchor="middle" x="840.5" y="-624.3" font-family="Helvetica,sans-Serif" font-size="14.00" fill="#000000">value = [1, 0]</text>
</g>
<!-- 27&#45;&gt;33 -->
<g id="edge33" class="edge">
<title>27&#45;&gt;33</title>
<path fill="none" stroke="#000000" d="M759.1199,-712.9465C772.8324,-701.1606 788.1761,-687.9726 801.8127,-676.2519"/>
<polygon fill="#000000" stroke="#000000" points="804.3169,-678.7147 809.6192,-669.5422 799.7541,-673.4061 804.3169,-678.7147"/>
</g>
<!-- 29 -->
<g id="node30" class="node">
<title>29</title>
<polygon fill="none" stroke="#000000" points="711,-573 608,-573 608,-505 711,-505 711,-573"/>
<text text-anchor="middle" x="659.5" y="-557.8" font-family="Helvetica,sans-Serif" font-size="14.00" fill="#000000">X[0] &lt;= 5.926</text>
<text text-anchor="middle" x="659.5" y="-542.8" font-family="Helvetica,sans-Serif" font-size="14.00" fill="#000000">gini = 0.5</text>
<text text-anchor="middle" x="659.5" y="-527.8" font-family="Helvetica,sans-Serif" font-size="14.00" fill="#000000">samples = 2</text>
<text text-anchor="middle" x="659.5" y="-512.8" font-family="Helvetica,sans-Serif" font-size="14.00" fill="#000000">value = [1, 1]</text>
</g>
<!-- 28&#45;&gt;29 -->
<g id="edge29" class="edge">
<title>28&#45;&gt;29</title>
<path fill="none" stroke="#000000" d="M699.8538,-608.9465C694.881,-600.3271 689.4757,-590.9579 684.2852,-581.9611"/>
<polygon fill="#000000" stroke="#000000" points="687.2193,-580.0428 679.1904,-573.13 681.156,-583.5409 687.2193,-580.0428"/>
</g>
<!-- 32 -->
<g id="node33" class="node">
<title>32</title>
<polygon fill="none" stroke="#000000" points="828,-565.5 729,-565.5 729,-512.5 828,-512.5 828,-565.5"/>
<text text-anchor="middle" x="778.5" y="-550.3" font-family="Helvetica,sans-Serif" font-size="14.00" fill="#000000">gini = 0.0</text>
<text text-anchor="middle" x="778.5" y="-535.3" font-family="Helvetica,sans-Serif" font-size="14.00" fill="#000000">samples = 8</text>
<text text-anchor="middle" x="778.5" y="-520.3" font-family="Helvetica,sans-Serif" font-size="14.00" fill="#000000">value = [0, 8]</text>
</g>
<!-- 28&#45;&gt;32 -->
<g id="edge32" class="edge">
<title>28&#45;&gt;32</title>
<path fill="none" stroke="#000000" d="M738.8188,-608.9465C745.0676,-597.9316 752.0112,-585.6922 758.3207,-574.5703"/>
<polygon fill="#000000" stroke="#000000" points="761.5523,-575.967 763.4424,-565.5422 755.4638,-572.513 761.5523,-575.967"/>
</g>
<!-- 30 -->
<g id="node31" class="node">
<title>30</title>
<polygon fill="none" stroke="#000000" points="676,-461.5 577,-461.5 577,-408.5 676,-408.5 676,-461.5"/>
<text text-anchor="middle" x="626.5" y="-446.3" font-family="Helvetica,sans-Serif" font-size="14.00" fill="#000000">gini = 0.0</text>
<text text-anchor="middle" x="626.5" y="-431.3" font-family="Helvetica,sans-Serif" font-size="14.00" fill="#000000">samples = 1</text>
<text text-anchor="middle" x="626.5" y="-416.3" font-family="Helvetica,sans-Serif" font-size="14.00" fill="#000000">value = [0, 1]</text>
</g>
<!-- 29&#45;&gt;30 -->
<g id="edge30" class="edge">
<title>29&#45;&gt;30</title>
<path fill="none" stroke="#000000" d="M648.6946,-504.9465C645.2694,-494.1519 641.471,-482.1813 637.9989,-471.2389"/>
<polygon fill="#000000" stroke="#000000" points="641.2827,-470.0152 634.922,-461.5422 634.6105,-472.1324 641.2827,-470.0152"/>
</g>
<!-- 31 -->
<g id="node32" class="node">
<title>31</title>
<polygon fill="none" stroke="#000000" points="793,-461.5 694,-461.5 694,-408.5 793,-408.5 793,-461.5"/>
<text text-anchor="middle" x="743.5" y="-446.3" font-family="Helvetica,sans-Serif" font-size="14.00" fill="#000000">gini = 0.0</text>
<text text-anchor="middle" x="743.5" y="-431.3" font-family="Helvetica,sans-Serif" font-size="14.00" fill="#000000">samples = 1</text>
<text text-anchor="middle" x="743.5" y="-416.3" font-family="Helvetica,sans-Serif" font-size="14.00" fill="#000000">value = [1, 0]</text>
</g>
<!-- 29&#45;&gt;31 -->
<g id="edge31" class="edge">
<title>29&#45;&gt;31</title>
<path fill="none" stroke="#000000" d="M687.0047,-504.9465C696.1683,-493.6012 706.3811,-480.9567 715.5761,-469.5724"/>
<polygon fill="#000000" stroke="#000000" points="718.5015,-471.5208 722.0621,-461.5422 713.0559,-467.1224 718.5015,-471.5208"/>
</g>
<!-- 35 -->
<g id="node36" class="node">
<title>35</title>
<polygon fill="none" stroke="#000000" points="836,-989 725,-989 725,-921 836,-921 836,-989"/>
<text text-anchor="middle" x="780.5" y="-973.8" font-family="Helvetica,sans-Serif" font-size="14.00" fill="#000000">X[0] &lt;= 16.113</text>
<text text-anchor="middle" x="780.5" y="-958.8" font-family="Helvetica,sans-Serif" font-size="14.00" fill="#000000">gini = 0.48</text>
<text text-anchor="middle" x="780.5" y="-943.8" font-family="Helvetica,sans-Serif" font-size="14.00" fill="#000000">samples = 5</text>
<text text-anchor="middle" x="780.5" y="-928.8" font-family="Helvetica,sans-Serif" font-size="14.00" fill="#000000">value = [3, 2]</text>
</g>
<!-- 34&#45;&gt;35 -->
<g id="edge35" class="edge">
<title>34&#45;&gt;35</title>
<path fill="none" stroke="#000000" d="M780.5,-1024.9465C780.5,-1016.776 780.5,-1007.9318 780.5,-999.3697"/>
<polygon fill="#000000" stroke="#000000" points="784.0001,-999.13 780.5,-989.13 777.0001,-999.13 784.0001,-999.13"/>
</g>
<!-- 38 -->
<g id="node39" class="node">
<title>38</title>
<polygon fill="none" stroke="#000000" points="1013,-989 902,-989 902,-921 1013,-921 1013,-989"/>
<text text-anchor="middle" x="957.5" y="-973.8" font-family="Helvetica,sans-Serif" font-size="14.00" fill="#000000">X[3] &lt;= 13.829</text>
<text text-anchor="middle" x="957.5" y="-958.8" font-family="Helvetica,sans-Serif" font-size="14.00" fill="#000000">gini = 0.269</text>
<text text-anchor="middle" x="957.5" y="-943.8" font-family="Helvetica,sans-Serif" font-size="14.00" fill="#000000">samples = 25</text>
<text text-anchor="middle" x="957.5" y="-928.8" font-family="Helvetica,sans-Serif" font-size="14.00" fill="#000000">value = [4, 21]</text>
</g>
<!-- 34&#45;&gt;38 -->
<g id="edge38" class="edge">
<title>34&#45;&gt;38</title>
<path fill="none" stroke="#000000" d="M838.4564,-1024.9465C855.9584,-1014.6628 875.277,-1003.3118 893.1683,-992.7994"/>
<polygon fill="#000000" stroke="#000000" points="894.9737,-995.7981 901.8225,-987.7145 891.4275,-989.7628 894.9737,-995.7981"/>
</g>
<!-- 36 -->
<g id="node37" class="node">
<title>36</title>
<polygon fill="none" stroke="#000000" points="770,-877.5 671,-877.5 671,-824.5 770,-824.5 770,-877.5"/>
<text text-anchor="middle" x="720.5" y="-862.3" font-family="Helvetica,sans-Serif" font-size="14.00" fill="#000000">gini = 0.0</text>
<text text-anchor="middle" x="720.5" y="-847.3" font-family="Helvetica,sans-Serif" font-size="14.00" fill="#000000">samples = 3</text>
<text text-anchor="middle" x="720.5" y="-832.3" font-family="Helvetica,sans-Serif" font-size="14.00" fill="#000000">value = [3, 0]</text>
</g>
<!-- 35&#45;&gt;36 -->
<g id="edge36" class="edge">
<title>35&#45;&gt;36</title>
<path fill="none" stroke="#000000" d="M760.8538,-920.9465C754.4355,-909.8215 747.2965,-897.4473 740.829,-886.237"/>
<polygon fill="#000000" stroke="#000000" points="743.8417,-884.455 735.8128,-877.5422 737.7784,-887.9531 743.8417,-884.455"/>
</g>
<!-- 37 -->
<g id="node38" class="node">
<title>37</title>
<polygon fill="none" stroke="#000000" points="887,-877.5 788,-877.5 788,-824.5 887,-824.5 887,-877.5"/>
<text text-anchor="middle" x="837.5" y="-862.3" font-family="Helvetica,sans-Serif" font-size="14.00" fill="#000000">gini = 0.0</text>
<text text-anchor="middle" x="837.5" y="-847.3" font-family="Helvetica,sans-Serif" font-size="14.00" fill="#000000">samples = 2</text>
<text text-anchor="middle" x="837.5" y="-832.3" font-family="Helvetica,sans-Serif" font-size="14.00" fill="#000000">value = [0, 2]</text>
</g>
<!-- 35&#45;&gt;37 -->
<g id="edge37" class="edge">
<title>35&#45;&gt;37</title>
<path fill="none" stroke="#000000" d="M799.1639,-920.9465C805.2009,-909.9316 811.9091,-897.6922 818.0047,-886.5703"/>
<polygon fill="#000000" stroke="#000000" points="821.2158,-887.9936 822.9529,-877.5422 815.0773,-884.6292 821.2158,-887.9936"/>
</g>
<!-- 39 -->
<g id="node40" class="node">
<title>39</title>
<polygon fill="none" stroke="#000000" points="1009.5,-885 905.5,-885 905.5,-817 1009.5,-817 1009.5,-885"/>
<text text-anchor="middle" x="957.5" y="-869.8" font-family="Helvetica,sans-Serif" font-size="14.00" fill="#000000">X[5] &lt;= 2.722</text>
<text text-anchor="middle" x="957.5" y="-854.8" font-family="Helvetica,sans-Serif" font-size="14.00" fill="#000000">gini = 0.48</text>
<text text-anchor="middle" x="957.5" y="-839.8" font-family="Helvetica,sans-Serif" font-size="14.00" fill="#000000">samples = 10</text>
<text text-anchor="middle" x="957.5" y="-824.8" font-family="Helvetica,sans-Serif" font-size="14.00" fill="#000000">value = [4, 6]</text>
</g>
<!-- 38&#45;&gt;39 -->
<g id="edge39" class="edge">
<title>38&#45;&gt;39</title>
<path fill="none" stroke="#000000" d="M957.5,-920.9465C957.5,-912.776 957.5,-903.9318 957.5,-895.3697"/>
<polygon fill="#000000" stroke="#000000" points="961.0001,-895.13 957.5,-885.13 954.0001,-895.13 961.0001,-895.13"/>
</g>
<!-- 44 -->
<g id="node45" class="node">
<title>44</title>
<polygon fill="none" stroke="#000000" points="1135,-877.5 1028,-877.5 1028,-824.5 1135,-824.5 1135,-877.5"/>
<text text-anchor="middle" x="1081.5" y="-862.3" font-family="Helvetica,sans-Serif" font-size="14.00" fill="#000000">gini = 0.0</text>
<text text-anchor="middle" x="1081.5" y="-847.3" font-family="Helvetica,sans-Serif" font-size="14.00" fill="#000000">samples = 15</text>
<text text-anchor="middle" x="1081.5" y="-832.3" font-family="Helvetica,sans-Serif" font-size="14.00" fill="#000000">value = [0, 15]</text>
</g>
<!-- 38&#45;&gt;44 -->
<g id="edge44" class="edge">
<title>38&#45;&gt;44</title>
<path fill="none" stroke="#000000" d="M998.1022,-920.9465C1012.1547,-909.1606 1027.8788,-895.9726 1041.8535,-884.2519"/>
<polygon fill="#000000" stroke="#000000" points="1044.4408,-886.65 1049.8536,-877.5422 1039.9425,-881.2866 1044.4408,-886.65"/>
</g>
<!-- 40 -->
<g id="node41" class="node">
<title>40</title>
<polygon fill="none" stroke="#000000" points="1011,-781 904,-781 904,-713 1011,-713 1011,-781"/>
<text text-anchor="middle" x="957.5" y="-765.8" font-family="Helvetica,sans-Serif" font-size="14.00" fill="#000000">X[7] &lt;= &#45;6.746</text>
<text text-anchor="middle" x="957.5" y="-750.8" font-family="Helvetica,sans-Serif" font-size="14.00" fill="#000000">gini = 0.32</text>
<text text-anchor="middle" x="957.5" y="-735.8" font-family="Helvetica,sans-Serif" font-size="14.00" fill="#000000">samples = 5</text>
<text text-anchor="middle" x="957.5" y="-720.8" font-family="Helvetica,sans-Serif" font-size="14.00" fill="#000000">value = [4, 1]</text>
</g>
<!-- 39&#45;&gt;40 -->
<g id="edge40" class="edge">
<title>39&#45;&gt;40</title>
<path fill="none" stroke="#000000" d="M957.5,-816.9465C957.5,-808.776 957.5,-799.9318 957.5,-791.3697"/>
<polygon fill="#000000" stroke="#000000" points="961.0001,-791.13 957.5,-781.13 954.0001,-791.13 961.0001,-791.13"/>
</g>
<!-- 43 -->
<g id="node44" class="node">
<title>43</title>
<polygon fill="none" stroke="#000000" points="1128,-773.5 1029,-773.5 1029,-720.5 1128,-720.5 1128,-773.5"/>
<text text-anchor="middle" x="1078.5" y="-758.3" font-family="Helvetica,sans-Serif" font-size="14.00" fill="#000000">gini = 0.0</text>
<text text-anchor="middle" x="1078.5" y="-743.3" font-family="Helvetica,sans-Serif" font-size="14.00" fill="#000000">samples = 5</text>
<text text-anchor="middle" x="1078.5" y="-728.3" font-family="Helvetica,sans-Serif" font-size="14.00" fill="#000000">value = [0, 5]</text>
</g>
<!-- 39&#45;&gt;43 -->
<g id="edge43" class="edge">
<title>39&#45;&gt;43</title>
<path fill="none" stroke="#000000" d="M997.1199,-816.9465C1010.8324,-805.1606 1026.1761,-791.9726 1039.8127,-780.2519"/>
<polygon fill="#000000" stroke="#000000" points="1042.3169,-782.7147 1047.6192,-773.5422 1037.7541,-777.4061 1042.3169,-782.7147"/>
</g>
<!-- 41 -->
<g id="node42" class="node">
<title>41</title>
<polygon fill="none" stroke="#000000" points="1007,-669.5 908,-669.5 908,-616.5 1007,-616.5 1007,-669.5"/>
<text text-anchor="middle" x="957.5" y="-654.3" font-family="Helvetica,sans-Serif" font-size="14.00" fill="#000000">gini = 0.0</text>
<text text-anchor="middle" x="957.5" y="-639.3" font-family="Helvetica,sans-Serif" font-size="14.00" fill="#000000">samples = 1</text>
<text text-anchor="middle" x="957.5" y="-624.3" font-family="Helvetica,sans-Serif" font-size="14.00" fill="#000000">value = [0, 1]</text>
</g>
<!-- 40&#45;&gt;41 -->
<g id="edge41" class="edge">
<title>40&#45;&gt;41</title>
<path fill="none" stroke="#000000" d="M957.5,-712.9465C957.5,-702.2621 957.5,-690.4254 957.5,-679.5742"/>
<polygon fill="#000000" stroke="#000000" points="961.0001,-679.5421 957.5,-669.5422 954.0001,-679.5422 961.0001,-679.5421"/>
</g>
<!-- 42 -->
<g id="node43" class="node">
<title>42</title>
<polygon fill="none" stroke="#000000" points="1124,-669.5 1025,-669.5 1025,-616.5 1124,-616.5 1124,-669.5"/>
<text text-anchor="middle" x="1074.5" y="-654.3" font-family="Helvetica,sans-Serif" font-size="14.00" fill="#000000">gini = 0.0</text>
<text text-anchor="middle" x="1074.5" y="-639.3" font-family="Helvetica,sans-Serif" font-size="14.00" fill="#000000">samples = 4</text>
<text text-anchor="middle" x="1074.5" y="-624.3" font-family="Helvetica,sans-Serif" font-size="14.00" fill="#000000">value = [4, 0]</text>
</g>
<!-- 40&#45;&gt;42 -->
<g id="edge42" class="edge">
<title>40&#45;&gt;42</title>
<path fill="none" stroke="#000000" d="M995.8102,-712.9465C1009.0694,-701.1606 1023.9058,-687.9726 1037.0916,-676.2519"/>
<polygon fill="#000000" stroke="#000000" points="1039.4912,-678.8018 1044.6401,-669.5422 1034.8407,-673.5699 1039.4912,-678.8018"/>
</g>
</g>
</svg>
