<?xml version="1.0" encoding="UTF-8" standalone="no"?>
<!DOCTYPE svg PUBLIC "-//W3C//DTD SVG 1.1//EN"
 "http://www.w3.org/Graphics/SVG/1.1/DTD/svg11.dtd">
<!-- Generated by graphviz version 2.40.1 (20161225.0304)
 -->
<!-- Title: Tree Pages: 1 -->
<svg width="1176pt" height="789pt"
 viewBox="0.00 0.00 1176.00 789.00" xmlns="http://www.w3.org/2000/svg" xmlns:xlink="http://www.w3.org/1999/xlink">
<g id="graph0" class="graph" transform="scale(1 1) rotate(0) translate(4 785)">
<title>Tree</title>
<polygon fill="#ffffff" stroke="transparent" points="-4,4 -4,-785 1172,-785 1172,4 -4,4"/>
<!-- 0 -->
<g id="node1" class="node">
<title>0</title>
<polygon fill="none" stroke="#000000" points="623.5,-781 507.5,-781 507.5,-713 623.5,-713 623.5,-781"/>
<text text-anchor="middle" x="565.5" y="-765.8" font-family="Helvetica,sans-Serif" font-size="14.00" fill="#000000">X[3] &lt;= 13.339</text>
<text text-anchor="middle" x="565.5" y="-750.8" font-family="Helvetica,sans-Serif" font-size="14.00" fill="#000000">gini = 0.481</text>
<text text-anchor="middle" x="565.5" y="-735.8" font-family="Helvetica,sans-Serif" font-size="14.00" fill="#000000">samples = 72</text>
<text text-anchor="middle" x="565.5" y="-720.8" font-family="Helvetica,sans-Serif" font-size="14.00" fill="#000000">value = [29, 43]</text>
</g>
<!-- 1 -->
<g id="node2" class="node">
<title>1</title>
<polygon fill="none" stroke="#000000" points="556.5,-677 440.5,-677 440.5,-609 556.5,-609 556.5,-677"/>
<text text-anchor="middle" x="498.5" y="-661.8" font-family="Helvetica,sans-Serif" font-size="14.00" fill="#000000">X[1] &lt;= 7.933</text>
<text text-anchor="middle" x="498.5" y="-646.8" font-family="Helvetica,sans-Serif" font-size="14.00" fill="#000000">gini = 0.497</text>
<text text-anchor="middle" x="498.5" y="-631.8" font-family="Helvetica,sans-Serif" font-size="14.00" fill="#000000">samples = 41</text>
<text text-anchor="middle" x="498.5" y="-616.8" font-family="Helvetica,sans-Serif" font-size="14.00" fill="#000000">value = [22, 19]</text>
</g>
<!-- 0&#45;&gt;1 -->
<g id="edge1" class="edge">
<title>0&#45;&gt;1</title>
<path fill="none" stroke="#000000" d="M543.5617,-712.9465C537.951,-704.2373 531.8471,-694.7626 525.9958,-685.6801"/>
<polygon fill="#000000" stroke="#000000" points="528.8457,-683.641 520.4876,-677.13 522.9611,-687.4321 528.8457,-683.641"/>
<text text-anchor="middle" x="515.2006" y="-697.8646" font-family="Helvetica,sans-Serif" font-size="14.00" fill="#000000">True</text>
</g>
<!-- 28 -->
<g id="node29" class="node">
<title>28</title>
<polygon fill="none" stroke="#000000" points="747.5,-677 631.5,-677 631.5,-609 747.5,-609 747.5,-677"/>
<text text-anchor="middle" x="689.5" y="-661.8" font-family="Helvetica,sans-Serif" font-size="14.00" fill="#000000">X[4] &lt;= &#45;34.184</text>
<text text-anchor="middle" x="689.5" y="-646.8" font-family="Helvetica,sans-Serif" font-size="14.00" fill="#000000">gini = 0.35</text>
<text text-anchor="middle" x="689.5" y="-631.8" font-family="Helvetica,sans-Serif" font-size="14.00" fill="#000000">samples = 31</text>
<text text-anchor="middle" x="689.5" y="-616.8" font-family="Helvetica,sans-Serif" font-size="14.00" fill="#000000">value = [7, 24]</text>
</g>
<!-- 0&#45;&gt;28 -->
<g id="edge28" class="edge">
<title>0&#45;&gt;28</title>
<path fill="none" stroke="#000000" d="M606.1022,-712.9465C617.2356,-703.6088 629.4183,-693.3911 640.9489,-683.7203"/>
<polygon fill="#000000" stroke="#000000" points="643.3938,-686.2378 648.8065,-677.13 638.8954,-680.8745 643.3938,-686.2378"/>
<text text-anchor="middle" x="646.6219" y="-698.3344" font-family="Helvetica,sans-Serif" font-size="14.00" fill="#000000">False</text>
</g>
<!-- 2 -->
<g id="node3" class="node">
<title>2</title>
<polygon fill="none" stroke="#000000" points="422,-565.5 323,-565.5 323,-512.5 422,-512.5 422,-565.5"/>
<text text-anchor="middle" x="372.5" y="-550.3" font-family="Helvetica,sans-Serif" font-size="14.00" fill="#000000">gini = 0.0</text>
<text text-anchor="middle" x="372.5" y="-535.3" font-family="Helvetica,sans-Serif" font-size="14.00" fill="#000000">samples = 5</text>
<text text-anchor="middle" x="372.5" y="-520.3" font-family="Helvetica,sans-Serif" font-size="14.00" fill="#000000">value = [5, 0]</text>
</g>
<!-- 1&#45;&gt;2 -->
<g id="edge2" class="edge">
<title>1&#45;&gt;2</title>
<path fill="none" stroke="#000000" d="M457.2429,-608.9465C442.8303,-597.0504 426.6873,-583.726 412.3883,-571.9237"/>
<polygon fill="#000000" stroke="#000000" points="414.5971,-569.2086 404.6569,-565.5422 410.1411,-574.6071 414.5971,-569.2086"/>
</g>
<!-- 3 -->
<g id="node4" class="node">
<title>3</title>
<polygon fill="none" stroke="#000000" points="556.5,-573 440.5,-573 440.5,-505 556.5,-505 556.5,-573"/>
<text text-anchor="middle" x="498.5" y="-557.8" font-family="Helvetica,sans-Serif" font-size="14.00" fill="#000000">X[1] &lt;= 13.095</text>
<text text-anchor="middle" x="498.5" y="-542.8" font-family="Helvetica,sans-Serif" font-size="14.00" fill="#000000">gini = 0.498</text>
<text text-anchor="middle" x="498.5" y="-527.8" font-family="Helvetica,sans-Serif" font-size="14.00" fill="#000000">samples = 36</text>
<text text-anchor="middle" x="498.5" y="-512.8" font-family="Helvetica,sans-Serif" font-size="14.00" fill="#000000">value = [17, 19]</text>
</g>
<!-- 1&#45;&gt;3 -->
<g id="edge3" class="edge">
<title>1&#45;&gt;3</title>
<path fill="none" stroke="#000000" d="M498.5,-608.9465C498.5,-600.776 498.5,-591.9318 498.5,-583.3697"/>
<polygon fill="#000000" stroke="#000000" points="502.0001,-583.13 498.5,-573.13 495.0001,-583.13 502.0001,-583.13"/>
</g>
<!-- 4 -->
<g id="node5" class="node">
<title>4</title>
<polygon fill="none" stroke="#000000" points="365,-469 262,-469 262,-401 365,-401 365,-469"/>
<text text-anchor="middle" x="313.5" y="-453.8" font-family="Helvetica,sans-Serif" font-size="14.00" fill="#000000">X[2] &lt;= 5.618</text>
<text text-anchor="middle" x="313.5" y="-438.8" font-family="Helvetica,sans-Serif" font-size="14.00" fill="#000000">gini = 0.219</text>
<text text-anchor="middle" x="313.5" y="-423.8" font-family="Helvetica,sans-Serif" font-size="14.00" fill="#000000">samples = 8</text>
<text text-anchor="middle" x="313.5" y="-408.8" font-family="Helvetica,sans-Serif" font-size="14.00" fill="#000000">value = [1, 7]</text>
</g>
<!-- 3&#45;&gt;4 -->
<g id="edge4" class="edge">
<title>3&#45;&gt;4</title>
<path fill="none" stroke="#000000" d="M440.4724,-506.3791C419.3323,-494.4949 395.3889,-481.0348 374.0364,-469.0313"/>
<polygon fill="#000000" stroke="#000000" points="375.4919,-465.8344 365.0597,-463.9849 372.0616,-471.9363 375.4919,-465.8344"/>
</g>
<!-- 9 -->
<g id="node10" class="node">
<title>9</title>
<polygon fill="none" stroke="#000000" points="556.5,-469 440.5,-469 440.5,-401 556.5,-401 556.5,-469"/>
<text text-anchor="middle" x="498.5" y="-453.8" font-family="Helvetica,sans-Serif" font-size="14.00" fill="#000000">X[2] &lt;= 10.386</text>
<text text-anchor="middle" x="498.5" y="-438.8" font-family="Helvetica,sans-Serif" font-size="14.00" fill="#000000">gini = 0.49</text>
<text text-anchor="middle" x="498.5" y="-423.8" font-family="Helvetica,sans-Serif" font-size="14.00" fill="#000000">samples = 28</text>
<text text-anchor="middle" x="498.5" y="-408.8" font-family="Helvetica,sans-Serif" font-size="14.00" fill="#000000">value = [16, 12]</text>
</g>
<!-- 3&#45;&gt;9 -->
<g id="edge9" class="edge">
<title>3&#45;&gt;9</title>
<path fill="none" stroke="#000000" d="M498.5,-504.9465C498.5,-496.776 498.5,-487.9318 498.5,-479.3697"/>
<polygon fill="#000000" stroke="#000000" points="502.0001,-479.13 498.5,-469.13 495.0001,-479.13 502.0001,-479.13"/>
</g>
<!-- 5 -->
<g id="node6" class="node">
<title>5</title>
<polygon fill="none" stroke="#000000" points="218,-365 115,-365 115,-297 218,-297 218,-365"/>
<text text-anchor="middle" x="166.5" y="-349.8" font-family="Helvetica,sans-Serif" font-size="14.00" fill="#000000">X[1] &lt;= 8.766</text>
<text text-anchor="middle" x="166.5" y="-334.8" font-family="Helvetica,sans-Serif" font-size="14.00" fill="#000000">gini = 0.5</text>
<text text-anchor="middle" x="166.5" y="-319.8" font-family="Helvetica,sans-Serif" font-size="14.00" fill="#000000">samples = 2</text>
<text text-anchor="middle" x="166.5" y="-304.8" font-family="Helvetica,sans-Serif" font-size="14.00" fill="#000000">value = [1, 1]</text>
</g>
<!-- 4&#45;&gt;5 -->
<g id="edge5" class="edge">
<title>4&#45;&gt;5</title>
<path fill="none" stroke="#000000" d="M265.3667,-400.9465C251.9144,-391.4293 237.17,-380.9978 223.2688,-371.163"/>
<polygon fill="#000000" stroke="#000000" points="224.9264,-368.0483 214.7414,-365.13 220.8835,-373.7628 224.9264,-368.0483"/>
</g>
<!-- 8 -->
<g id="node9" class="node">
<title>8</title>
<polygon fill="none" stroke="#000000" points="363,-357.5 264,-357.5 264,-304.5 363,-304.5 363,-357.5"/>
<text text-anchor="middle" x="313.5" y="-342.3" font-family="Helvetica,sans-Serif" font-size="14.00" fill="#000000">gini = 0.0</text>
<text text-anchor="middle" x="313.5" y="-327.3" font-family="Helvetica,sans-Serif" font-size="14.00" fill="#000000">samples = 6</text>
<text text-anchor="middle" x="313.5" y="-312.3" font-family="Helvetica,sans-Serif" font-size="14.00" fill="#000000">value = [0, 6]</text>
</g>
<!-- 4&#45;&gt;8 -->
<g id="edge8" class="edge">
<title>4&#45;&gt;8</title>
<path fill="none" stroke="#000000" d="M313.5,-400.9465C313.5,-390.2621 313.5,-378.4254 313.5,-367.5742"/>
<polygon fill="#000000" stroke="#000000" points="317.0001,-367.5421 313.5,-357.5422 310.0001,-367.5422 317.0001,-367.5421"/>
</g>
<!-- 6 -->
<g id="node7" class="node">
<title>6</title>
<polygon fill="none" stroke="#000000" points="99,-253.5 0,-253.5 0,-200.5 99,-200.5 99,-253.5"/>
<text text-anchor="middle" x="49.5" y="-238.3" font-family="Helvetica,sans-Serif" font-size="14.00" fill="#000000">gini = 0.0</text>
<text text-anchor="middle" x="49.5" y="-223.3" font-family="Helvetica,sans-Serif" font-size="14.00" fill="#000000">samples = 1</text>
<text text-anchor="middle" x="49.5" y="-208.3" font-family="Helvetica,sans-Serif" font-size="14.00" fill="#000000">value = [0, 1]</text>
</g>
<!-- 5&#45;&gt;6 -->
<g id="edge6" class="edge">
<title>5&#45;&gt;6</title>
<path fill="none" stroke="#000000" d="M128.1898,-296.9465C114.9306,-285.1606 100.0942,-271.9726 86.9084,-260.2519"/>
<polygon fill="#000000" stroke="#000000" points="89.1593,-257.5699 79.3599,-253.5422 84.5088,-262.8018 89.1593,-257.5699"/>
</g>
<!-- 7 -->
<g id="node8" class="node">
<title>7</title>
<polygon fill="none" stroke="#000000" points="216,-253.5 117,-253.5 117,-200.5 216,-200.5 216,-253.5"/>
<text text-anchor="middle" x="166.5" y="-238.3" font-family="Helvetica,sans-Serif" font-size="14.00" fill="#000000">gini = 0.0</text>
<text text-anchor="middle" x="166.5" y="-223.3" font-family="Helvetica,sans-Serif" font-size="14.00" fill="#000000">samples = 1</text>
<text text-anchor="middle" x="166.5" y="-208.3" font-family="Helvetica,sans-Serif" font-size="14.00" fill="#000000">value = [1, 0]</text>
</g>
<!-- 5&#45;&gt;7 -->
<g id="edge7" class="edge">
<title>5&#45;&gt;7</title>
<path fill="none" stroke="#000000" d="M166.5,-296.9465C166.5,-286.2621 166.5,-274.4254 166.5,-263.5742"/>
<polygon fill="#000000" stroke="#000000" points="170.0001,-263.5421 166.5,-253.5422 163.0001,-263.5422 170.0001,-263.5421"/>
</g>
<!-- 10 -->
<g id="node11" class="node">
<title>10</title>
<polygon fill="none" stroke="#000000" points="552,-365 445,-365 445,-297 552,-297 552,-365"/>
<text text-anchor="middle" x="498.5" y="-349.8" font-family="Helvetica,sans-Serif" font-size="14.00" fill="#000000">X[2] &lt;= 4.456</text>
<text text-anchor="middle" x="498.5" y="-334.8" font-family="Helvetica,sans-Serif" font-size="14.00" fill="#000000">gini = 0.415</text>
<text text-anchor="middle" x="498.5" y="-319.8" font-family="Helvetica,sans-Serif" font-size="14.00" fill="#000000">samples = 17</text>
<text text-anchor="middle" x="498.5" y="-304.8" font-family="Helvetica,sans-Serif" font-size="14.00" fill="#000000">value = [12, 5]</text>
</g>
<!-- 9&#45;&gt;10 -->
<g id="edge10" class="edge">
<title>9&#45;&gt;10</title>
<path fill="none" stroke="#000000" d="M498.5,-400.9465C498.5,-392.776 498.5,-383.9318 498.5,-375.3697"/>
<polygon fill="#000000" stroke="#000000" points="502.0001,-375.13 498.5,-365.13 495.0001,-375.13 502.0001,-375.13"/>
</g>
<!-- 21 -->
<g id="node22" class="node">
<title>21</title>
<polygon fill="none" stroke="#000000" points="679.5,-365 575.5,-365 575.5,-297 679.5,-297 679.5,-365"/>
<text text-anchor="middle" x="627.5" y="-349.8" font-family="Helvetica,sans-Serif" font-size="14.00" fill="#000000">X[0] &lt;= 6.966</text>
<text text-anchor="middle" x="627.5" y="-334.8" font-family="Helvetica,sans-Serif" font-size="14.00" fill="#000000">gini = 0.463</text>
<text text-anchor="middle" x="627.5" y="-319.8" font-family="Helvetica,sans-Serif" font-size="14.00" fill="#000000">samples = 11</text>
<text text-anchor="middle" x="627.5" y="-304.8" font-family="Helvetica,sans-Serif" font-size="14.00" fill="#000000">value = [4, 7]</text>
</g>
<!-- 9&#45;&gt;21 -->
<g id="edge21" class="edge">
<title>9&#45;&gt;21</title>
<path fill="none" stroke="#000000" d="M540.7394,-400.9465C552.4331,-391.519 565.2394,-381.1946 577.337,-371.4415"/>
<polygon fill="#000000" stroke="#000000" points="579.5773,-374.1312 585.1657,-365.13 575.1838,-368.6816 579.5773,-374.1312"/>
</g>
<!-- 11 -->
<g id="node12" class="node">
<title>11</title>
<polygon fill="none" stroke="#000000" points="333,-261 234,-261 234,-193 333,-193 333,-261"/>
<text text-anchor="middle" x="283.5" y="-245.8" font-family="Helvetica,sans-Serif" font-size="14.00" fill="#000000">X[3] &lt;= 4.88</text>
<text text-anchor="middle" x="283.5" y="-230.8" font-family="Helvetica,sans-Serif" font-size="14.00" fill="#000000">gini = 0.49</text>
<text text-anchor="middle" x="283.5" y="-215.8" font-family="Helvetica,sans-Serif" font-size="14.00" fill="#000000">samples = 7</text>
<text text-anchor="middle" x="283.5" y="-200.8" font-family="Helvetica,sans-Serif" font-size="14.00" fill="#000000">value = [3, 4]</text>
</g>
<!-- 10&#45;&gt;11 -->
<g id="edge11" class="edge">
<title>10&#45;&gt;11</title>
<path fill="none" stroke="#000000" d="M444.801,-305.0247C413.6701,-289.966 374.4288,-270.9841 342.4462,-255.5135"/>
<polygon fill="#000000" stroke="#000000" points="343.7282,-252.2457 333.2019,-251.0419 340.68,-258.5472 343.7282,-252.2457"/>
</g>
<!-- 16 -->
<g id="node17" class="node">
<title>16</title>
<polygon fill="none" stroke="#000000" points="550.5,-261 446.5,-261 446.5,-193 550.5,-193 550.5,-261"/>
<text text-anchor="middle" x="498.5" y="-245.8" font-family="Helvetica,sans-Serif" font-size="14.00" fill="#000000">X[3] &lt;= 8.797</text>
<text text-anchor="middle" x="498.5" y="-230.8" font-family="Helvetica,sans-Serif" font-size="14.00" fill="#000000">gini = 0.18</text>
<text text-anchor="middle" x="498.5" y="-215.8" font-family="Helvetica,sans-Serif" font-size="14.00" fill="#000000">samples = 10</text>
<text text-anchor="middle" x="498.5" y="-200.8" font-family="Helvetica,sans-Serif" font-size="14.00" fill="#000000">value = [9, 1]</text>
</g>
<!-- 10&#45;&gt;16 -->
<g id="edge16" class="edge">
<title>10&#45;&gt;16</title>
<path fill="none" stroke="#000000" d="M498.5,-296.9465C498.5,-288.776 498.5,-279.9318 498.5,-271.3697"/>
<polygon fill="#000000" stroke="#000000" points="502.0001,-271.13 498.5,-261.13 495.0001,-271.13 502.0001,-271.13"/>
</g>
<!-- 12 -->
<g id="node13" class="node">
<title>12</title>
<polygon fill="none" stroke="#000000" points="195,-149.5 96,-149.5 96,-96.5 195,-96.5 195,-149.5"/>
<text text-anchor="middle" x="145.5" y="-134.3" font-family="Helvetica,sans-Serif" font-size="14.00" fill="#000000">gini = 0.0</text>
<text text-anchor="middle" x="145.5" y="-119.3" font-family="Helvetica,sans-Serif" font-size="14.00" fill="#000000">samples = 2</text>
<text text-anchor="middle" x="145.5" y="-104.3" font-family="Helvetica,sans-Serif" font-size="14.00" fill="#000000">value = [2, 0]</text>
</g>
<!-- 11&#45;&gt;12 -->
<g id="edge12" class="edge">
<title>11&#45;&gt;12</title>
<path fill="none" stroke="#000000" d="M238.3136,-192.9465C222.3823,-180.9403 204.5204,-167.4791 188.7527,-155.5962"/>
<polygon fill="#000000" stroke="#000000" points="190.812,-152.7656 180.7194,-149.5422 186.599,-158.3558 190.812,-152.7656"/>
</g>
<!-- 13 -->
<g id="node14" class="node">
<title>13</title>
<polygon fill="none" stroke="#000000" points="324,-157 213,-157 213,-89 324,-89 324,-157"/>
<text text-anchor="middle" x="268.5" y="-141.8" font-family="Helvetica,sans-Serif" font-size="14.00" fill="#000000">X[3] &lt;= 10.165</text>
<text text-anchor="middle" x="268.5" y="-126.8" font-family="Helvetica,sans-Serif" font-size="14.00" fill="#000000">gini = 0.32</text>
<text text-anchor="middle" x="268.5" y="-111.8" font-family="Helvetica,sans-Serif" font-size="14.00" fill="#000000">samples = 5</text>
<text text-anchor="middle" x="268.5" y="-96.8" font-family="Helvetica,sans-Serif" font-size="14.00" fill="#000000">value = [1, 4]</text>
</g>
<!-- 11&#45;&gt;13 -->
<g id="edge13" class="edge">
<title>11&#45;&gt;13</title>
<path fill="none" stroke="#000000" d="M278.5884,-192.9465C277.3971,-184.6863 276.1063,-175.7374 274.8588,-167.0875"/>
<polygon fill="#000000" stroke="#000000" points="278.3144,-166.5279 273.4226,-157.13 271.3861,-167.5272 278.3144,-166.5279"/>
</g>
<!-- 14 -->
<g id="node15" class="node">
<title>14</title>
<polygon fill="none" stroke="#000000" points="204,-53 105,-53 105,0 204,0 204,-53"/>
<text text-anchor="middle" x="154.5" y="-37.8" font-family="Helvetica,sans-Serif" font-size="14.00" fill="#000000">gini = 0.0</text>
<text text-anchor="middle" x="154.5" y="-22.8" font-family="Helvetica,sans-Serif" font-size="14.00" fill="#000000">samples = 4</text>
<text text-anchor="middle" x="154.5" y="-7.8" font-family="Helvetica,sans-Serif" font-size="14.00" fill="#000000">value = [0, 4]</text>
</g>
<!-- 13&#45;&gt;14 -->
<g id="edge14" class="edge">
<title>13&#45;&gt;14</title>
<path fill="none" stroke="#000000" d="M228.3079,-88.9777C217.1658,-79.546 205.0827,-69.3178 193.9815,-59.9208"/>
<polygon fill="#000000" stroke="#000000" points="195.9932,-57.038 186.0992,-53.2485 191.4705,-62.3809 195.9932,-57.038"/>
</g>
<!-- 15 -->
<g id="node16" class="node">
<title>15</title>
<polygon fill="none" stroke="#000000" points="321,-53 222,-53 222,0 321,0 321,-53"/>
<text text-anchor="middle" x="271.5" y="-37.8" font-family="Helvetica,sans-Serif" font-size="14.00" fill="#000000">gini = 0.0</text>
<text text-anchor="middle" x="271.5" y="-22.8" font-family="Helvetica,sans-Serif" font-size="14.00" fill="#000000">samples = 1</text>
<text text-anchor="middle" x="271.5" y="-7.8" font-family="Helvetica,sans-Serif" font-size="14.00" fill="#000000">value = [1, 0]</text>
</g>
<!-- 13&#45;&gt;15 -->
<g id="edge15" class="edge">
<title>13&#45;&gt;15</title>
<path fill="none" stroke="#000000" d="M269.5577,-88.9777C269.8139,-80.7364 270.089,-71.887 270.3493,-63.5153"/>
<polygon fill="#000000" stroke="#000000" points="273.8559,-63.3524 270.6684,-53.2485 266.8593,-63.1349 273.8559,-63.3524"/>
</g>
<!-- 17 -->
<g id="node18" class="node">
<title>17</title>
<polygon fill="none" stroke="#000000" points="441,-149.5 342,-149.5 342,-96.5 441,-96.5 441,-149.5"/>
<text text-anchor="middle" x="391.5" y="-134.3" font-family="Helvetica,sans-Serif" font-size="14.00" fill="#000000">gini = 0.0</text>
<text text-anchor="middle" x="391.5" y="-119.3" font-family="Helvetica,sans-Serif" font-size="14.00" fill="#000000">samples = 7</text>
<text text-anchor="middle" x="391.5" y="-104.3" font-family="Helvetica,sans-Serif" font-size="14.00" fill="#000000">value = [7, 0]</text>
</g>
<!-- 16&#45;&gt;17 -->
<g id="edge17" class="edge">
<title>16&#45;&gt;17</title>
<path fill="none" stroke="#000000" d="M463.4642,-192.9465C451.4516,-181.2707 438.0234,-168.219 426.0496,-156.5809"/>
<polygon fill="#000000" stroke="#000000" points="428.4182,-154.0022 418.8078,-149.5422 423.5393,-159.0218 428.4182,-154.0022"/>
</g>
<!-- 18 -->
<g id="node19" class="node">
<title>18</title>
<polygon fill="none" stroke="#000000" points="566,-157 459,-157 459,-89 566,-89 566,-157"/>
<text text-anchor="middle" x="512.5" y="-141.8" font-family="Helvetica,sans-Serif" font-size="14.00" fill="#000000">X[9] &lt;= &#45;0.142</text>
<text text-anchor="middle" x="512.5" y="-126.8" font-family="Helvetica,sans-Serif" font-size="14.00" fill="#000000">gini = 0.444</text>
<text text-anchor="middle" x="512.5" y="-111.8" font-family="Helvetica,sans-Serif" font-size="14.00" fill="#000000">samples = 3</text>
<text text-anchor="middle" x="512.5" y="-96.8" font-family="Helvetica,sans-Serif" font-size="14.00" fill="#000000">value = [2, 1]</text>
</g>
<!-- 16&#45;&gt;18 -->
<g id="edge18" class="edge">
<title>16&#45;&gt;18</title>
<path fill="none" stroke="#000000" d="M503.0841,-192.9465C504.1961,-184.6863 505.4007,-175.7374 506.5651,-167.0875"/>
<polygon fill="#000000" stroke="#000000" points="510.0401,-167.5076 507.9056,-157.13 503.1027,-166.5736 510.0401,-167.5076"/>
</g>
<!-- 19 -->
<g id="node20" class="node">
<title>19</title>
<polygon fill="none" stroke="#000000" points="449,-53 350,-53 350,0 449,0 449,-53"/>
<text text-anchor="middle" x="399.5" y="-37.8" font-family="Helvetica,sans-Serif" font-size="14.00" fill="#000000">gini = 0.0</text>
<text text-anchor="middle" x="399.5" y="-22.8" font-family="Helvetica,sans-Serif" font-size="14.00" fill="#000000">samples = 2</text>
<text text-anchor="middle" x="399.5" y="-7.8" font-family="Helvetica,sans-Serif" font-size="14.00" fill="#000000">value = [2, 0]</text>
</g>
<!-- 18&#45;&gt;19 -->
<g id="edge19" class="edge">
<title>18&#45;&gt;19</title>
<path fill="none" stroke="#000000" d="M472.6604,-88.9777C461.6161,-79.546 449.639,-69.3178 438.6352,-59.9208"/>
<polygon fill="#000000" stroke="#000000" points="440.6994,-57.081 430.8221,-53.2485 436.1536,-62.4041 440.6994,-57.081"/>
</g>
<!-- 20 -->
<g id="node21" class="node">
<title>20</title>
<polygon fill="none" stroke="#000000" points="566,-53 467,-53 467,0 566,0 566,-53"/>
<text text-anchor="middle" x="516.5" y="-37.8" font-family="Helvetica,sans-Serif" font-size="14.00" fill="#000000">gini = 0.0</text>
<text text-anchor="middle" x="516.5" y="-22.8" font-family="Helvetica,sans-Serif" font-size="14.00" fill="#000000">samples = 1</text>
<text text-anchor="middle" x="516.5" y="-7.8" font-family="Helvetica,sans-Serif" font-size="14.00" fill="#000000">value = [0, 1]</text>
</g>
<!-- 18&#45;&gt;20 -->
<g id="edge20" class="edge">
<title>18&#45;&gt;20</title>
<path fill="none" stroke="#000000" d="M513.9103,-88.9777C514.2519,-80.7364 514.6187,-71.887 514.9657,-63.5153"/>
<polygon fill="#000000" stroke="#000000" points="518.474,-63.3849 515.3913,-53.2485 511.48,-63.0949 518.474,-63.3849"/>
</g>
<!-- 22 -->
<g id="node23" class="node">
<title>22</title>
<polygon fill="none" stroke="#000000" points="691,-261 580,-261 580,-193 691,-193 691,-261"/>
<text text-anchor="middle" x="635.5" y="-245.8" font-family="Helvetica,sans-Serif" font-size="14.00" fill="#000000">X[2] &lt;= 17.905</text>
<text text-anchor="middle" x="635.5" y="-230.8" font-family="Helvetica,sans-Serif" font-size="14.00" fill="#000000">gini = 0.444</text>
<text text-anchor="middle" x="635.5" y="-215.8" font-family="Helvetica,sans-Serif" font-size="14.00" fill="#000000">samples = 6</text>
<text text-anchor="middle" x="635.5" y="-200.8" font-family="Helvetica,sans-Serif" font-size="14.00" fill="#000000">value = [4, 2]</text>
</g>
<!-- 21&#45;&gt;22 -->
<g id="edge22" class="edge">
<title>21&#45;&gt;22</title>
<path fill="none" stroke="#000000" d="M630.1195,-296.9465C630.748,-288.776 631.4283,-279.9318 632.0869,-271.3697"/>
<polygon fill="#000000" stroke="#000000" points="635.5973,-271.369 632.8746,-261.13 628.6179,-270.8321 635.5973,-271.369"/>
</g>
<!-- 27 -->
<g id="node28" class="node">
<title>27</title>
<polygon fill="none" stroke="#000000" points="808,-253.5 709,-253.5 709,-200.5 808,-200.5 808,-253.5"/>
<text text-anchor="middle" x="758.5" y="-238.3" font-family="Helvetica,sans-Serif" font-size="14.00" fill="#000000">gini = 0.0</text>
<text text-anchor="middle" x="758.5" y="-223.3" font-family="Helvetica,sans-Serif" font-size="14.00" fill="#000000">samples = 5</text>
<text text-anchor="middle" x="758.5" y="-208.3" font-family="Helvetica,sans-Serif" font-size="14.00" fill="#000000">value = [0, 5]</text>
</g>
<!-- 21&#45;&gt;27 -->
<g id="edge27" class="edge">
<title>21&#45;&gt;27</title>
<path fill="none" stroke="#000000" d="M670.3943,-296.9465C685.3788,-285.0504 702.1624,-271.726 717.0288,-259.9237"/>
<polygon fill="#000000" stroke="#000000" points="719.4113,-262.5011 725.0671,-253.5422 715.0589,-257.0187 719.4113,-262.5011"/>
</g>
<!-- 23 -->
<g id="node24" class="node">
<title>23</title>
<polygon fill="none" stroke="#000000" points="700.5,-157 584.5,-157 584.5,-89 700.5,-89 700.5,-157"/>
<text text-anchor="middle" x="642.5" y="-141.8" font-family="Helvetica,sans-Serif" font-size="14.00" fill="#000000">X[8] &lt;= &#45;13.538</text>
<text text-anchor="middle" x="642.5" y="-126.8" font-family="Helvetica,sans-Serif" font-size="14.00" fill="#000000">gini = 0.444</text>
<text text-anchor="middle" x="642.5" y="-111.8" font-family="Helvetica,sans-Serif" font-size="14.00" fill="#000000">samples = 3</text>
<text text-anchor="middle" x="642.5" y="-96.8" font-family="Helvetica,sans-Serif" font-size="14.00" fill="#000000">value = [1, 2]</text>
</g>
<!-- 22&#45;&gt;23 -->
<g id="edge23" class="edge">
<title>22&#45;&gt;23</title>
<path fill="none" stroke="#000000" d="M637.7921,-192.9465C638.342,-184.776 638.9373,-175.9318 639.5136,-167.3697"/>
<polygon fill="#000000" stroke="#000000" points="643.0232,-167.3425 640.2028,-157.13 636.039,-166.8723 643.0232,-167.3425"/>
</g>
<!-- 26 -->
<g id="node27" class="node">
<title>26</title>
<polygon fill="none" stroke="#000000" points="818,-149.5 719,-149.5 719,-96.5 818,-96.5 818,-149.5"/>
<text text-anchor="middle" x="768.5" y="-134.3" font-family="Helvetica,sans-Serif" font-size="14.00" fill="#000000">gini = 0.0</text>
<text text-anchor="middle" x="768.5" y="-119.3" font-family="Helvetica,sans-Serif" font-size="14.00" fill="#000000">samples = 3</text>
<text text-anchor="middle" x="768.5" y="-104.3" font-family="Helvetica,sans-Serif" font-size="14.00" fill="#000000">value = [3, 0]</text>
</g>
<!-- 22&#45;&gt;26 -->
<g id="edge26" class="edge">
<title>22&#45;&gt;26</title>
<path fill="none" stroke="#000000" d="M679.0492,-192.9465C694.2625,-181.0504 711.3023,-167.726 726.3957,-155.9237"/>
<polygon fill="#000000" stroke="#000000" points="728.8351,-158.4592 734.5567,-149.5422 724.5231,-152.9449 728.8351,-158.4592"/>
</g>
<!-- 24 -->
<g id="node25" class="node">
<title>24</title>
<polygon fill="none" stroke="#000000" points="689,-53 590,-53 590,0 689,0 689,-53"/>
<text text-anchor="middle" x="639.5" y="-37.8" font-family="Helvetica,sans-Serif" font-size="14.00" fill="#000000">gini = 0.0</text>
<text text-anchor="middle" x="639.5" y="-22.8" font-family="Helvetica,sans-Serif" font-size="14.00" fill="#000000">samples = 2</text>
<text text-anchor="middle" x="639.5" y="-7.8" font-family="Helvetica,sans-Serif" font-size="14.00" fill="#000000">value = [0, 2]</text>
</g>
<!-- 23&#45;&gt;24 -->
<g id="edge24" class="edge">
<title>23&#45;&gt;24</title>
<path fill="none" stroke="#000000" d="M641.4423,-88.9777C641.1861,-80.7364 640.911,-71.887 640.6507,-63.5153"/>
<polygon fill="#000000" stroke="#000000" points="644.1407,-63.1349 640.3316,-53.2485 637.1441,-63.3524 644.1407,-63.1349"/>
</g>
<!-- 25 -->
<g id="node26" class="node">
<title>25</title>
<polygon fill="none" stroke="#000000" points="806,-53 707,-53 707,0 806,0 806,-53"/>
<text text-anchor="middle" x="756.5" y="-37.8" font-family="Helvetica,sans-Serif" font-size="14.00" fill="#000000">gini = 0.0</text>
<text text-anchor="middle" x="756.5" y="-22.8" font-family="Helvetica,sans-Serif" font-size="14.00" fill="#000000">samples = 1</text>
<text text-anchor="middle" x="756.5" y="-7.8" font-family="Helvetica,sans-Serif" font-size="14.00" fill="#000000">value = [1, 0]</text>
</g>
<!-- 23&#45;&gt;25 -->
<g id="edge25" class="edge">
<title>23&#45;&gt;25</title>
<path fill="none" stroke="#000000" d="M682.6921,-88.9777C693.8342,-79.546 705.9173,-69.3178 717.0185,-59.9208"/>
<polygon fill="#000000" stroke="#000000" points="719.5295,-62.3809 724.9008,-53.2485 715.0068,-57.038 719.5295,-62.3809"/>
</g>
<!-- 29 -->
<g id="node30" class="node">
<title>29</title>
<polygon fill="none" stroke="#000000" points="741,-573 638,-573 638,-505 741,-505 741,-573"/>
<text text-anchor="middle" x="689.5" y="-557.8" font-family="Helvetica,sans-Serif" font-size="14.00" fill="#000000">X[2] &lt;= 3.225</text>
<text text-anchor="middle" x="689.5" y="-542.8" font-family="Helvetica,sans-Serif" font-size="14.00" fill="#000000">gini = 0.408</text>
<text text-anchor="middle" x="689.5" y="-527.8" font-family="Helvetica,sans-Serif" font-size="14.00" fill="#000000">samples = 7</text>
<text text-anchor="middle" x="689.5" y="-512.8" font-family="Helvetica,sans-Serif" font-size="14.00" fill="#000000">value = [5, 2]</text>
</g>
<!-- 28&#45;&gt;29 -->
<g id="edge29" class="edge">
<title>28&#45;&gt;29</title>
<path fill="none" stroke="#000000" d="M689.5,-608.9465C689.5,-600.776 689.5,-591.9318 689.5,-583.3697"/>
<polygon fill="#000000" stroke="#000000" points="693.0001,-583.13 689.5,-573.13 686.0001,-583.13 693.0001,-583.13"/>
</g>
<!-- 34 -->
<g id="node35" class="node">
<title>34</title>
<polygon fill="none" stroke="#000000" points="924,-573 817,-573 817,-505 924,-505 924,-573"/>
<text text-anchor="middle" x="870.5" y="-557.8" font-family="Helvetica,sans-Serif" font-size="14.00" fill="#000000">X[2] &lt;= 2.49</text>
<text text-anchor="middle" x="870.5" y="-542.8" font-family="Helvetica,sans-Serif" font-size="14.00" fill="#000000">gini = 0.153</text>
<text text-anchor="middle" x="870.5" y="-527.8" font-family="Helvetica,sans-Serif" font-size="14.00" fill="#000000">samples = 24</text>
<text text-anchor="middle" x="870.5" y="-512.8" font-family="Helvetica,sans-Serif" font-size="14.00" fill="#000000">value = [2, 22]</text>
</g>
<!-- 28&#45;&gt;34 -->
<g id="edge34" class="edge">
<title>28&#45;&gt;34</title>
<path fill="none" stroke="#000000" d="M747.7658,-609.5213C767.0338,-598.4502 788.5442,-586.0906 808.1087,-574.8491"/>
<polygon fill="#000000" stroke="#000000" points="810.019,-577.7882 816.9459,-569.7714 806.5315,-571.7188 810.019,-577.7882"/>
</g>
<!-- 30 -->
<g id="node31" class="node">
<title>30</title>
<polygon fill="none" stroke="#000000" points="674,-461.5 575,-461.5 575,-408.5 674,-408.5 674,-461.5"/>
<text text-anchor="middle" x="624.5" y="-446.3" font-family="Helvetica,sans-Serif" font-size="14.00" fill="#000000">gini = 0.0</text>
<text text-anchor="middle" x="624.5" y="-431.3" font-family="Helvetica,sans-Serif" font-size="14.00" fill="#000000">samples = 1</text>
<text text-anchor="middle" x="624.5" y="-416.3" font-family="Helvetica,sans-Serif" font-size="14.00" fill="#000000">value = [0, 1]</text>
</g>
<!-- 29&#45;&gt;30 -->
<g id="edge30" class="edge">
<title>29&#45;&gt;30</title>
<path fill="none" stroke="#000000" d="M668.2166,-504.9465C661.2634,-493.8215 653.5295,-481.4473 646.5231,-470.237"/>
<polygon fill="#000000" stroke="#000000" points="649.3569,-468.1671 641.0889,-461.5422 643.4209,-471.8772 649.3569,-468.1671"/>
</g>
<!-- 31 -->
<g id="node32" class="node">
<title>31</title>
<polygon fill="none" stroke="#000000" points="803,-469 692,-469 692,-401 803,-401 803,-469"/>
<text text-anchor="middle" x="747.5" y="-453.8" font-family="Helvetica,sans-Serif" font-size="14.00" fill="#000000">X[2] &lt;= 10.543</text>
<text text-anchor="middle" x="747.5" y="-438.8" font-family="Helvetica,sans-Serif" font-size="14.00" fill="#000000">gini = 0.278</text>
<text text-anchor="middle" x="747.5" y="-423.8" font-family="Helvetica,sans-Serif" font-size="14.00" fill="#000000">samples = 6</text>
<text text-anchor="middle" x="747.5" y="-408.8" font-family="Helvetica,sans-Serif" font-size="14.00" fill="#000000">value = [5, 1]</text>
</g>
<!-- 29&#45;&gt;31 -->
<g id="edge31" class="edge">
<title>29&#45;&gt;31</title>
<path fill="none" stroke="#000000" d="M708.4914,-504.9465C713.2983,-496.3271 718.5235,-486.9579 723.5409,-477.9611"/>
<polygon fill="#000000" stroke="#000000" points="726.652,-479.5684 728.466,-469.13 720.5385,-476.1589 726.652,-479.5684"/>
</g>
<!-- 32 -->
<g id="node33" class="node">
<title>32</title>
<polygon fill="none" stroke="#000000" points="797,-357.5 698,-357.5 698,-304.5 797,-304.5 797,-357.5"/>
<text text-anchor="middle" x="747.5" y="-342.3" font-family="Helvetica,sans-Serif" font-size="14.00" fill="#000000">gini = 0.0</text>
<text text-anchor="middle" x="747.5" y="-327.3" font-family="Helvetica,sans-Serif" font-size="14.00" fill="#000000">samples = 5</text>
<text text-anchor="middle" x="747.5" y="-312.3" font-family="Helvetica,sans-Serif" font-size="14.00" fill="#000000">value = [5, 0]</text>
</g>
<!-- 31&#45;&gt;32 -->
<g id="edge32" class="edge">
<title>31&#45;&gt;32</title>
<path fill="none" stroke="#000000" d="M747.5,-400.9465C747.5,-390.2621 747.5,-378.4254 747.5,-367.5742"/>
<polygon fill="#000000" stroke="#000000" points="751.0001,-367.5421 747.5,-357.5422 744.0001,-367.5422 751.0001,-367.5421"/>
</g>
<!-- 33 -->
<g id="node34" class="node">
<title>33</title>
<polygon fill="none" stroke="#000000" points="914,-357.5 815,-357.5 815,-304.5 914,-304.5 914,-357.5"/>
<text text-anchor="middle" x="864.5" y="-342.3" font-family="Helvetica,sans-Serif" font-size="14.00" fill="#000000">gini = 0.0</text>
<text text-anchor="middle" x="864.5" y="-327.3" font-family="Helvetica,sans-Serif" font-size="14.00" fill="#000000">samples = 1</text>
<text text-anchor="middle" x="864.5" y="-312.3" font-family="Helvetica,sans-Serif" font-size="14.00" fill="#000000">value = [0, 1]</text>
</g>
<!-- 31&#45;&gt;33 -->
<g id="edge33" class="edge">
<title>31&#45;&gt;33</title>
<path fill="none" stroke="#000000" d="M785.8102,-400.9465C799.0694,-389.1606 813.9058,-375.9726 827.0916,-364.2519"/>
<polygon fill="#000000" stroke="#000000" points="829.4912,-366.8018 834.6401,-357.5422 824.8407,-361.5699 829.4912,-366.8018"/>
</g>
<!-- 35 -->
<g id="node36" class="node">
<title>35</title>
<polygon fill="none" stroke="#000000" points="920,-461.5 821,-461.5 821,-408.5 920,-408.5 920,-461.5"/>
<text text-anchor="middle" x="870.5" y="-446.3" font-family="Helvetica,sans-Serif" font-size="14.00" fill="#000000">gini = 0.0</text>
<text text-anchor="middle" x="870.5" y="-431.3" font-family="Helvetica,sans-Serif" font-size="14.00" fill="#000000">samples = 1</text>
<text text-anchor="middle" x="870.5" y="-416.3" font-family="Helvetica,sans-Serif" font-size="14.00" fill="#000000">value = [1, 0]</text>
</g>
<!-- 34&#45;&gt;35 -->
<g id="edge35" class="edge">
<title>34&#45;&gt;35</title>
<path fill="none" stroke="#000000" d="M870.5,-504.9465C870.5,-494.2621 870.5,-482.4254 870.5,-471.5742"/>
<polygon fill="#000000" stroke="#000000" points="874.0001,-471.5421 870.5,-461.5422 867.0001,-471.5422 874.0001,-471.5421"/>
</g>
<!-- 36 -->
<g id="node37" class="node">
<title>36</title>
<polygon fill="none" stroke="#000000" points="1049,-469 938,-469 938,-401 1049,-401 1049,-469"/>
<text text-anchor="middle" x="993.5" y="-453.8" font-family="Helvetica,sans-Serif" font-size="14.00" fill="#000000">X[1] &lt;= 10.761</text>
<text text-anchor="middle" x="993.5" y="-438.8" font-family="Helvetica,sans-Serif" font-size="14.00" fill="#000000">gini = 0.083</text>
<text text-anchor="middle" x="993.5" y="-423.8" font-family="Helvetica,sans-Serif" font-size="14.00" fill="#000000">samples = 23</text>
<text text-anchor="middle" x="993.5" y="-408.8" font-family="Helvetica,sans-Serif" font-size="14.00" fill="#000000">value = [1, 22]</text>
</g>
<!-- 34&#45;&gt;36 -->
<g id="edge36" class="edge">
<title>34&#45;&gt;36</title>
<path fill="none" stroke="#000000" d="M910.7748,-504.9465C921.8184,-495.6088 933.9028,-485.3911 945.3404,-475.7203"/>
<polygon fill="#000000" stroke="#000000" points="947.7583,-478.2594 953.1347,-469.13 943.2386,-472.914 947.7583,-478.2594"/>
</g>
<!-- 37 -->
<g id="node38" class="node">
<title>37</title>
<polygon fill="none" stroke="#000000" points="1043,-365 936,-365 936,-297 1043,-297 1043,-365"/>
<text text-anchor="middle" x="989.5" y="-349.8" font-family="Helvetica,sans-Serif" font-size="14.00" fill="#000000">X[4] &lt;= &#45;3.595</text>
<text text-anchor="middle" x="989.5" y="-334.8" font-family="Helvetica,sans-Serif" font-size="14.00" fill="#000000">gini = 0.32</text>
<text text-anchor="middle" x="989.5" y="-319.8" font-family="Helvetica,sans-Serif" font-size="14.00" fill="#000000">samples = 5</text>
<text text-anchor="middle" x="989.5" y="-304.8" font-family="Helvetica,sans-Serif" font-size="14.00" fill="#000000">value = [1, 4]</text>
</g>
<!-- 36&#45;&gt;37 -->
<g id="edge37" class="edge">
<title>36&#45;&gt;37</title>
<path fill="none" stroke="#000000" d="M992.1903,-400.9465C991.876,-392.776 991.5358,-383.9318 991.2065,-375.3697"/>
<polygon fill="#000000" stroke="#000000" points="994.6945,-374.9881 990.8127,-365.13 987.6997,-375.2572 994.6945,-374.9881"/>
</g>
<!-- 40 -->
<g id="node41" class="node">
<title>40</title>
<polygon fill="none" stroke="#000000" points="1168,-357.5 1061,-357.5 1061,-304.5 1168,-304.5 1168,-357.5"/>
<text text-anchor="middle" x="1114.5" y="-342.3" font-family="Helvetica,sans-Serif" font-size="14.00" fill="#000000">gini = 0.0</text>
<text text-anchor="middle" x="1114.5" y="-327.3" font-family="Helvetica,sans-Serif" font-size="14.00" fill="#000000">samples = 18</text>
<text text-anchor="middle" x="1114.5" y="-312.3" font-family="Helvetica,sans-Serif" font-size="14.00" fill="#000000">value = [0, 18]</text>
</g>
<!-- 36&#45;&gt;40 -->
<g id="edge40" class="edge">
<title>36&#45;&gt;40</title>
<path fill="none" stroke="#000000" d="M1033.1199,-400.9465C1046.8324,-389.1606 1062.1761,-375.9726 1075.8127,-364.2519"/>
<polygon fill="#000000" stroke="#000000" points="1078.3169,-366.7147 1083.6192,-357.5422 1073.7541,-361.4061 1078.3169,-366.7147"/>
</g>
<!-- 38 -->
<g id="node39" class="node">
<title>38</title>
<polygon fill="none" stroke="#000000" points="980,-253.5 881,-253.5 881,-200.5 980,-200.5 980,-253.5"/>
<text text-anchor="middle" x="930.5" y="-238.3" font-family="Helvetica,sans-Serif" font-size="14.00" fill="#000000">gini = 0.0</text>
<text text-anchor="middle" x="930.5" y="-223.3" font-family="Helvetica,sans-Serif" font-size="14.00" fill="#000000">samples = 1</text>
<text text-anchor="middle" x="930.5" y="-208.3" font-family="Helvetica,sans-Serif" font-size="14.00" fill="#000000">value = [1, 0]</text>
</g>
<!-- 37&#45;&gt;38 -->
<g id="edge38" class="edge">
<title>37&#45;&gt;38</title>
<path fill="none" stroke="#000000" d="M970.1812,-296.9465C963.9324,-285.9316 956.9888,-273.6922 950.6793,-262.5703"/>
<polygon fill="#000000" stroke="#000000" points="953.5362,-260.513 945.5576,-253.5422 947.4477,-263.967 953.5362,-260.513"/>
</g>
<!-- 39 -->
<g id="node40" class="node">
<title>39</title>
<polygon fill="none" stroke="#000000" points="1097,-253.5 998,-253.5 998,-200.5 1097,-200.5 1097,-253.5"/>
<text text-anchor="middle" x="1047.5" y="-238.3" font-family="Helvetica,sans-Serif" font-size="14.00" fill="#000000">gini = 0.0</text>
<text text-anchor="middle" x="1047.5" y="-223.3" font-family="Helvetica,sans-Serif" font-size="14.00" fill="#000000">samples = 4</text>
<text text-anchor="middle" x="1047.5" y="-208.3" font-family="Helvetica,sans-Serif" font-size="14.00" fill="#000000">value = [0, 4]</text>
</g>
<!-- 37&#45;&gt;39 -->
<g id="edge39" class="edge">
<title>37&#45;&gt;39</title>
<path fill="none" stroke="#000000" d="M1008.4914,-296.9465C1014.6343,-285.9316 1021.4601,-273.6922 1027.6627,-262.5703"/>
<polygon fill="#000000" stroke="#000000" points="1030.8837,-263.9806 1032.6976,-253.5422 1024.7701,-260.5711 1030.8837,-263.9806"/>
</g>
</g>
</svg>
