<?xml version="1.0" encoding="UTF-8" standalone="no"?>
<!DOCTYPE svg PUBLIC "-//W3C//DTD SVG 1.1//EN"
 "http://www.w3.org/Graphics/SVG/1.1/DTD/svg11.dtd">
<!-- Generated by graphviz version 2.40.1 (20161225.0304)
 -->
<!-- Title: Tree Pages: 1 -->
<svg width="1170pt" height="789pt"
 viewBox="0.00 0.00 1170.00 789.00" xmlns="http://www.w3.org/2000/svg" xmlns:xlink="http://www.w3.org/1999/xlink">
<g id="graph0" class="graph" transform="scale(1 1) rotate(0) translate(4 785)">
<title>Tree</title>
<polygon fill="#ffffff" stroke="transparent" points="-4,4 -4,-785 1166,-785 1166,4 -4,4"/>
<!-- 0 -->
<g id="node1" class="node">
<title>0</title>
<polygon fill="none" stroke="#000000" points="617.5,-781 501.5,-781 501.5,-713 617.5,-713 617.5,-781"/>
<text text-anchor="middle" x="559.5" y="-765.8" font-family="Helvetica,sans-Serif" font-size="14.00" fill="#000000">X[3] &lt;= 13.339</text>
<text text-anchor="middle" x="559.5" y="-750.8" font-family="Helvetica,sans-Serif" font-size="14.00" fill="#000000">gini = 0.481</text>
<text text-anchor="middle" x="559.5" y="-735.8" font-family="Helvetica,sans-Serif" font-size="14.00" fill="#000000">samples = 72</text>
<text text-anchor="middle" x="559.5" y="-720.8" font-family="Helvetica,sans-Serif" font-size="14.00" fill="#000000">value = [29, 43]</text>
</g>
<!-- 1 -->
<g id="node2" class="node">
<title>1</title>
<polygon fill="none" stroke="#000000" points="550.5,-677 434.5,-677 434.5,-609 550.5,-609 550.5,-677"/>
<text text-anchor="middle" x="492.5" y="-661.8" font-family="Helvetica,sans-Serif" font-size="14.00" fill="#000000">X[1] &lt;= 7.933</text>
<text text-anchor="middle" x="492.5" y="-646.8" font-family="Helvetica,sans-Serif" font-size="14.00" fill="#000000">gini = 0.497</text>
<text text-anchor="middle" x="492.5" y="-631.8" font-family="Helvetica,sans-Serif" font-size="14.00" fill="#000000">samples = 41</text>
<text text-anchor="middle" x="492.5" y="-616.8" font-family="Helvetica,sans-Serif" font-size="14.00" fill="#000000">value = [22, 19]</text>
</g>
<!-- 0&#45;&gt;1 -->
<g id="edge1" class="edge">
<title>0&#45;&gt;1</title>
<path fill="none" stroke="#000000" d="M537.5617,-712.9465C531.951,-704.2373 525.8471,-694.7626 519.9958,-685.6801"/>
<polygon fill="#000000" stroke="#000000" points="522.8457,-683.641 514.4876,-677.13 516.9611,-687.4321 522.8457,-683.641"/>
<text text-anchor="middle" x="509.2006" y="-697.8646" font-family="Helvetica,sans-Serif" font-size="14.00" fill="#000000">True</text>
</g>
<!-- 28 -->
<g id="node29" class="node">
<title>28</title>
<polygon fill="none" stroke="#000000" points="742.5,-677 626.5,-677 626.5,-609 742.5,-609 742.5,-677"/>
<text text-anchor="middle" x="684.5" y="-661.8" font-family="Helvetica,sans-Serif" font-size="14.00" fill="#000000">X[8] &lt;= &#45;34.184</text>
<text text-anchor="middle" x="684.5" y="-646.8" font-family="Helvetica,sans-Serif" font-size="14.00" fill="#000000">gini = 0.35</text>
<text text-anchor="middle" x="684.5" y="-631.8" font-family="Helvetica,sans-Serif" font-size="14.00" fill="#000000">samples = 31</text>
<text text-anchor="middle" x="684.5" y="-616.8" font-family="Helvetica,sans-Serif" font-size="14.00" fill="#000000">value = [7, 24]</text>
</g>
<!-- 0&#45;&gt;28 -->
<g id="edge28" class="edge">
<title>0&#45;&gt;28</title>
<path fill="none" stroke="#000000" d="M600.4297,-712.9465C611.6528,-703.6088 623.9337,-693.3911 635.5573,-683.7203"/>
<polygon fill="#000000" stroke="#000000" points="638.0296,-686.2164 643.4784,-677.13 633.5526,-680.8353 638.0296,-686.2164"/>
<text text-anchor="middle" x="641.1954" y="-698.3255" font-family="Helvetica,sans-Serif" font-size="14.00" fill="#000000">False</text>
</g>
<!-- 2 -->
<g id="node3" class="node">
<title>2</title>
<polygon fill="none" stroke="#000000" points="416,-565.5 317,-565.5 317,-512.5 416,-512.5 416,-565.5"/>
<text text-anchor="middle" x="366.5" y="-550.3" font-family="Helvetica,sans-Serif" font-size="14.00" fill="#000000">gini = 0.0</text>
<text text-anchor="middle" x="366.5" y="-535.3" font-family="Helvetica,sans-Serif" font-size="14.00" fill="#000000">samples = 5</text>
<text text-anchor="middle" x="366.5" y="-520.3" font-family="Helvetica,sans-Serif" font-size="14.00" fill="#000000">value = [5, 0]</text>
</g>
<!-- 1&#45;&gt;2 -->
<g id="edge2" class="edge">
<title>1&#45;&gt;2</title>
<path fill="none" stroke="#000000" d="M451.2429,-608.9465C436.8303,-597.0504 420.6873,-583.726 406.3883,-571.9237"/>
<polygon fill="#000000" stroke="#000000" points="408.5971,-569.2086 398.6569,-565.5422 404.1411,-574.6071 408.5971,-569.2086"/>
</g>
<!-- 3 -->
<g id="node4" class="node">
<title>3</title>
<polygon fill="none" stroke="#000000" points="550.5,-573 434.5,-573 434.5,-505 550.5,-505 550.5,-573"/>
<text text-anchor="middle" x="492.5" y="-557.8" font-family="Helvetica,sans-Serif" font-size="14.00" fill="#000000">X[1] &lt;= 13.095</text>
<text text-anchor="middle" x="492.5" y="-542.8" font-family="Helvetica,sans-Serif" font-size="14.00" fill="#000000">gini = 0.498</text>
<text text-anchor="middle" x="492.5" y="-527.8" font-family="Helvetica,sans-Serif" font-size="14.00" fill="#000000">samples = 36</text>
<text text-anchor="middle" x="492.5" y="-512.8" font-family="Helvetica,sans-Serif" font-size="14.00" fill="#000000">value = [17, 19]</text>
</g>
<!-- 1&#45;&gt;3 -->
<g id="edge3" class="edge">
<title>1&#45;&gt;3</title>
<path fill="none" stroke="#000000" d="M492.5,-608.9465C492.5,-600.776 492.5,-591.9318 492.5,-583.3697"/>
<polygon fill="#000000" stroke="#000000" points="496.0001,-583.13 492.5,-573.13 489.0001,-583.13 496.0001,-583.13"/>
</g>
<!-- 4 -->
<g id="node5" class="node">
<title>4</title>
<polygon fill="none" stroke="#000000" points="365,-469 262,-469 262,-401 365,-401 365,-469"/>
<text text-anchor="middle" x="313.5" y="-453.8" font-family="Helvetica,sans-Serif" font-size="14.00" fill="#000000">X[3] &lt;= 4.817</text>
<text text-anchor="middle" x="313.5" y="-438.8" font-family="Helvetica,sans-Serif" font-size="14.00" fill="#000000">gini = 0.219</text>
<text text-anchor="middle" x="313.5" y="-423.8" font-family="Helvetica,sans-Serif" font-size="14.00" fill="#000000">samples = 8</text>
<text text-anchor="middle" x="313.5" y="-408.8" font-family="Helvetica,sans-Serif" font-size="14.00" fill="#000000">value = [1, 7]</text>
</g>
<!-- 3&#45;&gt;4 -->
<g id="edge4" class="edge">
<title>3&#45;&gt;4</title>
<path fill="none" stroke="#000000" d="M434.3838,-505.2342C415.0852,-494.0216 393.5576,-481.5139 374.078,-470.1961"/>
<polygon fill="#000000" stroke="#000000" points="375.6922,-467.0862 365.2874,-465.0887 372.1756,-473.1388 375.6922,-467.0862"/>
</g>
<!-- 9 -->
<g id="node10" class="node">
<title>9</title>
<polygon fill="none" stroke="#000000" points="550.5,-469 434.5,-469 434.5,-401 550.5,-401 550.5,-469"/>
<text text-anchor="middle" x="492.5" y="-453.8" font-family="Helvetica,sans-Serif" font-size="14.00" fill="#000000">X[2] &lt;= 10.386</text>
<text text-anchor="middle" x="492.5" y="-438.8" font-family="Helvetica,sans-Serif" font-size="14.00" fill="#000000">gini = 0.49</text>
<text text-anchor="middle" x="492.5" y="-423.8" font-family="Helvetica,sans-Serif" font-size="14.00" fill="#000000">samples = 28</text>
<text text-anchor="middle" x="492.5" y="-408.8" font-family="Helvetica,sans-Serif" font-size="14.00" fill="#000000">value = [16, 12]</text>
</g>
<!-- 3&#45;&gt;9 -->
<g id="edge9" class="edge">
<title>3&#45;&gt;9</title>
<path fill="none" stroke="#000000" d="M492.5,-504.9465C492.5,-496.776 492.5,-487.9318 492.5,-479.3697"/>
<polygon fill="#000000" stroke="#000000" points="496.0001,-479.13 492.5,-469.13 489.0001,-479.13 496.0001,-479.13"/>
</g>
<!-- 5 -->
<g id="node6" class="node">
<title>5</title>
<polygon fill="none" stroke="#000000" points="220,-365 113,-365 113,-297 220,-297 220,-365"/>
<text text-anchor="middle" x="166.5" y="-349.8" font-family="Helvetica,sans-Serif" font-size="14.00" fill="#000000">X[6] &lt;= &#45;4.659</text>
<text text-anchor="middle" x="166.5" y="-334.8" font-family="Helvetica,sans-Serif" font-size="14.00" fill="#000000">gini = 0.5</text>
<text text-anchor="middle" x="166.5" y="-319.8" font-family="Helvetica,sans-Serif" font-size="14.00" fill="#000000">samples = 2</text>
<text text-anchor="middle" x="166.5" y="-304.8" font-family="Helvetica,sans-Serif" font-size="14.00" fill="#000000">value = [1, 1]</text>
</g>
<!-- 4&#45;&gt;5 -->
<g id="edge5" class="edge">
<title>4&#45;&gt;5</title>
<path fill="none" stroke="#000000" d="M265.3667,-400.9465C251.9144,-391.4293 237.17,-380.9978 223.2688,-371.163"/>
<polygon fill="#000000" stroke="#000000" points="224.9264,-368.0483 214.7414,-365.13 220.8835,-373.7628 224.9264,-368.0483"/>
</g>
<!-- 8 -->
<g id="node9" class="node">
<title>8</title>
<polygon fill="none" stroke="#000000" points="363,-357.5 264,-357.5 264,-304.5 363,-304.5 363,-357.5"/>
<text text-anchor="middle" x="313.5" y="-342.3" font-family="Helvetica,sans-Serif" font-size="14.00" fill="#000000">gini = 0.0</text>
<text text-anchor="middle" x="313.5" y="-327.3" font-family="Helvetica,sans-Serif" font-size="14.00" fill="#000000">samples = 6</text>
<text text-anchor="middle" x="313.5" y="-312.3" font-family="Helvetica,sans-Serif" font-size="14.00" fill="#000000">value = [0, 6]</text>
</g>
<!-- 4&#45;&gt;8 -->
<g id="edge8" class="edge">
<title>4&#45;&gt;8</title>
<path fill="none" stroke="#000000" d="M313.5,-400.9465C313.5,-390.2621 313.5,-378.4254 313.5,-367.5742"/>
<polygon fill="#000000" stroke="#000000" points="317.0001,-367.5421 313.5,-357.5422 310.0001,-367.5422 317.0001,-367.5421"/>
</g>
<!-- 6 -->
<g id="node7" class="node">
<title>6</title>
<polygon fill="none" stroke="#000000" points="99,-253.5 0,-253.5 0,-200.5 99,-200.5 99,-253.5"/>
<text text-anchor="middle" x="49.5" y="-238.3" font-family="Helvetica,sans-Serif" font-size="14.00" fill="#000000">gini = 0.0</text>
<text text-anchor="middle" x="49.5" y="-223.3" font-family="Helvetica,sans-Serif" font-size="14.00" fill="#000000">samples = 1</text>
<text text-anchor="middle" x="49.5" y="-208.3" font-family="Helvetica,sans-Serif" font-size="14.00" fill="#000000">value = [1, 0]</text>
</g>
<!-- 5&#45;&gt;6 -->
<g id="edge6" class="edge">
<title>5&#45;&gt;6</title>
<path fill="none" stroke="#000000" d="M128.1898,-296.9465C114.9306,-285.1606 100.0942,-271.9726 86.9084,-260.2519"/>
<polygon fill="#000000" stroke="#000000" points="89.1593,-257.5699 79.3599,-253.5422 84.5088,-262.8018 89.1593,-257.5699"/>
</g>
<!-- 7 -->
<g id="node8" class="node">
<title>7</title>
<polygon fill="none" stroke="#000000" points="216,-253.5 117,-253.5 117,-200.5 216,-200.5 216,-253.5"/>
<text text-anchor="middle" x="166.5" y="-238.3" font-family="Helvetica,sans-Serif" font-size="14.00" fill="#000000">gini = 0.0</text>
<text text-anchor="middle" x="166.5" y="-223.3" font-family="Helvetica,sans-Serif" font-size="14.00" fill="#000000">samples = 1</text>
<text text-anchor="middle" x="166.5" y="-208.3" font-family="Helvetica,sans-Serif" font-size="14.00" fill="#000000">value = [0, 1]</text>
</g>
<!-- 5&#45;&gt;7 -->
<g id="edge7" class="edge">
<title>5&#45;&gt;7</title>
<path fill="none" stroke="#000000" d="M166.5,-296.9465C166.5,-286.2621 166.5,-274.4254 166.5,-263.5742"/>
<polygon fill="#000000" stroke="#000000" points="170.0001,-263.5421 166.5,-253.5422 163.0001,-263.5422 170.0001,-263.5421"/>
</g>
<!-- 10 -->
<g id="node11" class="node">
<title>10</title>
<polygon fill="none" stroke="#000000" points="545,-365 438,-365 438,-297 545,-297 545,-365"/>
<text text-anchor="middle" x="491.5" y="-349.8" font-family="Helvetica,sans-Serif" font-size="14.00" fill="#000000">X[2] &lt;= 4.456</text>
<text text-anchor="middle" x="491.5" y="-334.8" font-family="Helvetica,sans-Serif" font-size="14.00" fill="#000000">gini = 0.415</text>
<text text-anchor="middle" x="491.5" y="-319.8" font-family="Helvetica,sans-Serif" font-size="14.00" fill="#000000">samples = 17</text>
<text text-anchor="middle" x="491.5" y="-304.8" font-family="Helvetica,sans-Serif" font-size="14.00" fill="#000000">value = [12, 5]</text>
</g>
<!-- 9&#45;&gt;10 -->
<g id="edge10" class="edge">
<title>9&#45;&gt;10</title>
<path fill="none" stroke="#000000" d="M492.1726,-400.9465C492.094,-392.776 492.009,-383.9318 491.9266,-375.3697"/>
<polygon fill="#000000" stroke="#000000" points="495.4243,-375.0958 491.8282,-365.13 488.4246,-375.1632 495.4243,-375.0958"/>
</g>
<!-- 21 -->
<g id="node22" class="node">
<title>21</title>
<polygon fill="none" stroke="#000000" points="674.5,-365 570.5,-365 570.5,-297 674.5,-297 674.5,-365"/>
<text text-anchor="middle" x="622.5" y="-349.8" font-family="Helvetica,sans-Serif" font-size="14.00" fill="#000000">X[0] &lt;= 6.966</text>
<text text-anchor="middle" x="622.5" y="-334.8" font-family="Helvetica,sans-Serif" font-size="14.00" fill="#000000">gini = 0.463</text>
<text text-anchor="middle" x="622.5" y="-319.8" font-family="Helvetica,sans-Serif" font-size="14.00" fill="#000000">samples = 11</text>
<text text-anchor="middle" x="622.5" y="-304.8" font-family="Helvetica,sans-Serif" font-size="14.00" fill="#000000">value = [4, 7]</text>
</g>
<!-- 9&#45;&gt;21 -->
<g id="edge21" class="edge">
<title>9&#45;&gt;21</title>
<path fill="none" stroke="#000000" d="M535.0669,-400.9465C546.8512,-391.519 559.7568,-381.1946 571.9481,-371.4415"/>
<polygon fill="#000000" stroke="#000000" points="574.2152,-374.11 579.8375,-365.13 569.8423,-368.6439 574.2152,-374.11"/>
</g>
<!-- 11 -->
<g id="node12" class="node">
<title>11</title>
<polygon fill="none" stroke="#000000" points="333,-261 234,-261 234,-193 333,-193 333,-261"/>
<text text-anchor="middle" x="283.5" y="-245.8" font-family="Helvetica,sans-Serif" font-size="14.00" fill="#000000">X[3] &lt;= 4.88</text>
<text text-anchor="middle" x="283.5" y="-230.8" font-family="Helvetica,sans-Serif" font-size="14.00" fill="#000000">gini = 0.49</text>
<text text-anchor="middle" x="283.5" y="-215.8" font-family="Helvetica,sans-Serif" font-size="14.00" fill="#000000">samples = 7</text>
<text text-anchor="middle" x="283.5" y="-200.8" font-family="Helvetica,sans-Serif" font-size="14.00" fill="#000000">value = [3, 4]</text>
</g>
<!-- 10&#45;&gt;11 -->
<g id="edge11" class="edge">
<title>10&#45;&gt;11</title>
<path fill="none" stroke="#000000" d="M437.9348,-304.2174C408.7002,-289.6001 372.4501,-271.475 342.4187,-256.4593"/>
<polygon fill="#000000" stroke="#000000" points="343.8225,-253.2482 333.3129,-251.9065 340.6919,-259.5091 343.8225,-253.2482"/>
</g>
<!-- 16 -->
<g id="node17" class="node">
<title>16</title>
<polygon fill="none" stroke="#000000" points="547,-261 436,-261 436,-193 547,-193 547,-261"/>
<text text-anchor="middle" x="491.5" y="-245.8" font-family="Helvetica,sans-Serif" font-size="14.00" fill="#000000">X[1] &lt;= 20.234</text>
<text text-anchor="middle" x="491.5" y="-230.8" font-family="Helvetica,sans-Serif" font-size="14.00" fill="#000000">gini = 0.18</text>
<text text-anchor="middle" x="491.5" y="-215.8" font-family="Helvetica,sans-Serif" font-size="14.00" fill="#000000">samples = 10</text>
<text text-anchor="middle" x="491.5" y="-200.8" font-family="Helvetica,sans-Serif" font-size="14.00" fill="#000000">value = [9, 1]</text>
</g>
<!-- 10&#45;&gt;16 -->
<g id="edge16" class="edge">
<title>10&#45;&gt;16</title>
<path fill="none" stroke="#000000" d="M491.5,-296.9465C491.5,-288.776 491.5,-279.9318 491.5,-271.3697"/>
<polygon fill="#000000" stroke="#000000" points="495.0001,-271.13 491.5,-261.13 488.0001,-271.13 495.0001,-271.13"/>
</g>
<!-- 12 -->
<g id="node13" class="node">
<title>12</title>
<polygon fill="none" stroke="#000000" points="203,-149.5 104,-149.5 104,-96.5 203,-96.5 203,-149.5"/>
<text text-anchor="middle" x="153.5" y="-134.3" font-family="Helvetica,sans-Serif" font-size="14.00" fill="#000000">gini = 0.0</text>
<text text-anchor="middle" x="153.5" y="-119.3" font-family="Helvetica,sans-Serif" font-size="14.00" fill="#000000">samples = 2</text>
<text text-anchor="middle" x="153.5" y="-104.3" font-family="Helvetica,sans-Serif" font-size="14.00" fill="#000000">value = [2, 0]</text>
</g>
<!-- 11&#45;&gt;12 -->
<g id="edge12" class="edge">
<title>11&#45;&gt;12</title>
<path fill="none" stroke="#000000" d="M240.9331,-192.9465C226.063,-181.0504 209.4075,-167.726 194.6546,-155.9237"/>
<polygon fill="#000000" stroke="#000000" points="196.6729,-153.0561 186.6777,-149.5422 192.3,-158.5222 196.6729,-153.0561"/>
</g>
<!-- 13 -->
<g id="node14" class="node">
<title>13</title>
<polygon fill="none" stroke="#000000" points="332,-157 221,-157 221,-89 332,-89 332,-157"/>
<text text-anchor="middle" x="276.5" y="-141.8" font-family="Helvetica,sans-Serif" font-size="14.00" fill="#000000">X[3] &lt;= 10.165</text>
<text text-anchor="middle" x="276.5" y="-126.8" font-family="Helvetica,sans-Serif" font-size="14.00" fill="#000000">gini = 0.32</text>
<text text-anchor="middle" x="276.5" y="-111.8" font-family="Helvetica,sans-Serif" font-size="14.00" fill="#000000">samples = 5</text>
<text text-anchor="middle" x="276.5" y="-96.8" font-family="Helvetica,sans-Serif" font-size="14.00" fill="#000000">value = [1, 4]</text>
</g>
<!-- 11&#45;&gt;13 -->
<g id="edge13" class="edge">
<title>11&#45;&gt;13</title>
<path fill="none" stroke="#000000" d="M281.2079,-192.9465C280.658,-184.776 280.0627,-175.9318 279.4864,-167.3697"/>
<polygon fill="#000000" stroke="#000000" points="282.961,-166.8723 278.7972,-157.13 275.9768,-167.3425 282.961,-166.8723"/>
</g>
<!-- 14 -->
<g id="node15" class="node">
<title>14</title>
<polygon fill="none" stroke="#000000" points="212,-53 113,-53 113,0 212,0 212,-53"/>
<text text-anchor="middle" x="162.5" y="-37.8" font-family="Helvetica,sans-Serif" font-size="14.00" fill="#000000">gini = 0.0</text>
<text text-anchor="middle" x="162.5" y="-22.8" font-family="Helvetica,sans-Serif" font-size="14.00" fill="#000000">samples = 4</text>
<text text-anchor="middle" x="162.5" y="-7.8" font-family="Helvetica,sans-Serif" font-size="14.00" fill="#000000">value = [0, 4]</text>
</g>
<!-- 13&#45;&gt;14 -->
<g id="edge14" class="edge">
<title>13&#45;&gt;14</title>
<path fill="none" stroke="#000000" d="M236.3079,-88.9777C225.1658,-79.546 213.0827,-69.3178 201.9815,-59.9208"/>
<polygon fill="#000000" stroke="#000000" points="203.9932,-57.038 194.0992,-53.2485 199.4705,-62.3809 203.9932,-57.038"/>
</g>
<!-- 15 -->
<g id="node16" class="node">
<title>15</title>
<polygon fill="none" stroke="#000000" points="329,-53 230,-53 230,0 329,0 329,-53"/>
<text text-anchor="middle" x="279.5" y="-37.8" font-family="Helvetica,sans-Serif" font-size="14.00" fill="#000000">gini = 0.0</text>
<text text-anchor="middle" x="279.5" y="-22.8" font-family="Helvetica,sans-Serif" font-size="14.00" fill="#000000">samples = 1</text>
<text text-anchor="middle" x="279.5" y="-7.8" font-family="Helvetica,sans-Serif" font-size="14.00" fill="#000000">value = [1, 0]</text>
</g>
<!-- 13&#45;&gt;15 -->
<g id="edge15" class="edge">
<title>13&#45;&gt;15</title>
<path fill="none" stroke="#000000" d="M277.5577,-88.9777C277.8139,-80.7364 278.089,-71.887 278.3493,-63.5153"/>
<polygon fill="#000000" stroke="#000000" points="281.8559,-63.3524 278.6684,-53.2485 274.8593,-63.1349 281.8559,-63.3524"/>
</g>
<!-- 17 -->
<g id="node18" class="node">
<title>17</title>
<polygon fill="none" stroke="#000000" points="457,-157 350,-157 350,-89 457,-89 457,-157"/>
<text text-anchor="middle" x="403.5" y="-141.8" font-family="Helvetica,sans-Serif" font-size="14.00" fill="#000000">X[7] &lt;= &#45;0.142</text>
<text text-anchor="middle" x="403.5" y="-126.8" font-family="Helvetica,sans-Serif" font-size="14.00" fill="#000000">gini = 0.444</text>
<text text-anchor="middle" x="403.5" y="-111.8" font-family="Helvetica,sans-Serif" font-size="14.00" fill="#000000">samples = 3</text>
<text text-anchor="middle" x="403.5" y="-96.8" font-family="Helvetica,sans-Serif" font-size="14.00" fill="#000000">value = [2, 1]</text>
</g>
<!-- 16&#45;&gt;17 -->
<g id="edge17" class="edge">
<title>16&#45;&gt;17</title>
<path fill="none" stroke="#000000" d="M462.6855,-192.9465C455.0883,-183.968 446.8026,-174.1758 438.9018,-164.8385"/>
<polygon fill="#000000" stroke="#000000" points="441.5105,-162.5031 432.3792,-157.13 436.1668,-167.0247 441.5105,-162.5031"/>
</g>
<!-- 20 -->
<g id="node21" class="node">
<title>20</title>
<polygon fill="none" stroke="#000000" points="574,-149.5 475,-149.5 475,-96.5 574,-96.5 574,-149.5"/>
<text text-anchor="middle" x="524.5" y="-134.3" font-family="Helvetica,sans-Serif" font-size="14.00" fill="#000000">gini = 0.0</text>
<text text-anchor="middle" x="524.5" y="-119.3" font-family="Helvetica,sans-Serif" font-size="14.00" fill="#000000">samples = 7</text>
<text text-anchor="middle" x="524.5" y="-104.3" font-family="Helvetica,sans-Serif" font-size="14.00" fill="#000000">value = [7, 0]</text>
</g>
<!-- 16&#45;&gt;20 -->
<g id="edge20" class="edge">
<title>16&#45;&gt;20</title>
<path fill="none" stroke="#000000" d="M502.3054,-192.9465C505.7306,-182.1519 509.529,-170.1813 513.0011,-159.2389"/>
<polygon fill="#000000" stroke="#000000" points="516.3895,-160.1324 516.078,-149.5422 509.7173,-158.0152 516.3895,-160.1324"/>
</g>
<!-- 18 -->
<g id="node19" class="node">
<title>18</title>
<polygon fill="none" stroke="#000000" points="451,-53 352,-53 352,0 451,0 451,-53"/>
<text text-anchor="middle" x="401.5" y="-37.8" font-family="Helvetica,sans-Serif" font-size="14.00" fill="#000000">gini = 0.0</text>
<text text-anchor="middle" x="401.5" y="-22.8" font-family="Helvetica,sans-Serif" font-size="14.00" fill="#000000">samples = 2</text>
<text text-anchor="middle" x="401.5" y="-7.8" font-family="Helvetica,sans-Serif" font-size="14.00" fill="#000000">value = [2, 0]</text>
</g>
<!-- 17&#45;&gt;18 -->
<g id="edge18" class="edge">
<title>17&#45;&gt;18</title>
<path fill="none" stroke="#000000" d="M402.7949,-88.9777C402.6241,-80.7364 402.4407,-71.887 402.2672,-63.5153"/>
<polygon fill="#000000" stroke="#000000" points="405.7609,-63.1738 402.0544,-53.2485 398.7624,-63.3189 405.7609,-63.1738"/>
</g>
<!-- 19 -->
<g id="node20" class="node">
<title>19</title>
<polygon fill="none" stroke="#000000" points="568,-53 469,-53 469,0 568,0 568,-53"/>
<text text-anchor="middle" x="518.5" y="-37.8" font-family="Helvetica,sans-Serif" font-size="14.00" fill="#000000">gini = 0.0</text>
<text text-anchor="middle" x="518.5" y="-22.8" font-family="Helvetica,sans-Serif" font-size="14.00" fill="#000000">samples = 1</text>
<text text-anchor="middle" x="518.5" y="-7.8" font-family="Helvetica,sans-Serif" font-size="14.00" fill="#000000">value = [0, 1]</text>
</g>
<!-- 17&#45;&gt;19 -->
<g id="edge19" class="edge">
<title>17&#45;&gt;19</title>
<path fill="none" stroke="#000000" d="M444.0447,-88.9777C455.2845,-79.546 467.4736,-69.3178 478.6721,-59.9208"/>
<polygon fill="#000000" stroke="#000000" points="481.213,-62.3576 486.6236,-53.2485 476.7134,-56.9954 481.213,-62.3576"/>
</g>
<!-- 22 -->
<g id="node23" class="node">
<title>22</title>
<polygon fill="none" stroke="#000000" points="688.5,-261 572.5,-261 572.5,-193 688.5,-193 688.5,-261"/>
<text text-anchor="middle" x="630.5" y="-245.8" font-family="Helvetica,sans-Serif" font-size="14.00" fill="#000000">X[4] &lt;= &#45;15.401</text>
<text text-anchor="middle" x="630.5" y="-230.8" font-family="Helvetica,sans-Serif" font-size="14.00" fill="#000000">gini = 0.444</text>
<text text-anchor="middle" x="630.5" y="-215.8" font-family="Helvetica,sans-Serif" font-size="14.00" fill="#000000">samples = 6</text>
<text text-anchor="middle" x="630.5" y="-200.8" font-family="Helvetica,sans-Serif" font-size="14.00" fill="#000000">value = [4, 2]</text>
</g>
<!-- 21&#45;&gt;22 -->
<g id="edge22" class="edge">
<title>21&#45;&gt;22</title>
<path fill="none" stroke="#000000" d="M625.1195,-296.9465C625.748,-288.776 626.4283,-279.9318 627.0869,-271.3697"/>
<polygon fill="#000000" stroke="#000000" points="630.5973,-271.369 627.8746,-261.13 623.6179,-270.8321 630.5973,-271.369"/>
</g>
<!-- 27 -->
<g id="node28" class="node">
<title>27</title>
<polygon fill="none" stroke="#000000" points="806,-253.5 707,-253.5 707,-200.5 806,-200.5 806,-253.5"/>
<text text-anchor="middle" x="756.5" y="-238.3" font-family="Helvetica,sans-Serif" font-size="14.00" fill="#000000">gini = 0.0</text>
<text text-anchor="middle" x="756.5" y="-223.3" font-family="Helvetica,sans-Serif" font-size="14.00" fill="#000000">samples = 5</text>
<text text-anchor="middle" x="756.5" y="-208.3" font-family="Helvetica,sans-Serif" font-size="14.00" fill="#000000">value = [0, 5]</text>
</g>
<!-- 21&#45;&gt;27 -->
<g id="edge27" class="edge">
<title>21&#45;&gt;27</title>
<path fill="none" stroke="#000000" d="M666.3766,-296.9465C681.7043,-285.0504 698.8723,-271.726 714.0791,-259.9237"/>
<polygon fill="#000000" stroke="#000000" points="716.5475,-262.4384 722.3014,-253.5422 712.2556,-256.9085 716.5475,-262.4384"/>
</g>
<!-- 23 -->
<g id="node24" class="node">
<title>23</title>
<polygon fill="none" stroke="#000000" points="695,-157 592,-157 592,-89 695,-89 695,-157"/>
<text text-anchor="middle" x="643.5" y="-141.8" font-family="Helvetica,sans-Serif" font-size="14.00" fill="#000000">X[5] &lt;= 23.88</text>
<text text-anchor="middle" x="643.5" y="-126.8" font-family="Helvetica,sans-Serif" font-size="14.00" fill="#000000">gini = 0.444</text>
<text text-anchor="middle" x="643.5" y="-111.8" font-family="Helvetica,sans-Serif" font-size="14.00" fill="#000000">samples = 3</text>
<text text-anchor="middle" x="643.5" y="-96.8" font-family="Helvetica,sans-Serif" font-size="14.00" fill="#000000">value = [1, 2]</text>
</g>
<!-- 22&#45;&gt;23 -->
<g id="edge23" class="edge">
<title>22&#45;&gt;23</title>
<path fill="none" stroke="#000000" d="M634.7567,-192.9465C635.7892,-184.6863 636.9078,-175.7374 637.9891,-167.0875"/>
<polygon fill="#000000" stroke="#000000" points="641.4663,-167.4869 639.2338,-157.13 634.5203,-166.6186 641.4663,-167.4869"/>
</g>
<!-- 26 -->
<g id="node27" class="node">
<title>26</title>
<polygon fill="none" stroke="#000000" points="812,-149.5 713,-149.5 713,-96.5 812,-96.5 812,-149.5"/>
<text text-anchor="middle" x="762.5" y="-134.3" font-family="Helvetica,sans-Serif" font-size="14.00" fill="#000000">gini = 0.0</text>
<text text-anchor="middle" x="762.5" y="-119.3" font-family="Helvetica,sans-Serif" font-size="14.00" fill="#000000">samples = 3</text>
<text text-anchor="middle" x="762.5" y="-104.3" font-family="Helvetica,sans-Serif" font-size="14.00" fill="#000000">value = [3, 0]</text>
</g>
<!-- 22&#45;&gt;26 -->
<g id="edge26" class="edge">
<title>22&#45;&gt;26</title>
<path fill="none" stroke="#000000" d="M673.7217,-192.9465C688.8206,-181.0504 705.7324,-167.726 720.7122,-155.9237"/>
<polygon fill="#000000" stroke="#000000" points="723.123,-158.4802 728.8119,-149.5422 718.7909,-152.9817 723.123,-158.4802"/>
</g>
<!-- 24 -->
<g id="node25" class="node">
<title>24</title>
<polygon fill="none" stroke="#000000" points="689,-53 590,-53 590,0 689,0 689,-53"/>
<text text-anchor="middle" x="639.5" y="-37.8" font-family="Helvetica,sans-Serif" font-size="14.00" fill="#000000">gini = 0.0</text>
<text text-anchor="middle" x="639.5" y="-22.8" font-family="Helvetica,sans-Serif" font-size="14.00" fill="#000000">samples = 2</text>
<text text-anchor="middle" x="639.5" y="-7.8" font-family="Helvetica,sans-Serif" font-size="14.00" fill="#000000">value = [0, 2]</text>
</g>
<!-- 23&#45;&gt;24 -->
<g id="edge24" class="edge">
<title>23&#45;&gt;24</title>
<path fill="none" stroke="#000000" d="M642.0897,-88.9777C641.7481,-80.7364 641.3813,-71.887 641.0343,-63.5153"/>
<polygon fill="#000000" stroke="#000000" points="644.52,-63.0949 640.6087,-53.2485 637.526,-63.3849 644.52,-63.0949"/>
</g>
<!-- 25 -->
<g id="node26" class="node">
<title>25</title>
<polygon fill="none" stroke="#000000" points="806,-53 707,-53 707,0 806,0 806,-53"/>
<text text-anchor="middle" x="756.5" y="-37.8" font-family="Helvetica,sans-Serif" font-size="14.00" fill="#000000">gini = 0.0</text>
<text text-anchor="middle" x="756.5" y="-22.8" font-family="Helvetica,sans-Serif" font-size="14.00" fill="#000000">samples = 1</text>
<text text-anchor="middle" x="756.5" y="-7.8" font-family="Helvetica,sans-Serif" font-size="14.00" fill="#000000">value = [1, 0]</text>
</g>
<!-- 23&#45;&gt;25 -->
<g id="edge25" class="edge">
<title>23&#45;&gt;25</title>
<path fill="none" stroke="#000000" d="M683.3396,-88.9777C694.3839,-79.546 706.361,-69.3178 717.3648,-59.9208"/>
<polygon fill="#000000" stroke="#000000" points="719.8464,-62.4041 725.1779,-53.2485 715.3006,-57.081 719.8464,-62.4041"/>
</g>
<!-- 29 -->
<g id="node30" class="node">
<title>29</title>
<polygon fill="none" stroke="#000000" points="736,-573 633,-573 633,-505 736,-505 736,-573"/>
<text text-anchor="middle" x="684.5" y="-557.8" font-family="Helvetica,sans-Serif" font-size="14.00" fill="#000000">X[2] &lt;= 3.225</text>
<text text-anchor="middle" x="684.5" y="-542.8" font-family="Helvetica,sans-Serif" font-size="14.00" fill="#000000">gini = 0.408</text>
<text text-anchor="middle" x="684.5" y="-527.8" font-family="Helvetica,sans-Serif" font-size="14.00" fill="#000000">samples = 7</text>
<text text-anchor="middle" x="684.5" y="-512.8" font-family="Helvetica,sans-Serif" font-size="14.00" fill="#000000">value = [5, 2]</text>
</g>
<!-- 28&#45;&gt;29 -->
<g id="edge29" class="edge">
<title>28&#45;&gt;29</title>
<path fill="none" stroke="#000000" d="M684.5,-608.9465C684.5,-600.776 684.5,-591.9318 684.5,-583.3697"/>
<polygon fill="#000000" stroke="#000000" points="688.0001,-583.13 684.5,-573.13 681.0001,-583.13 688.0001,-583.13"/>
</g>
<!-- 34 -->
<g id="node35" class="node">
<title>34</title>
<polygon fill="none" stroke="#000000" points="919,-573 812,-573 812,-505 919,-505 919,-573"/>
<text text-anchor="middle" x="865.5" y="-557.8" font-family="Helvetica,sans-Serif" font-size="14.00" fill="#000000">X[2] &lt;= 2.49</text>
<text text-anchor="middle" x="865.5" y="-542.8" font-family="Helvetica,sans-Serif" font-size="14.00" fill="#000000">gini = 0.153</text>
<text text-anchor="middle" x="865.5" y="-527.8" font-family="Helvetica,sans-Serif" font-size="14.00" fill="#000000">samples = 24</text>
<text text-anchor="middle" x="865.5" y="-512.8" font-family="Helvetica,sans-Serif" font-size="14.00" fill="#000000">value = [2, 22]</text>
</g>
<!-- 28&#45;&gt;34 -->
<g id="edge34" class="edge">
<title>28&#45;&gt;34</title>
<path fill="none" stroke="#000000" d="M742.7658,-609.5213C762.0338,-598.4502 783.5442,-586.0906 803.1087,-574.8491"/>
<polygon fill="#000000" stroke="#000000" points="805.019,-577.7882 811.9459,-569.7714 801.5315,-571.7188 805.019,-577.7882"/>
</g>
<!-- 30 -->
<g id="node31" class="node">
<title>30</title>
<polygon fill="none" stroke="#000000" points="669,-461.5 570,-461.5 570,-408.5 669,-408.5 669,-461.5"/>
<text text-anchor="middle" x="619.5" y="-446.3" font-family="Helvetica,sans-Serif" font-size="14.00" fill="#000000">gini = 0.0</text>
<text text-anchor="middle" x="619.5" y="-431.3" font-family="Helvetica,sans-Serif" font-size="14.00" fill="#000000">samples = 1</text>
<text text-anchor="middle" x="619.5" y="-416.3" font-family="Helvetica,sans-Serif" font-size="14.00" fill="#000000">value = [0, 1]</text>
</g>
<!-- 29&#45;&gt;30 -->
<g id="edge30" class="edge">
<title>29&#45;&gt;30</title>
<path fill="none" stroke="#000000" d="M663.2166,-504.9465C656.2634,-493.8215 648.5295,-481.4473 641.5231,-470.237"/>
<polygon fill="#000000" stroke="#000000" points="644.3569,-468.1671 636.0889,-461.5422 638.4209,-471.8772 644.3569,-468.1671"/>
</g>
<!-- 31 -->
<g id="node32" class="node">
<title>31</title>
<polygon fill="none" stroke="#000000" points="798,-469 687,-469 687,-401 798,-401 798,-469"/>
<text text-anchor="middle" x="742.5" y="-453.8" font-family="Helvetica,sans-Serif" font-size="14.00" fill="#000000">X[2] &lt;= 10.543</text>
<text text-anchor="middle" x="742.5" y="-438.8" font-family="Helvetica,sans-Serif" font-size="14.00" fill="#000000">gini = 0.278</text>
<text text-anchor="middle" x="742.5" y="-423.8" font-family="Helvetica,sans-Serif" font-size="14.00" fill="#000000">samples = 6</text>
<text text-anchor="middle" x="742.5" y="-408.8" font-family="Helvetica,sans-Serif" font-size="14.00" fill="#000000">value = [5, 1]</text>
</g>
<!-- 29&#45;&gt;31 -->
<g id="edge31" class="edge">
<title>29&#45;&gt;31</title>
<path fill="none" stroke="#000000" d="M703.4914,-504.9465C708.2983,-496.3271 713.5235,-486.9579 718.5409,-477.9611"/>
<polygon fill="#000000" stroke="#000000" points="721.652,-479.5684 723.466,-469.13 715.5385,-476.1589 721.652,-479.5684"/>
</g>
<!-- 32 -->
<g id="node33" class="node">
<title>32</title>
<polygon fill="none" stroke="#000000" points="792,-357.5 693,-357.5 693,-304.5 792,-304.5 792,-357.5"/>
<text text-anchor="middle" x="742.5" y="-342.3" font-family="Helvetica,sans-Serif" font-size="14.00" fill="#000000">gini = 0.0</text>
<text text-anchor="middle" x="742.5" y="-327.3" font-family="Helvetica,sans-Serif" font-size="14.00" fill="#000000">samples = 5</text>
<text text-anchor="middle" x="742.5" y="-312.3" font-family="Helvetica,sans-Serif" font-size="14.00" fill="#000000">value = [5, 0]</text>
</g>
<!-- 31&#45;&gt;32 -->
<g id="edge32" class="edge">
<title>31&#45;&gt;32</title>
<path fill="none" stroke="#000000" d="M742.5,-400.9465C742.5,-390.2621 742.5,-378.4254 742.5,-367.5742"/>
<polygon fill="#000000" stroke="#000000" points="746.0001,-367.5421 742.5,-357.5422 739.0001,-367.5422 746.0001,-367.5421"/>
</g>
<!-- 33 -->
<g id="node34" class="node">
<title>33</title>
<polygon fill="none" stroke="#000000" points="909,-357.5 810,-357.5 810,-304.5 909,-304.5 909,-357.5"/>
<text text-anchor="middle" x="859.5" y="-342.3" font-family="Helvetica,sans-Serif" font-size="14.00" fill="#000000">gini = 0.0</text>
<text text-anchor="middle" x="859.5" y="-327.3" font-family="Helvetica,sans-Serif" font-size="14.00" fill="#000000">samples = 1</text>
<text text-anchor="middle" x="859.5" y="-312.3" font-family="Helvetica,sans-Serif" font-size="14.00" fill="#000000">value = [0, 1]</text>
</g>
<!-- 31&#45;&gt;33 -->
<g id="edge33" class="edge">
<title>31&#45;&gt;33</title>
<path fill="none" stroke="#000000" d="M780.8102,-400.9465C794.0694,-389.1606 808.9058,-375.9726 822.0916,-364.2519"/>
<polygon fill="#000000" stroke="#000000" points="824.4912,-366.8018 829.6401,-357.5422 819.8407,-361.5699 824.4912,-366.8018"/>
</g>
<!-- 35 -->
<g id="node36" class="node">
<title>35</title>
<polygon fill="none" stroke="#000000" points="915,-461.5 816,-461.5 816,-408.5 915,-408.5 915,-461.5"/>
<text text-anchor="middle" x="865.5" y="-446.3" font-family="Helvetica,sans-Serif" font-size="14.00" fill="#000000">gini = 0.0</text>
<text text-anchor="middle" x="865.5" y="-431.3" font-family="Helvetica,sans-Serif" font-size="14.00" fill="#000000">samples = 1</text>
<text text-anchor="middle" x="865.5" y="-416.3" font-family="Helvetica,sans-Serif" font-size="14.00" fill="#000000">value = [1, 0]</text>
</g>
<!-- 34&#45;&gt;35 -->
<g id="edge35" class="edge">
<title>34&#45;&gt;35</title>
<path fill="none" stroke="#000000" d="M865.5,-504.9465C865.5,-494.2621 865.5,-482.4254 865.5,-471.5742"/>
<polygon fill="#000000" stroke="#000000" points="869.0001,-471.5421 865.5,-461.5422 862.0001,-471.5422 869.0001,-471.5421"/>
</g>
<!-- 36 -->
<g id="node37" class="node">
<title>36</title>
<polygon fill="none" stroke="#000000" points="1040,-469 933,-469 933,-401 1040,-401 1040,-469"/>
<text text-anchor="middle" x="986.5" y="-453.8" font-family="Helvetica,sans-Serif" font-size="14.00" fill="#000000">X[2] &lt;= 5.177</text>
<text text-anchor="middle" x="986.5" y="-438.8" font-family="Helvetica,sans-Serif" font-size="14.00" fill="#000000">gini = 0.083</text>
<text text-anchor="middle" x="986.5" y="-423.8" font-family="Helvetica,sans-Serif" font-size="14.00" fill="#000000">samples = 23</text>
<text text-anchor="middle" x="986.5" y="-408.8" font-family="Helvetica,sans-Serif" font-size="14.00" fill="#000000">value = [1, 22]</text>
</g>
<!-- 34&#45;&gt;36 -->
<g id="edge36" class="edge">
<title>34&#45;&gt;36</title>
<path fill="none" stroke="#000000" d="M905.1199,-504.9465C915.984,-495.6088 927.8718,-485.3911 939.1235,-475.7203"/>
<polygon fill="#000000" stroke="#000000" points="941.4887,-478.3026 946.7911,-469.13 936.9259,-472.994 941.4887,-478.3026"/>
</g>
<!-- 37 -->
<g id="node38" class="node">
<title>37</title>
<polygon fill="none" stroke="#000000" points="1037,-365 930,-365 930,-297 1037,-297 1037,-365"/>
<text text-anchor="middle" x="983.5" y="-349.8" font-family="Helvetica,sans-Serif" font-size="14.00" fill="#000000">X[5] &lt;= &#45;10.81</text>
<text text-anchor="middle" x="983.5" y="-334.8" font-family="Helvetica,sans-Serif" font-size="14.00" fill="#000000">gini = 0.32</text>
<text text-anchor="middle" x="983.5" y="-319.8" font-family="Helvetica,sans-Serif" font-size="14.00" fill="#000000">samples = 5</text>
<text text-anchor="middle" x="983.5" y="-304.8" font-family="Helvetica,sans-Serif" font-size="14.00" fill="#000000">value = [1, 4]</text>
</g>
<!-- 36&#45;&gt;37 -->
<g id="edge37" class="edge">
<title>36&#45;&gt;37</title>
<path fill="none" stroke="#000000" d="M985.5177,-400.9465C985.282,-392.776 985.0269,-383.9318 984.7799,-375.3697"/>
<polygon fill="#000000" stroke="#000000" points="988.2715,-375.0249 984.4845,-365.13 981.2744,-375.2268 988.2715,-375.0249"/>
</g>
<!-- 40 -->
<g id="node41" class="node">
<title>40</title>
<polygon fill="none" stroke="#000000" points="1162,-357.5 1055,-357.5 1055,-304.5 1162,-304.5 1162,-357.5"/>
<text text-anchor="middle" x="1108.5" y="-342.3" font-family="Helvetica,sans-Serif" font-size="14.00" fill="#000000">gini = 0.0</text>
<text text-anchor="middle" x="1108.5" y="-327.3" font-family="Helvetica,sans-Serif" font-size="14.00" fill="#000000">samples = 18</text>
<text text-anchor="middle" x="1108.5" y="-312.3" font-family="Helvetica,sans-Serif" font-size="14.00" fill="#000000">value = [0, 18]</text>
</g>
<!-- 36&#45;&gt;40 -->
<g id="edge40" class="edge">
<title>36&#45;&gt;40</title>
<path fill="none" stroke="#000000" d="M1026.4474,-400.9465C1040.2732,-389.1606 1055.7436,-375.9726 1069.4929,-364.2519"/>
<polygon fill="#000000" stroke="#000000" points="1072.0244,-366.6931 1077.364,-357.5422 1067.4832,-361.366 1072.0244,-366.6931"/>
</g>
<!-- 38 -->
<g id="node39" class="node">
<title>38</title>
<polygon fill="none" stroke="#000000" points="978,-253.5 879,-253.5 879,-200.5 978,-200.5 978,-253.5"/>
<text text-anchor="middle" x="928.5" y="-238.3" font-family="Helvetica,sans-Serif" font-size="14.00" fill="#000000">gini = 0.0</text>
<text text-anchor="middle" x="928.5" y="-223.3" font-family="Helvetica,sans-Serif" font-size="14.00" fill="#000000">samples = 4</text>
<text text-anchor="middle" x="928.5" y="-208.3" font-family="Helvetica,sans-Serif" font-size="14.00" fill="#000000">value = [0, 4]</text>
</g>
<!-- 37&#45;&gt;38 -->
<g id="edge38" class="edge">
<title>37&#45;&gt;38</title>
<path fill="none" stroke="#000000" d="M965.4909,-296.9465C959.6658,-285.9316 953.193,-273.6922 947.3112,-262.5703"/>
<polygon fill="#000000" stroke="#000000" points="950.3057,-260.7459 942.5367,-253.5422 944.1178,-264.0184 950.3057,-260.7459"/>
</g>
<!-- 39 -->
<g id="node40" class="node">
<title>39</title>
<polygon fill="none" stroke="#000000" points="1095,-253.5 996,-253.5 996,-200.5 1095,-200.5 1095,-253.5"/>
<text text-anchor="middle" x="1045.5" y="-238.3" font-family="Helvetica,sans-Serif" font-size="14.00" fill="#000000">gini = 0.0</text>
<text text-anchor="middle" x="1045.5" y="-223.3" font-family="Helvetica,sans-Serif" font-size="14.00" fill="#000000">samples = 1</text>
<text text-anchor="middle" x="1045.5" y="-208.3" font-family="Helvetica,sans-Serif" font-size="14.00" fill="#000000">value = [1, 0]</text>
</g>
<!-- 37&#45;&gt;39 -->
<g id="edge39" class="edge">
<title>37&#45;&gt;39</title>
<path fill="none" stroke="#000000" d="M1003.8011,-296.9465C1010.4334,-285.8215 1017.8103,-273.4473 1024.4933,-262.237"/>
<polygon fill="#000000" stroke="#000000" points="1027.5624,-263.9239 1029.6768,-253.5422 1021.5498,-260.3394 1027.5624,-263.9239"/>
</g>
</g>
</svg>
