<?xml version="1.0" encoding="UTF-8" standalone="no"?>
<!DOCTYPE svg PUBLIC "-//W3C//DTD SVG 1.1//EN"
 "http://www.w3.org/Graphics/SVG/1.1/DTD/svg11.dtd">
<!-- Generated by graphviz version 2.40.1 (20161225.0304)
 -->
<!-- Title: Tree Pages: 1 -->
<svg width="1263pt" height="1205pt"
 viewBox="0.00 0.00 1263.00 1205.00" xmlns="http://www.w3.org/2000/svg" xmlns:xlink="http://www.w3.org/1999/xlink">
<g id="graph0" class="graph" transform="scale(1 1) rotate(0) translate(4 1201)">
<title>Tree</title>
<polygon fill="#ffffff" stroke="transparent" points="-4,4 -4,-1201 1259,-1201 1259,4 -4,4"/>
<!-- 0 -->
<g id="node1" class="node">
<title>0</title>
<polygon fill="none" stroke="#000000" points="841.5,-1197 725.5,-1197 725.5,-1129 841.5,-1129 841.5,-1197"/>
<text text-anchor="middle" x="783.5" y="-1181.8" font-family="Helvetica,sans-Serif" font-size="14.00" fill="#000000">X[0] &lt;= 8.692</text>
<text text-anchor="middle" x="783.5" y="-1166.8" font-family="Helvetica,sans-Serif" font-size="14.00" fill="#000000">gini = 0.491</text>
<text text-anchor="middle" x="783.5" y="-1151.8" font-family="Helvetica,sans-Serif" font-size="14.00" fill="#000000">samples = 81</text>
<text text-anchor="middle" x="783.5" y="-1136.8" font-family="Helvetica,sans-Serif" font-size="14.00" fill="#000000">value = [35, 46]</text>
</g>
<!-- 1 -->
<g id="node2" class="node">
<title>1</title>
<polygon fill="none" stroke="#000000" points="774.5,-1093 658.5,-1093 658.5,-1025 774.5,-1025 774.5,-1093"/>
<text text-anchor="middle" x="716.5" y="-1077.8" font-family="Helvetica,sans-Serif" font-size="14.00" fill="#000000">X[1] &lt;= 7.933</text>
<text text-anchor="middle" x="716.5" y="-1062.8" font-family="Helvetica,sans-Serif" font-size="14.00" fill="#000000">gini = 0.495</text>
<text text-anchor="middle" x="716.5" y="-1047.8" font-family="Helvetica,sans-Serif" font-size="14.00" fill="#000000">samples = 51</text>
<text text-anchor="middle" x="716.5" y="-1032.8" font-family="Helvetica,sans-Serif" font-size="14.00" fill="#000000">value = [28, 23]</text>
</g>
<!-- 0&#45;&gt;1 -->
<g id="edge1" class="edge">
<title>0&#45;&gt;1</title>
<path fill="none" stroke="#000000" d="M761.5617,-1128.9465C755.951,-1120.2373 749.8471,-1110.7626 743.9958,-1101.6801"/>
<polygon fill="#000000" stroke="#000000" points="746.8457,-1099.641 738.4876,-1093.13 740.9611,-1103.4321 746.8457,-1099.641"/>
<text text-anchor="middle" x="733.2006" y="-1113.8646" font-family="Helvetica,sans-Serif" font-size="14.00" fill="#000000">True</text>
</g>
<!-- 34 -->
<g id="node35" class="node">
<title>34</title>
<polygon fill="none" stroke="#000000" points="957.5,-1093 841.5,-1093 841.5,-1025 957.5,-1025 957.5,-1093"/>
<text text-anchor="middle" x="899.5" y="-1077.8" font-family="Helvetica,sans-Serif" font-size="14.00" fill="#000000">X[6] &lt;= &#45;34.049</text>
<text text-anchor="middle" x="899.5" y="-1062.8" font-family="Helvetica,sans-Serif" font-size="14.00" fill="#000000">gini = 0.358</text>
<text text-anchor="middle" x="899.5" y="-1047.8" font-family="Helvetica,sans-Serif" font-size="14.00" fill="#000000">samples = 30</text>
<text text-anchor="middle" x="899.5" y="-1032.8" font-family="Helvetica,sans-Serif" font-size="14.00" fill="#000000">value = [7, 23]</text>
</g>
<!-- 0&#45;&gt;34 -->
<g id="edge34" class="edge">
<title>0&#45;&gt;34</title>
<path fill="none" stroke="#000000" d="M821.4827,-1128.9465C831.7977,-1119.6986 843.0754,-1109.5876 853.7699,-1099.9994"/>
<polygon fill="#000000" stroke="#000000" points="856.3226,-1102.4115 861.4319,-1093.13 851.6498,-1097.1995 856.3226,-1102.4115"/>
<text text-anchor="middle" x="860.0703" y="-1114.3929" font-family="Helvetica,sans-Serif" font-size="14.00" fill="#000000">False</text>
</g>
<!-- 2 -->
<g id="node3" class="node">
<title>2</title>
<polygon fill="none" stroke="#000000" points="640,-981.5 541,-981.5 541,-928.5 640,-928.5 640,-981.5"/>
<text text-anchor="middle" x="590.5" y="-966.3" font-family="Helvetica,sans-Serif" font-size="14.00" fill="#000000">gini = 0.0</text>
<text text-anchor="middle" x="590.5" y="-951.3" font-family="Helvetica,sans-Serif" font-size="14.00" fill="#000000">samples = 5</text>
<text text-anchor="middle" x="590.5" y="-936.3" font-family="Helvetica,sans-Serif" font-size="14.00" fill="#000000">value = [5, 0]</text>
</g>
<!-- 1&#45;&gt;2 -->
<g id="edge2" class="edge">
<title>1&#45;&gt;2</title>
<path fill="none" stroke="#000000" d="M675.2429,-1024.9465C660.8303,-1013.0504 644.6873,-999.726 630.3883,-987.9237"/>
<polygon fill="#000000" stroke="#000000" points="632.5971,-985.2086 622.6569,-981.5422 628.1411,-990.6071 632.5971,-985.2086"/>
</g>
<!-- 3 -->
<g id="node4" class="node">
<title>3</title>
<polygon fill="none" stroke="#000000" points="774.5,-989 658.5,-989 658.5,-921 774.5,-921 774.5,-989"/>
<text text-anchor="middle" x="716.5" y="-973.8" font-family="Helvetica,sans-Serif" font-size="14.00" fill="#000000">X[6] &lt;= &#45;8.772</text>
<text text-anchor="middle" x="716.5" y="-958.8" font-family="Helvetica,sans-Serif" font-size="14.00" fill="#000000">gini = 0.5</text>
<text text-anchor="middle" x="716.5" y="-943.8" font-family="Helvetica,sans-Serif" font-size="14.00" fill="#000000">samples = 46</text>
<text text-anchor="middle" x="716.5" y="-928.8" font-family="Helvetica,sans-Serif" font-size="14.00" fill="#000000">value = [23, 23]</text>
</g>
<!-- 1&#45;&gt;3 -->
<g id="edge3" class="edge">
<title>1&#45;&gt;3</title>
<path fill="none" stroke="#000000" d="M716.5,-1024.9465C716.5,-1016.776 716.5,-1007.9318 716.5,-999.3697"/>
<polygon fill="#000000" stroke="#000000" points="720.0001,-999.13 716.5,-989.13 713.0001,-999.13 720.0001,-999.13"/>
</g>
<!-- 4 -->
<g id="node5" class="node">
<title>4</title>
<polygon fill="none" stroke="#000000" points="533.5,-885 417.5,-885 417.5,-817 533.5,-817 533.5,-885"/>
<text text-anchor="middle" x="475.5" y="-869.8" font-family="Helvetica,sans-Serif" font-size="14.00" fill="#000000">X[0] &lt;= 2.704</text>
<text text-anchor="middle" x="475.5" y="-854.8" font-family="Helvetica,sans-Serif" font-size="14.00" fill="#000000">gini = 0.482</text>
<text text-anchor="middle" x="475.5" y="-839.8" font-family="Helvetica,sans-Serif" font-size="14.00" fill="#000000">samples = 32</text>
<text text-anchor="middle" x="475.5" y="-824.8" font-family="Helvetica,sans-Serif" font-size="14.00" fill="#000000">value = [19, 13]</text>
</g>
<!-- 3&#45;&gt;4 -->
<g id="edge4" class="edge">
<title>3&#45;&gt;4</title>
<path fill="none" stroke="#000000" d="M658.4068,-925.5749C655.0674,-924.0016 651.7481,-922.4664 648.5,-921 614.0972,-905.4685 575.1787,-889.5764 542.9792,-876.8684"/>
<polygon fill="#000000" stroke="#000000" points="544.2381,-873.6026 533.6509,-873.2015 541.6772,-880.1174 544.2381,-873.6026"/>
</g>
<!-- 23 -->
<g id="node24" class="node">
<title>23</title>
<polygon fill="none" stroke="#000000" points="770,-885 663,-885 663,-817 770,-817 770,-885"/>
<text text-anchor="middle" x="716.5" y="-869.8" font-family="Helvetica,sans-Serif" font-size="14.00" fill="#000000">X[0] &lt;= 3.354</text>
<text text-anchor="middle" x="716.5" y="-854.8" font-family="Helvetica,sans-Serif" font-size="14.00" fill="#000000">gini = 0.408</text>
<text text-anchor="middle" x="716.5" y="-839.8" font-family="Helvetica,sans-Serif" font-size="14.00" fill="#000000">samples = 14</text>
<text text-anchor="middle" x="716.5" y="-824.8" font-family="Helvetica,sans-Serif" font-size="14.00" fill="#000000">value = [4, 10]</text>
</g>
<!-- 3&#45;&gt;23 -->
<g id="edge23" class="edge">
<title>3&#45;&gt;23</title>
<path fill="none" stroke="#000000" d="M716.5,-920.9465C716.5,-912.776 716.5,-903.9318 716.5,-895.3697"/>
<polygon fill="#000000" stroke="#000000" points="720.0001,-895.13 716.5,-885.13 713.0001,-895.13 720.0001,-895.13"/>
</g>
<!-- 5 -->
<g id="node6" class="node">
<title>5</title>
<polygon fill="none" stroke="#000000" points="399,-773.5 300,-773.5 300,-720.5 399,-720.5 399,-773.5"/>
<text text-anchor="middle" x="349.5" y="-758.3" font-family="Helvetica,sans-Serif" font-size="14.00" fill="#000000">gini = 0.0</text>
<text text-anchor="middle" x="349.5" y="-743.3" font-family="Helvetica,sans-Serif" font-size="14.00" fill="#000000">samples = 2</text>
<text text-anchor="middle" x="349.5" y="-728.3" font-family="Helvetica,sans-Serif" font-size="14.00" fill="#000000">value = [0, 2]</text>
</g>
<!-- 4&#45;&gt;5 -->
<g id="edge5" class="edge">
<title>4&#45;&gt;5</title>
<path fill="none" stroke="#000000" d="M434.2429,-816.9465C419.8303,-805.0504 403.6873,-791.726 389.3883,-779.9237"/>
<polygon fill="#000000" stroke="#000000" points="391.5971,-777.2086 381.6569,-773.5422 387.1411,-782.6071 391.5971,-777.2086"/>
</g>
<!-- 6 -->
<g id="node7" class="node">
<title>6</title>
<polygon fill="none" stroke="#000000" points="533.5,-781 417.5,-781 417.5,-713 533.5,-713 533.5,-781"/>
<text text-anchor="middle" x="475.5" y="-765.8" font-family="Helvetica,sans-Serif" font-size="14.00" fill="#000000">X[1] &lt;= 17.499</text>
<text text-anchor="middle" x="475.5" y="-750.8" font-family="Helvetica,sans-Serif" font-size="14.00" fill="#000000">gini = 0.464</text>
<text text-anchor="middle" x="475.5" y="-735.8" font-family="Helvetica,sans-Serif" font-size="14.00" fill="#000000">samples = 30</text>
<text text-anchor="middle" x="475.5" y="-720.8" font-family="Helvetica,sans-Serif" font-size="14.00" fill="#000000">value = [19, 11]</text>
</g>
<!-- 4&#45;&gt;6 -->
<g id="edge6" class="edge">
<title>4&#45;&gt;6</title>
<path fill="none" stroke="#000000" d="M475.5,-816.9465C475.5,-808.776 475.5,-799.9318 475.5,-791.3697"/>
<polygon fill="#000000" stroke="#000000" points="479.0001,-791.13 475.5,-781.13 472.0001,-791.13 479.0001,-791.13"/>
</g>
<!-- 7 -->
<g id="node8" class="node">
<title>7</title>
<polygon fill="none" stroke="#000000" points="399,-669.5 300,-669.5 300,-616.5 399,-616.5 399,-669.5"/>
<text text-anchor="middle" x="349.5" y="-654.3" font-family="Helvetica,sans-Serif" font-size="14.00" fill="#000000">gini = 0.0</text>
<text text-anchor="middle" x="349.5" y="-639.3" font-family="Helvetica,sans-Serif" font-size="14.00" fill="#000000">samples = 5</text>
<text text-anchor="middle" x="349.5" y="-624.3" font-family="Helvetica,sans-Serif" font-size="14.00" fill="#000000">value = [5, 0]</text>
</g>
<!-- 6&#45;&gt;7 -->
<g id="edge7" class="edge">
<title>6&#45;&gt;7</title>
<path fill="none" stroke="#000000" d="M434.2429,-712.9465C419.8303,-701.0504 403.6873,-687.726 389.3883,-675.9237"/>
<polygon fill="#000000" stroke="#000000" points="391.5971,-673.2086 381.6569,-669.5422 387.1411,-678.6071 391.5971,-673.2086"/>
</g>
<!-- 8 -->
<g id="node9" class="node">
<title>8</title>
<polygon fill="none" stroke="#000000" points="533.5,-677 417.5,-677 417.5,-609 533.5,-609 533.5,-677"/>
<text text-anchor="middle" x="475.5" y="-661.8" font-family="Helvetica,sans-Serif" font-size="14.00" fill="#000000">X[2] &lt;= 9.104</text>
<text text-anchor="middle" x="475.5" y="-646.8" font-family="Helvetica,sans-Serif" font-size="14.00" fill="#000000">gini = 0.493</text>
<text text-anchor="middle" x="475.5" y="-631.8" font-family="Helvetica,sans-Serif" font-size="14.00" fill="#000000">samples = 25</text>
<text text-anchor="middle" x="475.5" y="-616.8" font-family="Helvetica,sans-Serif" font-size="14.00" fill="#000000">value = [14, 11]</text>
</g>
<!-- 6&#45;&gt;8 -->
<g id="edge8" class="edge">
<title>6&#45;&gt;8</title>
<path fill="none" stroke="#000000" d="M475.5,-712.9465C475.5,-704.776 475.5,-695.9318 475.5,-687.3697"/>
<polygon fill="#000000" stroke="#000000" points="479.0001,-687.13 475.5,-677.13 472.0001,-687.13 479.0001,-687.13"/>
</g>
<!-- 9 -->
<g id="node10" class="node">
<title>9</title>
<polygon fill="none" stroke="#000000" points="406,-573 299,-573 299,-505 406,-505 406,-573"/>
<text text-anchor="middle" x="352.5" y="-557.8" font-family="Helvetica,sans-Serif" font-size="14.00" fill="#000000">X[8] &lt;= &#45;14.59</text>
<text text-anchor="middle" x="352.5" y="-542.8" font-family="Helvetica,sans-Serif" font-size="14.00" fill="#000000">gini = 0.375</text>
<text text-anchor="middle" x="352.5" y="-527.8" font-family="Helvetica,sans-Serif" font-size="14.00" fill="#000000">samples = 16</text>
<text text-anchor="middle" x="352.5" y="-512.8" font-family="Helvetica,sans-Serif" font-size="14.00" fill="#000000">value = [12, 4]</text>
</g>
<!-- 8&#45;&gt;9 -->
<g id="edge9" class="edge">
<title>8&#45;&gt;9</title>
<path fill="none" stroke="#000000" d="M435.2252,-608.9465C424.1816,-599.6088 412.0972,-589.3911 400.6596,-579.7203"/>
<polygon fill="#000000" stroke="#000000" points="402.7614,-576.914 392.8653,-573.13 398.2417,-582.2594 402.7614,-576.914"/>
</g>
<!-- 20 -->
<g id="node21" class="node">
<title>20</title>
<polygon fill="none" stroke="#000000" points="535,-573 424,-573 424,-505 535,-505 535,-573"/>
<text text-anchor="middle" x="479.5" y="-557.8" font-family="Helvetica,sans-Serif" font-size="14.00" fill="#000000">X[7] &lt;= 13.097</text>
<text text-anchor="middle" x="479.5" y="-542.8" font-family="Helvetica,sans-Serif" font-size="14.00" fill="#000000">gini = 0.346</text>
<text text-anchor="middle" x="479.5" y="-527.8" font-family="Helvetica,sans-Serif" font-size="14.00" fill="#000000">samples = 9</text>
<text text-anchor="middle" x="479.5" y="-512.8" font-family="Helvetica,sans-Serif" font-size="14.00" fill="#000000">value = [2, 7]</text>
</g>
<!-- 8&#45;&gt;20 -->
<g id="edge20" class="edge">
<title>8&#45;&gt;20</title>
<path fill="none" stroke="#000000" d="M476.8097,-608.9465C477.124,-600.776 477.4642,-591.9318 477.7935,-583.3697"/>
<polygon fill="#000000" stroke="#000000" points="481.3003,-583.2572 478.1873,-573.13 474.3055,-582.9881 481.3003,-583.2572"/>
</g>
<!-- 10 -->
<g id="node11" class="node">
<title>10</title>
<polygon fill="none" stroke="#000000" points="288,-469 177,-469 177,-401 288,-401 288,-469"/>
<text text-anchor="middle" x="232.5" y="-453.8" font-family="Helvetica,sans-Serif" font-size="14.00" fill="#000000">X[3] &lt;= 16.068</text>
<text text-anchor="middle" x="232.5" y="-438.8" font-family="Helvetica,sans-Serif" font-size="14.00" fill="#000000">gini = 0.32</text>
<text text-anchor="middle" x="232.5" y="-423.8" font-family="Helvetica,sans-Serif" font-size="14.00" fill="#000000">samples = 15</text>
<text text-anchor="middle" x="232.5" y="-408.8" font-family="Helvetica,sans-Serif" font-size="14.00" fill="#000000">value = [12, 3]</text>
</g>
<!-- 9&#45;&gt;10 -->
<g id="edge10" class="edge">
<title>9&#45;&gt;10</title>
<path fill="none" stroke="#000000" d="M313.2075,-504.9465C302.4333,-495.6088 290.6436,-485.3911 279.485,-475.7203"/>
<polygon fill="#000000" stroke="#000000" points="281.7299,-473.0344 271.8808,-469.13 277.1454,-478.3243 281.7299,-473.0344"/>
</g>
<!-- 19 -->
<g id="node20" class="node">
<title>19</title>
<polygon fill="none" stroke="#000000" points="405,-461.5 306,-461.5 306,-408.5 405,-408.5 405,-461.5"/>
<text text-anchor="middle" x="355.5" y="-446.3" font-family="Helvetica,sans-Serif" font-size="14.00" fill="#000000">gini = 0.0</text>
<text text-anchor="middle" x="355.5" y="-431.3" font-family="Helvetica,sans-Serif" font-size="14.00" fill="#000000">samples = 1</text>
<text text-anchor="middle" x="355.5" y="-416.3" font-family="Helvetica,sans-Serif" font-size="14.00" fill="#000000">value = [0, 1]</text>
</g>
<!-- 9&#45;&gt;19 -->
<g id="edge19" class="edge">
<title>9&#45;&gt;19</title>
<path fill="none" stroke="#000000" d="M353.4823,-504.9465C353.7905,-494.2621 354.132,-482.4254 354.445,-471.5742"/>
<polygon fill="#000000" stroke="#000000" points="357.9445,-471.639 354.7344,-461.5422 350.9474,-471.4371 357.9445,-471.639"/>
</g>
<!-- 11 -->
<g id="node12" class="node">
<title>11</title>
<polygon fill="none" stroke="#000000" points="227,-365 116,-365 116,-297 227,-297 227,-365"/>
<text text-anchor="middle" x="171.5" y="-349.8" font-family="Helvetica,sans-Serif" font-size="14.00" fill="#000000">X[3] &lt;= 12.966</text>
<text text-anchor="middle" x="171.5" y="-334.8" font-family="Helvetica,sans-Serif" font-size="14.00" fill="#000000">gini = 0.444</text>
<text text-anchor="middle" x="171.5" y="-319.8" font-family="Helvetica,sans-Serif" font-size="14.00" fill="#000000">samples = 9</text>
<text text-anchor="middle" x="171.5" y="-304.8" font-family="Helvetica,sans-Serif" font-size="14.00" fill="#000000">value = [6, 3]</text>
</g>
<!-- 10&#45;&gt;11 -->
<g id="edge11" class="edge">
<title>10&#45;&gt;11</title>
<path fill="none" stroke="#000000" d="M212.5263,-400.9465C207.4707,-392.3271 201.9753,-382.9579 196.6983,-373.9611"/>
<polygon fill="#000000" stroke="#000000" points="199.5969,-371.985 191.5186,-365.13 193.5589,-375.5265 199.5969,-371.985"/>
</g>
<!-- 18 -->
<g id="node19" class="node">
<title>18</title>
<polygon fill="none" stroke="#000000" points="344,-357.5 245,-357.5 245,-304.5 344,-304.5 344,-357.5"/>
<text text-anchor="middle" x="294.5" y="-342.3" font-family="Helvetica,sans-Serif" font-size="14.00" fill="#000000">gini = 0.0</text>
<text text-anchor="middle" x="294.5" y="-327.3" font-family="Helvetica,sans-Serif" font-size="14.00" fill="#000000">samples = 6</text>
<text text-anchor="middle" x="294.5" y="-312.3" font-family="Helvetica,sans-Serif" font-size="14.00" fill="#000000">value = [6, 0]</text>
</g>
<!-- 10&#45;&gt;18 -->
<g id="edge18" class="edge">
<title>10&#45;&gt;18</title>
<path fill="none" stroke="#000000" d="M252.8011,-400.9465C259.4334,-389.8215 266.8103,-377.4473 273.4933,-366.237"/>
<polygon fill="#000000" stroke="#000000" points="276.5624,-367.9239 278.6768,-357.5422 270.5498,-364.3394 276.5624,-367.9239"/>
</g>
<!-- 12 -->
<g id="node13" class="node">
<title>12</title>
<polygon fill="none" stroke="#000000" points="166,-261 55,-261 55,-193 166,-193 166,-261"/>
<text text-anchor="middle" x="110.5" y="-245.8" font-family="Helvetica,sans-Serif" font-size="14.00" fill="#000000">X[1] &lt;= 40.693</text>
<text text-anchor="middle" x="110.5" y="-230.8" font-family="Helvetica,sans-Serif" font-size="14.00" fill="#000000">gini = 0.245</text>
<text text-anchor="middle" x="110.5" y="-215.8" font-family="Helvetica,sans-Serif" font-size="14.00" fill="#000000">samples = 7</text>
<text text-anchor="middle" x="110.5" y="-200.8" font-family="Helvetica,sans-Serif" font-size="14.00" fill="#000000">value = [6, 1]</text>
</g>
<!-- 11&#45;&gt;12 -->
<g id="edge12" class="edge">
<title>11&#45;&gt;12</title>
<path fill="none" stroke="#000000" d="M151.5263,-296.9465C146.4707,-288.3271 140.9753,-278.9579 135.6983,-269.9611"/>
<polygon fill="#000000" stroke="#000000" points="138.5969,-267.985 130.5186,-261.13 132.5589,-271.5265 138.5969,-267.985"/>
</g>
<!-- 17 -->
<g id="node18" class="node">
<title>17</title>
<polygon fill="none" stroke="#000000" points="283,-253.5 184,-253.5 184,-200.5 283,-200.5 283,-253.5"/>
<text text-anchor="middle" x="233.5" y="-238.3" font-family="Helvetica,sans-Serif" font-size="14.00" fill="#000000">gini = 0.0</text>
<text text-anchor="middle" x="233.5" y="-223.3" font-family="Helvetica,sans-Serif" font-size="14.00" fill="#000000">samples = 2</text>
<text text-anchor="middle" x="233.5" y="-208.3" font-family="Helvetica,sans-Serif" font-size="14.00" fill="#000000">value = [0, 2]</text>
</g>
<!-- 11&#45;&gt;17 -->
<g id="edge17" class="edge">
<title>11&#45;&gt;17</title>
<path fill="none" stroke="#000000" d="M191.8011,-296.9465C198.4334,-285.8215 205.8103,-273.4473 212.4933,-262.237"/>
<polygon fill="#000000" stroke="#000000" points="215.5624,-263.9239 217.6768,-253.5422 209.5498,-260.3394 215.5624,-263.9239"/>
</g>
<!-- 13 -->
<g id="node14" class="node">
<title>13</title>
<polygon fill="none" stroke="#000000" points="99,-149.5 0,-149.5 0,-96.5 99,-96.5 99,-149.5"/>
<text text-anchor="middle" x="49.5" y="-134.3" font-family="Helvetica,sans-Serif" font-size="14.00" fill="#000000">gini = 0.0</text>
<text text-anchor="middle" x="49.5" y="-119.3" font-family="Helvetica,sans-Serif" font-size="14.00" fill="#000000">samples = 4</text>
<text text-anchor="middle" x="49.5" y="-104.3" font-family="Helvetica,sans-Serif" font-size="14.00" fill="#000000">value = [4, 0]</text>
</g>
<!-- 12&#45;&gt;13 -->
<g id="edge13" class="edge">
<title>12&#45;&gt;13</title>
<path fill="none" stroke="#000000" d="M90.5263,-192.9465C84.001,-181.8215 76.7431,-169.4473 70.1678,-158.237"/>
<polygon fill="#000000" stroke="#000000" points="73.1464,-156.3971 65.068,-149.5422 67.1084,-159.9387 73.1464,-156.3971"/>
</g>
<!-- 14 -->
<g id="node15" class="node">
<title>14</title>
<polygon fill="none" stroke="#000000" points="228,-157 117,-157 117,-89 228,-89 228,-157"/>
<text text-anchor="middle" x="172.5" y="-141.8" font-family="Helvetica,sans-Serif" font-size="14.00" fill="#000000">X[1] &lt;= 48.954</text>
<text text-anchor="middle" x="172.5" y="-126.8" font-family="Helvetica,sans-Serif" font-size="14.00" fill="#000000">gini = 0.444</text>
<text text-anchor="middle" x="172.5" y="-111.8" font-family="Helvetica,sans-Serif" font-size="14.00" fill="#000000">samples = 3</text>
<text text-anchor="middle" x="172.5" y="-96.8" font-family="Helvetica,sans-Serif" font-size="14.00" fill="#000000">value = [2, 1]</text>
</g>
<!-- 12&#45;&gt;14 -->
<g id="edge14" class="edge">
<title>12&#45;&gt;14</title>
<path fill="none" stroke="#000000" d="M130.8011,-192.9465C135.9396,-184.3271 141.5251,-174.9579 146.8886,-165.9611"/>
<polygon fill="#000000" stroke="#000000" points="150.0389,-167.5117 152.1533,-157.13 144.0263,-163.9272 150.0389,-167.5117"/>
</g>
<!-- 15 -->
<g id="node16" class="node">
<title>15</title>
<polygon fill="none" stroke="#000000" points="163,-53 64,-53 64,0 163,0 163,-53"/>
<text text-anchor="middle" x="113.5" y="-37.8" font-family="Helvetica,sans-Serif" font-size="14.00" fill="#000000">gini = 0.0</text>
<text text-anchor="middle" x="113.5" y="-22.8" font-family="Helvetica,sans-Serif" font-size="14.00" fill="#000000">samples = 1</text>
<text text-anchor="middle" x="113.5" y="-7.8" font-family="Helvetica,sans-Serif" font-size="14.00" fill="#000000">value = [0, 1]</text>
</g>
<!-- 14&#45;&gt;15 -->
<g id="edge15" class="edge">
<title>14&#45;&gt;15</title>
<path fill="none" stroke="#000000" d="M151.6988,-88.9777C146.3242,-80.187 140.5265,-70.7044 135.1115,-61.8477"/>
<polygon fill="#000000" stroke="#000000" points="138.0564,-59.9545 129.854,-53.2485 132.0842,-63.6059 138.0564,-59.9545"/>
</g>
<!-- 16 -->
<g id="node17" class="node">
<title>16</title>
<polygon fill="none" stroke="#000000" points="280,-53 181,-53 181,0 280,0 280,-53"/>
<text text-anchor="middle" x="230.5" y="-37.8" font-family="Helvetica,sans-Serif" font-size="14.00" fill="#000000">gini = 0.0</text>
<text text-anchor="middle" x="230.5" y="-22.8" font-family="Helvetica,sans-Serif" font-size="14.00" fill="#000000">samples = 2</text>
<text text-anchor="middle" x="230.5" y="-7.8" font-family="Helvetica,sans-Serif" font-size="14.00" fill="#000000">value = [2, 0]</text>
</g>
<!-- 14&#45;&gt;16 -->
<g id="edge16" class="edge">
<title>14&#45;&gt;16</title>
<path fill="none" stroke="#000000" d="M192.9486,-88.9777C198.2322,-80.187 203.9316,-70.7044 209.2548,-61.8477"/>
<polygon fill="#000000" stroke="#000000" points="212.2715,-63.6225 214.4232,-53.2485 206.2718,-60.0165 212.2715,-63.6225"/>
</g>
<!-- 21 -->
<g id="node22" class="node">
<title>21</title>
<polygon fill="none" stroke="#000000" points="527,-461.5 428,-461.5 428,-408.5 527,-408.5 527,-461.5"/>
<text text-anchor="middle" x="477.5" y="-446.3" font-family="Helvetica,sans-Serif" font-size="14.00" fill="#000000">gini = 0.0</text>
<text text-anchor="middle" x="477.5" y="-431.3" font-family="Helvetica,sans-Serif" font-size="14.00" fill="#000000">samples = 7</text>
<text text-anchor="middle" x="477.5" y="-416.3" font-family="Helvetica,sans-Serif" font-size="14.00" fill="#000000">value = [0, 7]</text>
</g>
<!-- 20&#45;&gt;21 -->
<g id="edge21" class="edge">
<title>20&#45;&gt;21</title>
<path fill="none" stroke="#000000" d="M478.8451,-504.9465C478.6397,-494.2621 478.412,-482.4254 478.2034,-471.5742"/>
<polygon fill="#000000" stroke="#000000" points="481.7021,-471.473 478.0104,-461.5422 474.7034,-471.6076 481.7021,-471.473"/>
</g>
<!-- 22 -->
<g id="node23" class="node">
<title>22</title>
<polygon fill="none" stroke="#000000" points="644,-461.5 545,-461.5 545,-408.5 644,-408.5 644,-461.5"/>
<text text-anchor="middle" x="594.5" y="-446.3" font-family="Helvetica,sans-Serif" font-size="14.00" fill="#000000">gini = 0.0</text>
<text text-anchor="middle" x="594.5" y="-431.3" font-family="Helvetica,sans-Serif" font-size="14.00" fill="#000000">samples = 2</text>
<text text-anchor="middle" x="594.5" y="-416.3" font-family="Helvetica,sans-Serif" font-size="14.00" fill="#000000">value = [2, 0]</text>
</g>
<!-- 20&#45;&gt;22 -->
<g id="edge22" class="edge">
<title>20&#45;&gt;22</title>
<path fill="none" stroke="#000000" d="M517.1553,-504.9465C530.1878,-493.1606 544.7706,-479.9726 557.7311,-468.2519"/>
<polygon fill="#000000" stroke="#000000" points="560.0812,-470.8456 565.1505,-461.5422 555.386,-465.6537 560.0812,-470.8456"/>
</g>
<!-- 24 -->
<g id="node25" class="node">
<title>24</title>
<polygon fill="none" stroke="#000000" points="769,-781 662,-781 662,-713 769,-713 769,-781"/>
<text text-anchor="middle" x="715.5" y="-765.8" font-family="Helvetica,sans-Serif" font-size="14.00" fill="#000000">X[4] &lt;= &#45;5.503</text>
<text text-anchor="middle" x="715.5" y="-750.8" font-family="Helvetica,sans-Serif" font-size="14.00" fill="#000000">gini = 0.444</text>
<text text-anchor="middle" x="715.5" y="-735.8" font-family="Helvetica,sans-Serif" font-size="14.00" fill="#000000">samples = 3</text>
<text text-anchor="middle" x="715.5" y="-720.8" font-family="Helvetica,sans-Serif" font-size="14.00" fill="#000000">value = [2, 1]</text>
</g>
<!-- 23&#45;&gt;24 -->
<g id="edge24" class="edge">
<title>23&#45;&gt;24</title>
<path fill="none" stroke="#000000" d="M716.1726,-816.9465C716.094,-808.776 716.009,-799.9318 715.9266,-791.3697"/>
<polygon fill="#000000" stroke="#000000" points="719.4243,-791.0958 715.8282,-781.13 712.4246,-791.1632 719.4243,-791.0958"/>
</g>
<!-- 27 -->
<g id="node28" class="node">
<title>27</title>
<polygon fill="none" stroke="#000000" points="891.5,-781 787.5,-781 787.5,-713 891.5,-713 891.5,-781"/>
<text text-anchor="middle" x="839.5" y="-765.8" font-family="Helvetica,sans-Serif" font-size="14.00" fill="#000000">X[2] &lt;= 28.74</text>
<text text-anchor="middle" x="839.5" y="-750.8" font-family="Helvetica,sans-Serif" font-size="14.00" fill="#000000">gini = 0.298</text>
<text text-anchor="middle" x="839.5" y="-735.8" font-family="Helvetica,sans-Serif" font-size="14.00" fill="#000000">samples = 11</text>
<text text-anchor="middle" x="839.5" y="-720.8" font-family="Helvetica,sans-Serif" font-size="14.00" fill="#000000">value = [2, 9]</text>
</g>
<!-- 23&#45;&gt;27 -->
<g id="edge27" class="edge">
<title>23&#45;&gt;27</title>
<path fill="none" stroke="#000000" d="M756.7748,-816.9465C767.8184,-807.6088 779.9028,-797.3911 791.3404,-787.7203"/>
<polygon fill="#000000" stroke="#000000" points="793.7583,-790.2594 799.1347,-781.13 789.2386,-784.914 793.7583,-790.2594"/>
</g>
<!-- 25 -->
<g id="node26" class="node">
<title>25</title>
<polygon fill="none" stroke="#000000" points="651,-669.5 552,-669.5 552,-616.5 651,-616.5 651,-669.5"/>
<text text-anchor="middle" x="601.5" y="-654.3" font-family="Helvetica,sans-Serif" font-size="14.00" fill="#000000">gini = 0.0</text>
<text text-anchor="middle" x="601.5" y="-639.3" font-family="Helvetica,sans-Serif" font-size="14.00" fill="#000000">samples = 2</text>
<text text-anchor="middle" x="601.5" y="-624.3" font-family="Helvetica,sans-Serif" font-size="14.00" fill="#000000">value = [2, 0]</text>
</g>
<!-- 24&#45;&gt;25 -->
<g id="edge25" class="edge">
<title>24&#45;&gt;25</title>
<path fill="none" stroke="#000000" d="M678.1721,-712.9465C665.3737,-701.2707 651.067,-688.219 638.3099,-676.5809"/>
<polygon fill="#000000" stroke="#000000" points="640.3409,-673.6961 630.5943,-669.5422 635.6231,-678.8675 640.3409,-673.6961"/>
</g>
<!-- 26 -->
<g id="node27" class="node">
<title>26</title>
<polygon fill="none" stroke="#000000" points="768,-669.5 669,-669.5 669,-616.5 768,-616.5 768,-669.5"/>
<text text-anchor="middle" x="718.5" y="-654.3" font-family="Helvetica,sans-Serif" font-size="14.00" fill="#000000">gini = 0.0</text>
<text text-anchor="middle" x="718.5" y="-639.3" font-family="Helvetica,sans-Serif" font-size="14.00" fill="#000000">samples = 1</text>
<text text-anchor="middle" x="718.5" y="-624.3" font-family="Helvetica,sans-Serif" font-size="14.00" fill="#000000">value = [0, 1]</text>
</g>
<!-- 24&#45;&gt;26 -->
<g id="edge26" class="edge">
<title>24&#45;&gt;26</title>
<path fill="none" stroke="#000000" d="M716.4823,-712.9465C716.7905,-702.2621 717.132,-690.4254 717.445,-679.5742"/>
<polygon fill="#000000" stroke="#000000" points="720.9445,-679.639 717.7344,-669.5422 713.9474,-679.4371 720.9445,-679.639"/>
</g>
<!-- 28 -->
<g id="node29" class="node">
<title>28</title>
<polygon fill="none" stroke="#000000" points="893,-677 786,-677 786,-609 893,-609 893,-677"/>
<text text-anchor="middle" x="839.5" y="-661.8" font-family="Helvetica,sans-Serif" font-size="14.00" fill="#000000">X[9] &lt;= &#45;8.648</text>
<text text-anchor="middle" x="839.5" y="-646.8" font-family="Helvetica,sans-Serif" font-size="14.00" fill="#000000">gini = 0.18</text>
<text text-anchor="middle" x="839.5" y="-631.8" font-family="Helvetica,sans-Serif" font-size="14.00" fill="#000000">samples = 10</text>
<text text-anchor="middle" x="839.5" y="-616.8" font-family="Helvetica,sans-Serif" font-size="14.00" fill="#000000">value = [1, 9]</text>
</g>
<!-- 27&#45;&gt;28 -->
<g id="edge28" class="edge">
<title>27&#45;&gt;28</title>
<path fill="none" stroke="#000000" d="M839.5,-712.9465C839.5,-704.776 839.5,-695.9318 839.5,-687.3697"/>
<polygon fill="#000000" stroke="#000000" points="843.0001,-687.13 839.5,-677.13 836.0001,-687.13 843.0001,-687.13"/>
</g>
<!-- 33 -->
<g id="node34" class="node">
<title>33</title>
<polygon fill="none" stroke="#000000" points="1010,-669.5 911,-669.5 911,-616.5 1010,-616.5 1010,-669.5"/>
<text text-anchor="middle" x="960.5" y="-654.3" font-family="Helvetica,sans-Serif" font-size="14.00" fill="#000000">gini = 0.0</text>
<text text-anchor="middle" x="960.5" y="-639.3" font-family="Helvetica,sans-Serif" font-size="14.00" fill="#000000">samples = 1</text>
<text text-anchor="middle" x="960.5" y="-624.3" font-family="Helvetica,sans-Serif" font-size="14.00" fill="#000000">value = [1, 0]</text>
</g>
<!-- 27&#45;&gt;33 -->
<g id="edge33" class="edge">
<title>27&#45;&gt;33</title>
<path fill="none" stroke="#000000" d="M879.1199,-712.9465C892.8324,-701.1606 908.1761,-687.9726 921.8127,-676.2519"/>
<polygon fill="#000000" stroke="#000000" points="924.3169,-678.7147 929.6192,-669.5422 919.7541,-673.4061 924.3169,-678.7147"/>
</g>
<!-- 29 -->
<g id="node30" class="node">
<title>29</title>
<polygon fill="none" stroke="#000000" points="832,-573 725,-573 725,-505 832,-505 832,-573"/>
<text text-anchor="middle" x="778.5" y="-557.8" font-family="Helvetica,sans-Serif" font-size="14.00" fill="#000000">X[4] &lt;= &#45;3.434</text>
<text text-anchor="middle" x="778.5" y="-542.8" font-family="Helvetica,sans-Serif" font-size="14.00" fill="#000000">gini = 0.5</text>
<text text-anchor="middle" x="778.5" y="-527.8" font-family="Helvetica,sans-Serif" font-size="14.00" fill="#000000">samples = 2</text>
<text text-anchor="middle" x="778.5" y="-512.8" font-family="Helvetica,sans-Serif" font-size="14.00" fill="#000000">value = [1, 1]</text>
</g>
<!-- 28&#45;&gt;29 -->
<g id="edge29" class="edge">
<title>28&#45;&gt;29</title>
<path fill="none" stroke="#000000" d="M819.5263,-608.9465C814.4707,-600.3271 808.9753,-590.9579 803.6983,-581.9611"/>
<polygon fill="#000000" stroke="#000000" points="806.5969,-579.985 798.5186,-573.13 800.5589,-583.5265 806.5969,-579.985"/>
</g>
<!-- 32 -->
<g id="node33" class="node">
<title>32</title>
<polygon fill="none" stroke="#000000" points="949,-565.5 850,-565.5 850,-512.5 949,-512.5 949,-565.5"/>
<text text-anchor="middle" x="899.5" y="-550.3" font-family="Helvetica,sans-Serif" font-size="14.00" fill="#000000">gini = 0.0</text>
<text text-anchor="middle" x="899.5" y="-535.3" font-family="Helvetica,sans-Serif" font-size="14.00" fill="#000000">samples = 8</text>
<text text-anchor="middle" x="899.5" y="-520.3" font-family="Helvetica,sans-Serif" font-size="14.00" fill="#000000">value = [0, 8]</text>
</g>
<!-- 28&#45;&gt;32 -->
<g id="edge32" class="edge">
<title>28&#45;&gt;32</title>
<path fill="none" stroke="#000000" d="M859.1462,-608.9465C865.5645,-597.8215 872.7035,-585.4473 879.171,-574.237"/>
<polygon fill="#000000" stroke="#000000" points="882.2216,-575.9531 884.1872,-565.5422 876.1583,-572.455 882.2216,-575.9531"/>
</g>
<!-- 30 -->
<g id="node31" class="node">
<title>30</title>
<polygon fill="none" stroke="#000000" points="795,-461.5 696,-461.5 696,-408.5 795,-408.5 795,-461.5"/>
<text text-anchor="middle" x="745.5" y="-446.3" font-family="Helvetica,sans-Serif" font-size="14.00" fill="#000000">gini = 0.0</text>
<text text-anchor="middle" x="745.5" y="-431.3" font-family="Helvetica,sans-Serif" font-size="14.00" fill="#000000">samples = 1</text>
<text text-anchor="middle" x="745.5" y="-416.3" font-family="Helvetica,sans-Serif" font-size="14.00" fill="#000000">value = [1, 0]</text>
</g>
<!-- 29&#45;&gt;30 -->
<g id="edge30" class="edge">
<title>29&#45;&gt;30</title>
<path fill="none" stroke="#000000" d="M767.6946,-504.9465C764.2694,-494.1519 760.471,-482.1813 756.9989,-471.2389"/>
<polygon fill="#000000" stroke="#000000" points="760.2827,-470.0152 753.922,-461.5422 753.6105,-472.1324 760.2827,-470.0152"/>
</g>
<!-- 31 -->
<g id="node32" class="node">
<title>31</title>
<polygon fill="none" stroke="#000000" points="912,-461.5 813,-461.5 813,-408.5 912,-408.5 912,-461.5"/>
<text text-anchor="middle" x="862.5" y="-446.3" font-family="Helvetica,sans-Serif" font-size="14.00" fill="#000000">gini = 0.0</text>
<text text-anchor="middle" x="862.5" y="-431.3" font-family="Helvetica,sans-Serif" font-size="14.00" fill="#000000">samples = 1</text>
<text text-anchor="middle" x="862.5" y="-416.3" font-family="Helvetica,sans-Serif" font-size="14.00" fill="#000000">value = [0, 1]</text>
</g>
<!-- 29&#45;&gt;31 -->
<g id="edge31" class="edge">
<title>29&#45;&gt;31</title>
<path fill="none" stroke="#000000" d="M806.0047,-504.9465C815.1683,-493.6012 825.3811,-480.9567 834.5761,-469.5724"/>
<polygon fill="#000000" stroke="#000000" points="837.5015,-471.5208 841.0621,-461.5422 832.0559,-467.1224 837.5015,-471.5208"/>
</g>
<!-- 35 -->
<g id="node36" class="node">
<title>35</title>
<polygon fill="none" stroke="#000000" points="955,-989 844,-989 844,-921 955,-921 955,-989"/>
<text text-anchor="middle" x="899.5" y="-973.8" font-family="Helvetica,sans-Serif" font-size="14.00" fill="#000000">X[1] &lt;= 51.436</text>
<text text-anchor="middle" x="899.5" y="-958.8" font-family="Helvetica,sans-Serif" font-size="14.00" fill="#000000">gini = 0.48</text>
<text text-anchor="middle" x="899.5" y="-943.8" font-family="Helvetica,sans-Serif" font-size="14.00" fill="#000000">samples = 5</text>
<text text-anchor="middle" x="899.5" y="-928.8" font-family="Helvetica,sans-Serif" font-size="14.00" fill="#000000">value = [3, 2]</text>
</g>
<!-- 34&#45;&gt;35 -->
<g id="edge35" class="edge">
<title>34&#45;&gt;35</title>
<path fill="none" stroke="#000000" d="M899.5,-1024.9465C899.5,-1016.776 899.5,-1007.9318 899.5,-999.3697"/>
<polygon fill="#000000" stroke="#000000" points="903.0001,-999.13 899.5,-989.13 896.0001,-999.13 903.0001,-999.13"/>
</g>
<!-- 38 -->
<g id="node39" class="node">
<title>38</title>
<polygon fill="none" stroke="#000000" points="1133,-989 1022,-989 1022,-921 1133,-921 1133,-989"/>
<text text-anchor="middle" x="1077.5" y="-973.8" font-family="Helvetica,sans-Serif" font-size="14.00" fill="#000000">X[3] &lt;= 13.829</text>
<text text-anchor="middle" x="1077.5" y="-958.8" font-family="Helvetica,sans-Serif" font-size="14.00" fill="#000000">gini = 0.269</text>
<text text-anchor="middle" x="1077.5" y="-943.8" font-family="Helvetica,sans-Serif" font-size="14.00" fill="#000000">samples = 25</text>
<text text-anchor="middle" x="1077.5" y="-928.8" font-family="Helvetica,sans-Serif" font-size="14.00" fill="#000000">value = [4, 21]</text>
</g>
<!-- 34&#45;&gt;38 -->
<g id="edge38" class="edge">
<title>34&#45;&gt;38</title>
<path fill="none" stroke="#000000" d="M957.7839,-1024.9465C975.4719,-1014.6119 995.0048,-1003.1994 1013.072,-992.6433"/>
<polygon fill="#000000" stroke="#000000" points="1014.9404,-995.6053 1021.809,-987.5385 1011.4091,-989.5613 1014.9404,-995.6053"/>
</g>
<!-- 36 -->
<g id="node37" class="node">
<title>36</title>
<polygon fill="none" stroke="#000000" points="888,-877.5 789,-877.5 789,-824.5 888,-824.5 888,-877.5"/>
<text text-anchor="middle" x="838.5" y="-862.3" font-family="Helvetica,sans-Serif" font-size="14.00" fill="#000000">gini = 0.0</text>
<text text-anchor="middle" x="838.5" y="-847.3" font-family="Helvetica,sans-Serif" font-size="14.00" fill="#000000">samples = 3</text>
<text text-anchor="middle" x="838.5" y="-832.3" font-family="Helvetica,sans-Serif" font-size="14.00" fill="#000000">value = [3, 0]</text>
</g>
<!-- 35&#45;&gt;36 -->
<g id="edge36" class="edge">
<title>35&#45;&gt;36</title>
<path fill="none" stroke="#000000" d="M879.5263,-920.9465C873.001,-909.8215 865.7431,-897.4473 859.1678,-886.237"/>
<polygon fill="#000000" stroke="#000000" points="862.1464,-884.3971 854.068,-877.5422 856.1084,-887.9387 862.1464,-884.3971"/>
</g>
<!-- 37 -->
<g id="node38" class="node">
<title>37</title>
<polygon fill="none" stroke="#000000" points="1005,-877.5 906,-877.5 906,-824.5 1005,-824.5 1005,-877.5"/>
<text text-anchor="middle" x="955.5" y="-862.3" font-family="Helvetica,sans-Serif" font-size="14.00" fill="#000000">gini = 0.0</text>
<text text-anchor="middle" x="955.5" y="-847.3" font-family="Helvetica,sans-Serif" font-size="14.00" fill="#000000">samples = 2</text>
<text text-anchor="middle" x="955.5" y="-832.3" font-family="Helvetica,sans-Serif" font-size="14.00" fill="#000000">value = [0, 2]</text>
</g>
<!-- 35&#45;&gt;37 -->
<g id="edge37" class="edge">
<title>35&#45;&gt;37</title>
<path fill="none" stroke="#000000" d="M917.8365,-920.9465C923.7676,-909.9316 930.3581,-897.6922 936.3468,-886.5703"/>
<polygon fill="#000000" stroke="#000000" points="939.5487,-888.0063 941.2081,-877.5422 933.3854,-884.6875 939.5487,-888.0063"/>
</g>
<!-- 39 -->
<g id="node40" class="node">
<title>39</title>
<polygon fill="none" stroke="#000000" points="1129.5,-885 1025.5,-885 1025.5,-817 1129.5,-817 1129.5,-885"/>
<text text-anchor="middle" x="1077.5" y="-869.8" font-family="Helvetica,sans-Serif" font-size="14.00" fill="#000000">X[7] &lt;= 2.722</text>
<text text-anchor="middle" x="1077.5" y="-854.8" font-family="Helvetica,sans-Serif" font-size="14.00" fill="#000000">gini = 0.48</text>
<text text-anchor="middle" x="1077.5" y="-839.8" font-family="Helvetica,sans-Serif" font-size="14.00" fill="#000000">samples = 10</text>
<text text-anchor="middle" x="1077.5" y="-824.8" font-family="Helvetica,sans-Serif" font-size="14.00" fill="#000000">value = [4, 6]</text>
</g>
<!-- 38&#45;&gt;39 -->
<g id="edge39" class="edge">
<title>38&#45;&gt;39</title>
<path fill="none" stroke="#000000" d="M1077.5,-920.9465C1077.5,-912.776 1077.5,-903.9318 1077.5,-895.3697"/>
<polygon fill="#000000" stroke="#000000" points="1081.0001,-895.13 1077.5,-885.13 1074.0001,-895.13 1081.0001,-895.13"/>
</g>
<!-- 44 -->
<g id="node45" class="node">
<title>44</title>
<polygon fill="none" stroke="#000000" points="1255,-877.5 1148,-877.5 1148,-824.5 1255,-824.5 1255,-877.5"/>
<text text-anchor="middle" x="1201.5" y="-862.3" font-family="Helvetica,sans-Serif" font-size="14.00" fill="#000000">gini = 0.0</text>
<text text-anchor="middle" x="1201.5" y="-847.3" font-family="Helvetica,sans-Serif" font-size="14.00" fill="#000000">samples = 15</text>
<text text-anchor="middle" x="1201.5" y="-832.3" font-family="Helvetica,sans-Serif" font-size="14.00" fill="#000000">value = [0, 15]</text>
</g>
<!-- 38&#45;&gt;44 -->
<g id="edge44" class="edge">
<title>38&#45;&gt;44</title>
<path fill="none" stroke="#000000" d="M1118.1022,-920.9465C1132.1547,-909.1606 1147.8788,-895.9726 1161.8535,-884.2519"/>
<polygon fill="#000000" stroke="#000000" points="1164.4408,-886.65 1169.8536,-877.5422 1159.9425,-881.2866 1164.4408,-886.65"/>
</g>
<!-- 40 -->
<g id="node41" class="node">
<title>40</title>
<polygon fill="none" stroke="#000000" points="1131,-781 1024,-781 1024,-713 1131,-713 1131,-781"/>
<text text-anchor="middle" x="1077.5" y="-765.8" font-family="Helvetica,sans-Serif" font-size="14.00" fill="#000000">X[9] &lt;= &#45;6.746</text>
<text text-anchor="middle" x="1077.5" y="-750.8" font-family="Helvetica,sans-Serif" font-size="14.00" fill="#000000">gini = 0.32</text>
<text text-anchor="middle" x="1077.5" y="-735.8" font-family="Helvetica,sans-Serif" font-size="14.00" fill="#000000">samples = 5</text>
<text text-anchor="middle" x="1077.5" y="-720.8" font-family="Helvetica,sans-Serif" font-size="14.00" fill="#000000">value = [4, 1]</text>
</g>
<!-- 39&#45;&gt;40 -->
<g id="edge40" class="edge">
<title>39&#45;&gt;40</title>
<path fill="none" stroke="#000000" d="M1077.5,-816.9465C1077.5,-808.776 1077.5,-799.9318 1077.5,-791.3697"/>
<polygon fill="#000000" stroke="#000000" points="1081.0001,-791.13 1077.5,-781.13 1074.0001,-791.13 1081.0001,-791.13"/>
</g>
<!-- 43 -->
<g id="node44" class="node">
<title>43</title>
<polygon fill="none" stroke="#000000" points="1248,-773.5 1149,-773.5 1149,-720.5 1248,-720.5 1248,-773.5"/>
<text text-anchor="middle" x="1198.5" y="-758.3" font-family="Helvetica,sans-Serif" font-size="14.00" fill="#000000">gini = 0.0</text>
<text text-anchor="middle" x="1198.5" y="-743.3" font-family="Helvetica,sans-Serif" font-size="14.00" fill="#000000">samples = 5</text>
<text text-anchor="middle" x="1198.5" y="-728.3" font-family="Helvetica,sans-Serif" font-size="14.00" fill="#000000">value = [0, 5]</text>
</g>
<!-- 39&#45;&gt;43 -->
<g id="edge43" class="edge">
<title>39&#45;&gt;43</title>
<path fill="none" stroke="#000000" d="M1117.1199,-816.9465C1130.8324,-805.1606 1146.1761,-791.9726 1159.8127,-780.2519"/>
<polygon fill="#000000" stroke="#000000" points="1162.3169,-782.7147 1167.6192,-773.5422 1157.7541,-777.4061 1162.3169,-782.7147"/>
</g>
<!-- 41 -->
<g id="node42" class="node">
<title>41</title>
<polygon fill="none" stroke="#000000" points="1127,-669.5 1028,-669.5 1028,-616.5 1127,-616.5 1127,-669.5"/>
<text text-anchor="middle" x="1077.5" y="-654.3" font-family="Helvetica,sans-Serif" font-size="14.00" fill="#000000">gini = 0.0</text>
<text text-anchor="middle" x="1077.5" y="-639.3" font-family="Helvetica,sans-Serif" font-size="14.00" fill="#000000">samples = 1</text>
<text text-anchor="middle" x="1077.5" y="-624.3" font-family="Helvetica,sans-Serif" font-size="14.00" fill="#000000">value = [0, 1]</text>
</g>
<!-- 40&#45;&gt;41 -->
<g id="edge41" class="edge">
<title>40&#45;&gt;41</title>
<path fill="none" stroke="#000000" d="M1077.5,-712.9465C1077.5,-702.2621 1077.5,-690.4254 1077.5,-679.5742"/>
<polygon fill="#000000" stroke="#000000" points="1081.0001,-679.5421 1077.5,-669.5422 1074.0001,-679.5422 1081.0001,-679.5421"/>
</g>
<!-- 42 -->
<g id="node43" class="node">
<title>42</title>
<polygon fill="none" stroke="#000000" points="1244,-669.5 1145,-669.5 1145,-616.5 1244,-616.5 1244,-669.5"/>
<text text-anchor="middle" x="1194.5" y="-654.3" font-family="Helvetica,sans-Serif" font-size="14.00" fill="#000000">gini = 0.0</text>
<text text-anchor="middle" x="1194.5" y="-639.3" font-family="Helvetica,sans-Serif" font-size="14.00" fill="#000000">samples = 4</text>
<text text-anchor="middle" x="1194.5" y="-624.3" font-family="Helvetica,sans-Serif" font-size="14.00" fill="#000000">value = [4, 0]</text>
</g>
<!-- 40&#45;&gt;42 -->
<g id="edge42" class="edge">
<title>40&#45;&gt;42</title>
<path fill="none" stroke="#000000" d="M1115.8102,-712.9465C1129.0694,-701.1606 1143.9058,-687.9726 1157.0916,-676.2519"/>
<polygon fill="#000000" stroke="#000000" points="1159.4912,-678.8018 1164.6401,-669.5422 1154.8407,-673.5699 1159.4912,-678.8018"/>
</g>
</g>
</svg>
