<?xml version="1.0" encoding="UTF-8" standalone="no"?>
<!DOCTYPE svg PUBLIC "-//W3C//DTD SVG 1.1//EN"
 "http://www.w3.org/Graphics/SVG/1.1/DTD/svg11.dtd">
<!-- Generated by graphviz version 2.40.1 (20161225.0304)
 -->
<!-- Title: Tree Pages: 1 -->
<svg width="1149pt" height="1205pt"
 viewBox="0.00 0.00 1149.00 1205.00" xmlns="http://www.w3.org/2000/svg" xmlns:xlink="http://www.w3.org/1999/xlink">
<g id="graph0" class="graph" transform="scale(1 1) rotate(0) translate(4 1201)">
<title>Tree</title>
<polygon fill="#ffffff" stroke="transparent" points="-4,4 -4,-1201 1145,-1201 1145,4 -4,4"/>
<!-- 0 -->
<g id="node1" class="node">
<title>0</title>
<polygon fill="none" stroke="#000000" points="726.5,-1197 610.5,-1197 610.5,-1129 726.5,-1129 726.5,-1197"/>
<text text-anchor="middle" x="668.5" y="-1181.8" font-family="Helvetica,sans-Serif" font-size="14.00" fill="#000000">X[0] &lt;= 8.692</text>
<text text-anchor="middle" x="668.5" y="-1166.8" font-family="Helvetica,sans-Serif" font-size="14.00" fill="#000000">gini = 0.491</text>
<text text-anchor="middle" x="668.5" y="-1151.8" font-family="Helvetica,sans-Serif" font-size="14.00" fill="#000000">samples = 81</text>
<text text-anchor="middle" x="668.5" y="-1136.8" font-family="Helvetica,sans-Serif" font-size="14.00" fill="#000000">value = [35, 46]</text>
</g>
<!-- 1 -->
<g id="node2" class="node">
<title>1</title>
<polygon fill="none" stroke="#000000" points="659.5,-1093 543.5,-1093 543.5,-1025 659.5,-1025 659.5,-1093"/>
<text text-anchor="middle" x="601.5" y="-1077.8" font-family="Helvetica,sans-Serif" font-size="14.00" fill="#000000">X[1] &lt;= 7.933</text>
<text text-anchor="middle" x="601.5" y="-1062.8" font-family="Helvetica,sans-Serif" font-size="14.00" fill="#000000">gini = 0.495</text>
<text text-anchor="middle" x="601.5" y="-1047.8" font-family="Helvetica,sans-Serif" font-size="14.00" fill="#000000">samples = 51</text>
<text text-anchor="middle" x="601.5" y="-1032.8" font-family="Helvetica,sans-Serif" font-size="14.00" fill="#000000">value = [28, 23]</text>
</g>
<!-- 0&#45;&gt;1 -->
<g id="edge1" class="edge">
<title>0&#45;&gt;1</title>
<path fill="none" stroke="#000000" d="M646.5617,-1128.9465C640.951,-1120.2373 634.8471,-1110.7626 628.9958,-1101.6801"/>
<polygon fill="#000000" stroke="#000000" points="631.8457,-1099.641 623.4876,-1093.13 625.9611,-1103.4321 631.8457,-1099.641"/>
<text text-anchor="middle" x="618.2006" y="-1113.8646" font-family="Helvetica,sans-Serif" font-size="14.00" fill="#000000">True</text>
</g>
<!-- 34 -->
<g id="node35" class="node">
<title>34</title>
<polygon fill="none" stroke="#000000" points="844.5,-1093 728.5,-1093 728.5,-1025 844.5,-1025 844.5,-1093"/>
<text text-anchor="middle" x="786.5" y="-1077.8" font-family="Helvetica,sans-Serif" font-size="14.00" fill="#000000">X[6] &lt;= &#45;34.049</text>
<text text-anchor="middle" x="786.5" y="-1062.8" font-family="Helvetica,sans-Serif" font-size="14.00" fill="#000000">gini = 0.358</text>
<text text-anchor="middle" x="786.5" y="-1047.8" font-family="Helvetica,sans-Serif" font-size="14.00" fill="#000000">samples = 30</text>
<text text-anchor="middle" x="786.5" y="-1032.8" font-family="Helvetica,sans-Serif" font-size="14.00" fill="#000000">value = [7, 23]</text>
</g>
<!-- 0&#45;&gt;34 -->
<g id="edge34" class="edge">
<title>0&#45;&gt;34</title>
<path fill="none" stroke="#000000" d="M707.1376,-1128.9465C717.6304,-1119.6986 729.1026,-1109.5876 739.9814,-1099.9994"/>
<polygon fill="#000000" stroke="#000000" points="742.5877,-1102.3678 747.7756,-1093.13 737.9593,-1097.1163 742.5877,-1102.3678"/>
<text text-anchor="middle" x="746.2021" y="-1114.3804" font-family="Helvetica,sans-Serif" font-size="14.00" fill="#000000">False</text>
</g>
<!-- 2 -->
<g id="node3" class="node">
<title>2</title>
<polygon fill="none" stroke="#000000" points="525,-981.5 426,-981.5 426,-928.5 525,-928.5 525,-981.5"/>
<text text-anchor="middle" x="475.5" y="-966.3" font-family="Helvetica,sans-Serif" font-size="14.00" fill="#000000">gini = 0.0</text>
<text text-anchor="middle" x="475.5" y="-951.3" font-family="Helvetica,sans-Serif" font-size="14.00" fill="#000000">samples = 5</text>
<text text-anchor="middle" x="475.5" y="-936.3" font-family="Helvetica,sans-Serif" font-size="14.00" fill="#000000">value = [5, 0]</text>
</g>
<!-- 1&#45;&gt;2 -->
<g id="edge2" class="edge">
<title>1&#45;&gt;2</title>
<path fill="none" stroke="#000000" d="M560.2429,-1024.9465C545.8303,-1013.0504 529.6873,-999.726 515.3883,-987.9237"/>
<polygon fill="#000000" stroke="#000000" points="517.5971,-985.2086 507.6569,-981.5422 513.1411,-990.6071 517.5971,-985.2086"/>
</g>
<!-- 3 -->
<g id="node4" class="node">
<title>3</title>
<polygon fill="none" stroke="#000000" points="659.5,-989 543.5,-989 543.5,-921 659.5,-921 659.5,-989"/>
<text text-anchor="middle" x="601.5" y="-973.8" font-family="Helvetica,sans-Serif" font-size="14.00" fill="#000000">X[6] &lt;= &#45;8.772</text>
<text text-anchor="middle" x="601.5" y="-958.8" font-family="Helvetica,sans-Serif" font-size="14.00" fill="#000000">gini = 0.5</text>
<text text-anchor="middle" x="601.5" y="-943.8" font-family="Helvetica,sans-Serif" font-size="14.00" fill="#000000">samples = 46</text>
<text text-anchor="middle" x="601.5" y="-928.8" font-family="Helvetica,sans-Serif" font-size="14.00" fill="#000000">value = [23, 23]</text>
</g>
<!-- 1&#45;&gt;3 -->
<g id="edge3" class="edge">
<title>1&#45;&gt;3</title>
<path fill="none" stroke="#000000" d="M601.5,-1024.9465C601.5,-1016.776 601.5,-1007.9318 601.5,-999.3697"/>
<polygon fill="#000000" stroke="#000000" points="605.0001,-999.13 601.5,-989.13 598.0001,-999.13 605.0001,-999.13"/>
</g>
<!-- 4 -->
<g id="node5" class="node">
<title>4</title>
<polygon fill="none" stroke="#000000" points="415.5,-885 299.5,-885 299.5,-817 415.5,-817 415.5,-885"/>
<text text-anchor="middle" x="357.5" y="-869.8" font-family="Helvetica,sans-Serif" font-size="14.00" fill="#000000">X[0] &lt;= 2.704</text>
<text text-anchor="middle" x="357.5" y="-854.8" font-family="Helvetica,sans-Serif" font-size="14.00" fill="#000000">gini = 0.482</text>
<text text-anchor="middle" x="357.5" y="-839.8" font-family="Helvetica,sans-Serif" font-size="14.00" fill="#000000">samples = 32</text>
<text text-anchor="middle" x="357.5" y="-824.8" font-family="Helvetica,sans-Serif" font-size="14.00" fill="#000000">value = [19, 13]</text>
</g>
<!-- 3&#45;&gt;4 -->
<g id="edge4" class="edge">
<title>3&#45;&gt;4</title>
<path fill="none" stroke="#000000" d="M543.4173,-925.5518C540.0752,-923.9844 536.7524,-922.4567 533.5,-921 498.2641,-905.2182 458.3283,-889.1885 425.4153,-876.4577"/>
<polygon fill="#000000" stroke="#000000" points="426.4749,-873.1153 415.8851,-872.7876 423.9591,-879.6476 426.4749,-873.1153"/>
</g>
<!-- 23 -->
<g id="node24" class="node">
<title>23</title>
<polygon fill="none" stroke="#000000" points="655,-885 548,-885 548,-817 655,-817 655,-885"/>
<text text-anchor="middle" x="601.5" y="-869.8" font-family="Helvetica,sans-Serif" font-size="14.00" fill="#000000">X[0] &lt;= 3.354</text>
<text text-anchor="middle" x="601.5" y="-854.8" font-family="Helvetica,sans-Serif" font-size="14.00" fill="#000000">gini = 0.408</text>
<text text-anchor="middle" x="601.5" y="-839.8" font-family="Helvetica,sans-Serif" font-size="14.00" fill="#000000">samples = 14</text>
<text text-anchor="middle" x="601.5" y="-824.8" font-family="Helvetica,sans-Serif" font-size="14.00" fill="#000000">value = [4, 10]</text>
</g>
<!-- 3&#45;&gt;23 -->
<g id="edge23" class="edge">
<title>3&#45;&gt;23</title>
<path fill="none" stroke="#000000" d="M601.5,-920.9465C601.5,-912.776 601.5,-903.9318 601.5,-895.3697"/>
<polygon fill="#000000" stroke="#000000" points="605.0001,-895.13 601.5,-885.13 598.0001,-895.13 605.0001,-895.13"/>
</g>
<!-- 5 -->
<g id="node6" class="node">
<title>5</title>
<polygon fill="none" stroke="#000000" points="281,-773.5 182,-773.5 182,-720.5 281,-720.5 281,-773.5"/>
<text text-anchor="middle" x="231.5" y="-758.3" font-family="Helvetica,sans-Serif" font-size="14.00" fill="#000000">gini = 0.0</text>
<text text-anchor="middle" x="231.5" y="-743.3" font-family="Helvetica,sans-Serif" font-size="14.00" fill="#000000">samples = 2</text>
<text text-anchor="middle" x="231.5" y="-728.3" font-family="Helvetica,sans-Serif" font-size="14.00" fill="#000000">value = [0, 2]</text>
</g>
<!-- 4&#45;&gt;5 -->
<g id="edge5" class="edge">
<title>4&#45;&gt;5</title>
<path fill="none" stroke="#000000" d="M316.2429,-816.9465C301.8303,-805.0504 285.6873,-791.726 271.3883,-779.9237"/>
<polygon fill="#000000" stroke="#000000" points="273.5971,-777.2086 263.6569,-773.5422 269.1411,-782.6071 273.5971,-777.2086"/>
</g>
<!-- 6 -->
<g id="node7" class="node">
<title>6</title>
<polygon fill="none" stroke="#000000" points="415.5,-781 299.5,-781 299.5,-713 415.5,-713 415.5,-781"/>
<text text-anchor="middle" x="357.5" y="-765.8" font-family="Helvetica,sans-Serif" font-size="14.00" fill="#000000">X[1] &lt;= 17.499</text>
<text text-anchor="middle" x="357.5" y="-750.8" font-family="Helvetica,sans-Serif" font-size="14.00" fill="#000000">gini = 0.464</text>
<text text-anchor="middle" x="357.5" y="-735.8" font-family="Helvetica,sans-Serif" font-size="14.00" fill="#000000">samples = 30</text>
<text text-anchor="middle" x="357.5" y="-720.8" font-family="Helvetica,sans-Serif" font-size="14.00" fill="#000000">value = [19, 11]</text>
</g>
<!-- 4&#45;&gt;6 -->
<g id="edge6" class="edge">
<title>4&#45;&gt;6</title>
<path fill="none" stroke="#000000" d="M357.5,-816.9465C357.5,-808.776 357.5,-799.9318 357.5,-791.3697"/>
<polygon fill="#000000" stroke="#000000" points="361.0001,-791.13 357.5,-781.13 354.0001,-791.13 361.0001,-791.13"/>
</g>
<!-- 7 -->
<g id="node8" class="node">
<title>7</title>
<polygon fill="none" stroke="#000000" points="281,-669.5 182,-669.5 182,-616.5 281,-616.5 281,-669.5"/>
<text text-anchor="middle" x="231.5" y="-654.3" font-family="Helvetica,sans-Serif" font-size="14.00" fill="#000000">gini = 0.0</text>
<text text-anchor="middle" x="231.5" y="-639.3" font-family="Helvetica,sans-Serif" font-size="14.00" fill="#000000">samples = 5</text>
<text text-anchor="middle" x="231.5" y="-624.3" font-family="Helvetica,sans-Serif" font-size="14.00" fill="#000000">value = [5, 0]</text>
</g>
<!-- 6&#45;&gt;7 -->
<g id="edge7" class="edge">
<title>6&#45;&gt;7</title>
<path fill="none" stroke="#000000" d="M316.2429,-712.9465C301.8303,-701.0504 285.6873,-687.726 271.3883,-675.9237"/>
<polygon fill="#000000" stroke="#000000" points="273.5971,-673.2086 263.6569,-669.5422 269.1411,-678.6071 273.5971,-673.2086"/>
</g>
<!-- 8 -->
<g id="node9" class="node">
<title>8</title>
<polygon fill="none" stroke="#000000" points="415.5,-677 299.5,-677 299.5,-609 415.5,-609 415.5,-677"/>
<text text-anchor="middle" x="357.5" y="-661.8" font-family="Helvetica,sans-Serif" font-size="14.00" fill="#000000">X[2] &lt;= 9.104</text>
<text text-anchor="middle" x="357.5" y="-646.8" font-family="Helvetica,sans-Serif" font-size="14.00" fill="#000000">gini = 0.493</text>
<text text-anchor="middle" x="357.5" y="-631.8" font-family="Helvetica,sans-Serif" font-size="14.00" fill="#000000">samples = 25</text>
<text text-anchor="middle" x="357.5" y="-616.8" font-family="Helvetica,sans-Serif" font-size="14.00" fill="#000000">value = [14, 11]</text>
</g>
<!-- 6&#45;&gt;8 -->
<g id="edge8" class="edge">
<title>6&#45;&gt;8</title>
<path fill="none" stroke="#000000" d="M357.5,-712.9465C357.5,-704.776 357.5,-695.9318 357.5,-687.3697"/>
<polygon fill="#000000" stroke="#000000" points="361.0001,-687.13 357.5,-677.13 354.0001,-687.13 361.0001,-687.13"/>
</g>
<!-- 9 -->
<g id="node10" class="node">
<title>9</title>
<polygon fill="none" stroke="#000000" points="346,-573 239,-573 239,-505 346,-505 346,-573"/>
<text text-anchor="middle" x="292.5" y="-557.8" font-family="Helvetica,sans-Serif" font-size="14.00" fill="#000000">X[6] &lt;= &#45;14.59</text>
<text text-anchor="middle" x="292.5" y="-542.8" font-family="Helvetica,sans-Serif" font-size="14.00" fill="#000000">gini = 0.375</text>
<text text-anchor="middle" x="292.5" y="-527.8" font-family="Helvetica,sans-Serif" font-size="14.00" fill="#000000">samples = 16</text>
<text text-anchor="middle" x="292.5" y="-512.8" font-family="Helvetica,sans-Serif" font-size="14.00" fill="#000000">value = [12, 4]</text>
</g>
<!-- 8&#45;&gt;9 -->
<g id="edge9" class="edge">
<title>8&#45;&gt;9</title>
<path fill="none" stroke="#000000" d="M336.2166,-608.9465C330.7733,-600.2373 324.8516,-590.7626 319.175,-581.6801"/>
<polygon fill="#000000" stroke="#000000" points="322.0993,-579.755 313.8312,-573.13 316.1633,-583.465 322.0993,-579.755"/>
</g>
<!-- 20 -->
<g id="node21" class="node">
<title>20</title>
<polygon fill="none" stroke="#000000" points="475,-573 364,-573 364,-505 475,-505 475,-573"/>
<text text-anchor="middle" x="419.5" y="-557.8" font-family="Helvetica,sans-Serif" font-size="14.00" fill="#000000">X[9] &lt;= 13.097</text>
<text text-anchor="middle" x="419.5" y="-542.8" font-family="Helvetica,sans-Serif" font-size="14.00" fill="#000000">gini = 0.346</text>
<text text-anchor="middle" x="419.5" y="-527.8" font-family="Helvetica,sans-Serif" font-size="14.00" fill="#000000">samples = 9</text>
<text text-anchor="middle" x="419.5" y="-512.8" font-family="Helvetica,sans-Serif" font-size="14.00" fill="#000000">value = [2, 7]</text>
</g>
<!-- 8&#45;&gt;20 -->
<g id="edge20" class="edge">
<title>8&#45;&gt;20</title>
<path fill="none" stroke="#000000" d="M377.8011,-608.9465C382.9396,-600.3271 388.5251,-590.9579 393.8886,-581.9611"/>
<polygon fill="#000000" stroke="#000000" points="397.0389,-583.5117 399.1533,-573.13 391.0263,-579.9272 397.0389,-583.5117"/>
</g>
<!-- 10 -->
<g id="node11" class="node">
<title>10</title>
<polygon fill="none" stroke="#000000" points="228,-469 117,-469 117,-401 228,-401 228,-469"/>
<text text-anchor="middle" x="172.5" y="-453.8" font-family="Helvetica,sans-Serif" font-size="14.00" fill="#000000">X[3] &lt;= 16.068</text>
<text text-anchor="middle" x="172.5" y="-438.8" font-family="Helvetica,sans-Serif" font-size="14.00" fill="#000000">gini = 0.32</text>
<text text-anchor="middle" x="172.5" y="-423.8" font-family="Helvetica,sans-Serif" font-size="14.00" fill="#000000">samples = 15</text>
<text text-anchor="middle" x="172.5" y="-408.8" font-family="Helvetica,sans-Serif" font-size="14.00" fill="#000000">value = [12, 3]</text>
</g>
<!-- 9&#45;&gt;10 -->
<g id="edge10" class="edge">
<title>9&#45;&gt;10</title>
<path fill="none" stroke="#000000" d="M253.2075,-504.9465C242.4333,-495.6088 230.6436,-485.3911 219.485,-475.7203"/>
<polygon fill="#000000" stroke="#000000" points="221.7299,-473.0344 211.8808,-469.13 217.1454,-478.3243 221.7299,-473.0344"/>
</g>
<!-- 19 -->
<g id="node20" class="node">
<title>19</title>
<polygon fill="none" stroke="#000000" points="345,-461.5 246,-461.5 246,-408.5 345,-408.5 345,-461.5"/>
<text text-anchor="middle" x="295.5" y="-446.3" font-family="Helvetica,sans-Serif" font-size="14.00" fill="#000000">gini = 0.0</text>
<text text-anchor="middle" x="295.5" y="-431.3" font-family="Helvetica,sans-Serif" font-size="14.00" fill="#000000">samples = 1</text>
<text text-anchor="middle" x="295.5" y="-416.3" font-family="Helvetica,sans-Serif" font-size="14.00" fill="#000000">value = [0, 1]</text>
</g>
<!-- 9&#45;&gt;19 -->
<g id="edge19" class="edge">
<title>9&#45;&gt;19</title>
<path fill="none" stroke="#000000" d="M293.4823,-504.9465C293.7905,-494.2621 294.132,-482.4254 294.445,-471.5742"/>
<polygon fill="#000000" stroke="#000000" points="297.9445,-471.639 294.7344,-461.5422 290.9474,-471.4371 297.9445,-471.639"/>
</g>
<!-- 11 -->
<g id="node12" class="node">
<title>11</title>
<polygon fill="none" stroke="#000000" points="166,-365 59,-365 59,-297 166,-297 166,-365"/>
<text text-anchor="middle" x="112.5" y="-349.8" font-family="Helvetica,sans-Serif" font-size="14.00" fill="#000000">X[5] &lt;= &#45;8.048</text>
<text text-anchor="middle" x="112.5" y="-334.8" font-family="Helvetica,sans-Serif" font-size="14.00" fill="#000000">gini = 0.444</text>
<text text-anchor="middle" x="112.5" y="-319.8" font-family="Helvetica,sans-Serif" font-size="14.00" fill="#000000">samples = 9</text>
<text text-anchor="middle" x="112.5" y="-304.8" font-family="Helvetica,sans-Serif" font-size="14.00" fill="#000000">value = [6, 3]</text>
</g>
<!-- 10&#45;&gt;11 -->
<g id="edge11" class="edge">
<title>10&#45;&gt;11</title>
<path fill="none" stroke="#000000" d="M152.8538,-400.9465C147.881,-392.3271 142.4757,-382.9579 137.2852,-373.9611"/>
<polygon fill="#000000" stroke="#000000" points="140.2193,-372.0428 132.1904,-365.13 134.156,-375.5409 140.2193,-372.0428"/>
</g>
<!-- 18 -->
<g id="node19" class="node">
<title>18</title>
<polygon fill="none" stroke="#000000" points="283,-357.5 184,-357.5 184,-304.5 283,-304.5 283,-357.5"/>
<text text-anchor="middle" x="233.5" y="-342.3" font-family="Helvetica,sans-Serif" font-size="14.00" fill="#000000">gini = 0.0</text>
<text text-anchor="middle" x="233.5" y="-327.3" font-family="Helvetica,sans-Serif" font-size="14.00" fill="#000000">samples = 6</text>
<text text-anchor="middle" x="233.5" y="-312.3" font-family="Helvetica,sans-Serif" font-size="14.00" fill="#000000">value = [6, 0]</text>
</g>
<!-- 10&#45;&gt;18 -->
<g id="edge18" class="edge">
<title>10&#45;&gt;18</title>
<path fill="none" stroke="#000000" d="M192.4737,-400.9465C198.999,-389.8215 206.2569,-377.4473 212.8322,-366.237"/>
<polygon fill="#000000" stroke="#000000" points="215.8916,-367.9387 217.932,-357.5422 209.8536,-364.3971 215.8916,-367.9387"/>
</g>
<!-- 12 -->
<g id="node13" class="node">
<title>12</title>
<polygon fill="none" stroke="#000000" points="99,-253.5 0,-253.5 0,-200.5 99,-200.5 99,-253.5"/>
<text text-anchor="middle" x="49.5" y="-238.3" font-family="Helvetica,sans-Serif" font-size="14.00" fill="#000000">gini = 0.0</text>
<text text-anchor="middle" x="49.5" y="-223.3" font-family="Helvetica,sans-Serif" font-size="14.00" fill="#000000">samples = 2</text>
<text text-anchor="middle" x="49.5" y="-208.3" font-family="Helvetica,sans-Serif" font-size="14.00" fill="#000000">value = [0, 2]</text>
</g>
<!-- 11&#45;&gt;12 -->
<g id="edge12" class="edge">
<title>11&#45;&gt;12</title>
<path fill="none" stroke="#000000" d="M91.8714,-296.9465C85.1322,-285.8215 77.6363,-273.4473 70.8455,-262.237"/>
<polygon fill="#000000" stroke="#000000" points="73.7533,-260.2818 65.5784,-253.5422 67.7661,-263.9087 73.7533,-260.2818"/>
</g>
<!-- 13 -->
<g id="node14" class="node">
<title>13</title>
<polygon fill="none" stroke="#000000" points="233.5,-261 117.5,-261 117.5,-193 233.5,-193 233.5,-261"/>
<text text-anchor="middle" x="175.5" y="-245.8" font-family="Helvetica,sans-Serif" font-size="14.00" fill="#000000">X[6] &lt;= &#45;34.495</text>
<text text-anchor="middle" x="175.5" y="-230.8" font-family="Helvetica,sans-Serif" font-size="14.00" fill="#000000">gini = 0.245</text>
<text text-anchor="middle" x="175.5" y="-215.8" font-family="Helvetica,sans-Serif" font-size="14.00" fill="#000000">samples = 7</text>
<text text-anchor="middle" x="175.5" y="-200.8" font-family="Helvetica,sans-Serif" font-size="14.00" fill="#000000">value = [6, 1]</text>
</g>
<!-- 11&#45;&gt;13 -->
<g id="edge13" class="edge">
<title>11&#45;&gt;13</title>
<path fill="none" stroke="#000000" d="M133.1286,-296.9465C138.3499,-288.3271 144.0255,-278.9579 149.4755,-269.9611"/>
<polygon fill="#000000" stroke="#000000" points="152.6374,-271.4965 154.8251,-261.13 146.6503,-267.8697 152.6374,-271.4965"/>
</g>
<!-- 14 -->
<g id="node15" class="node">
<title>14</title>
<polygon fill="none" stroke="#000000" points="167,-157 64,-157 64,-89 167,-89 167,-157"/>
<text text-anchor="middle" x="115.5" y="-141.8" font-family="Helvetica,sans-Serif" font-size="14.00" fill="#000000">X[3] &lt;= 5.695</text>
<text text-anchor="middle" x="115.5" y="-126.8" font-family="Helvetica,sans-Serif" font-size="14.00" fill="#000000">gini = 0.444</text>
<text text-anchor="middle" x="115.5" y="-111.8" font-family="Helvetica,sans-Serif" font-size="14.00" fill="#000000">samples = 3</text>
<text text-anchor="middle" x="115.5" y="-96.8" font-family="Helvetica,sans-Serif" font-size="14.00" fill="#000000">value = [2, 1]</text>
</g>
<!-- 13&#45;&gt;14 -->
<g id="edge14" class="edge">
<title>13&#45;&gt;14</title>
<path fill="none" stroke="#000000" d="M155.8538,-192.9465C150.881,-184.3271 145.4757,-174.9579 140.2852,-165.9611"/>
<polygon fill="#000000" stroke="#000000" points="143.2193,-164.0428 135.1904,-157.13 137.156,-167.5409 143.2193,-164.0428"/>
</g>
<!-- 17 -->
<g id="node18" class="node">
<title>17</title>
<polygon fill="none" stroke="#000000" points="284,-149.5 185,-149.5 185,-96.5 284,-96.5 284,-149.5"/>
<text text-anchor="middle" x="234.5" y="-134.3" font-family="Helvetica,sans-Serif" font-size="14.00" fill="#000000">gini = 0.0</text>
<text text-anchor="middle" x="234.5" y="-119.3" font-family="Helvetica,sans-Serif" font-size="14.00" fill="#000000">samples = 4</text>
<text text-anchor="middle" x="234.5" y="-104.3" font-family="Helvetica,sans-Serif" font-size="14.00" fill="#000000">value = [4, 0]</text>
</g>
<!-- 13&#45;&gt;17 -->
<g id="edge17" class="edge">
<title>13&#45;&gt;17</title>
<path fill="none" stroke="#000000" d="M194.8188,-192.9465C201.0676,-181.9316 208.0112,-169.6922 214.3207,-158.5703"/>
<polygon fill="#000000" stroke="#000000" points="217.5523,-159.967 219.4424,-149.5422 211.4638,-156.513 217.5523,-159.967"/>
</g>
<!-- 15 -->
<g id="node16" class="node">
<title>15</title>
<polygon fill="none" stroke="#000000" points="107,-53 8,-53 8,0 107,0 107,-53"/>
<text text-anchor="middle" x="57.5" y="-37.8" font-family="Helvetica,sans-Serif" font-size="14.00" fill="#000000">gini = 0.0</text>
<text text-anchor="middle" x="57.5" y="-22.8" font-family="Helvetica,sans-Serif" font-size="14.00" fill="#000000">samples = 2</text>
<text text-anchor="middle" x="57.5" y="-7.8" font-family="Helvetica,sans-Serif" font-size="14.00" fill="#000000">value = [2, 0]</text>
</g>
<!-- 14&#45;&gt;15 -->
<g id="edge15" class="edge">
<title>14&#45;&gt;15</title>
<path fill="none" stroke="#000000" d="M95.0514,-88.9777C89.7678,-80.187 84.0684,-70.7044 78.7452,-61.8477"/>
<polygon fill="#000000" stroke="#000000" points="81.7282,-60.0165 73.5768,-53.2485 75.7285,-63.6225 81.7282,-60.0165"/>
</g>
<!-- 16 -->
<g id="node17" class="node">
<title>16</title>
<polygon fill="none" stroke="#000000" points="224,-53 125,-53 125,0 224,0 224,-53"/>
<text text-anchor="middle" x="174.5" y="-37.8" font-family="Helvetica,sans-Serif" font-size="14.00" fill="#000000">gini = 0.0</text>
<text text-anchor="middle" x="174.5" y="-22.8" font-family="Helvetica,sans-Serif" font-size="14.00" fill="#000000">samples = 1</text>
<text text-anchor="middle" x="174.5" y="-7.8" font-family="Helvetica,sans-Serif" font-size="14.00" fill="#000000">value = [0, 1]</text>
</g>
<!-- 14&#45;&gt;16 -->
<g id="edge16" class="edge">
<title>14&#45;&gt;16</title>
<path fill="none" stroke="#000000" d="M136.3012,-88.9777C141.6758,-80.187 147.4735,-70.7044 152.8885,-61.8477"/>
<polygon fill="#000000" stroke="#000000" points="155.9158,-63.6059 158.146,-53.2485 149.9436,-59.9545 155.9158,-63.6059"/>
</g>
<!-- 21 -->
<g id="node22" class="node">
<title>21</title>
<polygon fill="none" stroke="#000000" points="467,-461.5 368,-461.5 368,-408.5 467,-408.5 467,-461.5"/>
<text text-anchor="middle" x="417.5" y="-446.3" font-family="Helvetica,sans-Serif" font-size="14.00" fill="#000000">gini = 0.0</text>
<text text-anchor="middle" x="417.5" y="-431.3" font-family="Helvetica,sans-Serif" font-size="14.00" fill="#000000">samples = 7</text>
<text text-anchor="middle" x="417.5" y="-416.3" font-family="Helvetica,sans-Serif" font-size="14.00" fill="#000000">value = [0, 7]</text>
</g>
<!-- 20&#45;&gt;21 -->
<g id="edge21" class="edge">
<title>20&#45;&gt;21</title>
<path fill="none" stroke="#000000" d="M418.8451,-504.9465C418.6397,-494.2621 418.412,-482.4254 418.2034,-471.5742"/>
<polygon fill="#000000" stroke="#000000" points="421.7021,-471.473 418.0104,-461.5422 414.7034,-471.6076 421.7021,-471.473"/>
</g>
<!-- 22 -->
<g id="node23" class="node">
<title>22</title>
<polygon fill="none" stroke="#000000" points="584,-461.5 485,-461.5 485,-408.5 584,-408.5 584,-461.5"/>
<text text-anchor="middle" x="534.5" y="-446.3" font-family="Helvetica,sans-Serif" font-size="14.00" fill="#000000">gini = 0.0</text>
<text text-anchor="middle" x="534.5" y="-431.3" font-family="Helvetica,sans-Serif" font-size="14.00" fill="#000000">samples = 2</text>
<text text-anchor="middle" x="534.5" y="-416.3" font-family="Helvetica,sans-Serif" font-size="14.00" fill="#000000">value = [2, 0]</text>
</g>
<!-- 20&#45;&gt;22 -->
<g id="edge22" class="edge">
<title>20&#45;&gt;22</title>
<path fill="none" stroke="#000000" d="M457.1553,-504.9465C470.1878,-493.1606 484.7706,-479.9726 497.7311,-468.2519"/>
<polygon fill="#000000" stroke="#000000" points="500.0812,-470.8456 505.1505,-461.5422 495.386,-465.6537 500.0812,-470.8456"/>
</g>
<!-- 24 -->
<g id="node25" class="node">
<title>24</title>
<polygon fill="none" stroke="#000000" points="651,-781 548,-781 548,-713 651,-713 651,-781"/>
<text text-anchor="middle" x="599.5" y="-765.8" font-family="Helvetica,sans-Serif" font-size="14.00" fill="#000000">X[0] &lt;= 2.928</text>
<text text-anchor="middle" x="599.5" y="-750.8" font-family="Helvetica,sans-Serif" font-size="14.00" fill="#000000">gini = 0.444</text>
<text text-anchor="middle" x="599.5" y="-735.8" font-family="Helvetica,sans-Serif" font-size="14.00" fill="#000000">samples = 3</text>
<text text-anchor="middle" x="599.5" y="-720.8" font-family="Helvetica,sans-Serif" font-size="14.00" fill="#000000">value = [2, 1]</text>
</g>
<!-- 23&#45;&gt;24 -->
<g id="edge24" class="edge">
<title>23&#45;&gt;24</title>
<path fill="none" stroke="#000000" d="M600.8451,-816.9465C600.688,-808.776 600.5179,-799.9318 600.3533,-791.3697"/>
<polygon fill="#000000" stroke="#000000" points="603.8481,-791.0608 600.1563,-781.13 596.8494,-791.1955 603.8481,-791.0608"/>
</g>
<!-- 27 -->
<g id="node28" class="node">
<title>27</title>
<polygon fill="none" stroke="#000000" points="780,-781 669,-781 669,-713 780,-713 780,-781"/>
<text text-anchor="middle" x="724.5" y="-765.8" font-family="Helvetica,sans-Serif" font-size="14.00" fill="#000000">X[5] &lt;= 21.655</text>
<text text-anchor="middle" x="724.5" y="-750.8" font-family="Helvetica,sans-Serif" font-size="14.00" fill="#000000">gini = 0.298</text>
<text text-anchor="middle" x="724.5" y="-735.8" font-family="Helvetica,sans-Serif" font-size="14.00" fill="#000000">samples = 11</text>
<text text-anchor="middle" x="724.5" y="-720.8" font-family="Helvetica,sans-Serif" font-size="14.00" fill="#000000">value = [2, 9]</text>
</g>
<!-- 23&#45;&gt;27 -->
<g id="edge27" class="edge">
<title>23&#45;&gt;27</title>
<path fill="none" stroke="#000000" d="M641.7748,-816.9465C652.8184,-807.6088 664.9028,-797.3911 676.3404,-787.7203"/>
<polygon fill="#000000" stroke="#000000" points="678.7583,-790.2594 684.1347,-781.13 674.2386,-784.914 678.7583,-790.2594"/>
</g>
<!-- 25 -->
<g id="node26" class="node">
<title>25</title>
<polygon fill="none" stroke="#000000" points="533,-669.5 434,-669.5 434,-616.5 533,-616.5 533,-669.5"/>
<text text-anchor="middle" x="483.5" y="-654.3" font-family="Helvetica,sans-Serif" font-size="14.00" fill="#000000">gini = 0.0</text>
<text text-anchor="middle" x="483.5" y="-639.3" font-family="Helvetica,sans-Serif" font-size="14.00" fill="#000000">samples = 1</text>
<text text-anchor="middle" x="483.5" y="-624.3" font-family="Helvetica,sans-Serif" font-size="14.00" fill="#000000">value = [0, 1]</text>
</g>
<!-- 24&#45;&gt;25 -->
<g id="edge25" class="edge">
<title>24&#45;&gt;25</title>
<path fill="none" stroke="#000000" d="M561.5173,-712.9465C548.3714,-701.1606 533.6618,-687.9726 520.5887,-676.2519"/>
<polygon fill="#000000" stroke="#000000" points="522.8869,-673.6116 513.1047,-669.5422 518.214,-678.8236 522.8869,-673.6116"/>
</g>
<!-- 26 -->
<g id="node27" class="node">
<title>26</title>
<polygon fill="none" stroke="#000000" points="650,-669.5 551,-669.5 551,-616.5 650,-616.5 650,-669.5"/>
<text text-anchor="middle" x="600.5" y="-654.3" font-family="Helvetica,sans-Serif" font-size="14.00" fill="#000000">gini = 0.0</text>
<text text-anchor="middle" x="600.5" y="-639.3" font-family="Helvetica,sans-Serif" font-size="14.00" fill="#000000">samples = 2</text>
<text text-anchor="middle" x="600.5" y="-624.3" font-family="Helvetica,sans-Serif" font-size="14.00" fill="#000000">value = [2, 0]</text>
</g>
<!-- 24&#45;&gt;26 -->
<g id="edge26" class="edge">
<title>24&#45;&gt;26</title>
<path fill="none" stroke="#000000" d="M599.8274,-712.9465C599.9302,-702.2621 600.044,-690.4254 600.1483,-679.5742"/>
<polygon fill="#000000" stroke="#000000" points="603.6484,-679.5754 600.2448,-669.5422 596.6487,-679.508 603.6484,-679.5754"/>
</g>
<!-- 28 -->
<g id="node29" class="node">
<title>28</title>
<polygon fill="none" stroke="#000000" points="779,-677 668,-677 668,-609 779,-609 779,-677"/>
<text text-anchor="middle" x="723.5" y="-661.8" font-family="Helvetica,sans-Serif" font-size="14.00" fill="#000000">X[3] &lt;= 15.321</text>
<text text-anchor="middle" x="723.5" y="-646.8" font-family="Helvetica,sans-Serif" font-size="14.00" fill="#000000">gini = 0.18</text>
<text text-anchor="middle" x="723.5" y="-631.8" font-family="Helvetica,sans-Serif" font-size="14.00" fill="#000000">samples = 10</text>
<text text-anchor="middle" x="723.5" y="-616.8" font-family="Helvetica,sans-Serif" font-size="14.00" fill="#000000">value = [1, 9]</text>
</g>
<!-- 27&#45;&gt;28 -->
<g id="edge28" class="edge">
<title>27&#45;&gt;28</title>
<path fill="none" stroke="#000000" d="M724.1726,-712.9465C724.094,-704.776 724.009,-695.9318 723.9266,-687.3697"/>
<polygon fill="#000000" stroke="#000000" points="727.4243,-687.0958 723.8282,-677.13 720.4246,-687.1632 727.4243,-687.0958"/>
</g>
<!-- 33 -->
<g id="node34" class="node">
<title>33</title>
<polygon fill="none" stroke="#000000" points="896,-669.5 797,-669.5 797,-616.5 896,-616.5 896,-669.5"/>
<text text-anchor="middle" x="846.5" y="-654.3" font-family="Helvetica,sans-Serif" font-size="14.00" fill="#000000">gini = 0.0</text>
<text text-anchor="middle" x="846.5" y="-639.3" font-family="Helvetica,sans-Serif" font-size="14.00" fill="#000000">samples = 1</text>
<text text-anchor="middle" x="846.5" y="-624.3" font-family="Helvetica,sans-Serif" font-size="14.00" fill="#000000">value = [1, 0]</text>
</g>
<!-- 27&#45;&gt;33 -->
<g id="edge33" class="edge">
<title>27&#45;&gt;33</title>
<path fill="none" stroke="#000000" d="M764.4474,-712.9465C778.2732,-701.1606 793.7436,-687.9726 807.4929,-676.2519"/>
<polygon fill="#000000" stroke="#000000" points="810.0244,-678.6931 815.364,-669.5422 805.4832,-673.366 810.0244,-678.6931"/>
</g>
<!-- 29 -->
<g id="node30" class="node">
<title>29</title>
<polygon fill="none" stroke="#000000" points="713,-565.5 614,-565.5 614,-512.5 713,-512.5 713,-565.5"/>
<text text-anchor="middle" x="663.5" y="-550.3" font-family="Helvetica,sans-Serif" font-size="14.00" fill="#000000">gini = 0.0</text>
<text text-anchor="middle" x="663.5" y="-535.3" font-family="Helvetica,sans-Serif" font-size="14.00" fill="#000000">samples = 8</text>
<text text-anchor="middle" x="663.5" y="-520.3" font-family="Helvetica,sans-Serif" font-size="14.00" fill="#000000">value = [0, 8]</text>
</g>
<!-- 28&#45;&gt;29 -->
<g id="edge29" class="edge">
<title>28&#45;&gt;29</title>
<path fill="none" stroke="#000000" d="M703.8538,-608.9465C697.4355,-597.8215 690.2965,-585.4473 683.829,-574.237"/>
<polygon fill="#000000" stroke="#000000" points="686.8417,-572.455 678.8128,-565.5422 680.7784,-575.9531 686.8417,-572.455"/>
</g>
<!-- 30 -->
<g id="node31" class="node">
<title>30</title>
<polygon fill="none" stroke="#000000" points="834,-573 731,-573 731,-505 834,-505 834,-573"/>
<text text-anchor="middle" x="782.5" y="-557.8" font-family="Helvetica,sans-Serif" font-size="14.00" fill="#000000">X[2] &lt;= 4.919</text>
<text text-anchor="middle" x="782.5" y="-542.8" font-family="Helvetica,sans-Serif" font-size="14.00" fill="#000000">gini = 0.5</text>
<text text-anchor="middle" x="782.5" y="-527.8" font-family="Helvetica,sans-Serif" font-size="14.00" fill="#000000">samples = 2</text>
<text text-anchor="middle" x="782.5" y="-512.8" font-family="Helvetica,sans-Serif" font-size="14.00" fill="#000000">value = [1, 1]</text>
</g>
<!-- 28&#45;&gt;30 -->
<g id="edge30" class="edge">
<title>28&#45;&gt;30</title>
<path fill="none" stroke="#000000" d="M742.8188,-608.9465C747.7087,-600.3271 753.0239,-590.9579 758.1278,-581.9611"/>
<polygon fill="#000000" stroke="#000000" points="761.2476,-583.5549 763.1378,-573.13 755.1592,-580.1008 761.2476,-583.5549"/>
</g>
<!-- 31 -->
<g id="node32" class="node">
<title>31</title>
<polygon fill="none" stroke="#000000" points="774,-461.5 675,-461.5 675,-408.5 774,-408.5 774,-461.5"/>
<text text-anchor="middle" x="724.5" y="-446.3" font-family="Helvetica,sans-Serif" font-size="14.00" fill="#000000">gini = 0.0</text>
<text text-anchor="middle" x="724.5" y="-431.3" font-family="Helvetica,sans-Serif" font-size="14.00" fill="#000000">samples = 1</text>
<text text-anchor="middle" x="724.5" y="-416.3" font-family="Helvetica,sans-Serif" font-size="14.00" fill="#000000">value = [0, 1]</text>
</g>
<!-- 30&#45;&gt;31 -->
<g id="edge31" class="edge">
<title>30&#45;&gt;31</title>
<path fill="none" stroke="#000000" d="M763.5086,-504.9465C757.3657,-493.9316 750.5399,-481.6922 744.3373,-470.5703"/>
<polygon fill="#000000" stroke="#000000" points="747.2299,-468.5711 739.3024,-461.5422 741.1163,-471.9806 747.2299,-468.5711"/>
</g>
<!-- 32 -->
<g id="node33" class="node">
<title>32</title>
<polygon fill="none" stroke="#000000" points="891,-461.5 792,-461.5 792,-408.5 891,-408.5 891,-461.5"/>
<text text-anchor="middle" x="841.5" y="-446.3" font-family="Helvetica,sans-Serif" font-size="14.00" fill="#000000">gini = 0.0</text>
<text text-anchor="middle" x="841.5" y="-431.3" font-family="Helvetica,sans-Serif" font-size="14.00" fill="#000000">samples = 1</text>
<text text-anchor="middle" x="841.5" y="-416.3" font-family="Helvetica,sans-Serif" font-size="14.00" fill="#000000">value = [1, 0]</text>
</g>
<!-- 30&#45;&gt;32 -->
<g id="edge32" class="edge">
<title>30&#45;&gt;32</title>
<path fill="none" stroke="#000000" d="M801.8188,-504.9465C808.0676,-493.9316 815.0112,-481.6922 821.3207,-470.5703"/>
<polygon fill="#000000" stroke="#000000" points="824.5523,-471.967 826.4424,-461.5422 818.4638,-468.513 824.5523,-471.967"/>
</g>
<!-- 35 -->
<g id="node36" class="node">
<title>35</title>
<polygon fill="none" stroke="#000000" points="842,-989 731,-989 731,-921 842,-921 842,-989"/>
<text text-anchor="middle" x="786.5" y="-973.8" font-family="Helvetica,sans-Serif" font-size="14.00" fill="#000000">X[0] &lt;= 16.113</text>
<text text-anchor="middle" x="786.5" y="-958.8" font-family="Helvetica,sans-Serif" font-size="14.00" fill="#000000">gini = 0.48</text>
<text text-anchor="middle" x="786.5" y="-943.8" font-family="Helvetica,sans-Serif" font-size="14.00" fill="#000000">samples = 5</text>
<text text-anchor="middle" x="786.5" y="-928.8" font-family="Helvetica,sans-Serif" font-size="14.00" fill="#000000">value = [3, 2]</text>
</g>
<!-- 34&#45;&gt;35 -->
<g id="edge35" class="edge">
<title>34&#45;&gt;35</title>
<path fill="none" stroke="#000000" d="M786.5,-1024.9465C786.5,-1016.776 786.5,-1007.9318 786.5,-999.3697"/>
<polygon fill="#000000" stroke="#000000" points="790.0001,-999.13 786.5,-989.13 783.0001,-999.13 790.0001,-999.13"/>
</g>
<!-- 38 -->
<g id="node39" class="node">
<title>38</title>
<polygon fill="none" stroke="#000000" points="1019,-989 908,-989 908,-921 1019,-921 1019,-989"/>
<text text-anchor="middle" x="963.5" y="-973.8" font-family="Helvetica,sans-Serif" font-size="14.00" fill="#000000">X[3] &lt;= 13.829</text>
<text text-anchor="middle" x="963.5" y="-958.8" font-family="Helvetica,sans-Serif" font-size="14.00" fill="#000000">gini = 0.269</text>
<text text-anchor="middle" x="963.5" y="-943.8" font-family="Helvetica,sans-Serif" font-size="14.00" fill="#000000">samples = 25</text>
<text text-anchor="middle" x="963.5" y="-928.8" font-family="Helvetica,sans-Serif" font-size="14.00" fill="#000000">value = [4, 21]</text>
</g>
<!-- 34&#45;&gt;38 -->
<g id="edge38" class="edge">
<title>34&#45;&gt;38</title>
<path fill="none" stroke="#000000" d="M844.4564,-1024.9465C861.9584,-1014.6628 881.277,-1003.3118 899.1683,-992.7994"/>
<polygon fill="#000000" stroke="#000000" points="900.9737,-995.7981 907.8225,-987.7145 897.4275,-989.7628 900.9737,-995.7981"/>
</g>
<!-- 36 -->
<g id="node37" class="node">
<title>36</title>
<polygon fill="none" stroke="#000000" points="773,-877.5 674,-877.5 674,-824.5 773,-824.5 773,-877.5"/>
<text text-anchor="middle" x="723.5" y="-862.3" font-family="Helvetica,sans-Serif" font-size="14.00" fill="#000000">gini = 0.0</text>
<text text-anchor="middle" x="723.5" y="-847.3" font-family="Helvetica,sans-Serif" font-size="14.00" fill="#000000">samples = 3</text>
<text text-anchor="middle" x="723.5" y="-832.3" font-family="Helvetica,sans-Serif" font-size="14.00" fill="#000000">value = [3, 0]</text>
</g>
<!-- 35&#45;&gt;36 -->
<g id="edge36" class="edge">
<title>35&#45;&gt;36</title>
<path fill="none" stroke="#000000" d="M765.8714,-920.9465C759.1322,-909.8215 751.6363,-897.4473 744.8455,-886.237"/>
<polygon fill="#000000" stroke="#000000" points="747.7533,-884.2818 739.5784,-877.5422 741.7661,-887.9087 747.7533,-884.2818"/>
</g>
<!-- 37 -->
<g id="node38" class="node">
<title>37</title>
<polygon fill="none" stroke="#000000" points="890,-877.5 791,-877.5 791,-824.5 890,-824.5 890,-877.5"/>
<text text-anchor="middle" x="840.5" y="-862.3" font-family="Helvetica,sans-Serif" font-size="14.00" fill="#000000">gini = 0.0</text>
<text text-anchor="middle" x="840.5" y="-847.3" font-family="Helvetica,sans-Serif" font-size="14.00" fill="#000000">samples = 2</text>
<text text-anchor="middle" x="840.5" y="-832.3" font-family="Helvetica,sans-Serif" font-size="14.00" fill="#000000">value = [0, 2]</text>
</g>
<!-- 35&#45;&gt;37 -->
<g id="edge37" class="edge">
<title>35&#45;&gt;37</title>
<path fill="none" stroke="#000000" d="M804.1816,-920.9465C809.9009,-909.9316 816.256,-897.6922 822.0308,-886.5703"/>
<polygon fill="#000000" stroke="#000000" points="825.2165,-888.03 826.7185,-877.5422 819.004,-884.8043 825.2165,-888.03"/>
</g>
<!-- 39 -->
<g id="node40" class="node">
<title>39</title>
<polygon fill="none" stroke="#000000" points="1015.5,-885 911.5,-885 911.5,-817 1015.5,-817 1015.5,-885"/>
<text text-anchor="middle" x="963.5" y="-869.8" font-family="Helvetica,sans-Serif" font-size="14.00" fill="#000000">X[2] &lt;= 9.553</text>
<text text-anchor="middle" x="963.5" y="-854.8" font-family="Helvetica,sans-Serif" font-size="14.00" fill="#000000">gini = 0.48</text>
<text text-anchor="middle" x="963.5" y="-839.8" font-family="Helvetica,sans-Serif" font-size="14.00" fill="#000000">samples = 10</text>
<text text-anchor="middle" x="963.5" y="-824.8" font-family="Helvetica,sans-Serif" font-size="14.00" fill="#000000">value = [4, 6]</text>
</g>
<!-- 38&#45;&gt;39 -->
<g id="edge39" class="edge">
<title>38&#45;&gt;39</title>
<path fill="none" stroke="#000000" d="M963.5,-920.9465C963.5,-912.776 963.5,-903.9318 963.5,-895.3697"/>
<polygon fill="#000000" stroke="#000000" points="967.0001,-895.13 963.5,-885.13 960.0001,-895.13 967.0001,-895.13"/>
</g>
<!-- 44 -->
<g id="node45" class="node">
<title>44</title>
<polygon fill="none" stroke="#000000" points="1141,-877.5 1034,-877.5 1034,-824.5 1141,-824.5 1141,-877.5"/>
<text text-anchor="middle" x="1087.5" y="-862.3" font-family="Helvetica,sans-Serif" font-size="14.00" fill="#000000">gini = 0.0</text>
<text text-anchor="middle" x="1087.5" y="-847.3" font-family="Helvetica,sans-Serif" font-size="14.00" fill="#000000">samples = 15</text>
<text text-anchor="middle" x="1087.5" y="-832.3" font-family="Helvetica,sans-Serif" font-size="14.00" fill="#000000">value = [0, 15]</text>
</g>
<!-- 38&#45;&gt;44 -->
<g id="edge44" class="edge">
<title>38&#45;&gt;44</title>
<path fill="none" stroke="#000000" d="M1004.1022,-920.9465C1018.1547,-909.1606 1033.8788,-895.9726 1047.8535,-884.2519"/>
<polygon fill="#000000" stroke="#000000" points="1050.4408,-886.65 1055.8536,-877.5422 1045.9425,-881.2866 1050.4408,-886.65"/>
</g>
<!-- 40 -->
<g id="node41" class="node">
<title>40</title>
<polygon fill="none" stroke="#000000" points="1017,-781 910,-781 910,-713 1017,-713 1017,-781"/>
<text text-anchor="middle" x="963.5" y="-765.8" font-family="Helvetica,sans-Serif" font-size="14.00" fill="#000000">X[7] &lt;= &#45;6.746</text>
<text text-anchor="middle" x="963.5" y="-750.8" font-family="Helvetica,sans-Serif" font-size="14.00" fill="#000000">gini = 0.32</text>
<text text-anchor="middle" x="963.5" y="-735.8" font-family="Helvetica,sans-Serif" font-size="14.00" fill="#000000">samples = 5</text>
<text text-anchor="middle" x="963.5" y="-720.8" font-family="Helvetica,sans-Serif" font-size="14.00" fill="#000000">value = [4, 1]</text>
</g>
<!-- 39&#45;&gt;40 -->
<g id="edge40" class="edge">
<title>39&#45;&gt;40</title>
<path fill="none" stroke="#000000" d="M963.5,-816.9465C963.5,-808.776 963.5,-799.9318 963.5,-791.3697"/>
<polygon fill="#000000" stroke="#000000" points="967.0001,-791.13 963.5,-781.13 960.0001,-791.13 967.0001,-791.13"/>
</g>
<!-- 43 -->
<g id="node44" class="node">
<title>43</title>
<polygon fill="none" stroke="#000000" points="1134,-773.5 1035,-773.5 1035,-720.5 1134,-720.5 1134,-773.5"/>
<text text-anchor="middle" x="1084.5" y="-758.3" font-family="Helvetica,sans-Serif" font-size="14.00" fill="#000000">gini = 0.0</text>
<text text-anchor="middle" x="1084.5" y="-743.3" font-family="Helvetica,sans-Serif" font-size="14.00" fill="#000000">samples = 5</text>
<text text-anchor="middle" x="1084.5" y="-728.3" font-family="Helvetica,sans-Serif" font-size="14.00" fill="#000000">value = [0, 5]</text>
</g>
<!-- 39&#45;&gt;43 -->
<g id="edge43" class="edge">
<title>39&#45;&gt;43</title>
<path fill="none" stroke="#000000" d="M1003.1199,-816.9465C1016.8324,-805.1606 1032.1761,-791.9726 1045.8127,-780.2519"/>
<polygon fill="#000000" stroke="#000000" points="1048.3169,-782.7147 1053.6192,-773.5422 1043.7541,-777.4061 1048.3169,-782.7147"/>
</g>
<!-- 41 -->
<g id="node42" class="node">
<title>41</title>
<polygon fill="none" stroke="#000000" points="1013,-669.5 914,-669.5 914,-616.5 1013,-616.5 1013,-669.5"/>
<text text-anchor="middle" x="963.5" y="-654.3" font-family="Helvetica,sans-Serif" font-size="14.00" fill="#000000">gini = 0.0</text>
<text text-anchor="middle" x="963.5" y="-639.3" font-family="Helvetica,sans-Serif" font-size="14.00" fill="#000000">samples = 1</text>
<text text-anchor="middle" x="963.5" y="-624.3" font-family="Helvetica,sans-Serif" font-size="14.00" fill="#000000">value = [0, 1]</text>
</g>
<!-- 40&#45;&gt;41 -->
<g id="edge41" class="edge">
<title>40&#45;&gt;41</title>
<path fill="none" stroke="#000000" d="M963.5,-712.9465C963.5,-702.2621 963.5,-690.4254 963.5,-679.5742"/>
<polygon fill="#000000" stroke="#000000" points="967.0001,-679.5421 963.5,-669.5422 960.0001,-679.5422 967.0001,-679.5421"/>
</g>
<!-- 42 -->
<g id="node43" class="node">
<title>42</title>
<polygon fill="none" stroke="#000000" points="1130,-669.5 1031,-669.5 1031,-616.5 1130,-616.5 1130,-669.5"/>
<text text-anchor="middle" x="1080.5" y="-654.3" font-family="Helvetica,sans-Serif" font-size="14.00" fill="#000000">gini = 0.0</text>
<text text-anchor="middle" x="1080.5" y="-639.3" font-family="Helvetica,sans-Serif" font-size="14.00" fill="#000000">samples = 4</text>
<text text-anchor="middle" x="1080.5" y="-624.3" font-family="Helvetica,sans-Serif" font-size="14.00" fill="#000000">value = [4, 0]</text>
</g>
<!-- 40&#45;&gt;42 -->
<g id="edge42" class="edge">
<title>40&#45;&gt;42</title>
<path fill="none" stroke="#000000" d="M1001.8102,-712.9465C1015.0694,-701.1606 1029.9058,-687.9726 1043.0916,-676.2519"/>
<polygon fill="#000000" stroke="#000000" points="1045.4912,-678.8018 1050.6401,-669.5422 1040.8407,-673.5699 1045.4912,-678.8018"/>
</g>
</g>
</svg>
