<?xml version="1.0" encoding="UTF-8" standalone="no"?>
<!DOCTYPE svg PUBLIC "-//W3C//DTD SVG 1.1//EN"
 "http://www.w3.org/Graphics/SVG/1.1/DTD/svg11.dtd">
<!-- Generated by graphviz version 2.40.1 (20161225.0304)
 -->
<!-- Title: Tree Pages: 1 -->
<svg width="1161pt" height="789pt"
 viewBox="0.00 0.00 1161.00 789.00" xmlns="http://www.w3.org/2000/svg" xmlns:xlink="http://www.w3.org/1999/xlink">
<g id="graph0" class="graph" transform="scale(1 1) rotate(0) translate(4 785)">
<title>Tree</title>
<polygon fill="#ffffff" stroke="transparent" points="-4,4 -4,-785 1157,-785 1157,4 -4,4"/>
<!-- 0 -->
<g id="node1" class="node">
<title>0</title>
<polygon fill="none" stroke="#000000" points="604.5,-781 488.5,-781 488.5,-713 604.5,-713 604.5,-781"/>
<text text-anchor="middle" x="546.5" y="-765.8" font-family="Helvetica,sans-Serif" font-size="14.00" fill="#000000">X[3] &lt;= 13.339</text>
<text text-anchor="middle" x="546.5" y="-750.8" font-family="Helvetica,sans-Serif" font-size="14.00" fill="#000000">gini = 0.481</text>
<text text-anchor="middle" x="546.5" y="-735.8" font-family="Helvetica,sans-Serif" font-size="14.00" fill="#000000">samples = 72</text>
<text text-anchor="middle" x="546.5" y="-720.8" font-family="Helvetica,sans-Serif" font-size="14.00" fill="#000000">value = [29, 43]</text>
</g>
<!-- 1 -->
<g id="node2" class="node">
<title>1</title>
<polygon fill="none" stroke="#000000" points="537.5,-677 421.5,-677 421.5,-609 537.5,-609 537.5,-677"/>
<text text-anchor="middle" x="479.5" y="-661.8" font-family="Helvetica,sans-Serif" font-size="14.00" fill="#000000">X[1] &lt;= 7.933</text>
<text text-anchor="middle" x="479.5" y="-646.8" font-family="Helvetica,sans-Serif" font-size="14.00" fill="#000000">gini = 0.497</text>
<text text-anchor="middle" x="479.5" y="-631.8" font-family="Helvetica,sans-Serif" font-size="14.00" fill="#000000">samples = 41</text>
<text text-anchor="middle" x="479.5" y="-616.8" font-family="Helvetica,sans-Serif" font-size="14.00" fill="#000000">value = [22, 19]</text>
</g>
<!-- 0&#45;&gt;1 -->
<g id="edge1" class="edge">
<title>0&#45;&gt;1</title>
<path fill="none" stroke="#000000" d="M524.5617,-712.9465C518.951,-704.2373 512.8471,-694.7626 506.9958,-685.6801"/>
<polygon fill="#000000" stroke="#000000" points="509.8457,-683.641 501.4876,-677.13 503.9611,-687.4321 509.8457,-683.641"/>
<text text-anchor="middle" x="496.2006" y="-697.8646" font-family="Helvetica,sans-Serif" font-size="14.00" fill="#000000">True</text>
</g>
<!-- 28 -->
<g id="node29" class="node">
<title>28</title>
<polygon fill="none" stroke="#000000" points="730.5,-677 614.5,-677 614.5,-609 730.5,-609 730.5,-677"/>
<text text-anchor="middle" x="672.5" y="-661.8" font-family="Helvetica,sans-Serif" font-size="14.00" fill="#000000">X[8] &lt;= &#45;34.184</text>
<text text-anchor="middle" x="672.5" y="-646.8" font-family="Helvetica,sans-Serif" font-size="14.00" fill="#000000">gini = 0.35</text>
<text text-anchor="middle" x="672.5" y="-631.8" font-family="Helvetica,sans-Serif" font-size="14.00" fill="#000000">samples = 31</text>
<text text-anchor="middle" x="672.5" y="-616.8" font-family="Helvetica,sans-Serif" font-size="14.00" fill="#000000">value = [7, 24]</text>
</g>
<!-- 0&#45;&gt;28 -->
<g id="edge28" class="edge">
<title>0&#45;&gt;28</title>
<path fill="none" stroke="#000000" d="M587.7571,-712.9465C599.0701,-703.6088 611.4492,-693.3911 623.1658,-683.7203"/>
<polygon fill="#000000" stroke="#000000" points="625.6659,-686.195 631.1502,-677.13 621.21,-680.7964 625.6659,-686.195"/>
<text text-anchor="middle" x="628.7698" y="-698.3164" font-family="Helvetica,sans-Serif" font-size="14.00" fill="#000000">False</text>
</g>
<!-- 2 -->
<g id="node3" class="node">
<title>2</title>
<polygon fill="none" stroke="#000000" points="403,-565.5 304,-565.5 304,-512.5 403,-512.5 403,-565.5"/>
<text text-anchor="middle" x="353.5" y="-550.3" font-family="Helvetica,sans-Serif" font-size="14.00" fill="#000000">gini = 0.0</text>
<text text-anchor="middle" x="353.5" y="-535.3" font-family="Helvetica,sans-Serif" font-size="14.00" fill="#000000">samples = 5</text>
<text text-anchor="middle" x="353.5" y="-520.3" font-family="Helvetica,sans-Serif" font-size="14.00" fill="#000000">value = [5, 0]</text>
</g>
<!-- 1&#45;&gt;2 -->
<g id="edge2" class="edge">
<title>1&#45;&gt;2</title>
<path fill="none" stroke="#000000" d="M438.2429,-608.9465C423.8303,-597.0504 407.6873,-583.726 393.3883,-571.9237"/>
<polygon fill="#000000" stroke="#000000" points="395.5971,-569.2086 385.6569,-565.5422 391.1411,-574.6071 395.5971,-569.2086"/>
</g>
<!-- 3 -->
<g id="node4" class="node">
<title>3</title>
<polygon fill="none" stroke="#000000" points="537.5,-573 421.5,-573 421.5,-505 537.5,-505 537.5,-573"/>
<text text-anchor="middle" x="479.5" y="-557.8" font-family="Helvetica,sans-Serif" font-size="14.00" fill="#000000">X[1] &lt;= 13.095</text>
<text text-anchor="middle" x="479.5" y="-542.8" font-family="Helvetica,sans-Serif" font-size="14.00" fill="#000000">gini = 0.498</text>
<text text-anchor="middle" x="479.5" y="-527.8" font-family="Helvetica,sans-Serif" font-size="14.00" fill="#000000">samples = 36</text>
<text text-anchor="middle" x="479.5" y="-512.8" font-family="Helvetica,sans-Serif" font-size="14.00" fill="#000000">value = [17, 19]</text>
</g>
<!-- 1&#45;&gt;3 -->
<g id="edge3" class="edge">
<title>1&#45;&gt;3</title>
<path fill="none" stroke="#000000" d="M479.5,-608.9465C479.5,-600.776 479.5,-591.9318 479.5,-583.3697"/>
<polygon fill="#000000" stroke="#000000" points="483.0001,-583.13 479.5,-573.13 476.0001,-583.13 483.0001,-583.13"/>
</g>
<!-- 4 -->
<g id="node5" class="node">
<title>4</title>
<polygon fill="none" stroke="#000000" points="349,-469 246,-469 246,-401 349,-401 349,-469"/>
<text text-anchor="middle" x="297.5" y="-453.8" font-family="Helvetica,sans-Serif" font-size="14.00" fill="#000000">X[3] &lt;= 4.817</text>
<text text-anchor="middle" x="297.5" y="-438.8" font-family="Helvetica,sans-Serif" font-size="14.00" fill="#000000">gini = 0.219</text>
<text text-anchor="middle" x="297.5" y="-423.8" font-family="Helvetica,sans-Serif" font-size="14.00" fill="#000000">samples = 8</text>
<text text-anchor="middle" x="297.5" y="-408.8" font-family="Helvetica,sans-Serif" font-size="14.00" fill="#000000">value = [1, 7]</text>
</g>
<!-- 3&#45;&gt;4 -->
<g id="edge4" class="edge">
<title>3&#45;&gt;4</title>
<path fill="none" stroke="#000000" d="M421.4137,-505.8078C401.2054,-494.2602 378.4943,-481.2825 358.0885,-469.622"/>
<polygon fill="#000000" stroke="#000000" points="359.6155,-466.4634 349.1965,-464.5409 356.1425,-472.5412 359.6155,-466.4634"/>
</g>
<!-- 9 -->
<g id="node10" class="node">
<title>9</title>
<polygon fill="none" stroke="#000000" points="537.5,-469 421.5,-469 421.5,-401 537.5,-401 537.5,-469"/>
<text text-anchor="middle" x="479.5" y="-453.8" font-family="Helvetica,sans-Serif" font-size="14.00" fill="#000000">X[2] &lt;= 10.386</text>
<text text-anchor="middle" x="479.5" y="-438.8" font-family="Helvetica,sans-Serif" font-size="14.00" fill="#000000">gini = 0.49</text>
<text text-anchor="middle" x="479.5" y="-423.8" font-family="Helvetica,sans-Serif" font-size="14.00" fill="#000000">samples = 28</text>
<text text-anchor="middle" x="479.5" y="-408.8" font-family="Helvetica,sans-Serif" font-size="14.00" fill="#000000">value = [16, 12]</text>
</g>
<!-- 3&#45;&gt;9 -->
<g id="edge9" class="edge">
<title>3&#45;&gt;9</title>
<path fill="none" stroke="#000000" d="M479.5,-504.9465C479.5,-496.776 479.5,-487.9318 479.5,-479.3697"/>
<polygon fill="#000000" stroke="#000000" points="483.0001,-479.13 479.5,-469.13 476.0001,-479.13 483.0001,-479.13"/>
</g>
<!-- 5 -->
<g id="node6" class="node">
<title>5</title>
<polygon fill="none" stroke="#000000" points="218,-365 115,-365 115,-297 218,-297 218,-365"/>
<text text-anchor="middle" x="166.5" y="-349.8" font-family="Helvetica,sans-Serif" font-size="14.00" fill="#000000">X[7] &lt;= 5.458</text>
<text text-anchor="middle" x="166.5" y="-334.8" font-family="Helvetica,sans-Serif" font-size="14.00" fill="#000000">gini = 0.5</text>
<text text-anchor="middle" x="166.5" y="-319.8" font-family="Helvetica,sans-Serif" font-size="14.00" fill="#000000">samples = 2</text>
<text text-anchor="middle" x="166.5" y="-304.8" font-family="Helvetica,sans-Serif" font-size="14.00" fill="#000000">value = [1, 1]</text>
</g>
<!-- 4&#45;&gt;5 -->
<g id="edge5" class="edge">
<title>4&#45;&gt;5</title>
<path fill="none" stroke="#000000" d="M254.6057,-400.9465C242.7307,-391.519 229.7259,-381.1946 217.4407,-371.4415"/>
<polygon fill="#000000" stroke="#000000" points="219.4989,-368.6066 209.4907,-365.13 215.1464,-374.089 219.4989,-368.6066"/>
</g>
<!-- 8 -->
<g id="node9" class="node">
<title>8</title>
<polygon fill="none" stroke="#000000" points="347,-357.5 248,-357.5 248,-304.5 347,-304.5 347,-357.5"/>
<text text-anchor="middle" x="297.5" y="-342.3" font-family="Helvetica,sans-Serif" font-size="14.00" fill="#000000">gini = 0.0</text>
<text text-anchor="middle" x="297.5" y="-327.3" font-family="Helvetica,sans-Serif" font-size="14.00" fill="#000000">samples = 6</text>
<text text-anchor="middle" x="297.5" y="-312.3" font-family="Helvetica,sans-Serif" font-size="14.00" fill="#000000">value = [0, 6]</text>
</g>
<!-- 4&#45;&gt;8 -->
<g id="edge8" class="edge">
<title>4&#45;&gt;8</title>
<path fill="none" stroke="#000000" d="M297.5,-400.9465C297.5,-390.2621 297.5,-378.4254 297.5,-367.5742"/>
<polygon fill="#000000" stroke="#000000" points="301.0001,-367.5421 297.5,-357.5422 294.0001,-367.5422 301.0001,-367.5421"/>
</g>
<!-- 6 -->
<g id="node7" class="node">
<title>6</title>
<polygon fill="none" stroke="#000000" points="99,-253.5 0,-253.5 0,-200.5 99,-200.5 99,-253.5"/>
<text text-anchor="middle" x="49.5" y="-238.3" font-family="Helvetica,sans-Serif" font-size="14.00" fill="#000000">gini = 0.0</text>
<text text-anchor="middle" x="49.5" y="-223.3" font-family="Helvetica,sans-Serif" font-size="14.00" fill="#000000">samples = 1</text>
<text text-anchor="middle" x="49.5" y="-208.3" font-family="Helvetica,sans-Serif" font-size="14.00" fill="#000000">value = [1, 0]</text>
</g>
<!-- 5&#45;&gt;6 -->
<g id="edge6" class="edge">
<title>5&#45;&gt;6</title>
<path fill="none" stroke="#000000" d="M128.1898,-296.9465C114.9306,-285.1606 100.0942,-271.9726 86.9084,-260.2519"/>
<polygon fill="#000000" stroke="#000000" points="89.1593,-257.5699 79.3599,-253.5422 84.5088,-262.8018 89.1593,-257.5699"/>
</g>
<!-- 7 -->
<g id="node8" class="node">
<title>7</title>
<polygon fill="none" stroke="#000000" points="216,-253.5 117,-253.5 117,-200.5 216,-200.5 216,-253.5"/>
<text text-anchor="middle" x="166.5" y="-238.3" font-family="Helvetica,sans-Serif" font-size="14.00" fill="#000000">gini = 0.0</text>
<text text-anchor="middle" x="166.5" y="-223.3" font-family="Helvetica,sans-Serif" font-size="14.00" fill="#000000">samples = 1</text>
<text text-anchor="middle" x="166.5" y="-208.3" font-family="Helvetica,sans-Serif" font-size="14.00" fill="#000000">value = [0, 1]</text>
</g>
<!-- 5&#45;&gt;7 -->
<g id="edge7" class="edge">
<title>5&#45;&gt;7</title>
<path fill="none" stroke="#000000" d="M166.5,-296.9465C166.5,-286.2621 166.5,-274.4254 166.5,-263.5742"/>
<polygon fill="#000000" stroke="#000000" points="170.0001,-263.5421 166.5,-253.5422 163.0001,-263.5422 170.0001,-263.5421"/>
</g>
<!-- 10 -->
<g id="node11" class="node">
<title>10</title>
<polygon fill="none" stroke="#000000" points="503,-365 396,-365 396,-297 503,-297 503,-365"/>
<text text-anchor="middle" x="449.5" y="-349.8" font-family="Helvetica,sans-Serif" font-size="14.00" fill="#000000">X[2] &lt;= 4.456</text>
<text text-anchor="middle" x="449.5" y="-334.8" font-family="Helvetica,sans-Serif" font-size="14.00" fill="#000000">gini = 0.415</text>
<text text-anchor="middle" x="449.5" y="-319.8" font-family="Helvetica,sans-Serif" font-size="14.00" fill="#000000">samples = 17</text>
<text text-anchor="middle" x="449.5" y="-304.8" font-family="Helvetica,sans-Serif" font-size="14.00" fill="#000000">value = [12, 5]</text>
</g>
<!-- 9&#45;&gt;10 -->
<g id="edge10" class="edge">
<title>9&#45;&gt;10</title>
<path fill="none" stroke="#000000" d="M469.6769,-400.9465C467.2682,-392.5965 464.6566,-383.5427 462.1362,-374.8056"/>
<polygon fill="#000000" stroke="#000000" points="465.4798,-373.7681 459.3452,-365.13 458.754,-375.7083 465.4798,-373.7681"/>
</g>
<!-- 21 -->
<g id="node22" class="node">
<title>21</title>
<polygon fill="none" stroke="#000000" points="664.5,-365 560.5,-365 560.5,-297 664.5,-297 664.5,-365"/>
<text text-anchor="middle" x="612.5" y="-349.8" font-family="Helvetica,sans-Serif" font-size="14.00" fill="#000000">X[0] &lt;= 6.966</text>
<text text-anchor="middle" x="612.5" y="-334.8" font-family="Helvetica,sans-Serif" font-size="14.00" fill="#000000">gini = 0.463</text>
<text text-anchor="middle" x="612.5" y="-319.8" font-family="Helvetica,sans-Serif" font-size="14.00" fill="#000000">samples = 11</text>
<text text-anchor="middle" x="612.5" y="-304.8" font-family="Helvetica,sans-Serif" font-size="14.00" fill="#000000">value = [4, 7]</text>
</g>
<!-- 9&#45;&gt;21 -->
<g id="edge21" class="edge">
<title>9&#45;&gt;21</title>
<path fill="none" stroke="#000000" d="M523.0492,-400.9465C535.1054,-391.519 548.3089,-381.1946 560.7816,-371.4415"/>
<polygon fill="#000000" stroke="#000000" points="563.1314,-374.0471 568.853,-365.13 558.8194,-368.5328 563.1314,-374.0471"/>
</g>
<!-- 11 -->
<g id="node12" class="node">
<title>11</title>
<polygon fill="none" stroke="#000000" points="333,-261 234,-261 234,-193 333,-193 333,-261"/>
<text text-anchor="middle" x="283.5" y="-245.8" font-family="Helvetica,sans-Serif" font-size="14.00" fill="#000000">X[3] &lt;= 4.88</text>
<text text-anchor="middle" x="283.5" y="-230.8" font-family="Helvetica,sans-Serif" font-size="14.00" fill="#000000">gini = 0.49</text>
<text text-anchor="middle" x="283.5" y="-215.8" font-family="Helvetica,sans-Serif" font-size="14.00" fill="#000000">samples = 7</text>
<text text-anchor="middle" x="283.5" y="-200.8" font-family="Helvetica,sans-Serif" font-size="14.00" fill="#000000">value = [3, 4]</text>
</g>
<!-- 10&#45;&gt;11 -->
<g id="edge11" class="edge">
<title>10&#45;&gt;11</title>
<path fill="none" stroke="#000000" d="M395.6046,-297.2342C378.5137,-286.5267 359.5377,-274.6381 342.1308,-263.7326"/>
<polygon fill="#000000" stroke="#000000" points="343.522,-260.474 333.1895,-258.1308 339.8055,-266.406 343.522,-260.474"/>
</g>
<!-- 16 -->
<g id="node17" class="node">
<title>16</title>
<polygon fill="none" stroke="#000000" points="501.5,-261 397.5,-261 397.5,-193 501.5,-193 501.5,-261"/>
<text text-anchor="middle" x="449.5" y="-245.8" font-family="Helvetica,sans-Serif" font-size="14.00" fill="#000000">X[3] &lt;= 8.797</text>
<text text-anchor="middle" x="449.5" y="-230.8" font-family="Helvetica,sans-Serif" font-size="14.00" fill="#000000">gini = 0.18</text>
<text text-anchor="middle" x="449.5" y="-215.8" font-family="Helvetica,sans-Serif" font-size="14.00" fill="#000000">samples = 10</text>
<text text-anchor="middle" x="449.5" y="-200.8" font-family="Helvetica,sans-Serif" font-size="14.00" fill="#000000">value = [9, 1]</text>
</g>
<!-- 10&#45;&gt;16 -->
<g id="edge16" class="edge">
<title>10&#45;&gt;16</title>
<path fill="none" stroke="#000000" d="M449.5,-296.9465C449.5,-288.776 449.5,-279.9318 449.5,-271.3697"/>
<polygon fill="#000000" stroke="#000000" points="453.0001,-271.13 449.5,-261.13 446.0001,-271.13 453.0001,-271.13"/>
</g>
<!-- 12 -->
<g id="node13" class="node">
<title>12</title>
<polygon fill="none" stroke="#000000" points="203,-149.5 104,-149.5 104,-96.5 203,-96.5 203,-149.5"/>
<text text-anchor="middle" x="153.5" y="-134.3" font-family="Helvetica,sans-Serif" font-size="14.00" fill="#000000">gini = 0.0</text>
<text text-anchor="middle" x="153.5" y="-119.3" font-family="Helvetica,sans-Serif" font-size="14.00" fill="#000000">samples = 2</text>
<text text-anchor="middle" x="153.5" y="-104.3" font-family="Helvetica,sans-Serif" font-size="14.00" fill="#000000">value = [2, 0]</text>
</g>
<!-- 11&#45;&gt;12 -->
<g id="edge12" class="edge">
<title>11&#45;&gt;12</title>
<path fill="none" stroke="#000000" d="M240.9331,-192.9465C226.063,-181.0504 209.4075,-167.726 194.6546,-155.9237"/>
<polygon fill="#000000" stroke="#000000" points="196.6729,-153.0561 186.6777,-149.5422 192.3,-158.5222 196.6729,-153.0561"/>
</g>
<!-- 13 -->
<g id="node14" class="node">
<title>13</title>
<polygon fill="none" stroke="#000000" points="332,-157 221,-157 221,-89 332,-89 332,-157"/>
<text text-anchor="middle" x="276.5" y="-141.8" font-family="Helvetica,sans-Serif" font-size="14.00" fill="#000000">X[3] &lt;= 10.165</text>
<text text-anchor="middle" x="276.5" y="-126.8" font-family="Helvetica,sans-Serif" font-size="14.00" fill="#000000">gini = 0.32</text>
<text text-anchor="middle" x="276.5" y="-111.8" font-family="Helvetica,sans-Serif" font-size="14.00" fill="#000000">samples = 5</text>
<text text-anchor="middle" x="276.5" y="-96.8" font-family="Helvetica,sans-Serif" font-size="14.00" fill="#000000">value = [1, 4]</text>
</g>
<!-- 11&#45;&gt;13 -->
<g id="edge13" class="edge">
<title>11&#45;&gt;13</title>
<path fill="none" stroke="#000000" d="M281.2079,-192.9465C280.658,-184.776 280.0627,-175.9318 279.4864,-167.3697"/>
<polygon fill="#000000" stroke="#000000" points="282.961,-166.8723 278.7972,-157.13 275.9768,-167.3425 282.961,-166.8723"/>
</g>
<!-- 14 -->
<g id="node15" class="node">
<title>14</title>
<polygon fill="none" stroke="#000000" points="213,-53 114,-53 114,0 213,0 213,-53"/>
<text text-anchor="middle" x="163.5" y="-37.8" font-family="Helvetica,sans-Serif" font-size="14.00" fill="#000000">gini = 0.0</text>
<text text-anchor="middle" x="163.5" y="-22.8" font-family="Helvetica,sans-Serif" font-size="14.00" fill="#000000">samples = 4</text>
<text text-anchor="middle" x="163.5" y="-7.8" font-family="Helvetica,sans-Serif" font-size="14.00" fill="#000000">value = [0, 4]</text>
</g>
<!-- 13&#45;&gt;14 -->
<g id="edge14" class="edge">
<title>13&#45;&gt;14</title>
<path fill="none" stroke="#000000" d="M236.6604,-88.9777C225.6161,-79.546 213.639,-69.3178 202.6352,-59.9208"/>
<polygon fill="#000000" stroke="#000000" points="204.6994,-57.081 194.8221,-53.2485 200.1536,-62.4041 204.6994,-57.081"/>
</g>
<!-- 15 -->
<g id="node16" class="node">
<title>15</title>
<polygon fill="none" stroke="#000000" points="330,-53 231,-53 231,0 330,0 330,-53"/>
<text text-anchor="middle" x="280.5" y="-37.8" font-family="Helvetica,sans-Serif" font-size="14.00" fill="#000000">gini = 0.0</text>
<text text-anchor="middle" x="280.5" y="-22.8" font-family="Helvetica,sans-Serif" font-size="14.00" fill="#000000">samples = 1</text>
<text text-anchor="middle" x="280.5" y="-7.8" font-family="Helvetica,sans-Serif" font-size="14.00" fill="#000000">value = [1, 0]</text>
</g>
<!-- 13&#45;&gt;15 -->
<g id="edge15" class="edge">
<title>13&#45;&gt;15</title>
<path fill="none" stroke="#000000" d="M277.9103,-88.9777C278.2519,-80.7364 278.6187,-71.887 278.9657,-63.5153"/>
<polygon fill="#000000" stroke="#000000" points="282.474,-63.3849 279.3913,-53.2485 275.48,-63.0949 282.474,-63.3849"/>
</g>
<!-- 17 -->
<g id="node18" class="node">
<title>17</title>
<polygon fill="none" stroke="#000000" points="449,-149.5 350,-149.5 350,-96.5 449,-96.5 449,-149.5"/>
<text text-anchor="middle" x="399.5" y="-134.3" font-family="Helvetica,sans-Serif" font-size="14.00" fill="#000000">gini = 0.0</text>
<text text-anchor="middle" x="399.5" y="-119.3" font-family="Helvetica,sans-Serif" font-size="14.00" fill="#000000">samples = 7</text>
<text text-anchor="middle" x="399.5" y="-104.3" font-family="Helvetica,sans-Serif" font-size="14.00" fill="#000000">value = [7, 0]</text>
</g>
<!-- 16&#45;&gt;17 -->
<g id="edge17" class="edge">
<title>16&#45;&gt;17</title>
<path fill="none" stroke="#000000" d="M433.1281,-192.9465C427.8325,-181.9316 421.9482,-169.6922 416.6011,-158.5703"/>
<polygon fill="#000000" stroke="#000000" points="419.748,-157.0381 412.2607,-149.5422 413.4393,-160.0712 419.748,-157.0381"/>
</g>
<!-- 18 -->
<g id="node19" class="node">
<title>18</title>
<polygon fill="none" stroke="#000000" points="574,-157 467,-157 467,-89 574,-89 574,-157"/>
<text text-anchor="middle" x="520.5" y="-141.8" font-family="Helvetica,sans-Serif" font-size="14.00" fill="#000000">X[7] &lt;= &#45;0.142</text>
<text text-anchor="middle" x="520.5" y="-126.8" font-family="Helvetica,sans-Serif" font-size="14.00" fill="#000000">gini = 0.444</text>
<text text-anchor="middle" x="520.5" y="-111.8" font-family="Helvetica,sans-Serif" font-size="14.00" fill="#000000">samples = 3</text>
<text text-anchor="middle" x="520.5" y="-96.8" font-family="Helvetica,sans-Serif" font-size="14.00" fill="#000000">value = [2, 1]</text>
</g>
<!-- 16&#45;&gt;18 -->
<g id="edge18" class="edge">
<title>16&#45;&gt;18</title>
<path fill="none" stroke="#000000" d="M472.7481,-192.9465C478.755,-184.1475 485.2955,-174.5672 491.5543,-165.3993"/>
<polygon fill="#000000" stroke="#000000" points="494.452,-167.3623 497.1997,-157.13 488.6707,-163.4155 494.452,-167.3623"/>
</g>
<!-- 19 -->
<g id="node20" class="node">
<title>19</title>
<polygon fill="none" stroke="#000000" points="455,-53 356,-53 356,0 455,0 455,-53"/>
<text text-anchor="middle" x="405.5" y="-37.8" font-family="Helvetica,sans-Serif" font-size="14.00" fill="#000000">gini = 0.0</text>
<text text-anchor="middle" x="405.5" y="-22.8" font-family="Helvetica,sans-Serif" font-size="14.00" fill="#000000">samples = 2</text>
<text text-anchor="middle" x="405.5" y="-7.8" font-family="Helvetica,sans-Serif" font-size="14.00" fill="#000000">value = [2, 0]</text>
</g>
<!-- 18&#45;&gt;19 -->
<g id="edge19" class="edge">
<title>18&#45;&gt;19</title>
<path fill="none" stroke="#000000" d="M479.9553,-88.9777C468.7155,-79.546 456.5264,-69.3178 445.3279,-59.9208"/>
<polygon fill="#000000" stroke="#000000" points="447.2866,-56.9954 437.3764,-53.2485 442.787,-62.3576 447.2866,-56.9954"/>
</g>
<!-- 20 -->
<g id="node21" class="node">
<title>20</title>
<polygon fill="none" stroke="#000000" points="572,-53 473,-53 473,0 572,0 572,-53"/>
<text text-anchor="middle" x="522.5" y="-37.8" font-family="Helvetica,sans-Serif" font-size="14.00" fill="#000000">gini = 0.0</text>
<text text-anchor="middle" x="522.5" y="-22.8" font-family="Helvetica,sans-Serif" font-size="14.00" fill="#000000">samples = 1</text>
<text text-anchor="middle" x="522.5" y="-7.8" font-family="Helvetica,sans-Serif" font-size="14.00" fill="#000000">value = [0, 1]</text>
</g>
<!-- 18&#45;&gt;20 -->
<g id="edge20" class="edge">
<title>18&#45;&gt;20</title>
<path fill="none" stroke="#000000" d="M521.2051,-88.9777C521.3759,-80.7364 521.5593,-71.887 521.7328,-63.5153"/>
<polygon fill="#000000" stroke="#000000" points="525.2376,-63.3189 521.9456,-53.2485 518.2391,-63.1738 525.2376,-63.3189"/>
</g>
<!-- 22 -->
<g id="node23" class="node">
<title>22</title>
<polygon fill="none" stroke="#000000" points="689,-261 586,-261 586,-193 689,-193 689,-261"/>
<text text-anchor="middle" x="637.5" y="-245.8" font-family="Helvetica,sans-Serif" font-size="14.00" fill="#000000">X[0] &lt;= 4.459</text>
<text text-anchor="middle" x="637.5" y="-230.8" font-family="Helvetica,sans-Serif" font-size="14.00" fill="#000000">gini = 0.444</text>
<text text-anchor="middle" x="637.5" y="-215.8" font-family="Helvetica,sans-Serif" font-size="14.00" fill="#000000">samples = 6</text>
<text text-anchor="middle" x="637.5" y="-200.8" font-family="Helvetica,sans-Serif" font-size="14.00" fill="#000000">value = [4, 2]</text>
</g>
<!-- 21&#45;&gt;22 -->
<g id="edge22" class="edge">
<title>21&#45;&gt;22</title>
<path fill="none" stroke="#000000" d="M620.6859,-296.9465C622.6716,-288.6863 624.8228,-279.7374 626.902,-271.0875"/>
<polygon fill="#000000" stroke="#000000" points="630.3614,-271.6711 629.2957,-261.13 623.5553,-270.035 630.3614,-271.6711"/>
</g>
<!-- 27 -->
<g id="node28" class="node">
<title>27</title>
<polygon fill="none" stroke="#000000" points="806,-253.5 707,-253.5 707,-200.5 806,-200.5 806,-253.5"/>
<text text-anchor="middle" x="756.5" y="-238.3" font-family="Helvetica,sans-Serif" font-size="14.00" fill="#000000">gini = 0.0</text>
<text text-anchor="middle" x="756.5" y="-223.3" font-family="Helvetica,sans-Serif" font-size="14.00" fill="#000000">samples = 5</text>
<text text-anchor="middle" x="756.5" y="-208.3" font-family="Helvetica,sans-Serif" font-size="14.00" fill="#000000">value = [0, 5]</text>
</g>
<!-- 21&#45;&gt;27 -->
<g id="edge27" class="edge">
<title>21&#45;&gt;27</title>
<path fill="none" stroke="#000000" d="M659.651,-296.9465C676.275,-284.9403 694.9135,-271.4791 711.3667,-259.5962"/>
<polygon fill="#000000" stroke="#000000" points="713.6917,-262.2345 719.7493,-253.5422 709.5933,-256.5597 713.6917,-262.2345"/>
</g>
<!-- 23 -->
<g id="node24" class="node">
<title>23</title>
<polygon fill="none" stroke="#000000" points="695,-157 592,-157 592,-89 695,-89 695,-157"/>
<text text-anchor="middle" x="643.5" y="-141.8" font-family="Helvetica,sans-Serif" font-size="14.00" fill="#000000">X[0] &lt;= 3.099</text>
<text text-anchor="middle" x="643.5" y="-126.8" font-family="Helvetica,sans-Serif" font-size="14.00" fill="#000000">gini = 0.444</text>
<text text-anchor="middle" x="643.5" y="-111.8" font-family="Helvetica,sans-Serif" font-size="14.00" fill="#000000">samples = 3</text>
<text text-anchor="middle" x="643.5" y="-96.8" font-family="Helvetica,sans-Serif" font-size="14.00" fill="#000000">value = [1, 2]</text>
</g>
<!-- 22&#45;&gt;23 -->
<g id="edge23" class="edge">
<title>22&#45;&gt;23</title>
<path fill="none" stroke="#000000" d="M639.4646,-192.9465C639.936,-184.776 640.4462,-175.9318 640.9402,-167.3697"/>
<polygon fill="#000000" stroke="#000000" points="644.4491,-167.315 641.531,-157.13 637.4607,-166.9118 644.4491,-167.315"/>
</g>
<!-- 26 -->
<g id="node27" class="node">
<title>26</title>
<polygon fill="none" stroke="#000000" points="812,-149.5 713,-149.5 713,-96.5 812,-96.5 812,-149.5"/>
<text text-anchor="middle" x="762.5" y="-134.3" font-family="Helvetica,sans-Serif" font-size="14.00" fill="#000000">gini = 0.0</text>
<text text-anchor="middle" x="762.5" y="-119.3" font-family="Helvetica,sans-Serif" font-size="14.00" fill="#000000">samples = 3</text>
<text text-anchor="middle" x="762.5" y="-104.3" font-family="Helvetica,sans-Serif" font-size="14.00" fill="#000000">value = [3, 0]</text>
</g>
<!-- 22&#45;&gt;26 -->
<g id="edge26" class="edge">
<title>22&#45;&gt;26</title>
<path fill="none" stroke="#000000" d="M678.4297,-192.9465C692.5955,-181.1606 708.4463,-167.9726 722.5338,-156.2519"/>
<polygon fill="#000000" stroke="#000000" points="725.1496,-158.6285 730.5984,-149.5422 720.6725,-153.2474 725.1496,-158.6285"/>
</g>
<!-- 24 -->
<g id="node25" class="node">
<title>24</title>
<polygon fill="none" stroke="#000000" points="692,-53 593,-53 593,0 692,0 692,-53"/>
<text text-anchor="middle" x="642.5" y="-37.8" font-family="Helvetica,sans-Serif" font-size="14.00" fill="#000000">gini = 0.0</text>
<text text-anchor="middle" x="642.5" y="-22.8" font-family="Helvetica,sans-Serif" font-size="14.00" fill="#000000">samples = 1</text>
<text text-anchor="middle" x="642.5" y="-7.8" font-family="Helvetica,sans-Serif" font-size="14.00" fill="#000000">value = [1, 0]</text>
</g>
<!-- 23&#45;&gt;24 -->
<g id="edge24" class="edge">
<title>23&#45;&gt;24</title>
<path fill="none" stroke="#000000" d="M643.1474,-88.9777C643.062,-80.7364 642.9703,-71.887 642.8836,-63.5153"/>
<polygon fill="#000000" stroke="#000000" points="646.3807,-63.2116 642.7772,-53.2485 639.3811,-63.2842 646.3807,-63.2116"/>
</g>
<!-- 25 -->
<g id="node26" class="node">
<title>25</title>
<polygon fill="none" stroke="#000000" points="809,-53 710,-53 710,0 809,0 809,-53"/>
<text text-anchor="middle" x="759.5" y="-37.8" font-family="Helvetica,sans-Serif" font-size="14.00" fill="#000000">gini = 0.0</text>
<text text-anchor="middle" x="759.5" y="-22.8" font-family="Helvetica,sans-Serif" font-size="14.00" fill="#000000">samples = 2</text>
<text text-anchor="middle" x="759.5" y="-7.8" font-family="Helvetica,sans-Serif" font-size="14.00" fill="#000000">value = [0, 2]</text>
</g>
<!-- 23&#45;&gt;25 -->
<g id="edge25" class="edge">
<title>23&#45;&gt;25</title>
<path fill="none" stroke="#000000" d="M684.3973,-88.9777C695.8449,-79.4545 708.2687,-69.1191 719.6545,-59.6473"/>
<polygon fill="#000000" stroke="#000000" points="721.8971,-62.3345 727.3464,-53.2485 717.4203,-56.9532 721.8971,-62.3345"/>
</g>
<!-- 29 -->
<g id="node30" class="node">
<title>29</title>
<polygon fill="none" stroke="#000000" points="724,-573 621,-573 621,-505 724,-505 724,-573"/>
<text text-anchor="middle" x="672.5" y="-557.8" font-family="Helvetica,sans-Serif" font-size="14.00" fill="#000000">X[2] &lt;= 3.225</text>
<text text-anchor="middle" x="672.5" y="-542.8" font-family="Helvetica,sans-Serif" font-size="14.00" fill="#000000">gini = 0.408</text>
<text text-anchor="middle" x="672.5" y="-527.8" font-family="Helvetica,sans-Serif" font-size="14.00" fill="#000000">samples = 7</text>
<text text-anchor="middle" x="672.5" y="-512.8" font-family="Helvetica,sans-Serif" font-size="14.00" fill="#000000">value = [5, 2]</text>
</g>
<!-- 28&#45;&gt;29 -->
<g id="edge29" class="edge">
<title>28&#45;&gt;29</title>
<path fill="none" stroke="#000000" d="M672.5,-608.9465C672.5,-600.776 672.5,-591.9318 672.5,-583.3697"/>
<polygon fill="#000000" stroke="#000000" points="676.0001,-583.13 672.5,-573.13 669.0001,-583.13 676.0001,-583.13"/>
</g>
<!-- 34 -->
<g id="node35" class="node">
<title>34</title>
<polygon fill="none" stroke="#000000" points="909,-573 802,-573 802,-505 909,-505 909,-573"/>
<text text-anchor="middle" x="855.5" y="-557.8" font-family="Helvetica,sans-Serif" font-size="14.00" fill="#000000">X[2] &lt;= 2.49</text>
<text text-anchor="middle" x="855.5" y="-542.8" font-family="Helvetica,sans-Serif" font-size="14.00" fill="#000000">gini = 0.153</text>
<text text-anchor="middle" x="855.5" y="-527.8" font-family="Helvetica,sans-Serif" font-size="14.00" fill="#000000">samples = 24</text>
<text text-anchor="middle" x="855.5" y="-512.8" font-family="Helvetica,sans-Serif" font-size="14.00" fill="#000000">value = [2, 22]</text>
</g>
<!-- 28&#45;&gt;34 -->
<g id="edge34" class="edge">
<title>28&#45;&gt;34</title>
<path fill="none" stroke="#000000" d="M730.6538,-609.9509C750.5282,-598.6561 772.8343,-585.9794 793.0342,-574.4997"/>
<polygon fill="#000000" stroke="#000000" points="794.884,-577.4742 801.8488,-569.4903 791.4253,-571.3883 794.884,-577.4742"/>
</g>
<!-- 30 -->
<g id="node31" class="node">
<title>30</title>
<polygon fill="none" stroke="#000000" points="659,-461.5 560,-461.5 560,-408.5 659,-408.5 659,-461.5"/>
<text text-anchor="middle" x="609.5" y="-446.3" font-family="Helvetica,sans-Serif" font-size="14.00" fill="#000000">gini = 0.0</text>
<text text-anchor="middle" x="609.5" y="-431.3" font-family="Helvetica,sans-Serif" font-size="14.00" fill="#000000">samples = 1</text>
<text text-anchor="middle" x="609.5" y="-416.3" font-family="Helvetica,sans-Serif" font-size="14.00" fill="#000000">value = [0, 1]</text>
</g>
<!-- 29&#45;&gt;30 -->
<g id="edge30" class="edge">
<title>29&#45;&gt;30</title>
<path fill="none" stroke="#000000" d="M651.8714,-504.9465C645.1322,-493.8215 637.6363,-481.4473 630.8455,-470.237"/>
<polygon fill="#000000" stroke="#000000" points="633.7533,-468.2818 625.5784,-461.5422 627.7661,-471.9087 633.7533,-468.2818"/>
</g>
<!-- 31 -->
<g id="node32" class="node">
<title>31</title>
<polygon fill="none" stroke="#000000" points="788,-469 677,-469 677,-401 788,-401 788,-469"/>
<text text-anchor="middle" x="732.5" y="-453.8" font-family="Helvetica,sans-Serif" font-size="14.00" fill="#000000">X[2] &lt;= 10.543</text>
<text text-anchor="middle" x="732.5" y="-438.8" font-family="Helvetica,sans-Serif" font-size="14.00" fill="#000000">gini = 0.278</text>
<text text-anchor="middle" x="732.5" y="-423.8" font-family="Helvetica,sans-Serif" font-size="14.00" fill="#000000">samples = 6</text>
<text text-anchor="middle" x="732.5" y="-408.8" font-family="Helvetica,sans-Serif" font-size="14.00" fill="#000000">value = [5, 1]</text>
</g>
<!-- 29&#45;&gt;31 -->
<g id="edge31" class="edge">
<title>29&#45;&gt;31</title>
<path fill="none" stroke="#000000" d="M692.1462,-504.9465C697.119,-496.3271 702.5243,-486.9579 707.7148,-477.9611"/>
<polygon fill="#000000" stroke="#000000" points="710.844,-479.5409 712.8096,-469.13 704.7807,-476.0428 710.844,-479.5409"/>
</g>
<!-- 32 -->
<g id="node33" class="node">
<title>32</title>
<polygon fill="none" stroke="#000000" points="782,-357.5 683,-357.5 683,-304.5 782,-304.5 782,-357.5"/>
<text text-anchor="middle" x="732.5" y="-342.3" font-family="Helvetica,sans-Serif" font-size="14.00" fill="#000000">gini = 0.0</text>
<text text-anchor="middle" x="732.5" y="-327.3" font-family="Helvetica,sans-Serif" font-size="14.00" fill="#000000">samples = 5</text>
<text text-anchor="middle" x="732.5" y="-312.3" font-family="Helvetica,sans-Serif" font-size="14.00" fill="#000000">value = [5, 0]</text>
</g>
<!-- 31&#45;&gt;32 -->
<g id="edge32" class="edge">
<title>31&#45;&gt;32</title>
<path fill="none" stroke="#000000" d="M732.5,-400.9465C732.5,-390.2621 732.5,-378.4254 732.5,-367.5742"/>
<polygon fill="#000000" stroke="#000000" points="736.0001,-367.5421 732.5,-357.5422 729.0001,-367.5422 736.0001,-367.5421"/>
</g>
<!-- 33 -->
<g id="node34" class="node">
<title>33</title>
<polygon fill="none" stroke="#000000" points="899,-357.5 800,-357.5 800,-304.5 899,-304.5 899,-357.5"/>
<text text-anchor="middle" x="849.5" y="-342.3" font-family="Helvetica,sans-Serif" font-size="14.00" fill="#000000">gini = 0.0</text>
<text text-anchor="middle" x="849.5" y="-327.3" font-family="Helvetica,sans-Serif" font-size="14.00" fill="#000000">samples = 1</text>
<text text-anchor="middle" x="849.5" y="-312.3" font-family="Helvetica,sans-Serif" font-size="14.00" fill="#000000">value = [0, 1]</text>
</g>
<!-- 31&#45;&gt;33 -->
<g id="edge33" class="edge">
<title>31&#45;&gt;33</title>
<path fill="none" stroke="#000000" d="M770.8102,-400.9465C784.0694,-389.1606 798.9058,-375.9726 812.0916,-364.2519"/>
<polygon fill="#000000" stroke="#000000" points="814.4912,-366.8018 819.6401,-357.5422 809.8407,-361.5699 814.4912,-366.8018"/>
</g>
<!-- 35 -->
<g id="node36" class="node">
<title>35</title>
<polygon fill="none" stroke="#000000" points="905,-461.5 806,-461.5 806,-408.5 905,-408.5 905,-461.5"/>
<text text-anchor="middle" x="855.5" y="-446.3" font-family="Helvetica,sans-Serif" font-size="14.00" fill="#000000">gini = 0.0</text>
<text text-anchor="middle" x="855.5" y="-431.3" font-family="Helvetica,sans-Serif" font-size="14.00" fill="#000000">samples = 1</text>
<text text-anchor="middle" x="855.5" y="-416.3" font-family="Helvetica,sans-Serif" font-size="14.00" fill="#000000">value = [1, 0]</text>
</g>
<!-- 34&#45;&gt;35 -->
<g id="edge35" class="edge">
<title>34&#45;&gt;35</title>
<path fill="none" stroke="#000000" d="M855.5,-504.9465C855.5,-494.2621 855.5,-482.4254 855.5,-471.5742"/>
<polygon fill="#000000" stroke="#000000" points="859.0001,-471.5421 855.5,-461.5422 852.0001,-471.5422 859.0001,-471.5421"/>
</g>
<!-- 36 -->
<g id="node37" class="node">
<title>36</title>
<polygon fill="none" stroke="#000000" points="1034,-469 923,-469 923,-401 1034,-401 1034,-469"/>
<text text-anchor="middle" x="978.5" y="-453.8" font-family="Helvetica,sans-Serif" font-size="14.00" fill="#000000">X[1] &lt;= 10.761</text>
<text text-anchor="middle" x="978.5" y="-438.8" font-family="Helvetica,sans-Serif" font-size="14.00" fill="#000000">gini = 0.083</text>
<text text-anchor="middle" x="978.5" y="-423.8" font-family="Helvetica,sans-Serif" font-size="14.00" fill="#000000">samples = 23</text>
<text text-anchor="middle" x="978.5" y="-408.8" font-family="Helvetica,sans-Serif" font-size="14.00" fill="#000000">value = [1, 22]</text>
</g>
<!-- 34&#45;&gt;36 -->
<g id="edge36" class="edge">
<title>34&#45;&gt;36</title>
<path fill="none" stroke="#000000" d="M895.7748,-504.9465C906.8184,-495.6088 918.9028,-485.3911 930.3404,-475.7203"/>
<polygon fill="#000000" stroke="#000000" points="932.7583,-478.2594 938.1347,-469.13 928.2386,-472.914 932.7583,-478.2594"/>
</g>
<!-- 37 -->
<g id="node38" class="node">
<title>37</title>
<polygon fill="none" stroke="#000000" points="1028,-365 921,-365 921,-297 1028,-297 1028,-365"/>
<text text-anchor="middle" x="974.5" y="-349.8" font-family="Helvetica,sans-Serif" font-size="14.00" fill="#000000">X[8] &lt;= &#45;3.595</text>
<text text-anchor="middle" x="974.5" y="-334.8" font-family="Helvetica,sans-Serif" font-size="14.00" fill="#000000">gini = 0.32</text>
<text text-anchor="middle" x="974.5" y="-319.8" font-family="Helvetica,sans-Serif" font-size="14.00" fill="#000000">samples = 5</text>
<text text-anchor="middle" x="974.5" y="-304.8" font-family="Helvetica,sans-Serif" font-size="14.00" fill="#000000">value = [1, 4]</text>
</g>
<!-- 36&#45;&gt;37 -->
<g id="edge37" class="edge">
<title>36&#45;&gt;37</title>
<path fill="none" stroke="#000000" d="M977.1903,-400.9465C976.876,-392.776 976.5358,-383.9318 976.2065,-375.3697"/>
<polygon fill="#000000" stroke="#000000" points="979.6945,-374.9881 975.8127,-365.13 972.6997,-375.2572 979.6945,-374.9881"/>
</g>
<!-- 40 -->
<g id="node41" class="node">
<title>40</title>
<polygon fill="none" stroke="#000000" points="1153,-357.5 1046,-357.5 1046,-304.5 1153,-304.5 1153,-357.5"/>
<text text-anchor="middle" x="1099.5" y="-342.3" font-family="Helvetica,sans-Serif" font-size="14.00" fill="#000000">gini = 0.0</text>
<text text-anchor="middle" x="1099.5" y="-327.3" font-family="Helvetica,sans-Serif" font-size="14.00" fill="#000000">samples = 18</text>
<text text-anchor="middle" x="1099.5" y="-312.3" font-family="Helvetica,sans-Serif" font-size="14.00" fill="#000000">value = [0, 18]</text>
</g>
<!-- 36&#45;&gt;40 -->
<g id="edge40" class="edge">
<title>36&#45;&gt;40</title>
<path fill="none" stroke="#000000" d="M1018.1199,-400.9465C1031.8324,-389.1606 1047.1761,-375.9726 1060.8127,-364.2519"/>
<polygon fill="#000000" stroke="#000000" points="1063.3169,-366.7147 1068.6192,-357.5422 1058.7541,-361.4061 1063.3169,-366.7147"/>
</g>
<!-- 38 -->
<g id="node39" class="node">
<title>38</title>
<polygon fill="none" stroke="#000000" points="965,-253.5 866,-253.5 866,-200.5 965,-200.5 965,-253.5"/>
<text text-anchor="middle" x="915.5" y="-238.3" font-family="Helvetica,sans-Serif" font-size="14.00" fill="#000000">gini = 0.0</text>
<text text-anchor="middle" x="915.5" y="-223.3" font-family="Helvetica,sans-Serif" font-size="14.00" fill="#000000">samples = 1</text>
<text text-anchor="middle" x="915.5" y="-208.3" font-family="Helvetica,sans-Serif" font-size="14.00" fill="#000000">value = [1, 0]</text>
</g>
<!-- 37&#45;&gt;38 -->
<g id="edge38" class="edge">
<title>37&#45;&gt;38</title>
<path fill="none" stroke="#000000" d="M955.1812,-296.9465C948.9324,-285.9316 941.9888,-273.6922 935.6793,-262.5703"/>
<polygon fill="#000000" stroke="#000000" points="938.5362,-260.513 930.5576,-253.5422 932.4477,-263.967 938.5362,-260.513"/>
</g>
<!-- 39 -->
<g id="node40" class="node">
<title>39</title>
<polygon fill="none" stroke="#000000" points="1082,-253.5 983,-253.5 983,-200.5 1082,-200.5 1082,-253.5"/>
<text text-anchor="middle" x="1032.5" y="-238.3" font-family="Helvetica,sans-Serif" font-size="14.00" fill="#000000">gini = 0.0</text>
<text text-anchor="middle" x="1032.5" y="-223.3" font-family="Helvetica,sans-Serif" font-size="14.00" fill="#000000">samples = 4</text>
<text text-anchor="middle" x="1032.5" y="-208.3" font-family="Helvetica,sans-Serif" font-size="14.00" fill="#000000">value = [0, 4]</text>
</g>
<!-- 37&#45;&gt;39 -->
<g id="edge39" class="edge">
<title>37&#45;&gt;39</title>
<path fill="none" stroke="#000000" d="M993.4914,-296.9465C999.6343,-285.9316 1006.4601,-273.6922 1012.6627,-262.5703"/>
<polygon fill="#000000" stroke="#000000" points="1015.8837,-263.9806 1017.6976,-253.5422 1009.7701,-260.5711 1015.8837,-263.9806"/>
</g>
</g>
</svg>
